solid OpenSCAD_Model
  facet normal -1 0 0
    outer loop
      vertex -6.5 -0.66 -3.5
      vertex -6.5 0.66 3.5
      vertex -6.5 0.66 -3.5
    endloop
  endfacet
  facet normal -1 -0 0
    outer loop
      vertex -6.5 0.66 3.5
      vertex -6.5 -0.66 -3.5
      vertex -6.5 -0.66 3.5
    endloop
  endfacet
  facet normal 0 0 1
    outer loop
      vertex -2.73 4.18 3.5
      vertex -4.05 2.86 3.5
      vertex -2.73 0.66 3.5
    endloop
  endfacet
  facet normal -0 0 1
    outer loop
      vertex -4.51278 4.18 3.5
      vertex -4.05 2.86 3.5
      vertex -2.73 4.18 3.5
    endloop
  endfacet
  facet normal -0 0 1
    outer loop
      vertex -5.3 2.96779 3.5
      vertex -4.05 2.86 3.5
      vertex -4.51278 4.18 3.5
    endloop
  endfacet
  facet normal 0 0 1
    outer loop
      vertex -4.05 2.86 3.5
      vertex -5.3 2.96779 3.5
      vertex -5.3 2.86 3.5
    endloop
  endfacet
  facet normal 0 0 1
    outer loop
      vertex 4.05 2.86 3.5
      vertex 5.3 2.96779 3.5
      vertex 4.51278 4.18 3.5
    endloop
  endfacet
  facet normal 0 0 1
    outer loop
      vertex 5.3 2.96779 3.5
      vertex 4.05 2.86 3.5
      vertex 5.3 2.86 3.5
    endloop
  endfacet
  facet normal 0 0 1
    outer loop
      vertex 2.73 0.66 3.5
      vertex 4.05 2.86 3.5
      vertex 2.73 4.18 3.5
    endloop
  endfacet
  facet normal -0 0 1
    outer loop
      vertex 2.73 4.18 3.5
      vertex 4.05 2.86 3.5
      vertex 4.51278 4.18 3.5
    endloop
  endfacet
  facet normal -0 0 1
    outer loop
      vertex 4.05 0.66 3.5
      vertex 6.5 -0.66 3.5
      vertex 6.5 0.66 3.5
    endloop
  endfacet
  facet normal 0 0 1
    outer loop
      vertex 4.05 2.86 3.5
      vertex 2.73 0.66 3.5
      vertex 4.05 0.66 3.5
    endloop
  endfacet
  facet normal -0 0 1
    outer loop
      vertex 2.73 0.66 3.5
      vertex 6.5 -0.66 3.5
      vertex 4.05 0.66 3.5
    endloop
  endfacet
  facet normal -0 0 1
    outer loop
      vertex -2.73 0.66 3.5
      vertex 6.5 -0.66 3.5
      vertex 2.73 0.66 3.5
    endloop
  endfacet
  facet normal 0 0 1
    outer loop
      vertex -4.05 0.66 3.5
      vertex -2.73 0.66 3.5
      vertex -4.05 2.86 3.5
    endloop
  endfacet
  facet normal 0 0 1
    outer loop
      vertex -6.5 -0.66 3.5
      vertex -2.73 0.66 3.5
      vertex -4.05 0.66 3.5
    endloop
  endfacet
  facet normal 0 0 1
    outer loop
      vertex -6.5 -0.66 3.5
      vertex -4.05 0.66 3.5
      vertex -6.5 0.66 3.5
    endloop
  endfacet
  facet normal 0 0 1
    outer loop
      vertex -2.73 0.66 3.5
      vertex -6.5 -0.66 3.5
      vertex 6.5 -0.66 3.5
    endloop
  endfacet
  facet normal 1 -0 0
    outer loop
      vertex 6.5 -0.66 3.5
      vertex 6.5 0.66 -3.5
      vertex 6.5 0.66 3.5
    endloop
  endfacet
  facet normal 1 0 0
    outer loop
      vertex 6.5 0.66 -3.5
      vertex 6.5 -0.66 3.5
      vertex 6.5 -0.66 -3.5
    endloop
  endfacet
  facet normal 0 1 -0
    outer loop
      vertex 6.5 0.66 -3.5
      vertex 4.05 0.66 3.5
      vertex 6.5 0.66 3.5
    endloop
  endfacet
  facet normal 0 1 0
    outer loop
      vertex 4.05 0.66 3.5
      vertex 6.5 0.66 -3.5
      vertex 4.05 0.66 -3.5
    endloop
  endfacet
  facet normal 0 1 -0
    outer loop
      vertex -4.05 0.66 -3.5
      vertex -6.5 0.66 3.5
      vertex -4.05 0.66 3.5
    endloop
  endfacet
  facet normal 0 1 0
    outer loop
      vertex -6.5 0.66 3.5
      vertex -4.05 0.66 -3.5
      vertex -6.5 0.66 -3.5
    endloop
  endfacet
  facet normal 0 1 -0
    outer loop
      vertex 2.73 0.66 -3.5
      vertex -2.73 0.66 3.5
      vertex 2.73 0.66 3.5
    endloop
  endfacet
  facet normal 0 1 0
    outer loop
      vertex -2.73 0.66 3.5
      vertex 2.73 0.66 -3.5
      vertex -2.73 0.66 -3.5
    endloop
  endfacet
  facet normal 0 0 -1
    outer loop
      vertex 6.5 -0.66 -3.5
      vertex 4.05 0.66 -3.5
      vertex 6.5 0.66 -3.5
    endloop
  endfacet
  facet normal 0 0 -1
    outer loop
      vertex 4.05 0.66 -3.5
      vertex 2.73 0.66 -3.5
      vertex 4.05 2.86 -3.5
    endloop
  endfacet
  facet normal 0 0 -1
    outer loop
      vertex 6.5 -0.66 -3.5
      vertex 2.73 0.66 -3.5
      vertex 4.05 0.66 -3.5
    endloop
  endfacet
  facet normal 0 0 -1
    outer loop
      vertex 6.5 -0.66 -3.5
      vertex -2.73 0.66 -3.5
      vertex 2.73 0.66 -3.5
    endloop
  endfacet
  facet normal 0 0 -1
    outer loop
      vertex -4.05 2.86 -3.5
      vertex -2.73 0.66 -3.5
      vertex -4.05 0.66 -3.5
    endloop
  endfacet
  facet normal 0 0 -1
    outer loop
      vertex -6.5 -0.66 -3.5
      vertex -2.73 0.66 -3.5
      vertex 6.5 -0.66 -3.5
    endloop
  endfacet
  facet normal -0 0 -1
    outer loop
      vertex -2.73 0.66 -3.5
      vertex -6.5 -0.66 -3.5
      vertex -4.05 0.66 -3.5
    endloop
  endfacet
  facet normal -0 0 -1
    outer loop
      vertex -4.05 0.66 -3.5
      vertex -6.5 -0.66 -3.5
      vertex -6.5 0.66 -3.5
    endloop
  endfacet
  facet normal 0 0 -1
    outer loop
      vertex 4.05 2.86 -3.5
      vertex 5.3 2.96779 -3.5
      vertex 5.3 2.86 -3.5
    endloop
  endfacet
  facet normal -0 0 -1
    outer loop
      vertex 5.3 2.96779 -3.5
      vertex 4.05 2.86 -3.5
      vertex 4.51278 4.18 -3.5
    endloop
  endfacet
  facet normal 0 0 -1
    outer loop
      vertex 2.73 4.18 -3.5
      vertex 4.05 2.86 -3.5
      vertex 2.73 0.66 -3.5
    endloop
  endfacet
  facet normal 0 0 -1
    outer loop
      vertex 4.05 2.86 -3.5
      vertex 2.73 4.18 -3.5
      vertex 4.51278 4.18 -3.5
    endloop
  endfacet
  facet normal 0 0 -1
    outer loop
      vertex -2.73 0.66 -3.5
      vertex -4.05 2.86 -3.5
      vertex -2.73 4.18 -3.5
    endloop
  endfacet
  facet normal 0 0 -1
    outer loop
      vertex -4.05 2.86 -3.5
      vertex -4.51278 4.18 -3.5
      vertex -2.73 4.18 -3.5
    endloop
  endfacet
  facet normal 0 0 -1
    outer loop
      vertex -5.3 2.96779 -3.5
      vertex -4.05 2.86 -3.5
      vertex -5.3 2.86 -3.5
    endloop
  endfacet
  facet normal 0 0 -1
    outer loop
      vertex -4.05 2.86 -3.5
      vertex -5.3 2.96779 -3.5
      vertex -4.51278 4.18 -3.5
    endloop
  endfacet
  facet normal 0 -1 0
    outer loop
      vertex -6.5 -0.66 -3.5
      vertex 6.5 -0.66 3.5
      vertex -6.5 -0.66 3.5
    endloop
  endfacet
  facet normal 0 -1 -0
    outer loop
      vertex 6.5 -0.66 3.5
      vertex -6.5 -0.66 -3.5
      vertex 6.5 -0.66 -3.5
    endloop
  endfacet
  facet normal -1 0 0
    outer loop
      vertex -4.05 0.66 -3.5
      vertex -4.05 2.86 3.5
      vertex -4.05 2.86 -3.5
    endloop
  endfacet
  facet normal -1 -0 0
    outer loop
      vertex -4.05 2.86 3.5
      vertex -4.05 0.66 -3.5
      vertex -4.05 0.66 3.5
    endloop
  endfacet
  facet normal 1 -0 0
    outer loop
      vertex -2.73 0.66 3.5
      vertex -2.73 4.18 -3.5
      vertex -2.73 4.18 3.5
    endloop
  endfacet
  facet normal 1 0 0
    outer loop
      vertex -2.73 4.18 -3.5
      vertex -2.73 0.66 3.5
      vertex -2.73 0.66 -3.5
    endloop
  endfacet
  facet normal 0 1 -0
    outer loop
      vertex -2.73 4.18 -3.5
      vertex -4.51278 4.18 3.5
      vertex -2.73 4.18 3.5
    endloop
  endfacet
  facet normal 0 1 0
    outer loop
      vertex -4.51278 4.18 3.5
      vertex -2.73 4.18 -3.5
      vertex -4.51278 4.18 -3.5
    endloop
  endfacet
  facet normal -1 0 0
    outer loop
      vertex 2.73 0.66 -3.5
      vertex 2.73 4.18 3.5
      vertex 2.73 4.18 -3.5
    endloop
  endfacet
  facet normal -1 -0 0
    outer loop
      vertex 2.73 4.18 3.5
      vertex 2.73 0.66 -3.5
      vertex 2.73 0.66 3.5
    endloop
  endfacet
  facet normal 1 -0 0
    outer loop
      vertex 4.05 0.66 3.5
      vertex 4.05 2.86 -3.5
      vertex 4.05 2.86 3.5
    endloop
  endfacet
  facet normal 1 0 0
    outer loop
      vertex 4.05 2.86 -3.5
      vertex 4.05 0.66 3.5
      vertex 4.05 0.66 -3.5
    endloop
  endfacet
  facet normal 0 1 -0
    outer loop
      vertex 4.51278 4.18 -3.5
      vertex 2.73 4.18 3.5
      vertex 4.51278 4.18 3.5
    endloop
  endfacet
  facet normal 0 1 0
    outer loop
      vertex 2.73 4.18 3.5
      vertex 4.51278 4.18 -3.5
      vertex 2.73 4.18 -3.5
    endloop
  endfacet
  facet normal -1 0 0
    outer loop
      vertex -5.3 2.86 -3.5
      vertex -5.3 2.96779 3.5
      vertex -5.3 2.96779 -3.5
    endloop
  endfacet
  facet normal -1 -0 0
    outer loop
      vertex -5.3 2.96779 3.5
      vertex -5.3 2.86 -3.5
      vertex -5.3 2.86 3.5
    endloop
  endfacet
  facet normal 0 -1 0
    outer loop
      vertex -5.3 2.86 -3.5
      vertex -4.05 2.86 3.5
      vertex -5.3 2.86 3.5
    endloop
  endfacet
  facet normal 0 -1 -0
    outer loop
      vertex -4.05 2.86 3.5
      vertex -5.3 2.86 -3.5
      vertex -4.05 2.86 -3.5
    endloop
  endfacet
  facet normal 1 -0 0
    outer loop
      vertex 5.3 2.86 3.5
      vertex 5.3 2.96779 -3.5
      vertex 5.3 2.96779 3.5
    endloop
  endfacet
  facet normal 1 0 0
    outer loop
      vertex 5.3 2.96779 -3.5
      vertex 5.3 2.86 3.5
      vertex 5.3 2.86 -3.5
    endloop
  endfacet
  facet normal 0 -1 0
    outer loop
      vertex 4.05 2.86 -3.5
      vertex 5.3 2.86 3.5
      vertex 4.05 2.86 3.5
    endloop
  endfacet
  facet normal 0 -1 -0
    outer loop
      vertex 5.3 2.86 3.5
      vertex 4.05 2.86 -3.5
      vertex 5.3 2.86 -3.5
    endloop
  endfacet
  facet normal -0.838671 0.544639 0
    outer loop
      vertex -5.3 2.96779 -3.5
      vertex -4.51278 4.18 3.5
      vertex -4.51278 4.18 -3.5
    endloop
  endfacet
  facet normal -0.838671 0.544639 0
    outer loop
      vertex -4.51278 4.18 3.5
      vertex -5.3 2.96779 -3.5
      vertex -5.3 2.96779 3.5
    endloop
  endfacet
  facet normal 0.838671 0.544639 0
    outer loop
      vertex 5.3 2.96779 3.5
      vertex 4.51278 4.18 -3.5
      vertex 4.51278 4.18 3.5
    endloop
  endfacet
  facet normal 0.838671 0.544639 0
    outer loop
      vertex 4.51278 4.18 -3.5
      vertex 5.3 2.96779 3.5
      vertex 5.3 2.96779 -3.5
    endloop
  endfacet
endsolid OpenSCAD_Model
