solid OpenSCAD_Model
  facet normal -1 0 0
    outer loop
      vertex -17 -15 -6.5
      vertex -17 5 5
      vertex -17 5 -6.5
    endloop
  endfacet
  facet normal -1 -0 0
    outer loop
      vertex -17 5 5
      vertex -17 -15 -6.5
      vertex -17 -15 5
    endloop
  endfacet
  facet normal 0.195092 0 0.980785
    outer loop
      vertex 15.5 5 6.5
      vertex 16.074 2 6.38582
      vertex 16.074 5 6.38582
    endloop
  endfacet
  facet normal 0.195092 0 0.980785
    outer loop
      vertex 16.074 2 6.38582
      vertex 15.5 5 6.5
      vertex 15.5 2 6.5
    endloop
  endfacet
  facet normal 0 -1 0
    outer loop
      vertex 17 2 5
      vertex 15.5 2 6.5
      vertex 15.2024 2 6.5
    endloop
  endfacet
  facet normal 0 -1 0
    outer loop
      vertex 15.5 2 6.5
      vertex 17 2 5
      vertex 16.074 2 6.38582
    endloop
  endfacet
  facet normal 0 -1 0
    outer loop
      vertex 16.074 2 6.38582
      vertex 17 2 5
      vertex 16.5607 2 6.06066
    endloop
  endfacet
  facet normal 0 -1 0
    outer loop
      vertex 16.5607 2 6.06066
      vertex 17 2 5
      vertex 16.8858 2 5.57402
    endloop
  endfacet
  facet normal 0 -1 0
    outer loop
      vertex 15.2024 2 -1.5
      vertex 17 2 5
      vertex 15.2024 2 6.5
    endloop
  endfacet
  facet normal 0 -1 0
    outer loop
      vertex 15.5 2 -1.5
      vertex 17 2 5
      vertex 15.2024 2 -1.5
    endloop
  endfacet
  facet normal 0 -1 0
    outer loop
      vertex 16.074 2 -1.61418
      vertex 17 2 5
      vertex 15.5 2 -1.5
    endloop
  endfacet
  facet normal 0 -1 0
    outer loop
      vertex 16.5607 2 -1.93934
      vertex 17 2 5
      vertex 16.074 2 -1.61418
    endloop
  endfacet
  facet normal 0 -1 0
    outer loop
      vertex 16.8858 2 -2.42597
      vertex 17 2 5
      vertex 16.5607 2 -1.93934
    endloop
  endfacet
  facet normal 0 -1 -0
    outer loop
      vertex 17 2 5
      vertex 16.8858 2 -2.42597
      vertex 17 2 -3
    endloop
  endfacet
  facet normal 0 -1 0
    outer loop
      vertex -9.92597 2 6.38582
      vertex 2.79762 2 6.5
      vertex -10.5 2 6.5
    endloop
  endfacet
  facet normal 0 -1 0
    outer loop
      vertex -9.43934 2 6.06066
      vertex 2.79762 2 6.5
      vertex -9.92597 2 6.38582
    endloop
  endfacet
  facet normal 0 -1 0
    outer loop
      vertex -9.11418 2 5.57402
      vertex 2.79762 2 6.5
      vertex -9.43934 2 6.06066
    endloop
  endfacet
  facet normal 0 -1 0
    outer loop
      vertex -9 2 5
      vertex 2.79762 2 6.5
      vertex -9.11418 2 5.57402
    endloop
  endfacet
  facet normal 0 -1 0
    outer loop
      vertex 2.79762 2 -1.5
      vertex -9 2 5
      vertex -9 2 -1.5
    endloop
  endfacet
  facet normal 0 -1 0
    outer loop
      vertex -9 2 5
      vertex 2.79762 2 -1.5
      vertex 2.79762 2 6.5
    endloop
  endfacet
  facet normal 0 -1 0
    outer loop
      vertex 7.20238 2 -1.5
      vertex 10.7976 2 6.5
      vertex 7.20238 2 6.5
    endloop
  endfacet
  facet normal 0 -1 -0
    outer loop
      vertex 10.7976 2 6.5
      vertex 7.20238 2 -1.5
      vertex 10.7976 2 -1.5
    endloop
  endfacet
  facet normal 1 0 0
    outer loop
      vertex 17 2 -3
      vertex 17 5 5
      vertex 17 2 5
    endloop
  endfacet
  facet normal 1 0 0
    outer loop
      vertex 17 5 5
      vertex 17 2 -3
      vertex 17 5 -6.5
    endloop
  endfacet
  facet normal 1 0 0
    outer loop
      vertex 17 -5 -6.5
      vertex 17 2 -3
      vertex 17 -5 -3
    endloop
  endfacet
  facet normal 1 0 0
    outer loop
      vertex 17 2 -3
      vertex 17 -5 -6.5
      vertex 17 5 -6.5
    endloop
  endfacet
  facet normal 0 0 -1
    outer loop
      vertex -9 -15 -6.5
      vertex -17 -15 -6.5
      vertex -9 -5 -6.5
    endloop
  endfacet
  facet normal 0 0 -1
    outer loop
      vertex 17 -5 -6.5
      vertex 14.5 -1.44329e-015 -6.5
      vertex 17 5 -6.5
    endloop
  endfacet
  facet normal 0 0 -1
    outer loop
      vertex 17 -5 -6.5
      vertex 14.3858 -0.574024 -6.5
      vertex 14.5 -1.44329e-015 -6.5
    endloop
  endfacet
  facet normal 0 0 -1
    outer loop
      vertex 17 -5 -6.5
      vertex 14.0607 -1.06066 -6.5
      vertex 14.3858 -0.574024 -6.5
    endloop
  endfacet
  facet normal 0 0 -1
    outer loop
      vertex 17 -5 -6.5
      vertex 13.574 -1.38582 -6.5
      vertex 14.0607 -1.06066 -6.5
    endloop
  endfacet
  facet normal 0 0 -1
    outer loop
      vertex 17 -5 -6.5
      vertex 13.1937 -1.46146 -6.5
      vertex 13.574 -1.38582 -6.5
    endloop
  endfacet
  facet normal 0 0 -1
    outer loop
      vertex 17 -5 -6.5
      vertex 13 -1.5 -6.5
      vertex 13.1937 -1.46146 -6.5
    endloop
  endfacet
  facet normal 0 0 -1
    outer loop
      vertex 17 -5 -6.5
      vertex 12.8063 -1.46146 -6.5
      vertex 13 -1.5 -6.5
    endloop
  endfacet
  facet normal 0 0 -1
    outer loop
      vertex 17 -5 -6.5
      vertex 12.426 -1.38582 -6.5
      vertex 12.8063 -1.46146 -6.5
    endloop
  endfacet
  facet normal 0 0 -1
    outer loop
      vertex 5.57402 -1.38582 -6.5
      vertex 12.426 -1.38582 -6.5
      vertex 17 -5 -6.5
    endloop
  endfacet
  facet normal 0 0 -1
    outer loop
      vertex 11.6142 -0.574024 -6.5
      vertex 6.5 -1.44329e-015 -6.5
      vertex 11.5 -1.44329e-015 -6.5
    endloop
  endfacet
  facet normal 0 0 -1
    outer loop
      vertex 6.38582 -0.574024 -6.5
      vertex 11.6142 -0.574024 -6.5
      vertex 11.9393 -1.06066 -6.5
    endloop
  endfacet
  facet normal 0 0 -1
    outer loop
      vertex 12.426 -1.38582 -6.5
      vertex 5.57402 -1.38582 -6.5
      vertex 11.9393 -1.06066 -6.5
    endloop
  endfacet
  facet normal 0 0 -1
    outer loop
      vertex 11.6142 -0.574024 -6.5
      vertex 6.38582 -0.574024 -6.5
      vertex 6.5 -1.44329e-015 -6.5
    endloop
  endfacet
  facet normal 0 0 -1
    outer loop
      vertex 11.9393 -1.06066 -6.5
      vertex 6.06066 -1.06066 -6.5
      vertex 6.38582 -0.574024 -6.5
    endloop
  endfacet
  facet normal -0 0 -1
    outer loop
      vertex 11.9393 -1.06066 -6.5
      vertex 5.57402 -1.38582 -6.5
      vertex 6.06066 -1.06066 -6.5
    endloop
  endfacet
  facet normal 0 0 -1
    outer loop
      vertex 17 -5 -6.5
      vertex 5.19373 -1.46146 -6.5
      vertex 5.57402 -1.38582 -6.5
    endloop
  endfacet
  facet normal 0 0 -1
    outer loop
      vertex 17 -5 -6.5
      vertex 5 -1.5 -6.5
      vertex 5.19373 -1.46146 -6.5
    endloop
  endfacet
  facet normal 0 0 -1
    outer loop
      vertex -9 -5 -6.5
      vertex 5 -1.5 -6.5
      vertex 17 -5 -6.5
    endloop
  endfacet
  facet normal -0 0 -1
    outer loop
      vertex 5 -1.5 -6.5
      vertex -9 -5 -6.5
      vertex 4.80627 -1.46146 -6.5
    endloop
  endfacet
  facet normal -0 0 -1
    outer loop
      vertex 3.61418 -0.574024 -6.5
      vertex -9 -5 -6.5
      vertex 3.5 -1.44329e-015 -6.5
    endloop
  endfacet
  facet normal -0 0 -1
    outer loop
      vertex 3.93934 -1.06066 -6.5
      vertex -9 -5 -6.5
      vertex 3.61418 -0.574024 -6.5
    endloop
  endfacet
  facet normal -0 0 -1
    outer loop
      vertex 4.42597 -1.38582 -6.5
      vertex -9 -5 -6.5
      vertex 3.93934 -1.06066 -6.5
    endloop
  endfacet
  facet normal -0 0 -1
    outer loop
      vertex 4.80627 -1.46146 -6.5
      vertex -9 -5 -6.5
      vertex 4.42597 -1.38582 -6.5
    endloop
  endfacet
  facet normal 0 0 -1
    outer loop
      vertex 14.3858 0.574024 -6.5
      vertex 17 5 -6.5
      vertex 14.5 -1.44329e-015 -6.5
    endloop
  endfacet
  facet normal 0 0 -1
    outer loop
      vertex 14.0607 1.06066 -6.5
      vertex 17 5 -6.5
      vertex 14.3858 0.574024 -6.5
    endloop
  endfacet
  facet normal 0 0 -1
    outer loop
      vertex 13.574 1.38582 -6.5
      vertex 17 5 -6.5
      vertex 14.0607 1.06066 -6.5
    endloop
  endfacet
  facet normal 0 0 -1
    outer loop
      vertex 13.3803 1.42435 -6.5
      vertex 17 5 -6.5
      vertex 13.574 1.38582 -6.5
    endloop
  endfacet
  facet normal 0 0 -1
    outer loop
      vertex 13 1.5 -6.5
      vertex 17 5 -6.5
      vertex 13.3803 1.42435 -6.5
    endloop
  endfacet
  facet normal 0 0 -1
    outer loop
      vertex 12.6197 1.42435 -6.5
      vertex 17 5 -6.5
      vertex 13 1.5 -6.5
    endloop
  endfacet
  facet normal 0 0 -1
    outer loop
      vertex 12.426 1.38582 -6.5
      vertex 17 5 -6.5
      vertex 12.6197 1.42435 -6.5
    endloop
  endfacet
  facet normal 0 0 -1
    outer loop
      vertex 5.57402 1.38582 -6.5
      vertex 12.426 1.38582 -6.5
      vertex 11.9393 1.06066 -6.5
    endloop
  endfacet
  facet normal 0 0 -1
    outer loop
      vertex 6.5 -1.44329e-015 -6.5
      vertex 11.6142 0.574024 -6.5
      vertex 11.5 -1.44329e-015 -6.5
    endloop
  endfacet
  facet normal 0 0 -1
    outer loop
      vertex 6.38582 0.574024 -6.5
      vertex 11.6142 0.574024 -6.5
      vertex 6.5 -1.44329e-015 -6.5
    endloop
  endfacet
  facet normal 0 0 -1
    outer loop
      vertex 11.6142 0.574024 -6.5
      vertex 6.38582 0.574024 -6.5
      vertex 11.9393 1.06066 -6.5
    endloop
  endfacet
  facet normal 0 0 -1
    outer loop
      vertex 6.06066 1.06066 -6.5
      vertex 11.9393 1.06066 -6.5
      vertex 6.38582 0.574024 -6.5
    endloop
  endfacet
  facet normal 0 0 -1
    outer loop
      vertex 5.57402 1.38582 -6.5
      vertex 11.9393 1.06066 -6.5
      vertex 6.06066 1.06066 -6.5
    endloop
  endfacet
  facet normal 0 0 -1
    outer loop
      vertex 12.426 1.38582 -6.5
      vertex 5.57402 1.38582 -6.5
      vertex 17 5 -6.5
    endloop
  endfacet
  facet normal 0 0 -1
    outer loop
      vertex 5.38029 1.42435 -6.5
      vertex 17 5 -6.5
      vertex 5.57402 1.38582 -6.5
    endloop
  endfacet
  facet normal 0 0 -1
    outer loop
      vertex 5 1.5 -6.5
      vertex 17 5 -6.5
      vertex 5.38029 1.42435 -6.5
    endloop
  endfacet
  facet normal 0 0 -1
    outer loop
      vertex -17 5 -6.5
      vertex 5 1.5 -6.5
      vertex 4.61971 1.42435 -6.5
    endloop
  endfacet
  facet normal 0 0 -1
    outer loop
      vertex -17 5 -6.5
      vertex 4.61971 1.42435 -6.5
      vertex 4.42597 1.38582 -6.5
    endloop
  endfacet
  facet normal 0 0 -1
    outer loop
      vertex -9 -5 -6.5
      vertex 3.61418 0.574024 -6.5
      vertex 3.5 -1.44329e-015 -6.5
    endloop
  endfacet
  facet normal 0 0 -1
    outer loop
      vertex -17 5 -6.5
      vertex 3.61418 0.574024 -6.5
      vertex -9 -5 -6.5
    endloop
  endfacet
  facet normal 0 0 -1
    outer loop
      vertex 3.61418 0.574024 -6.5
      vertex -17 5 -6.5
      vertex 3.93934 1.06066 -6.5
    endloop
  endfacet
  facet normal 0 0 -1
    outer loop
      vertex 5 1.5 -6.5
      vertex -17 5 -6.5
      vertex 17 5 -6.5
    endloop
  endfacet
  facet normal 0 0 -1
    outer loop
      vertex 3.93934 1.06066 -6.5
      vertex -17 5 -6.5
      vertex 4.42597 1.38582 -6.5
    endloop
  endfacet
  facet normal 0 0 -1
    outer loop
      vertex -17 5 -6.5
      vertex -9 -5 -6.5
      vertex -17 -15 -6.5
    endloop
  endfacet
  facet normal 0 1 0
    outer loop
      vertex 17 5 5
      vertex 15.5 5 6.5
      vertex 16.074 5 6.38582
    endloop
  endfacet
  facet normal 0 1 0
    outer loop
      vertex 15.5 5 6.5
      vertex 17 5 -6.5
      vertex -15.5 5 6.5
    endloop
  endfacet
  facet normal 0 1 0
    outer loop
      vertex 17 5 5
      vertex 16.074 5 6.38582
      vertex 16.5607 5 6.06066
    endloop
  endfacet
  facet normal 0 1 0
    outer loop
      vertex -17 5 -6.5
      vertex -15.5 5 6.5
      vertex 17 5 -6.5
    endloop
  endfacet
  facet normal 0 1 0
    outer loop
      vertex 17 5 5
      vertex 16.5607 5 6.06066
      vertex 16.8858 5 5.57402
    endloop
  endfacet
  facet normal 0 1 0
    outer loop
      vertex 15.5 5 6.5
      vertex 17 5 5
      vertex 17 5 -6.5
    endloop
  endfacet
  facet normal -0 1 0
    outer loop
      vertex -17 5 5
      vertex -15.5 5 6.5
      vertex -17 5 -6.5
    endloop
  endfacet
  facet normal 0 1 0
    outer loop
      vertex -16.5607 5 6.06066
      vertex -17 5 5
      vertex -16.8858 5 5.57402
    endloop
  endfacet
  facet normal 0 1 0
    outer loop
      vertex -15.5 5 6.5
      vertex -17 5 5
      vertex -16.074 5 6.38582
    endloop
  endfacet
  facet normal 0 1 0
    outer loop
      vertex -16.074 5 6.38582
      vertex -17 5 5
      vertex -16.5607 5 6.06066
    endloop
  endfacet
  facet normal -0.195092 0 0.980785
    outer loop
      vertex -16.074 5 6.38582
      vertex -15.5 -15 6.5
      vertex -15.5 5 6.5
    endloop
  endfacet
  facet normal -0.195092 0 0.980785
    outer loop
      vertex -15.5 -15 6.5
      vertex -16.074 5 6.38582
      vertex -16.074 -15 6.38582
    endloop
  endfacet
  facet normal 0.980785 -0 0.195092
    outer loop
      vertex 16.8858 2 5.57402
      vertex 17 5 5
      vertex 16.8858 5 5.57402
    endloop
  endfacet
  facet normal 0.980785 0 0.195092
    outer loop
      vertex 17 5 5
      vertex 16.8858 2 5.57402
      vertex 17 2 5
    endloop
  endfacet
  facet normal -0 0 1
    outer loop
      vertex 15.1213 2.12132 6.5
      vertex 15.5 2 6.5
      vertex 15.5 5 6.5
    endloop
  endfacet
  facet normal 0 0 1
    outer loop
      vertex 15.5 2 6.5
      vertex 15.1213 2.12132 6.5
      vertex 15.2024 2 6.5
    endloop
  endfacet
  facet normal 0 0 1
    outer loop
      vertex 15.5 5 6.5
      vertex 14.148 2.77164 6.5
      vertex 15.1213 2.12132 6.5
    endloop
  endfacet
  facet normal 0 0 1
    outer loop
      vertex 15.5 5 6.5
      vertex 13.8897 2.82302 6.5
      vertex 14.148 2.77164 6.5
    endloop
  endfacet
  facet normal 0 0 1
    outer loop
      vertex 15.5 5 6.5
      vertex 13 3 6.5
      vertex 13.8897 2.82302 6.5
    endloop
  endfacet
  facet normal 0 0 1
    outer loop
      vertex 15.5 5 6.5
      vertex 12.1103 2.82302 6.5
      vertex 13 3 6.5
    endloop
  endfacet
  facet normal 0 0 1
    outer loop
      vertex 15.5 5 6.5
      vertex 11.8519 2.77164 6.5
      vertex 12.1103 2.82302 6.5
    endloop
  endfacet
  facet normal 0 0 1
    outer loop
      vertex 10.8787 2.12132 6.5
      vertex 7.20238 2 6.5
      vertex 10.7976 2 6.5
    endloop
  endfacet
  facet normal 0 0 1
    outer loop
      vertex 7.12132 2.12132 6.5
      vertex 10.8787 2.12132 6.5
      vertex 11.8519 2.77164 6.5
    endloop
  endfacet
  facet normal 0 0 1
    outer loop
      vertex 6.14805 2.77164 6.5
      vertex 11.8519 2.77164 6.5
      vertex 15.5 5 6.5
    endloop
  endfacet
  facet normal 0 0 1
    outer loop
      vertex 10.8787 2.12132 6.5
      vertex 7.12132 2.12132 6.5
      vertex 7.20238 2 6.5
    endloop
  endfacet
  facet normal 0 0 1
    outer loop
      vertex 11.8519 2.77164 6.5
      vertex 6.14805 2.77164 6.5
      vertex 7.12132 2.12132 6.5
    endloop
  endfacet
  facet normal 0 0 1
    outer loop
      vertex 15.5 5 6.5
      vertex 5.88974 2.82302 6.5
      vertex 6.14805 2.77164 6.5
    endloop
  endfacet
  facet normal 0 0 1
    outer loop
      vertex 15.5 5 6.5
      vertex 5 3 6.5
      vertex 5.88974 2.82302 6.5
    endloop
  endfacet
  facet normal 0 0 1
    outer loop
      vertex 2.87868 2.12132 6.5
      vertex -10.5 2 6.5
      vertex 2.79762 2 6.5
    endloop
  endfacet
  facet normal 0 0 1
    outer loop
      vertex 3.85195 2.77164 6.5
      vertex -10.5 2 6.5
      vertex 2.87868 2.12132 6.5
    endloop
  endfacet
  facet normal 0 0 1
    outer loop
      vertex -15.5 5 6.5
      vertex 3.85195 2.77164 6.5
      vertex 4.11026 2.82302 6.5
    endloop
  endfacet
  facet normal 0 0 1
    outer loop
      vertex -15.5 5 6.5
      vertex 4.11026 2.82302 6.5
      vertex 5 3 6.5
    endloop
  endfacet
  facet normal -0 0 1
    outer loop
      vertex -15.5 5 6.5
      vertex 5 3 6.5
      vertex 15.5 5 6.5
    endloop
  endfacet
  facet normal 0 0 1
    outer loop
      vertex 3.85195 2.77164 6.5
      vertex -15.5 5 6.5
      vertex -10.5 2 6.5
    endloop
  endfacet
  facet normal 0 0 1
    outer loop
      vertex -15.5 -15 6.5
      vertex -10.5 2 6.5
      vertex -15.5 5 6.5
    endloop
  endfacet
  facet normal 0 0 1
    outer loop
      vertex -10.5 2 6.5
      vertex -15.5 -15 6.5
      vertex -10.5 -15 6.5
    endloop
  endfacet
  facet normal -0.55557 0 0.83147
    outer loop
      vertex -16.5607 5 6.06066
      vertex -16.074 -15 6.38582
      vertex -16.074 5 6.38582
    endloop
  endfacet
  facet normal -0.55557 0 0.83147
    outer loop
      vertex -16.074 -15 6.38582
      vertex -16.5607 5 6.06066
      vertex -16.5607 -15 6.06066
    endloop
  endfacet
  facet normal -0.980785 0 0.195092
    outer loop
      vertex -17 -15 5
      vertex -16.8858 5 5.57402
      vertex -17 5 5
    endloop
  endfacet
  facet normal -0.980785 0 0.195092
    outer loop
      vertex -16.8858 5 5.57402
      vertex -17 -15 5
      vertex -16.8858 -15 5.57402
    endloop
  endfacet
  facet normal 0.55557 0 0.83147
    outer loop
      vertex 16.074 5 6.38582
      vertex 16.5607 2 6.06066
      vertex 16.5607 5 6.06066
    endloop
  endfacet
  facet normal 0.55557 0 0.83147
    outer loop
      vertex 16.5607 2 6.06066
      vertex 16.074 5 6.38582
      vertex 16.074 2 6.38582
    endloop
  endfacet
  facet normal -0.83147 0 0.55557
    outer loop
      vertex -16.8858 -15 5.57402
      vertex -16.5607 5 6.06066
      vertex -16.8858 5 5.57402
    endloop
  endfacet
  facet normal -0.83147 0 0.55557
    outer loop
      vertex -16.5607 5 6.06066
      vertex -16.8858 -15 5.57402
      vertex -16.5607 -15 6.06066
    endloop
  endfacet
  facet normal 0.83147 -0 0.55557
    outer loop
      vertex 16.5607 2 6.06066
      vertex 16.8858 5 5.57402
      vertex 16.5607 5 6.06066
    endloop
  endfacet
  facet normal 0.83147 0 0.55557
    outer loop
      vertex 16.8858 5 5.57402
      vertex 16.5607 2 6.06066
      vertex 16.8858 2 5.57402
    endloop
  endfacet
  facet normal 0 0 1
    outer loop
      vertex 2.22836 1.14805 -1.5
      vertex -9 2 -1.5
      vertex 2 -3.33067e-016 -1.5
    endloop
  endfacet
  facet normal -0 0 1
    outer loop
      vertex -9 2 -1.5
      vertex 2.22836 1.14805 -1.5
      vertex 2.79762 2 -1.5
    endloop
  endfacet
  facet normal 0 0 1
    outer loop
      vertex 10.2284 1.14805 -1.5
      vertex 8 -3.33067e-016 -1.5
      vertex 10 -3.33067e-016 -1.5
    endloop
  endfacet
  facet normal 0 0 1
    outer loop
      vertex 7.77164 1.14805 -1.5
      vertex 10.2284 1.14805 -1.5
      vertex 10.7976 2 -1.5
    endloop
  endfacet
  facet normal 0 0 1
    outer loop
      vertex 10.2284 1.14805 -1.5
      vertex 7.77164 1.14805 -1.5
      vertex 8 -3.33067e-016 -1.5
    endloop
  endfacet
  facet normal 0 -0 1
    outer loop
      vertex 7.77164 1.14805 -1.5
      vertex 10.7976 2 -1.5
      vertex 7.20238 2 -1.5
    endloop
  endfacet
  facet normal -0 0 1
    outer loop
      vertex 15.1213 -2.12132 -1.5
      vertex 15.5 -5 -1.5
      vertex 15.5 -1.55458 -1.5
    endloop
  endfacet
  facet normal -0 0 1
    outer loop
      vertex 14.148 -2.77164 -1.5
      vertex 15.5 -5 -1.5
      vertex 15.1213 -2.12132 -1.5
    endloop
  endfacet
  facet normal -0 0 1
    outer loop
      vertex 13.0287 -2.99429 -1.5
      vertex 15.5 -5 -1.5
      vertex 14.148 -2.77164 -1.5
    endloop
  endfacet
  facet normal -0 0 1
    outer loop
      vertex 13 -3 -1.5
      vertex 15.5 -5 -1.5
      vertex 13.0287 -2.99429 -1.5
    endloop
  endfacet
  facet normal 0 0 1
    outer loop
      vertex 12.9713 -2.99429 -1.5
      vertex 15.5 -5 -1.5
      vertex 13 -3 -1.5
    endloop
  endfacet
  facet normal 0 0 1
    outer loop
      vertex 11.8519 -2.77164 -1.5
      vertex 15.5 -5 -1.5
      vertex 12.9713 -2.99429 -1.5
    endloop
  endfacet
  facet normal -0 0 1
    outer loop
      vertex 8 -3.33067e-016 -1.5
      vertex 10.2284 -1.14805 -1.5
      vertex 10 -3.33067e-016 -1.5
    endloop
  endfacet
  facet normal 0 0 1
    outer loop
      vertex 7.77164 -1.14805 -1.5
      vertex 10.2284 -1.14805 -1.5
      vertex 8 -3.33067e-016 -1.5
    endloop
  endfacet
  facet normal 0 0 1
    outer loop
      vertex 10.2284 -1.14805 -1.5
      vertex 7.77164 -1.14805 -1.5
      vertex 10.8787 -2.12132 -1.5
    endloop
  endfacet
  facet normal 0 0 1
    outer loop
      vertex 7.12132 -2.12132 -1.5
      vertex 10.8787 -2.12132 -1.5
      vertex 7.77164 -1.14805 -1.5
    endloop
  endfacet
  facet normal 0 0 1
    outer loop
      vertex 10.8787 -2.12132 -1.5
      vertex 7.12132 -2.12132 -1.5
      vertex 11.8519 -2.77164 -1.5
    endloop
  endfacet
  facet normal 0 0 1
    outer loop
      vertex 6.14805 -2.77164 -1.5
      vertex 11.8519 -2.77164 -1.5
      vertex 7.12132 -2.12132 -1.5
    endloop
  endfacet
  facet normal 0 0 1
    outer loop
      vertex 11.8519 -2.77164 -1.5
      vertex 6.14805 -2.77164 -1.5
      vertex 15.5 -5 -1.5
    endloop
  endfacet
  facet normal -0 0 1
    outer loop
      vertex 5.0287 -2.99429 -1.5
      vertex 15.5 -5 -1.5
      vertex 6.14805 -2.77164 -1.5
    endloop
  endfacet
  facet normal -0 0 1
    outer loop
      vertex 5 -3 -1.5
      vertex 15.5 -5 -1.5
      vertex 5.0287 -2.99429 -1.5
    endloop
  endfacet
  facet normal 0 0 1
    outer loop
      vertex -9 -5 -1.5
      vertex 4.9713 -2.99429 -1.5
      vertex 3.85195 -2.77164 -1.5
    endloop
  endfacet
  facet normal 0 0 1
    outer loop
      vertex -9 -5 -1.5
      vertex 2 -3.33067e-016 -1.5
      vertex -9 2 -1.5
    endloop
  endfacet
  facet normal 0 0 1
    outer loop
      vertex 2 -3.33067e-016 -1.5
      vertex -9 -5 -1.5
      vertex 2.22836 -1.14805 -1.5
    endloop
  endfacet
  facet normal 0 0 1
    outer loop
      vertex 2.22836 -1.14805 -1.5
      vertex -9 -5 -1.5
      vertex 2.87868 -2.12132 -1.5
    endloop
  endfacet
  facet normal 0 0 1
    outer loop
      vertex 5 -3 -1.5
      vertex -9 -5 -1.5
      vertex 15.5 -5 -1.5
    endloop
  endfacet
  facet normal 0 0 1
    outer loop
      vertex 4.9713 -2.99429 -1.5
      vertex -9 -5 -1.5
      vertex 5 -3 -1.5
    endloop
  endfacet
  facet normal 0 0 1
    outer loop
      vertex 2.87868 -2.12132 -1.5
      vertex -9 -5 -1.5
      vertex 3.85195 -2.77164 -1.5
    endloop
  endfacet
  facet normal 0 0 1
    outer loop
      vertex 15.5 2 -1.5
      vertex 15.2024 2 -1.5
      vertex 15.5 1.55458 -1.5
    endloop
  endfacet
  facet normal 0 -1 0
    outer loop
      vertex -9 -5 -6.5
      vertex 15.5 -5 -1.5
      vertex -9 -5 -1.5
    endloop
  endfacet
  facet normal 0 -1 0
    outer loop
      vertex 17 -5 -6.5
      vertex 15.5 -5 -1.5
      vertex -9 -5 -6.5
    endloop
  endfacet
  facet normal -0 -1 -0
    outer loop
      vertex 17 -5 -3
      vertex 15.5 -5 -1.5
      vertex 17 -5 -6.5
    endloop
  endfacet
  facet normal 0 -1 0
    outer loop
      vertex 15.5 -5 -1.5
      vertex 17 -5 -3
      vertex 16.074 -5 -1.61418
    endloop
  endfacet
  facet normal 0 -1 0
    outer loop
      vertex 16.074 -5 -1.61418
      vertex 17 -5 -3
      vertex 16.5607 -5 -1.93934
    endloop
  endfacet
  facet normal 0 -1 0
    outer loop
      vertex 16.5607 -5 -1.93934
      vertex 17 -5 -3
      vertex 16.8858 -5 -2.42597
    endloop
  endfacet
  facet normal 0.83147 -0 0.55557
    outer loop
      vertex 16.5607 -5 -1.93934
      vertex 16.8858 2 -2.42597
      vertex 16.5607 2 -1.93934
    endloop
  endfacet
  facet normal 0.83147 0 0.55557
    outer loop
      vertex 16.8858 2 -2.42597
      vertex 16.5607 -5 -1.93934
      vertex 16.8858 -5 -2.42597
    endloop
  endfacet
  facet normal 0.195091 0 0.980785
    outer loop
      vertex 16.074 2 -1.61418
      vertex 16 -3.55151e-016 -1.59946
      vertex 16.074 -5 -1.61418
    endloop
  endfacet
  facet normal 0.19509 2.63376e-008 0.980785
    outer loop
      vertex 16.074 2 -1.61418
      vertex 15.7716 1.14805 -1.55403
      vertex 16 -3.55151e-016 -1.59946
    endloop
  endfacet
  facet normal 0.19509 -0 0.980785
    outer loop
      vertex 15.5 1.55458 -1.5
      vertex 16.074 2 -1.61418
      vertex 15.5 2 -1.5
    endloop
  endfacet
  facet normal 0.19509 -6.47618e-008 0.980785
    outer loop
      vertex 16.074 2 -1.61418
      vertex 15.5 1.55458 -1.5
      vertex 15.7716 1.14805 -1.55403
    endloop
  endfacet
  facet normal 0.19509 -1.16297e-008 0.980785
    outer loop
      vertex 15.7716 -1.14805 -1.55403
      vertex 16.074 -5 -1.61418
      vertex 16 -3.55151e-016 -1.59946
    endloop
  endfacet
  facet normal 0.195091 1.96264e-008 0.980785
    outer loop
      vertex 15.5 -1.55458 -1.5
      vertex 16.074 -5 -1.61418
      vertex 15.7716 -1.14805 -1.55403
    endloop
  endfacet
  facet normal 0.19509 0 0.980785
    outer loop
      vertex 16.074 -5 -1.61418
      vertex 15.5 -1.55458 -1.5
      vertex 15.5 -5 -1.5
    endloop
  endfacet
  facet normal 0.980785 -0 0.195092
    outer loop
      vertex 16.8858 -5 -2.42597
      vertex 17 2 -3
      vertex 16.8858 2 -2.42597
    endloop
  endfacet
  facet normal 0.980785 0 0.195092
    outer loop
      vertex 17 2 -3
      vertex 16.8858 -5 -2.42597
      vertex 17 -5 -3
    endloop
  endfacet
  facet normal 0.55557 0 0.83147
    outer loop
      vertex 16.074 2 -1.61418
      vertex 16.5607 -5 -1.93934
      vertex 16.5607 2 -1.93934
    endloop
  endfacet
  facet normal 0.55557 0 0.83147
    outer loop
      vertex 16.5607 -5 -1.93934
      vertex 16.074 2 -1.61418
      vertex 16.074 -5 -1.61418
    endloop
  endfacet
  facet normal 0 -1 0
    outer loop
      vertex -17 -15 5
      vertex -15.5 -15 6.5
      vertex -16.074 -15 6.38582
    endloop
  endfacet
  facet normal 0 -1 -0
    outer loop
      vertex -15.5 -15 6.5
      vertex -17 -15 5
      vertex -10.5 -15 6.5
    endloop
  endfacet
  facet normal 0 -1 0
    outer loop
      vertex -17 -15 5
      vertex -16.074 -15 6.38582
      vertex -16.5607 -15 6.06066
    endloop
  endfacet
  facet normal 0 -1 0
    outer loop
      vertex -9 -15 5
      vertex -10.5 -15 6.5
      vertex -17 -15 5
    endloop
  endfacet
  facet normal 0 -1 0
    outer loop
      vertex -17 -15 5
      vertex -16.5607 -15 6.06066
      vertex -16.8858 -15 5.57402
    endloop
  endfacet
  facet normal 0 -1 0
    outer loop
      vertex -10.5 -15 6.5
      vertex -9 -15 5
      vertex -9.92597 -15 6.38582
    endloop
  endfacet
  facet normal 0 -1 0
    outer loop
      vertex -9.92597 -15 6.38582
      vertex -9 -15 5
      vertex -9.43934 -15 6.06066
    endloop
  endfacet
  facet normal 0 -1 0
    outer loop
      vertex -9.43934 -15 6.06066
      vertex -9 -15 5
      vertex -9.11418 -15 5.57402
    endloop
  endfacet
  facet normal 0 -1 0
    outer loop
      vertex -17 -15 -6.5
      vertex -9 -15 5
      vertex -17 -15 5
    endloop
  endfacet
  facet normal 0 -1 -0
    outer loop
      vertex -9 -15 5
      vertex -17 -15 -6.5
      vertex -9 -15 -6.5
    endloop
  endfacet
  facet normal 1 0 0
    outer loop
      vertex -9 2 5
      vertex -9 -5 -1.5
      vertex -9 2 -1.5
    endloop
  endfacet
  facet normal 1 -0 0
    outer loop
      vertex -9 -15 5
      vertex -9 -5 -1.5
      vertex -9 2 5
    endloop
  endfacet
  facet normal 1 0 0
    outer loop
      vertex -9 -15 -6.5
      vertex -9 -5 -1.5
      vertex -9 -15 5
    endloop
  endfacet
  facet normal 1 0 0
    outer loop
      vertex -9 -5 -1.5
      vertex -9 -15 -6.5
      vertex -9 -5 -6.5
    endloop
  endfacet
  facet normal 0.195092 0 0.980785
    outer loop
      vertex -10.5 2 6.5
      vertex -9.92597 -15 6.38582
      vertex -9.92597 2 6.38582
    endloop
  endfacet
  facet normal 0.195092 0 0.980785
    outer loop
      vertex -9.92597 -15 6.38582
      vertex -10.5 2 6.5
      vertex -10.5 -15 6.5
    endloop
  endfacet
  facet normal 0.83147 -0 0.55557
    outer loop
      vertex -9.43934 -15 6.06066
      vertex -9.11418 2 5.57402
      vertex -9.43934 2 6.06066
    endloop
  endfacet
  facet normal 0.83147 0 0.55557
    outer loop
      vertex -9.11418 2 5.57402
      vertex -9.43934 -15 6.06066
      vertex -9.11418 -15 5.57402
    endloop
  endfacet
  facet normal 0.980785 -0 0.19509
    outer loop
      vertex -9.11418 -15 5.57402
      vertex -9 2 5
      vertex -9.11418 2 5.57402
    endloop
  endfacet
  facet normal 0.980785 0 0.19509
    outer loop
      vertex -9 2 5
      vertex -9.11418 -15 5.57402
      vertex -9 -15 5
    endloop
  endfacet
  facet normal 0.55557 0 0.83147
    outer loop
      vertex -9.92597 2 6.38582
      vertex -9.43934 -15 6.06066
      vertex -9.43934 2 6.06066
    endloop
  endfacet
  facet normal 0.55557 0 0.83147
    outer loop
      vertex -9.43934 -15 6.06066
      vertex -9.92597 2 6.38582
      vertex -9.92597 -15 6.38582
    endloop
  endfacet
  facet normal -0.980785 0.195092 -4.14956e-017
    outer loop
      vertex 6.38582 -0.574024 -6.5
      vertex 6.5 -5.55112e-016 -2.5
      vertex 6.5 -1.44329e-015 -6.5
    endloop
  endfacet
  facet normal -0.980785 0.195092 0
    outer loop
      vertex 6.5 -5.55112e-016 -2.5
      vertex 6.38582 -0.574024 -6.5
      vertex 6.38582 -0.574024 -2.5
    endloop
  endfacet
  facet normal -0.83147 0.55557 0
    outer loop
      vertex 6.06066 -1.06066 -6.5
      vertex 6.38582 -0.574024 -2.5
      vertex 6.38582 -0.574024 -6.5
    endloop
  endfacet
  facet normal -0.83147 0.55557 0
    outer loop
      vertex 6.38582 -0.574024 -2.5
      vertex 6.06066 -1.06066 -6.5
      vertex 6.06066 -1.06066 -2.5
    endloop
  endfacet
  facet normal 0.195092 0.980785 -7.18639e-009
    outer loop
      vertex 4.42597 -1.38582 -6.5
      vertex 4.74886 -1.45005 -2.5
      vertex 4.80627 -1.46146 -6.5
    endloop
  endfacet
  facet normal 0.195092 0.980785 0
    outer loop
      vertex 4.74886 -1.45005 -2.5
      vertex 4.42597 -1.38582 -6.5
      vertex 4.42597 -1.38582 -2.5
    endloop
  endfacet
  facet normal -0.195092 -0.980785 -1.83367e-008
    outer loop
      vertex 5.38029 1.42435 -6.5
      vertex 5.57402 1.38582 -2.5
      vertex 5.32289 1.43577 -2.5
    endloop
  endfacet
  facet normal -0.195092 -0.980785 -0
    outer loop
      vertex 5.57402 1.38582 -2.5
      vertex 5.38029 1.42435 -6.5
      vertex 5.57402 1.38582 -6.5
    endloop
  endfacet
  facet normal -0.55557 0.83147 0
    outer loop
      vertex 6.06066 -1.06066 -6.5
      vertex 5.57402 -1.38582 -2.5
      vertex 6.06066 -1.06066 -2.5
    endloop
  endfacet
  facet normal -0.55557 0.83147 0
    outer loop
      vertex 5.57402 -1.38582 -2.5
      vertex 6.06066 -1.06066 -6.5
      vertex 5.57402 -1.38582 -6.5
    endloop
  endfacet
  facet normal -0.195092 0.980785 0
    outer loop
      vertex 5.57402 -1.38582 -6.5
      vertex 5.25114 -1.45005 -2.5
      vertex 5.57402 -1.38582 -2.5
    endloop
  endfacet
  facet normal -0.195092 0.980785 1.95808e-008
    outer loop
      vertex 5.25114 -1.45005 -2.5
      vertex 5.57402 -1.38582 -6.5
      vertex 5.19373 -1.46146 -6.5
    endloop
  endfacet
  facet normal 0.83147 0.55557 0
    outer loop
      vertex 3.93934 -1.06066 -2.5
      vertex 3.61418 -0.574024 -6.5
      vertex 3.61418 -0.574024 -2.5
    endloop
  endfacet
  facet normal 0.83147 0.55557 0
    outer loop
      vertex 3.61418 -0.574024 -6.5
      vertex 3.93934 -1.06066 -2.5
      vertex 3.93934 -1.06066 -6.5
    endloop
  endfacet
  facet normal 0.55557 0.83147 -0
    outer loop
      vertex 4.42597 -1.38582 -6.5
      vertex 3.93934 -1.06066 -2.5
      vertex 4.42597 -1.38582 -2.5
    endloop
  endfacet
  facet normal 0.55557 0.83147 0
    outer loop
      vertex 3.93934 -1.06066 -2.5
      vertex 4.42597 -1.38582 -6.5
      vertex 3.93934 -1.06066 -6.5
    endloop
  endfacet
  facet normal -0.83147 -0.55557 0
    outer loop
      vertex 6.38582 0.574024 -6.5
      vertex 6.06066 1.06066 -2.5
      vertex 6.06066 1.06066 -6.5
    endloop
  endfacet
  facet normal -0.83147 -0.55557 0
    outer loop
      vertex 6.06066 1.06066 -2.5
      vertex 6.38582 0.574024 -6.5
      vertex 6.38582 0.574024 -2.5
    endloop
  endfacet
  facet normal -0.980785 -0.195092 0
    outer loop
      vertex 6.38582 0.574024 -6.5
      vertex 6.5 -5.55112e-016 -2.5
      vertex 6.38582 0.574024 -2.5
    endloop
  endfacet
  facet normal -0.980785 -0.195092 4.33191e-017
    outer loop
      vertex 6.5 -5.55112e-016 -2.5
      vertex 6.38582 0.574024 -6.5
      vertex 6.5 -1.44329e-015 -6.5
    endloop
  endfacet
  facet normal 0.83147 -0.55557 0
    outer loop
      vertex 3.61418 0.574024 -2.5
      vertex 3.93934 1.06066 -6.5
      vertex 3.93934 1.06066 -2.5
    endloop
  endfacet
  facet normal 0.83147 -0.55557 0
    outer loop
      vertex 3.93934 1.06066 -6.5
      vertex 3.61418 0.574024 -2.5
      vertex 3.61418 0.574024 -6.5
    endloop
  endfacet
  facet normal -0.19509 0.980785 -1.7066e-009
    outer loop
      vertex 5.19373 -1.46146 -6.5
      vertex 5 -1.5 -2.5
      vertex 5.25114 -1.45005 -2.5
    endloop
  endfacet
  facet normal -0.19509 0.980785 0
    outer loop
      vertex 5 -1.5 -2.5
      vertex 5.19373 -1.46146 -6.5
      vertex 5 -1.5 -6.5
    endloop
  endfacet
  facet normal 0.19509 0.980785 0
    outer loop
      vertex 4.80627 -1.46146 -6.5
      vertex 5 -1.5 -2.5
      vertex 5 -1.5 -6.5
    endloop
  endfacet
  facet normal 0.19509 0.980785 -2.49632e-008
    outer loop
      vertex 5 -1.5 -2.5
      vertex 4.80627 -1.46146 -6.5
      vertex 4.74886 -1.45005 -2.5
    endloop
  endfacet
  facet normal 0.980785 0.19509 -4.14956e-017
    outer loop
      vertex 3.61418 -0.574024 -2.5
      vertex 3.5 -1.44329e-015 -6.5
      vertex 3.5 -5.55112e-016 -2.5
    endloop
  endfacet
  facet normal 0.980785 0.19509 0
    outer loop
      vertex 3.5 -1.44329e-015 -6.5
      vertex 3.61418 -0.574024 -2.5
      vertex 3.61418 -0.574024 -6.5
    endloop
  endfacet
  facet normal 0.980785 -0.19509 0
    outer loop
      vertex 3.5 -5.55112e-016 -2.5
      vertex 3.61418 0.574024 -6.5
      vertex 3.61418 0.574024 -2.5
    endloop
  endfacet
  facet normal 0.980785 -0.19509 4.14956e-017
    outer loop
      vertex 3.61418 0.574024 -6.5
      vertex 3.5 -5.55112e-016 -2.5
      vertex 3.5 -1.44329e-015 -6.5
    endloop
  endfacet
  facet normal -0.55557 -0.83147 0
    outer loop
      vertex 5.57402 1.38582 -6.5
      vertex 6.06066 1.06066 -2.5
      vertex 5.57402 1.38582 -2.5
    endloop
  endfacet
  facet normal -0.55557 -0.83147 -0
    outer loop
      vertex 6.06066 1.06066 -2.5
      vertex 5.57402 1.38582 -6.5
      vertex 6.06066 1.06066 -6.5
    endloop
  endfacet
  facet normal -0.19509 -0.980785 0
    outer loop
      vertex 5 1.5 -6.5
      vertex 5.32289 1.43577 -2.5
      vertex 5 1.5 -2.5
    endloop
  endfacet
  facet normal -0.19509 -0.980785 2.4794e-009
    outer loop
      vertex 5.32289 1.43577 -2.5
      vertex 5 1.5 -6.5
      vertex 5.38029 1.42435 -6.5
    endloop
  endfacet
  facet normal 0.55557 -0.83147 0
    outer loop
      vertex 3.93934 1.06066 -6.5
      vertex 4.42597 1.38582 -2.5
      vertex 3.93934 1.06066 -2.5
    endloop
  endfacet
  facet normal 0.55557 -0.83147 0
    outer loop
      vertex 4.42597 1.38582 -2.5
      vertex 3.93934 1.06066 -6.5
      vertex 4.42597 1.38582 -6.5
    endloop
  endfacet
  facet normal 0.195092 -0.980785 0
    outer loop
      vertex 4.61971 1.42435 -6.5
      vertex 4.42597 1.38582 -2.5
      vertex 4.42597 1.38582 -6.5
    endloop
  endfacet
  facet normal 0.195092 -0.980785 4.9201e-009
    outer loop
      vertex 4.42597 1.38582 -2.5
      vertex 4.61971 1.42435 -6.5
      vertex 4.67711 1.43577 -2.5
    endloop
  endfacet
  facet normal 0.19509 -0.980785 2.92464e-008
    outer loop
      vertex 5 1.5 -6.5
      vertex 4.67711 1.43577 -2.5
      vertex 4.61971 1.42435 -6.5
    endloop
  endfacet
  facet normal 0.19509 -0.980785 0
    outer loop
      vertex 4.67711 1.43577 -2.5
      vertex 5 1.5 -6.5
      vertex 5 1.5 -2.5
    endloop
  endfacet
  facet normal -0.980785 0.195091 0
    outer loop
      vertex 7.77164 -1.14805 -2.5
      vertex 8 -3.33067e-016 -1.5
      vertex 8 -5.55112e-016 -2.5
    endloop
  endfacet
  facet normal -0.980785 0.195091 0
    outer loop
      vertex 8 -3.33067e-016 -1.5
      vertex 7.77164 -1.14805 -2.5
      vertex 7.77164 -1.14805 -1.5
    endloop
  endfacet
  facet normal -0.83147 0.55557 0
    outer loop
      vertex 7.12132 -2.12132 -2.5
      vertex 7.77164 -1.14805 -1.5
      vertex 7.77164 -1.14805 -2.5
    endloop
  endfacet
  facet normal -0.83147 0.55557 0
    outer loop
      vertex 7.77164 -1.14805 -1.5
      vertex 7.12132 -2.12132 -2.5
      vertex 7.12132 -2.12132 -1.5
    endloop
  endfacet
  facet normal 0.195091 0.980785 -1.07616e-007
    outer loop
      vertex 3.85195 -2.77164 -2.5
      vertex 4.9713 -2.99429 -1.5
      vertex 5 -3 -2.5
    endloop
  endfacet
  facet normal 0.195091 0.980785 0
    outer loop
      vertex 4.9713 -2.99429 -1.5
      vertex 3.85195 -2.77164 -2.5
      vertex 3.85195 -2.77164 -1.5
    endloop
  endfacet
  facet normal -0.195091 -0.980785 0
    outer loop
      vertex 6.14805 2.77164 -2.5
      vertex 6.14805 2.77164 6.5
      vertex 5.88974 2.82302 6.5
    endloop
  endfacet
  facet normal -0.55557 -0.83147 0
    outer loop
      vertex 6.14805 2.77164 -2.5
      vertex 7.12132 2.12132 6.5
      vertex 6.14805 2.77164 6.5
    endloop
  endfacet
  facet normal -0.55557 -0.83147 -0
    outer loop
      vertex 7.12132 2.12132 6.5
      vertex 6.14805 2.77164 -2.5
      vertex 7.12132 2.12132 -2.5
    endloop
  endfacet
  facet normal -0.55557 0.83147 0
    outer loop
      vertex 7.12132 -2.12132 -2.5
      vertex 6.14805 -2.77164 -1.5
      vertex 7.12132 -2.12132 -1.5
    endloop
  endfacet
  facet normal -0.55557 0.83147 0
    outer loop
      vertex 6.14805 -2.77164 -1.5
      vertex 7.12132 -2.12132 -2.5
      vertex 6.14805 -2.77164 -2.5
    endloop
  endfacet
  facet normal -0.195091 0.980785 0
    outer loop
      vertex 6.14805 -2.77164 -2.5
      vertex 5.0287 -2.99429 -1.5
      vertex 6.14805 -2.77164 -1.5
    endloop
  endfacet
  facet normal -0.195091 0.980785 -1.02965e-007
    outer loop
      vertex 5.0287 -2.99429 -1.5
      vertex 6.14805 -2.77164 -2.5
      vertex 5 -3 -2.5
    endloop
  endfacet
  facet normal 0.83147 0.55557 0
    outer loop
      vertex 2.87868 -2.12132 -1.5
      vertex 2.22836 -1.14805 -2.5
      vertex 2.22836 -1.14805 -1.5
    endloop
  endfacet
  facet normal 0.83147 0.55557 0
    outer loop
      vertex 2.22836 -1.14805 -2.5
      vertex 2.87868 -2.12132 -1.5
      vertex 2.87868 -2.12132 -2.5
    endloop
  endfacet
  facet normal 0 0 1
    outer loop
      vertex 6.5 -5.55112e-016 -2.5
      vertex 8 -5.55112e-016 -2.5
      vertex 7.77164 1.14805 -2.5
    endloop
  endfacet
  facet normal 0 0 1
    outer loop
      vertex 6.38582 0.574024 -2.5
      vertex 7.77164 1.14805 -2.5
      vertex 7.12132 2.12132 -2.5
    endloop
  endfacet
  facet normal 0 0 1
    outer loop
      vertex 8 -5.55112e-016 -2.5
      vertex 6.5 -5.55112e-016 -2.5
      vertex 7.77164 -1.14805 -2.5
    endloop
  endfacet
  facet normal -0 0 1
    outer loop
      vertex 6.38582 -0.574024 -2.5
      vertex 7.77164 -1.14805 -2.5
      vertex 6.5 -5.55112e-016 -2.5
    endloop
  endfacet
  facet normal 0 0 1
    outer loop
      vertex 7.77164 1.14805 -2.5
      vertex 6.38582 0.574024 -2.5
      vertex 6.5 -5.55112e-016 -2.5
    endloop
  endfacet
  facet normal 0 0 1
    outer loop
      vertex 6.06066 1.06066 -2.5
      vertex 7.12132 2.12132 -2.5
      vertex 6.14805 2.77164 -2.5
    endloop
  endfacet
  facet normal 0 0 1
    outer loop
      vertex 7.12132 2.12132 -2.5
      vertex 6.06066 1.06066 -2.5
      vertex 6.38582 0.574024 -2.5
    endloop
  endfacet
  facet normal 0 0 1
    outer loop
      vertex 6.14805 2.77164 -2.5
      vertex 5.57402 1.38582 -2.5
      vertex 6.06066 1.06066 -2.5
    endloop
  endfacet
  facet normal 0 0 1
    outer loop
      vertex 6.14805 2.77164 -2.5
      vertex 5.32289 1.43577 -2.5
      vertex 5.57402 1.38582 -2.5
    endloop
  endfacet
  facet normal 0 0 1
    outer loop
      vertex 5 3 -2.5
      vertex 5.32289 1.43577 -2.5
      vertex 6.14805 2.77164 -2.5
    endloop
  endfacet
  facet normal 0 0 1
    outer loop
      vertex 5.32289 1.43577 -2.5
      vertex 5 3 -2.5
      vertex 5 1.5 -2.5
    endloop
  endfacet
  facet normal 0 0 1
    outer loop
      vertex 5 3 -2.5
      vertex 4.67711 1.43577 -2.5
      vertex 5 1.5 -2.5
    endloop
  endfacet
  facet normal -0 0 1
    outer loop
      vertex 3.85195 2.77164 -2.5
      vertex 4.67711 1.43577 -2.5
      vertex 5 3 -2.5
    endloop
  endfacet
  facet normal 0 0 1
    outer loop
      vertex 4.67711 1.43577 -2.5
      vertex 3.85195 2.77164 -2.5
      vertex 4.42597 1.38582 -2.5
    endloop
  endfacet
  facet normal 0 0 1
    outer loop
      vertex 4.42597 1.38582 -2.5
      vertex 3.85195 2.77164 -2.5
      vertex 3.93934 1.06066 -2.5
    endloop
  endfacet
  facet normal -0 0 1
    outer loop
      vertex 2.87868 2.12132 -2.5
      vertex 3.93934 1.06066 -2.5
      vertex 3.85195 2.77164 -2.5
    endloop
  endfacet
  facet normal 0 0 1
    outer loop
      vertex 3.93934 1.06066 -2.5
      vertex 2.87868 2.12132 -2.5
      vertex 3.61418 0.574024 -2.5
    endloop
  endfacet
  facet normal -0 0 1
    outer loop
      vertex 2.22836 1.14805 -2.5
      vertex 3.61418 0.574024 -2.5
      vertex 2.87868 2.12132 -2.5
    endloop
  endfacet
  facet normal 0 0 1
    outer loop
      vertex 7.77164 -1.14805 -2.5
      vertex 6.38582 -0.574024 -2.5
      vertex 7.12132 -2.12132 -2.5
    endloop
  endfacet
  facet normal -0 0 1
    outer loop
      vertex 6.06066 -1.06066 -2.5
      vertex 7.12132 -2.12132 -2.5
      vertex 6.38582 -0.574024 -2.5
    endloop
  endfacet
  facet normal 0 0 1
    outer loop
      vertex 7.12132 -2.12132 -2.5
      vertex 6.06066 -1.06066 -2.5
      vertex 6.14805 -2.77164 -2.5
    endloop
  endfacet
  facet normal -0 0 1
    outer loop
      vertex 5.57402 -1.38582 -2.5
      vertex 6.14805 -2.77164 -2.5
      vertex 6.06066 -1.06066 -2.5
    endloop
  endfacet
  facet normal -0 0 1
    outer loop
      vertex 5.25114 -1.45005 -2.5
      vertex 6.14805 -2.77164 -2.5
      vertex 5.57402 -1.38582 -2.5
    endloop
  endfacet
  facet normal 0 0 1
    outer loop
      vertex 5 -3 -2.5
      vertex 5.25114 -1.45005 -2.5
      vertex 5 -1.5 -2.5
    endloop
  endfacet
  facet normal 0 0 1
    outer loop
      vertex 5.25114 -1.45005 -2.5
      vertex 5 -3 -2.5
      vertex 6.14805 -2.77164 -2.5
    endloop
  endfacet
  facet normal 0 0 1
    outer loop
      vertex 4.74886 -1.45005 -2.5
      vertex 5 -3 -2.5
      vertex 5 -1.5 -2.5
    endloop
  endfacet
  facet normal 0 0 1
    outer loop
      vertex 3.85195 -2.77164 -2.5
      vertex 4.74886 -1.45005 -2.5
      vertex 4.42597 -1.38582 -2.5
    endloop
  endfacet
  facet normal 0 0 1
    outer loop
      vertex 3.85195 -2.77164 -2.5
      vertex 4.42597 -1.38582 -2.5
      vertex 3.93934 -1.06066 -2.5
    endloop
  endfacet
  facet normal 0 0 1
    outer loop
      vertex 4.74886 -1.45005 -2.5
      vertex 3.85195 -2.77164 -2.5
      vertex 5 -3 -2.5
    endloop
  endfacet
  facet normal 0 0 1
    outer loop
      vertex 2.87868 -2.12132 -2.5
      vertex 3.93934 -1.06066 -2.5
      vertex 3.61418 -0.574024 -2.5
    endloop
  endfacet
  facet normal 0 0 1
    outer loop
      vertex 2.22836 -1.14805 -2.5
      vertex 3.61418 -0.574024 -2.5
      vertex 3.5 -5.55112e-016 -2.5
    endloop
  endfacet
  facet normal 0 0 1
    outer loop
      vertex 3.61418 0.574024 -2.5
      vertex 2.22836 1.14805 -2.5
      vertex 3.5 -5.55112e-016 -2.5
    endloop
  endfacet
  facet normal 0 0 1
    outer loop
      vertex 3.93934 -1.06066 -2.5
      vertex 2.87868 -2.12132 -2.5
      vertex 3.85195 -2.77164 -2.5
    endloop
  endfacet
  facet normal 0 0 1
    outer loop
      vertex 2 -5.55112e-016 -2.5
      vertex 3.5 -5.55112e-016 -2.5
      vertex 2.22836 1.14805 -2.5
    endloop
  endfacet
  facet normal 0 0 1
    outer loop
      vertex 3.61418 -0.574024 -2.5
      vertex 2.22836 -1.14805 -2.5
      vertex 2.87868 -2.12132 -2.5
    endloop
  endfacet
  facet normal 0 0 1
    outer loop
      vertex 3.5 -5.55112e-016 -2.5
      vertex 2 -5.55112e-016 -2.5
      vertex 2.22836 -1.14805 -2.5
    endloop
  endfacet
  facet normal 0.55557 0.83147 -0
    outer loop
      vertex 3.85195 -2.77164 -2.5
      vertex 2.87868 -2.12132 -1.5
      vertex 3.85195 -2.77164 -1.5
    endloop
  endfacet
  facet normal 0.55557 0.83147 0
    outer loop
      vertex 2.87868 -2.12132 -1.5
      vertex 3.85195 -2.77164 -2.5
      vertex 2.87868 -2.12132 -2.5
    endloop
  endfacet
  facet normal 0.195091 -0.980785 0
    outer loop
      vertex 4.11026 2.82302 6.5
      vertex 3.85195 2.77164 6.5
      vertex 3.85195 2.77164 -2.5
    endloop
  endfacet
  facet normal 0.83147 -0.55557 0
    outer loop
      vertex 2.79762 2 -1.5
      vertex 2.87868 2.12132 6.5
      vertex 2.79762 2 6.5
    endloop
  endfacet
  facet normal 0.83147 -0.55557 0
    outer loop
      vertex 2.87868 2.12132 6.5
      vertex 2.79762 2 -1.5
      vertex 2.87868 2.12132 -2.5
    endloop
  endfacet
  facet normal 0.83147 -0.55557 0
    outer loop
      vertex 2.22836 1.14805 -2.5
      vertex 2.79762 2 -1.5
      vertex 2.22836 1.14805 -1.5
    endloop
  endfacet
  facet normal 0.83147 -0.55557 2.96373e-008
    outer loop
      vertex 2.79762 2 -1.5
      vertex 2.22836 1.14805 -2.5
      vertex 2.87868 2.12132 -2.5
    endloop
  endfacet
  facet normal -0.195094 0.980784 0
    outer loop
      vertex 5 -3 -1.5
      vertex 5.0287 -2.99429 -1.5
      vertex 5 -3 -2.5
    endloop
  endfacet
  facet normal 0.195094 0.980784 0
    outer loop
      vertex 5 -3 -1.5
      vertex 5 -3 -2.5
      vertex 4.9713 -2.99429 -1.5
    endloop
  endfacet
  facet normal 0.980785 0.19509 0
    outer loop
      vertex 2.22836 -1.14805 -1.5
      vertex 2 -5.55112e-016 -2.5
      vertex 2 -3.33067e-016 -1.5
    endloop
  endfacet
  facet normal 0.980785 0.19509 0
    outer loop
      vertex 2 -5.55112e-016 -2.5
      vertex 2.22836 -1.14805 -1.5
      vertex 2.22836 -1.14805 -2.5
    endloop
  endfacet
  facet normal 0.980785 -0.19509 0
    outer loop
      vertex 2 -3.33067e-016 -1.5
      vertex 2.22836 1.14805 -2.5
      vertex 2.22836 1.14805 -1.5
    endloop
  endfacet
  facet normal 0.980785 -0.19509 0
    outer loop
      vertex 2.22836 1.14805 -2.5
      vertex 2 -3.33067e-016 -1.5
      vertex 2 -5.55112e-016 -2.5
    endloop
  endfacet
  facet normal -0.83147 -0.55557 0
    outer loop
      vertex 7.12132 2.12132 -2.5
      vertex 7.20238 2 -1.5
      vertex 7.12132 2.12132 6.5
    endloop
  endfacet
  facet normal -0.83147 -0.55557 2.96373e-008
    outer loop
      vertex 7.77164 1.14805 -2.5
      vertex 7.20238 2 -1.5
      vertex 7.12132 2.12132 -2.5
    endloop
  endfacet
  facet normal -0.83147 -0.55557 0
    outer loop
      vertex 7.20238 2 -1.5
      vertex 7.77164 1.14805 -2.5
      vertex 7.77164 1.14805 -1.5
    endloop
  endfacet
  facet normal -0.83147 -0.55557 0
    outer loop
      vertex 7.12132 2.12132 6.5
      vertex 7.20238 2 -1.5
      vertex 7.20238 2 6.5
    endloop
  endfacet
  facet normal -0.980785 -0.195091 0
    outer loop
      vertex 7.77164 1.14805 -2.5
      vertex 8 -3.33067e-016 -1.5
      vertex 7.77164 1.14805 -1.5
    endloop
  endfacet
  facet normal -0.980785 -0.195091 4.33189e-017
    outer loop
      vertex 8 -3.33067e-016 -1.5
      vertex 7.77164 1.14805 -2.5
      vertex 8 -5.55112e-016 -2.5
    endloop
  endfacet
  facet normal 0.19509 -0.980785 3.2757e-008
    outer loop
      vertex 5 3 -2.5
      vertex 4.11026 2.82302 6.5
      vertex 3.85195 2.77164 -2.5
    endloop
  endfacet
  facet normal 0.19509 -0.980785 2.59819e-008
    outer loop
      vertex 4.11026 2.82302 6.5
      vertex 5 3 -2.5
      vertex 5 3 6.5
    endloop
  endfacet
  facet normal -0.19509 -0.980785 2.59819e-008
    outer loop
      vertex 5 3 -2.5
      vertex 5.88974 2.82302 6.5
      vertex 5 3 6.5
    endloop
  endfacet
  facet normal -0.19509 -0.980785 3.74083e-008
    outer loop
      vertex 5.88974 2.82302 6.5
      vertex 5 3 -2.5
      vertex 6.14805 2.77164 -2.5
    endloop
  endfacet
  facet normal 0.55557 -0.83147 0
    outer loop
      vertex 2.87868 2.12132 -2.5
      vertex 3.85195 2.77164 6.5
      vertex 2.87868 2.12132 6.5
    endloop
  endfacet
  facet normal 0.55557 -0.83147 0
    outer loop
      vertex 3.85195 2.77164 6.5
      vertex 2.87868 2.12132 -2.5
      vertex 3.85195 2.77164 -2.5
    endloop
  endfacet
  facet normal -0.980785 0.195092 -4.14956e-017
    outer loop
      vertex 14.3858 -0.574024 -6.5
      vertex 14.5 -5.55112e-016 -2.5
      vertex 14.5 -1.44329e-015 -6.5
    endloop
  endfacet
  facet normal -0.980785 0.195092 0
    outer loop
      vertex 14.5 -5.55112e-016 -2.5
      vertex 14.3858 -0.574024 -6.5
      vertex 14.3858 -0.574024 -2.5
    endloop
  endfacet
  facet normal -0.83147 0.55557 0
    outer loop
      vertex 14.0607 -1.06066 -6.5
      vertex 14.3858 -0.574024 -2.5
      vertex 14.3858 -0.574024 -6.5
    endloop
  endfacet
  facet normal -0.83147 0.55557 0
    outer loop
      vertex 14.3858 -0.574024 -2.5
      vertex 14.0607 -1.06066 -6.5
      vertex 14.0607 -1.06066 -2.5
    endloop
  endfacet
  facet normal 0.19509 0.980785 0
    outer loop
      vertex 12.8063 -1.46146 -6.5
      vertex 13 -1.5 -2.5
      vertex 13 -1.5 -6.5
    endloop
  endfacet
  facet normal 0.19509 0.980785 -1.7066e-009
    outer loop
      vertex 13 -1.5 -2.5
      vertex 12.8063 -1.46146 -6.5
      vertex 12.7489 -1.45005 -2.5
    endloop
  endfacet
  facet normal 0.980785 -0.19509 0
    outer loop
      vertex 11.5 -5.55112e-016 -2.5
      vertex 11.6142 0.574024 -6.5
      vertex 11.6142 0.574024 -2.5
    endloop
  endfacet
  facet normal 0.980785 -0.19509 4.14956e-017
    outer loop
      vertex 11.6142 0.574024 -6.5
      vertex 11.5 -5.55112e-016 -2.5
      vertex 11.5 -1.44329e-015 -6.5
    endloop
  endfacet
  facet normal -0.55557 0.83147 0
    outer loop
      vertex 14.0607 -1.06066 -6.5
      vertex 13.574 -1.38582 -2.5
      vertex 14.0607 -1.06066 -2.5
    endloop
  endfacet
  facet normal -0.55557 0.83147 0
    outer loop
      vertex 13.574 -1.38582 -2.5
      vertex 14.0607 -1.06066 -6.5
      vertex 13.574 -1.38582 -6.5
    endloop
  endfacet
  facet normal 0.195091 0.980785 1.25599e-008
    outer loop
      vertex 12.426 -1.38582 -6.5
      vertex 12.7489 -1.45005 -2.5
      vertex 12.8063 -1.46146 -6.5
    endloop
  endfacet
  facet normal 0.195092 0.980785 0
    outer loop
      vertex 12.7489 -1.45005 -2.5
      vertex 12.426 -1.38582 -6.5
      vertex 12.426 -1.38582 -2.5
    endloop
  endfacet
  facet normal 0.83147 0.55557 0
    outer loop
      vertex 11.9393 -1.06066 -2.5
      vertex 11.6142 -0.574024 -6.5
      vertex 11.6142 -0.574024 -2.5
    endloop
  endfacet
  facet normal 0.83147 0.55557 0
    outer loop
      vertex 11.6142 -0.574024 -6.5
      vertex 11.9393 -1.06066 -2.5
      vertex 11.9393 -1.06066 -6.5
    endloop
  endfacet
  facet normal -0.980785 -0.195092 0
    outer loop
      vertex 14.3858 0.574024 -6.5
      vertex 14.5 -5.55112e-016 -2.5
      vertex 14.3858 0.574024 -2.5
    endloop
  endfacet
  facet normal -0.980785 -0.195092 4.33191e-017
    outer loop
      vertex 14.5 -5.55112e-016 -2.5
      vertex 14.3858 0.574024 -6.5
      vertex 14.5 -1.44329e-015 -6.5
    endloop
  endfacet
  facet normal 0.83147 -0.55557 0
    outer loop
      vertex 11.6142 0.574024 -2.5
      vertex 11.9393 1.06066 -6.5
      vertex 11.9393 1.06066 -2.5
    endloop
  endfacet
  facet normal 0.83147 -0.55557 0
    outer loop
      vertex 11.9393 1.06066 -6.5
      vertex 11.6142 0.574024 -2.5
      vertex 11.6142 0.574024 -6.5
    endloop
  endfacet
  facet normal -0.195092 0.980785 0
    outer loop
      vertex 13.574 -1.38582 -6.5
      vertex 13.2511 -1.45005 -2.5
      vertex 13.574 -1.38582 -2.5
    endloop
  endfacet
  facet normal -0.195092 0.980785 1.95808e-008
    outer loop
      vertex 13.2511 -1.45005 -2.5
      vertex 13.574 -1.38582 -6.5
      vertex 13.1937 -1.46146 -6.5
    endloop
  endfacet
  facet normal -0.19509 0.980785 -1.7066e-009
    outer loop
      vertex 13.1937 -1.46146 -6.5
      vertex 13 -1.5 -2.5
      vertex 13.2511 -1.45005 -2.5
    endloop
  endfacet
  facet normal -0.19509 0.980785 0
    outer loop
      vertex 13 -1.5 -2.5
      vertex 13.1937 -1.46146 -6.5
      vertex 13 -1.5 -6.5
    endloop
  endfacet
  facet normal 0.980785 0.19509 -4.14956e-017
    outer loop
      vertex 11.6142 -0.574024 -2.5
      vertex 11.5 -1.44329e-015 -6.5
      vertex 11.5 -5.55112e-016 -2.5
    endloop
  endfacet
  facet normal 0.980785 0.19509 0
    outer loop
      vertex 11.5 -1.44329e-015 -6.5
      vertex 11.6142 -0.574024 -2.5
      vertex 11.6142 -0.574024 -6.5
    endloop
  endfacet
  facet normal 0.55557 0.83147 -0
    outer loop
      vertex 12.426 -1.38582 -6.5
      vertex 11.9393 -1.06066 -2.5
      vertex 12.426 -1.38582 -2.5
    endloop
  endfacet
  facet normal 0.55557 0.83147 0
    outer loop
      vertex 11.9393 -1.06066 -2.5
      vertex 12.426 -1.38582 -6.5
      vertex 11.9393 -1.06066 -6.5
    endloop
  endfacet
  facet normal -0.83147 -0.55557 0
    outer loop
      vertex 14.3858 0.574024 -6.5
      vertex 14.0607 1.06066 -2.5
      vertex 14.0607 1.06066 -6.5
    endloop
  endfacet
  facet normal -0.83147 -0.55557 0
    outer loop
      vertex 14.0607 1.06066 -2.5
      vertex 14.3858 0.574024 -6.5
      vertex 14.3858 0.574024 -2.5
    endloop
  endfacet
  facet normal 0.55557 -0.83147 0
    outer loop
      vertex 11.9393 1.06066 -6.5
      vertex 12.426 1.38582 -2.5
      vertex 11.9393 1.06066 -2.5
    endloop
  endfacet
  facet normal 0.55557 -0.83147 0
    outer loop
      vertex 12.426 1.38582 -2.5
      vertex 11.9393 1.06066 -6.5
      vertex 12.426 1.38582 -6.5
    endloop
  endfacet
  facet normal -0.195092 -0.980785 -1.83367e-008
    outer loop
      vertex 13.3803 1.42435 -6.5
      vertex 13.574 1.38582 -2.5
      vertex 13.3229 1.43577 -2.5
    endloop
  endfacet
  facet normal -0.195092 -0.980785 -0
    outer loop
      vertex 13.574 1.38582 -2.5
      vertex 13.3803 1.42435 -6.5
      vertex 13.574 1.38582 -6.5
    endloop
  endfacet
  facet normal -0.55557 -0.83147 0
    outer loop
      vertex 13.574 1.38582 -6.5
      vertex 14.0607 1.06066 -2.5
      vertex 13.574 1.38582 -2.5
    endloop
  endfacet
  facet normal -0.55557 -0.83147 -0
    outer loop
      vertex 14.0607 1.06066 -2.5
      vertex 13.574 1.38582 -6.5
      vertex 14.0607 1.06066 -6.5
    endloop
  endfacet
  facet normal -0.19509 -0.980785 0
    outer loop
      vertex 13 1.5 -6.5
      vertex 13.3229 1.43577 -2.5
      vertex 13 1.5 -2.5
    endloop
  endfacet
  facet normal -0.19509 -0.980785 2.4794e-009
    outer loop
      vertex 13.3229 1.43577 -2.5
      vertex 13 1.5 -6.5
      vertex 13.3803 1.42435 -6.5
    endloop
  endfacet
  facet normal 0.195092 -0.980785 0
    outer loop
      vertex 12.6197 1.42435 -6.5
      vertex 12.426 1.38582 -2.5
      vertex 12.426 1.38582 -6.5
    endloop
  endfacet
  facet normal 0.195092 -0.980785 -1.83367e-008
    outer loop
      vertex 12.426 1.38582 -2.5
      vertex 12.6197 1.42435 -6.5
      vertex 12.6771 1.43577 -2.5
    endloop
  endfacet
  facet normal 0.19509 -0.980785 9.50026e-009
    outer loop
      vertex 13 1.5 -6.5
      vertex 12.6771 1.43577 -2.5
      vertex 12.6197 1.42435 -6.5
    endloop
  endfacet
  facet normal 0.19509 -0.980785 0
    outer loop
      vertex 12.6771 1.43577 -2.5
      vertex 13 1.5 -6.5
      vertex 13 1.5 -2.5
    endloop
  endfacet
  facet normal -0.980785 0.195091 0
    outer loop
      vertex 15.7716 -1.14805 -2.5
      vertex 16 -3.55151e-016 -1.59946
      vertex 16 -5.55112e-016 -2.5
    endloop
  endfacet
  facet normal -0.980785 0.195091 0
    outer loop
      vertex 16 -3.55151e-016 -1.59946
      vertex 15.7716 -1.14805 -2.5
      vertex 15.7716 -1.14805 -1.55403
    endloop
  endfacet
  facet normal -0.83147 0.55557 0
    outer loop
      vertex 15.7716 -1.14805 -2.5
      vertex 15.5 -1.55458 -1.5
      vertex 15.7716 -1.14805 -1.55403
    endloop
  endfacet
  facet normal -0.83147 0.55557 3.06754e-008
    outer loop
      vertex 15.1213 -2.12132 -2.5
      vertex 15.5 -1.55458 -1.5
      vertex 15.7716 -1.14805 -2.5
    endloop
  endfacet
  facet normal -0.83147 0.55557 0
    outer loop
      vertex 15.5 -1.55458 -1.5
      vertex 15.1213 -2.12132 -2.5
      vertex 15.1213 -2.12132 -1.5
    endloop
  endfacet
  facet normal 0.195098 0.980784 0
    outer loop
      vertex 13 -3 -1.5
      vertex 13 -3 -2.5
      vertex 12.9713 -2.99429 -1.5
    endloop
  endfacet
  facet normal 0.980785 -0.19509 0
    outer loop
      vertex 10 -3.33067e-016 -1.5
      vertex 10.2284 1.14805 -2.5
      vertex 10.2284 1.14805 -1.5
    endloop
  endfacet
  facet normal 0.980785 -0.19509 0
    outer loop
      vertex 10.2284 1.14805 -2.5
      vertex 10 -3.33067e-016 -1.5
      vertex 10 -5.55112e-016 -2.5
    endloop
  endfacet
  facet normal -0.55557 0.83147 0
    outer loop
      vertex 15.1213 -2.12132 -2.5
      vertex 14.148 -2.77164 -1.5
      vertex 15.1213 -2.12132 -1.5
    endloop
  endfacet
  facet normal -0.55557 0.83147 0
    outer loop
      vertex 14.148 -2.77164 -1.5
      vertex 15.1213 -2.12132 -2.5
      vertex 14.148 -2.77164 -2.5
    endloop
  endfacet
  facet normal 0.195091 0.980785 -2.00643e-007
    outer loop
      vertex 11.8519 -2.77164 -2.5
      vertex 12.9713 -2.99429 -1.5
      vertex 13 -3 -2.5
    endloop
  endfacet
  facet normal 0.195091 0.980785 0
    outer loop
      vertex 12.9713 -2.99429 -1.5
      vertex 11.8519 -2.77164 -2.5
      vertex 11.8519 -2.77164 -1.5
    endloop
  endfacet
  facet normal -0.980785 -0.195091 0
    outer loop
      vertex 15.7716 1.14805 -2.5
      vertex 16 -3.55151e-016 -1.59946
      vertex 15.7716 1.14805 -1.55403
    endloop
  endfacet
  facet normal -0.980785 -0.195091 4.33189e-017
    outer loop
      vertex 16 -3.55151e-016 -1.59946
      vertex 15.7716 1.14805 -2.5
      vertex 16 -5.55112e-016 -2.5
    endloop
  endfacet
  facet normal 0.83147 -0.55557 0
    outer loop
      vertex 10.7976 2 -1.5
      vertex 10.8787 2.12132 6.5
      vertex 10.7976 2 6.5
    endloop
  endfacet
  facet normal 0.83147 -0.55557 0
    outer loop
      vertex 10.8787 2.12132 6.5
      vertex 10.7976 2 -1.5
      vertex 10.8787 2.12132 -2.5
    endloop
  endfacet
  facet normal 0.83147 -0.55557 0
    outer loop
      vertex 10.2284 1.14805 -2.5
      vertex 10.7976 2 -1.5
      vertex 10.2284 1.14805 -1.5
    endloop
  endfacet
  facet normal 0.83147 -0.55557 2.96373e-008
    outer loop
      vertex 10.7976 2 -1.5
      vertex 10.2284 1.14805 -2.5
      vertex 10.8787 2.12132 -2.5
    endloop
  endfacet
  facet normal -0.195091 0.980785 0
    outer loop
      vertex 14.148 -2.77164 -2.5
      vertex 13.0287 -2.99429 -1.5
      vertex 14.148 -2.77164 -1.5
    endloop
  endfacet
  facet normal -0.195091 0.980785 -1.95991e-007
    outer loop
      vertex 13.0287 -2.99429 -1.5
      vertex 14.148 -2.77164 -2.5
      vertex 13 -3 -2.5
    endloop
  endfacet
  facet normal -0.195098 0.980784 0
    outer loop
      vertex 13 -3 -1.5
      vertex 13.0287 -2.99429 -1.5
      vertex 13 -3 -2.5
    endloop
  endfacet
  facet normal 0 0 1
    outer loop
      vertex 14.5 -5.55112e-016 -2.5
      vertex 16 -5.55112e-016 -2.5
      vertex 15.7716 1.14805 -2.5
    endloop
  endfacet
  facet normal 0 0 1
    outer loop
      vertex 14.3858 0.574024 -2.5
      vertex 15.7716 1.14805 -2.5
      vertex 15.1213 2.12132 -2.5
    endloop
  endfacet
  facet normal 0 0 1
    outer loop
      vertex 16 -5.55112e-016 -2.5
      vertex 14.5 -5.55112e-016 -2.5
      vertex 15.7716 -1.14805 -2.5
    endloop
  endfacet
  facet normal -0 0 1
    outer loop
      vertex 14.3858 -0.574024 -2.5
      vertex 15.7716 -1.14805 -2.5
      vertex 14.5 -5.55112e-016 -2.5
    endloop
  endfacet
  facet normal 0 0 1
    outer loop
      vertex 15.7716 1.14805 -2.5
      vertex 14.3858 0.574024 -2.5
      vertex 14.5 -5.55112e-016 -2.5
    endloop
  endfacet
  facet normal 0 0 1
    outer loop
      vertex 14.0607 1.06066 -2.5
      vertex 15.1213 2.12132 -2.5
      vertex 14.148 2.77164 -2.5
    endloop
  endfacet
  facet normal 0 0 1
    outer loop
      vertex 15.1213 2.12132 -2.5
      vertex 14.0607 1.06066 -2.5
      vertex 14.3858 0.574024 -2.5
    endloop
  endfacet
  facet normal 0 0 1
    outer loop
      vertex 14.148 2.77164 -2.5
      vertex 13.574 1.38582 -2.5
      vertex 14.0607 1.06066 -2.5
    endloop
  endfacet
  facet normal 0 0 1
    outer loop
      vertex 14.148 2.77164 -2.5
      vertex 13.3229 1.43577 -2.5
      vertex 13.574 1.38582 -2.5
    endloop
  endfacet
  facet normal 0 0 1
    outer loop
      vertex 13 3 -2.5
      vertex 13.3229 1.43577 -2.5
      vertex 14.148 2.77164 -2.5
    endloop
  endfacet
  facet normal 0 0 1
    outer loop
      vertex 13 3 -2.5
      vertex 13 1.5 -2.5
      vertex 13.3229 1.43577 -2.5
    endloop
  endfacet
  facet normal 0 0 1
    outer loop
      vertex 13 3 -2.5
      vertex 12.6771 1.43577 -2.5
      vertex 13 1.5 -2.5
    endloop
  endfacet
  facet normal -0 0 1
    outer loop
      vertex 11.8519 2.77164 -2.5
      vertex 12.6771 1.43577 -2.5
      vertex 13 3 -2.5
    endloop
  endfacet
  facet normal 0 0 1
    outer loop
      vertex 12.6771 1.43577 -2.5
      vertex 11.8519 2.77164 -2.5
      vertex 12.426 1.38582 -2.5
    endloop
  endfacet
  facet normal 0 0 1
    outer loop
      vertex 12.426 1.38582 -2.5
      vertex 11.8519 2.77164 -2.5
      vertex 11.9393 1.06066 -2.5
    endloop
  endfacet
  facet normal -0 0 1
    outer loop
      vertex 10.8787 2.12132 -2.5
      vertex 11.9393 1.06066 -2.5
      vertex 11.8519 2.77164 -2.5
    endloop
  endfacet
  facet normal 0 0 1
    outer loop
      vertex 11.9393 1.06066 -2.5
      vertex 10.8787 2.12132 -2.5
      vertex 11.6142 0.574024 -2.5
    endloop
  endfacet
  facet normal -0 0 1
    outer loop
      vertex 10.2284 1.14805 -2.5
      vertex 11.6142 0.574024 -2.5
      vertex 10.8787 2.12132 -2.5
    endloop
  endfacet
  facet normal 0 0 1
    outer loop
      vertex 15.7716 -1.14805 -2.5
      vertex 14.3858 -0.574024 -2.5
      vertex 15.1213 -2.12132 -2.5
    endloop
  endfacet
  facet normal -0 0 1
    outer loop
      vertex 14.0607 -1.06066 -2.5
      vertex 15.1213 -2.12132 -2.5
      vertex 14.3858 -0.574024 -2.5
    endloop
  endfacet
  facet normal 0 0 1
    outer loop
      vertex 15.1213 -2.12132 -2.5
      vertex 14.0607 -1.06066 -2.5
      vertex 14.148 -2.77164 -2.5
    endloop
  endfacet
  facet normal -0 0 1
    outer loop
      vertex 13.574 -1.38582 -2.5
      vertex 14.148 -2.77164 -2.5
      vertex 14.0607 -1.06066 -2.5
    endloop
  endfacet
  facet normal -0 0 1
    outer loop
      vertex 13.2511 -1.45005 -2.5
      vertex 14.148 -2.77164 -2.5
      vertex 13.574 -1.38582 -2.5
    endloop
  endfacet
  facet normal 0 0 1
    outer loop
      vertex 13 -3 -2.5
      vertex 13.2511 -1.45005 -2.5
      vertex 13 -1.5 -2.5
    endloop
  endfacet
  facet normal 0 0 1
    outer loop
      vertex 13.2511 -1.45005 -2.5
      vertex 13 -3 -2.5
      vertex 14.148 -2.77164 -2.5
    endloop
  endfacet
  facet normal 0 0 1
    outer loop
      vertex 12.7489 -1.45005 -2.5
      vertex 13 -3 -2.5
      vertex 13 -1.5 -2.5
    endloop
  endfacet
  facet normal 0 0 1
    outer loop
      vertex 11.8519 -2.77164 -2.5
      vertex 12.7489 -1.45005 -2.5
      vertex 12.426 -1.38582 -2.5
    endloop
  endfacet
  facet normal 0 0 1
    outer loop
      vertex 11.8519 -2.77164 -2.5
      vertex 12.426 -1.38582 -2.5
      vertex 11.9393 -1.06066 -2.5
    endloop
  endfacet
  facet normal 0 0 1
    outer loop
      vertex 12.7489 -1.45005 -2.5
      vertex 11.8519 -2.77164 -2.5
      vertex 13 -3 -2.5
    endloop
  endfacet
  facet normal 0 0 1
    outer loop
      vertex 10.8787 -2.12132 -2.5
      vertex 11.9393 -1.06066 -2.5
      vertex 11.6142 -0.574024 -2.5
    endloop
  endfacet
  facet normal 0 0 1
    outer loop
      vertex 10.2284 -1.14805 -2.5
      vertex 11.6142 -0.574024 -2.5
      vertex 11.5 -5.55112e-016 -2.5
    endloop
  endfacet
  facet normal 0 0 1
    outer loop
      vertex 11.6142 0.574024 -2.5
      vertex 10.2284 1.14805 -2.5
      vertex 11.5 -5.55112e-016 -2.5
    endloop
  endfacet
  facet normal 0 0 1
    outer loop
      vertex 11.9393 -1.06066 -2.5
      vertex 10.8787 -2.12132 -2.5
      vertex 11.8519 -2.77164 -2.5
    endloop
  endfacet
  facet normal 0 0 1
    outer loop
      vertex 10 -5.55112e-016 -2.5
      vertex 11.5 -5.55112e-016 -2.5
      vertex 10.2284 1.14805 -2.5
    endloop
  endfacet
  facet normal 0 0 1
    outer loop
      vertex 11.6142 -0.574024 -2.5
      vertex 10.2284 -1.14805 -2.5
      vertex 10.8787 -2.12132 -2.5
    endloop
  endfacet
  facet normal 0 0 1
    outer loop
      vertex 11.5 -5.55112e-016 -2.5
      vertex 10 -5.55112e-016 -2.5
      vertex 10.2284 -1.14805 -2.5
    endloop
  endfacet
  facet normal 0.980785 0.19509 0
    outer loop
      vertex 10.2284 -1.14805 -1.5
      vertex 10 -5.55112e-016 -2.5
      vertex 10 -3.33067e-016 -1.5
    endloop
  endfacet
  facet normal 0.980785 0.19509 0
    outer loop
      vertex 10 -5.55112e-016 -2.5
      vertex 10.2284 -1.14805 -1.5
      vertex 10.2284 -1.14805 -2.5
    endloop
  endfacet
  facet normal 0.55557 0.83147 -0
    outer loop
      vertex 11.8519 -2.77164 -2.5
      vertex 10.8787 -2.12132 -1.5
      vertex 11.8519 -2.77164 -1.5
    endloop
  endfacet
  facet normal 0.55557 0.83147 0
    outer loop
      vertex 10.8787 -2.12132 -1.5
      vertex 11.8519 -2.77164 -2.5
      vertex 10.8787 -2.12132 -2.5
    endloop
  endfacet
  facet normal 0.83147 0.55557 0
    outer loop
      vertex 10.8787 -2.12132 -1.5
      vertex 10.2284 -1.14805 -2.5
      vertex 10.2284 -1.14805 -1.5
    endloop
  endfacet
  facet normal 0.83147 0.55557 0
    outer loop
      vertex 10.2284 -1.14805 -2.5
      vertex 10.8787 -2.12132 -1.5
      vertex 10.8787 -2.12132 -2.5
    endloop
  endfacet
  facet normal -0.83147 -0.55557 0
    outer loop
      vertex 15.1213 2.12132 -2.5
      vertex 15.2024 2 -1.5
      vertex 15.1213 2.12132 6.5
    endloop
  endfacet
  facet normal -0.83147 -0.55557 2.93546e-008
    outer loop
      vertex 15.1213 2.12132 -2.5
      vertex 15.5 1.55458 -1.5
      vertex 15.2024 2 -1.5
    endloop
  endfacet
  facet normal -0.83147 -0.55557 3.06754e-008
    outer loop
      vertex 15.7716 1.14805 -2.5
      vertex 15.5 1.55458 -1.5
      vertex 15.1213 2.12132 -2.5
    endloop
  endfacet
  facet normal -0.83147 -0.55557 0
    outer loop
      vertex 15.5 1.55458 -1.5
      vertex 15.7716 1.14805 -2.5
      vertex 15.7716 1.14805 -1.55403
    endloop
  endfacet
  facet normal -0.83147 -0.55557 0
    outer loop
      vertex 15.1213 2.12132 6.5
      vertex 15.2024 2 -1.5
      vertex 15.2024 2 6.5
    endloop
  endfacet
  facet normal 0.55557 -0.83147 0
    outer loop
      vertex 10.8787 2.12132 -2.5
      vertex 11.8519 2.77164 6.5
      vertex 10.8787 2.12132 6.5
    endloop
  endfacet
  facet normal 0.55557 -0.83147 0
    outer loop
      vertex 11.8519 2.77164 6.5
      vertex 10.8787 2.12132 -2.5
      vertex 11.8519 2.77164 -2.5
    endloop
  endfacet
  facet normal -0.195091 -0.980785 0
    outer loop
      vertex 14.148 2.77164 -2.5
      vertex 14.148 2.77164 6.5
      vertex 13.8897 2.82302 6.5
    endloop
  endfacet
  facet normal -0.55557 -0.83147 0
    outer loop
      vertex 14.148 2.77164 -2.5
      vertex 15.1213 2.12132 6.5
      vertex 14.148 2.77164 6.5
    endloop
  endfacet
  facet normal -0.55557 -0.83147 -0
    outer loop
      vertex 15.1213 2.12132 6.5
      vertex 14.148 2.77164 -2.5
      vertex 15.1213 2.12132 -2.5
    endloop
  endfacet
  facet normal -0.19509 -0.980785 2.59819e-008
    outer loop
      vertex 13 3 -2.5
      vertex 13.8897 2.82302 6.5
      vertex 13 3 6.5
    endloop
  endfacet
  facet normal -0.19509 -0.980785 3.2757e-008
    outer loop
      vertex 13.8897 2.82302 6.5
      vertex 13 3 -2.5
      vertex 14.148 2.77164 -2.5
    endloop
  endfacet
  facet normal 0.195091 -0.980785 0
    outer loop
      vertex 12.1103 2.82302 6.5
      vertex 11.8519 2.77164 6.5
      vertex 11.8519 2.77164 -2.5
    endloop
  endfacet
  facet normal 0.19509 -0.980785 3.74083e-008
    outer loop
      vertex 13 3 -2.5
      vertex 12.1103 2.82302 6.5
      vertex 11.8519 2.77164 -2.5
    endloop
  endfacet
  facet normal 0.19509 -0.980785 2.59819e-008
    outer loop
      vertex 12.1103 2.82302 6.5
      vertex 13 3 -2.5
      vertex 13 3 6.5
    endloop
  endfacet
endsolid OpenSCAD_Model
