solid OpenSCAD_Model
  facet normal 0 -1 0
    outer loop
      vertex -0.888492 8.45344 0.4
      vertex 0.888492 8.45344 4
      vertex -0.888492 8.45344 4
    endloop
  endfacet
  facet normal 0 -1 -0
    outer loop
      vertex 0.888492 8.45344 4
      vertex -0.888492 8.45344 0.4
      vertex 0.888492 8.45344 0.4
    endloop
  endfacet
  facet normal -0.587785 -0.809017 0
    outer loop
      vertex 4.25 7.36122 0.4
      vertex 5.68761 6.31673 4
      vertex 4.25 7.36122 4
    endloop
  endfacet
  facet normal -0.587785 -0.809017 -0
    outer loop
      vertex 5.68761 6.31673 4
      vertex 4.25 7.36122 0.4
      vertex 5.68761 6.31673 0.4
    endloop
  endfacet
  facet normal 0.587785 -0.809017 0
    outer loop
      vertex -5.68761 6.31673 0.4
      vertex -4.25 7.36122 4
      vertex -5.68761 6.31673 4
    endloop
  endfacet
  facet normal 0.587785 -0.809017 0
    outer loop
      vertex -4.25 7.36122 4
      vertex -5.68761 6.31673 0.4
      vertex -4.25 7.36122 0.4
    endloop
  endfacet
  facet normal 0.406737 -0.913545 0
    outer loop
      vertex -4.25 7.36122 0.4
      vertex -2.62664 8.08398 4
      vertex -4.25 7.36122 4
    endloop
  endfacet
  facet normal 0.406737 -0.913545 0
    outer loop
      vertex -2.62664 8.08398 4
      vertex -4.25 7.36122 0.4
      vertex -2.62664 8.08398 0.4
    endloop
  endfacet
  facet normal -0.866025 -0.5 0
    outer loop
      vertex 7.74046 3.5 0.4
      vertex 6.87664 4.99617 4
      vertex 6.87664 4.99617 0.4
    endloop
  endfacet
  facet normal -0.866025 -0.5 0
    outer loop
      vertex 6.87664 4.99617 4
      vertex 7.74046 3.5 0.4
      vertex 7.74046 3.5 4
    endloop
  endfacet
  facet normal -0.743145 -0.669131 0
    outer loop
      vertex 6.87664 4.99617 0.4
      vertex 5.68761 6.31673 4
      vertex 5.68761 6.31673 0.4
    endloop
  endfacet
  facet normal -0.743145 -0.669131 0
    outer loop
      vertex 5.68761 6.31673 4
      vertex 6.87664 4.99617 0.4
      vertex 6.87664 4.99617 4
    endloop
  endfacet
  facet normal -0.207912 -0.978148 0
    outer loop
      vertex 0.888492 8.45344 0.4
      vertex 2.62664 8.08398 4
      vertex 0.888492 8.45344 4
    endloop
  endfacet
  facet normal -0.207912 -0.978148 -0
    outer loop
      vertex 2.62664 8.08398 4
      vertex 0.888492 8.45344 0.4
      vertex 2.62664 8.08398 0.4
    endloop
  endfacet
  facet normal -0.406736 -0.913546 0
    outer loop
      vertex 2.62664 8.08398 0.4
      vertex 4.25 7.36122 4
      vertex 2.62664 8.08398 4
    endloop
  endfacet
  facet normal -0.406736 -0.913546 -0
    outer loop
      vertex 4.25 7.36122 4
      vertex 2.62664 8.08398 0.4
      vertex 4.25 7.36122 0.4
    endloop
  endfacet
  facet normal 0.866025 -0.5 0
    outer loop
      vertex -7.74046 3.5 4
      vertex -6.87664 4.99617 0.4
      vertex -6.87664 4.99617 4
    endloop
  endfacet
  facet normal 0.866025 -0.5 0
    outer loop
      vertex -6.87664 4.99617 0.4
      vertex -7.74046 3.5 4
      vertex -7.74046 3.5 0.4
    endloop
  endfacet
  facet normal 0.743145 -0.669131 0
    outer loop
      vertex -6.87664 4.99617 4
      vertex -5.68761 6.31673 0.4
      vertex -5.68761 6.31673 4
    endloop
  endfacet
  facet normal 0.743145 -0.669131 0
    outer loop
      vertex -5.68761 6.31673 0.4
      vertex -6.87664 4.99617 4
      vertex -6.87664 4.99617 0.4
    endloop
  endfacet
  facet normal 0.207912 -0.978148 0
    outer loop
      vertex -2.62664 8.08398 0.4
      vertex -0.888492 8.45344 4
      vertex -2.62664 8.08398 4
    endloop
  endfacet
  facet normal 0.207912 -0.978148 0
    outer loop
      vertex -0.888492 8.45344 4
      vertex -2.62664 8.08398 0.4
      vertex -0.888492 8.45344 0.4
    endloop
  endfacet
  facet normal 0 0 1
    outer loop
      vertex 15.5 3.5 0.4
      vertex 12.2 1.6 0.4
      vertex 15.5 1.6 0.4
    endloop
  endfacet
  facet normal 0 0 1
    outer loop
      vertex 12.2 1.6 0.4
      vertex 12.0328 1.59123 0.4
      vertex 12.2 1.59123 0.4
    endloop
  endfacet
  facet normal 0 0 1
    outer loop
      vertex 15.5 3.5 0.4
      vertex 12.0328 1.59123 0.4
      vertex 12.2 1.6 0.4
    endloop
  endfacet
  facet normal -0 0 1
    outer loop
      vertex 7.74046 3.5 0.4
      vertex 12.0328 1.59123 0.4
      vertex 15.5 3.5 0.4
    endloop
  endfacet
  facet normal 0 0 1
    outer loop
      vertex 12.0328 1.59123 0.4
      vertex 7.74046 3.5 0.4
      vertex 11.7056 1.52169 0.4
    endloop
  endfacet
  facet normal -0 0 1
    outer loop
      vertex 5.9667 1.26826 0.4
      vertex 10.635 0.332658 0.4
      vertex 7.74046 3.5 0.4
    endloop
  endfacet
  facet normal 0 0 1
    outer loop
      vertex 10.7383 0.650778 0.4
      vertex 7.74046 3.5 0.4
      vertex 10.635 0.332658 0.4
    endloop
  endfacet
  facet normal 0 0 1
    outer loop
      vertex 10.9056 0.940456 0.4
      vertex 7.74046 3.5 0.4
      vertex 10.7383 0.650778 0.4
    endloop
  endfacet
  facet normal 0 0 1
    outer loop
      vertex 11.1294 1.18903 0.4
      vertex 7.74046 3.5 0.4
      vertex 10.9056 0.940456 0.4
    endloop
  endfacet
  facet normal 0 0 1
    outer loop
      vertex 11.4 1.38564 0.4
      vertex 7.74046 3.5 0.4
      vertex 11.1294 1.18903 0.4
    endloop
  endfacet
  facet normal 0 0 1
    outer loop
      vertex 11.7056 1.52169 0.4
      vertex 7.74046 3.5 0.4
      vertex 11.4 1.38564 0.4
    endloop
  endfacet
  facet normal 0 0 1
    outer loop
      vertex 12.2 -1.59123 0.4
      vertex 12.0328 -1.59123 0.4
      vertex 12.2 -1.6 0.4
    endloop
  endfacet
  facet normal -0 0 1
    outer loop
      vertex 12.2 -1.6 0.4
      vertex 15.5 -7.5 0.4
      vertex 15.5 -1.6 0.4
    endloop
  endfacet
  facet normal 0 0 1
    outer loop
      vertex 12.0328 -1.59123 0.4
      vertex 15.5 -7.5 0.4
      vertex 12.2 -1.6 0.4
    endloop
  endfacet
  facet normal 0 0 1
    outer loop
      vertex 15.5 -7.5 0.4
      vertex 13 -10 0.4
      vertex 15.3097 -8.45671 0.4
    endloop
  endfacet
  facet normal 0 0 1
    outer loop
      vertex 15.3097 -8.45671 0.4
      vertex 13 -10 0.4
      vertex 14.7678 -9.26777 0.4
    endloop
  endfacet
  facet normal 0 0 1
    outer loop
      vertex 14.7678 -9.26777 0.4
      vertex 13 -10 0.4
      vertex 13.9567 -9.8097 0.4
    endloop
  endfacet
  facet normal 0 0 1
    outer loop
      vertex 15.5 -7.5 0.4
      vertex 12.0328 -1.59123 0.4
      vertex 13 -10 0.4
    endloop
  endfacet
  facet normal 0 0 1
    outer loop
      vertex 11.7056 -1.52169 0.4
      vertex 13 -10 0.4
      vertex 12.0328 -1.59123 0.4
    endloop
  endfacet
  facet normal 0 0 1
    outer loop
      vertex 6.1 -10 0.4
      vertex 11.7056 -1.52169 0.4
      vertex 11.4 -1.38564 0.4
    endloop
  endfacet
  facet normal 0 0 1
    outer loop
      vertex 6.1 -10 0.4
      vertex 11.4 -1.38564 0.4
      vertex 11.1294 -1.18903 0.4
    endloop
  endfacet
  facet normal 0 0 1
    outer loop
      vertex 6.1 0 0.4
      vertex 11.1294 -1.18903 0.4
      vertex 10.9056 -0.940456 0.4
    endloop
  endfacet
  facet normal 0 0 1
    outer loop
      vertex 6.1 0 0.4
      vertex 10.9056 -0.940456 0.4
      vertex 10.7383 -0.650778 0.4
    endloop
  endfacet
  facet normal 0 0 1
    outer loop
      vertex 6.1 0 0.4
      vertex 10.7383 -0.650778 0.4
      vertex 10.635 -0.332658 0.4
    endloop
  endfacet
  facet normal 0 -0 1
    outer loop
      vertex 6.1 0 0.4
      vertex 10.635 0.332658 0.4
      vertex 5.9667 1.26826 0.4
    endloop
  endfacet
  facet normal 0 0 1
    outer loop
      vertex 10.635 0.332658 0.4
      vertex 6.1 0 0.4
      vertex 10.6 0 0.4
    endloop
  endfacet
  facet normal -0 0 1
    outer loop
      vertex 4.935 3.58549 0.4
      vertex 7.74046 3.5 0.4
      vertex 6.87664 4.99617 0.4
    endloop
  endfacet
  facet normal 0 0 1
    outer loop
      vertex 11.1294 -1.18903 0.4
      vertex 6.1 0 0.4
      vertex 6.1 -10 0.4
    endloop
  endfacet
  facet normal 0 0 1
    outer loop
      vertex 11.7056 -1.52169 0.4
      vertex 6.1 -10 0.4
      vertex 13 -10 0.4
    endloop
  endfacet
  facet normal 0 0 1
    outer loop
      vertex -6.1 0 0.4
      vertex -10.635 0.332658 0.4
      vertex -10.6 0 0.4
    endloop
  endfacet
  facet normal 0 0 1
    outer loop
      vertex -7.74046 3.5 0.4
      vertex -10.7383 0.650778 0.4
      vertex -10.635 0.332658 0.4
    endloop
  endfacet
  facet normal 0 0 1
    outer loop
      vertex -7.74046 3.5 0.4
      vertex -10.9056 0.940456 0.4
      vertex -10.7383 0.650778 0.4
    endloop
  endfacet
  facet normal 0 0 1
    outer loop
      vertex -7.74046 3.5 0.4
      vertex -11.1294 1.18903 0.4
      vertex -10.9056 0.940456 0.4
    endloop
  endfacet
  facet normal 0 0 1
    outer loop
      vertex -7.74046 3.5 0.4
      vertex -11.4 1.38564 0.4
      vertex -11.1294 1.18903 0.4
    endloop
  endfacet
  facet normal 0 0 1
    outer loop
      vertex -7.74046 3.5 0.4
      vertex -11.7056 1.52169 0.4
      vertex -11.4 1.38564 0.4
    endloop
  endfacet
  facet normal 0 0 1
    outer loop
      vertex -7.74046 3.5 0.4
      vertex -12.0328 1.59123 0.4
      vertex -11.7056 1.52169 0.4
    endloop
  endfacet
  facet normal -0 0 1
    outer loop
      vertex -15.5 3.5 0.4
      vertex -12.0328 1.59123 0.4
      vertex -7.74046 3.5 0.4
    endloop
  endfacet
  facet normal 0 0 1
    outer loop
      vertex -12.0328 1.59123 0.4
      vertex -15.5 3.5 0.4
      vertex -12.2 1.6 0.4
    endloop
  endfacet
  facet normal 0 0 1
    outer loop
      vertex -12.2 1.6 0.4
      vertex -15.5 3.5 0.4
      vertex -15.5 1.6 0.4
    endloop
  endfacet
  facet normal 0 0 1
    outer loop
      vertex 10.6 0 0.4
      vertex 6.1 0 0.4
      vertex 10.635 -0.332658 0.4
    endloop
  endfacet
  facet normal 0 0 1
    outer loop
      vertex 4.935 3.58549 0.4
      vertex 6.87664 4.99617 0.4
      vertex 5.68761 6.31673 0.4
    endloop
  endfacet
  facet normal 0 0 1
    outer loop
      vertex 7.74046 3.5 0.4
      vertex 5.57263 2.48109 0.4
      vertex 5.9667 1.26826 0.4
    endloop
  endfacet
  facet normal 0 0 1
    outer loop
      vertex 7.74046 3.5 0.4
      vertex 4.935 3.58549 0.4
      vertex 5.57263 2.48109 0.4
    endloop
  endfacet
  facet normal 0 0 1
    outer loop
      vertex 4.0817 4.53318 0.4
      vertex 5.68761 6.31673 0.4
      vertex 4.25 7.36122 0.4
    endloop
  endfacet
  facet normal 0 0 1
    outer loop
      vertex 5.68761 6.31673 0.4
      vertex 4.0817 4.53318 0.4
      vertex 4.935 3.58549 0.4
    endloop
  endfacet
  facet normal 0 0 1
    outer loop
      vertex 4.25 7.36122 0.4
      vertex 3.05 5.28275 0.4
      vertex 4.0817 4.53318 0.4
    endloop
  endfacet
  facet normal 0 0 1
    outer loop
      vertex 2.62664 8.08398 0.4
      vertex 3.05 5.28275 0.4
      vertex 4.25 7.36122 0.4
    endloop
  endfacet
  facet normal 0 0 1
    outer loop
      vertex 2.62664 8.08398 0.4
      vertex 1.885 5.80144 0.4
      vertex 3.05 5.28275 0.4
    endloop
  endfacet
  facet normal 0 0 1
    outer loop
      vertex 0.888492 8.45344 0.4
      vertex 1.885 5.80144 0.4
      vertex 2.62664 8.08398 0.4
    endloop
  endfacet
  facet normal 0 0 1
    outer loop
      vertex 0.888492 8.45344 0.4
      vertex 0.637623 6.06658 0.4
      vertex 1.885 5.80144 0.4
    endloop
  endfacet
  facet normal 0 0 1
    outer loop
      vertex 0.888492 8.45344 0.4
      vertex -0.637623 6.06658 0.4
      vertex 0.637623 6.06658 0.4
    endloop
  endfacet
  facet normal -0 0 1
    outer loop
      vertex -0.888492 8.45344 0.4
      vertex -0.637623 6.06658 0.4
      vertex 0.888492 8.45344 0.4
    endloop
  endfacet
  facet normal 0 0 1
    outer loop
      vertex -0.888492 8.45344 0.4
      vertex -1.885 5.80144 0.4
      vertex -0.637623 6.06658 0.4
    endloop
  endfacet
  facet normal -0 0 1
    outer loop
      vertex -2.62664 8.08398 0.4
      vertex -1.885 5.80144 0.4
      vertex -0.888492 8.45344 0.4
    endloop
  endfacet
  facet normal 0 0 1
    outer loop
      vertex -2.62664 8.08398 0.4
      vertex -3.05 5.28275 0.4
      vertex -1.885 5.80144 0.4
    endloop
  endfacet
  facet normal -0 0 1
    outer loop
      vertex -4.25 7.36122 0.4
      vertex -3.05 5.28275 0.4
      vertex -2.62664 8.08398 0.4
    endloop
  endfacet
  facet normal 0 0 1
    outer loop
      vertex -3.05 5.28275 0.4
      vertex -4.25 7.36122 0.4
      vertex -4.0817 4.53318 0.4
    endloop
  endfacet
  facet normal -0 0 1
    outer loop
      vertex -5.68761 6.31673 0.4
      vertex -4.0817 4.53318 0.4
      vertex -4.25 7.36122 0.4
    endloop
  endfacet
  facet normal 0 0 1
    outer loop
      vertex -4.0817 4.53318 0.4
      vertex -5.68761 6.31673 0.4
      vertex -4.935 3.58549 0.4
    endloop
  endfacet
  facet normal -0 0 1
    outer loop
      vertex -6.87664 4.99617 0.4
      vertex -4.935 3.58549 0.4
      vertex -5.68761 6.31673 0.4
    endloop
  endfacet
  facet normal 0 0 1
    outer loop
      vertex -7.74046 3.5 0.4
      vertex -4.935 3.58549 0.4
      vertex -6.87664 4.99617 0.4
    endloop
  endfacet
  facet normal 0 0 1
    outer loop
      vertex -4.935 3.58549 0.4
      vertex -7.74046 3.5 0.4
      vertex -5.57263 2.48109 0.4
    endloop
  endfacet
  facet normal 0 0 1
    outer loop
      vertex -5.57263 2.48109 0.4
      vertex -7.74046 3.5 0.4
      vertex -5.9667 1.26826 0.4
    endloop
  endfacet
  facet normal 0 0 1
    outer loop
      vertex -10.635 0.332658 0.4
      vertex -5.9667 1.26826 0.4
      vertex -7.74046 3.5 0.4
    endloop
  endfacet
  facet normal -0 0 1
    outer loop
      vertex -10.635 0.332658 0.4
      vertex -6.1 0 0.4
      vertex -5.9667 1.26826 0.4
    endloop
  endfacet
  facet normal 0 0 1
    outer loop
      vertex -6.1 0 0.4
      vertex -10.6 0 0.4
      vertex -10.635 -0.332658 0.4
    endloop
  endfacet
  facet normal 0 0 1
    outer loop
      vertex -10.7383 -0.650778 0.4
      vertex -6.1 0 0.4
      vertex -10.635 -0.332658 0.4
    endloop
  endfacet
  facet normal 0 0 1
    outer loop
      vertex -10.9056 -0.940456 0.4
      vertex -6.1 0 0.4
      vertex -10.7383 -0.650778 0.4
    endloop
  endfacet
  facet normal 0 0 1
    outer loop
      vertex -11.1294 -1.18903 0.4
      vertex -6.1 0 0.4
      vertex -10.9056 -0.940456 0.4
    endloop
  endfacet
  facet normal 0 0 1
    outer loop
      vertex -6.1 0 0.4
      vertex -11.1294 -1.18903 0.4
      vertex -6.1 -10 0.4
    endloop
  endfacet
  facet normal -0 0 1
    outer loop
      vertex -11.4 -1.38564 0.4
      vertex -6.1 -10 0.4
      vertex -11.1294 -1.18903 0.4
    endloop
  endfacet
  facet normal -0 0 1
    outer loop
      vertex -11.7056 -1.52169 0.4
      vertex -6.1 -10 0.4
      vertex -11.4 -1.38564 0.4
    endloop
  endfacet
  facet normal 0 0 1
    outer loop
      vertex -13 -10 0.4
      vertex -11.7056 -1.52169 0.4
      vertex -12.0328 -1.59123 0.4
    endloop
  endfacet
  facet normal 0 0 1
    outer loop
      vertex -12.2 -1.6 0.4
      vertex -12.0328 -1.59123 0.4
      vertex -12.2 -1.59123 0.4
    endloop
  endfacet
  facet normal 0 0 1
    outer loop
      vertex -15.5 -7.5 0.4
      vertex -12.0328 -1.59123 0.4
      vertex -12.2 -1.6 0.4
    endloop
  endfacet
  facet normal 0 0 1
    outer loop
      vertex -11.7056 -1.52169 0.4
      vertex -13 -10 0.4
      vertex -6.1 -10 0.4
    endloop
  endfacet
  facet normal 0 0 1
    outer loop
      vertex -12.0328 -1.59123 0.4
      vertex -15.5 -7.5 0.4
      vertex -13 -10 0.4
    endloop
  endfacet
  facet normal 0 0 1
    outer loop
      vertex -13 -10 0.4
      vertex -15.5 -7.5 0.4
      vertex -13.9567 -9.8097 0.4
    endloop
  endfacet
  facet normal 0 0 1
    outer loop
      vertex -13.9567 -9.8097 0.4
      vertex -15.5 -7.5 0.4
      vertex -14.7678 -9.26777 0.4
    endloop
  endfacet
  facet normal 0 0 1
    outer loop
      vertex -15.5 -7.5 0.4
      vertex -12.2 -1.6 0.4
      vertex -15.5 -1.6 0.4
    endloop
  endfacet
  facet normal 0 0 1
    outer loop
      vertex -14.7678 -9.26777 0.4
      vertex -15.5 -7.5 0.4
      vertex -15.3097 -8.45671 0.4
    endloop
  endfacet
  facet normal 0 0 1
    outer loop
      vertex -12.0328 1.59123 0.4
      vertex -12.2 1.6 0.4
      vertex -12.2 1.59123 0.4
    endloop
  endfacet
  facet normal 0 -1 0
    outer loop
      vertex -15.5 3.5 0.4
      vertex -7.74046 3.5 4
      vertex -15.5 3.5 4
    endloop
  endfacet
  facet normal 0 -1 -0
    outer loop
      vertex -7.74046 3.5 4
      vertex -15.5 3.5 0.4
      vertex -7.74046 3.5 0.4
    endloop
  endfacet
  facet normal 0 -1 0
    outer loop
      vertex 7.74046 3.5 0.4
      vertex 15.5 3.5 4
      vertex 7.74046 3.5 4
    endloop
  endfacet
  facet normal 0 -1 -0
    outer loop
      vertex 15.5 3.5 4
      vertex 7.74046 3.5 0.4
      vertex 15.5 3.5 0.4
    endloop
  endfacet
  facet normal -0.994522 -0.104529 0
    outer loop
      vertex 6.1 0 -4
      vertex 5.9667 1.26826 0.4
      vertex 5.9667 1.26826 -4
    endloop
  endfacet
  facet normal -0.994522 -0.104529 0
    outer loop
      vertex 5.9667 1.26826 0.4
      vertex 6.1 0 -4
      vertex 6.1 0 0.4
    endloop
  endfacet
  facet normal 0.994522 -0.104529 0
    outer loop
      vertex -6.1 0 0.4
      vertex -5.9667 1.26826 -4
      vertex -5.9667 1.26826 0.4
    endloop
  endfacet
  facet normal 0.994522 -0.104529 0
    outer loop
      vertex -5.9667 1.26826 -4
      vertex -6.1 0 0.4
      vertex -6.1 0 -4
    endloop
  endfacet
  facet normal 0 -1 0
    outer loop
      vertex -0.637623 6.06658 -4
      vertex 0.637623 6.06658 0.4
      vertex -0.637623 6.06658 0.4
    endloop
  endfacet
  facet normal 0 -1 -0
    outer loop
      vertex 0.637623 6.06658 0.4
      vertex -0.637623 6.06658 -4
      vertex 0.637623 6.06658 -4
    endloop
  endfacet
  facet normal -0.743145 -0.66913 0
    outer loop
      vertex 4.935 3.58549 -4
      vertex 4.0817 4.53318 0.4
      vertex 4.0817 4.53318 -4
    endloop
  endfacet
  facet normal -0.743145 -0.66913 0
    outer loop
      vertex 4.0817 4.53318 0.4
      vertex 4.935 3.58549 -4
      vertex 4.935 3.58549 0.4
    endloop
  endfacet
  facet normal -0.951057 -0.309017 0
    outer loop
      vertex 5.9667 1.26826 -4
      vertex 5.57263 2.48109 0.4
      vertex 5.57263 2.48109 -4
    endloop
  endfacet
  facet normal -0.951057 -0.309017 0
    outer loop
      vertex 5.57263 2.48109 0.4
      vertex 5.9667 1.26826 -4
      vertex 5.9667 1.26826 0.4
    endloop
  endfacet
  facet normal 0.587785 -0.809017 0
    outer loop
      vertex -4.0817 4.53318 -4
      vertex -3.05 5.28275 0.4
      vertex -4.0817 4.53318 0.4
    endloop
  endfacet
  facet normal 0.587785 -0.809017 0
    outer loop
      vertex -3.05 5.28275 0.4
      vertex -4.0817 4.53318 -4
      vertex -3.05 5.28275 -4
    endloop
  endfacet
  facet normal 0.406736 -0.913546 0
    outer loop
      vertex -3.05 5.28275 -4
      vertex -1.885 5.80144 0.4
      vertex -3.05 5.28275 0.4
    endloop
  endfacet
  facet normal 0.406736 -0.913546 0
    outer loop
      vertex -1.885 5.80144 0.4
      vertex -3.05 5.28275 -4
      vertex -1.885 5.80144 -4
    endloop
  endfacet
  facet normal -0.866025 -0.5 0
    outer loop
      vertex 5.57263 2.48109 -4
      vertex 4.935 3.58549 0.4
      vertex 4.935 3.58549 -4
    endloop
  endfacet
  facet normal -0.866025 -0.5 0
    outer loop
      vertex 4.935 3.58549 0.4
      vertex 5.57263 2.48109 -4
      vertex 5.57263 2.48109 0.4
    endloop
  endfacet
  facet normal -0.406736 -0.913546 0
    outer loop
      vertex 1.885 5.80144 -4
      vertex 3.05 5.28275 0.4
      vertex 1.885 5.80144 0.4
    endloop
  endfacet
  facet normal -0.406736 -0.913546 -0
    outer loop
      vertex 3.05 5.28275 0.4
      vertex 1.885 5.80144 -4
      vertex 3.05 5.28275 -4
    endloop
  endfacet
  facet normal -0.207912 -0.978148 0
    outer loop
      vertex 0.637623 6.06658 -4
      vertex 1.885 5.80144 0.4
      vertex 0.637623 6.06658 0.4
    endloop
  endfacet
  facet normal -0.207912 -0.978148 -0
    outer loop
      vertex 1.885 5.80144 0.4
      vertex 0.637623 6.06658 -4
      vertex 1.885 5.80144 -4
    endloop
  endfacet
  facet normal -0.587785 -0.809017 0
    outer loop
      vertex 3.05 5.28275 -4
      vertex 4.0817 4.53318 0.4
      vertex 3.05 5.28275 0.4
    endloop
  endfacet
  facet normal -0.587785 -0.809017 -0
    outer loop
      vertex 4.0817 4.53318 0.4
      vertex 3.05 5.28275 -4
      vertex 4.0817 4.53318 -4
    endloop
  endfacet
  facet normal 0.866025 -0.5 0
    outer loop
      vertex -5.57263 2.48109 0.4
      vertex -4.935 3.58549 -4
      vertex -4.935 3.58549 0.4
    endloop
  endfacet
  facet normal 0.866025 -0.5 0
    outer loop
      vertex -4.935 3.58549 -4
      vertex -5.57263 2.48109 0.4
      vertex -5.57263 2.48109 -4
    endloop
  endfacet
  facet normal 0.743145 -0.66913 0
    outer loop
      vertex -4.935 3.58549 0.4
      vertex -4.0817 4.53318 -4
      vertex -4.0817 4.53318 0.4
    endloop
  endfacet
  facet normal 0.743145 -0.66913 0
    outer loop
      vertex -4.0817 4.53318 -4
      vertex -4.935 3.58549 0.4
      vertex -4.935 3.58549 -4
    endloop
  endfacet
  facet normal 0.951057 -0.309017 0
    outer loop
      vertex -5.9667 1.26826 0.4
      vertex -5.57263 2.48109 -4
      vertex -5.57263 2.48109 0.4
    endloop
  endfacet
  facet normal 0.951057 -0.309017 0
    outer loop
      vertex -5.57263 2.48109 -4
      vertex -5.9667 1.26826 0.4
      vertex -5.9667 1.26826 -4
    endloop
  endfacet
  facet normal 0.207912 -0.978148 0
    outer loop
      vertex -1.885 5.80144 -4
      vertex -0.637623 6.06658 0.4
      vertex -1.885 5.80144 0.4
    endloop
  endfacet
  facet normal 0.207912 -0.978148 0
    outer loop
      vertex -0.637623 6.06658 0.4
      vertex -1.885 5.80144 -4
      vertex -0.637623 6.06658 -4
    endloop
  endfacet
  facet normal 1 -0 0
    outer loop
      vertex -6.1 -10 0.4
      vertex -6.1 0 -4
      vertex -6.1 0 0.4
    endloop
  endfacet
  facet normal 1 0 0
    outer loop
      vertex -6.1 0 -4
      vertex -6.1 -10 0.4
      vertex -6.1 -10 -4
    endloop
  endfacet
  facet normal -1 0 0
    outer loop
      vertex 6.1 -10 -4
      vertex 6.1 0 0.4
      vertex 6.1 0 -4
    endloop
  endfacet
  facet normal -1 -0 0
    outer loop
      vertex 6.1 0 0.4
      vertex 6.1 -10 -4
      vertex 6.1 -10 0.4
    endloop
  endfacet
  facet normal -0.994522 -0.104528 0
    outer loop
      vertex -10.6 0 -4
      vertex -10.635 0.332658 0.4
      vertex -10.635 0.332658 -4
    endloop
  endfacet
  facet normal -0.994522 -0.104528 0
    outer loop
      vertex -10.635 0.332658 0.4
      vertex -10.6 0 -4
      vertex -10.6 0 0.4
    endloop
  endfacet
  facet normal 0 -1 0
    outer loop
      vertex -12.2 1.59123 -4
      vertex -12.0328 1.59123 0.4
      vertex -12.2 1.59123 0.4
    endloop
  endfacet
  facet normal 0 -1 -0
    outer loop
      vertex -12.0328 1.59123 0.4
      vertex -12.2 1.59123 -4
      vertex -12.0328 1.59123 -4
    endloop
  endfacet
  facet normal 0 1 -0
    outer loop
      vertex -12.0328 -1.59123 -4
      vertex -12.2 -1.59123 0.4
      vertex -12.0328 -1.59123 0.4
    endloop
  endfacet
  facet normal 0 1 0
    outer loop
      vertex -12.2 -1.59123 0.4
      vertex -12.0328 -1.59123 -4
      vertex -12.2 -1.59123 -4
    endloop
  endfacet
  facet normal -0.743144 -0.669132 0
    outer loop
      vertex -10.9056 0.940456 -4
      vertex -11.1294 1.18903 0.4
      vertex -11.1294 1.18903 -4
    endloop
  endfacet
  facet normal -0.743144 -0.669132 0
    outer loop
      vertex -11.1294 1.18903 0.4
      vertex -10.9056 0.940456 -4
      vertex -10.9056 0.940456 0.4
    endloop
  endfacet
  facet normal -0.866027 -0.499998 0
    outer loop
      vertex -10.7383 0.650778 -4
      vertex -10.9056 0.940456 0.4
      vertex -10.9056 0.940456 -4
    endloop
  endfacet
  facet normal -0.866027 -0.499998 0
    outer loop
      vertex -10.9056 0.940456 0.4
      vertex -10.7383 0.650778 -4
      vertex -10.7383 0.650778 0.4
    endloop
  endfacet
  facet normal -0.951056 -0.309018 0
    outer loop
      vertex -10.635 0.332658 -4
      vertex -10.7383 0.650778 0.4
      vertex -10.7383 0.650778 -4
    endloop
  endfacet
  facet normal -0.951056 -0.309018 0
    outer loop
      vertex -10.7383 0.650778 0.4
      vertex -10.635 0.332658 -4
      vertex -10.635 0.332658 0.4
    endloop
  endfacet
  facet normal -0.406738 -0.913545 0
    outer loop
      vertex -11.7056 1.52169 -4
      vertex -11.4 1.38564 0.4
      vertex -11.7056 1.52169 0.4
    endloop
  endfacet
  facet normal -0.406738 -0.913545 -0
    outer loop
      vertex -11.4 1.38564 0.4
      vertex -11.7056 1.52169 -4
      vertex -11.4 1.38564 -4
    endloop
  endfacet
  facet normal -0.207909 -0.978148 0
    outer loop
      vertex -12.0328 1.59123 -4
      vertex -11.7056 1.52169 0.4
      vertex -12.0328 1.59123 0.4
    endloop
  endfacet
  facet normal -0.207909 -0.978148 -0
    outer loop
      vertex -11.7056 1.52169 0.4
      vertex -12.0328 1.59123 -4
      vertex -11.7056 1.52169 -4
    endloop
  endfacet
  facet normal -0.587785 -0.809017 0
    outer loop
      vertex -11.4 1.38564 -4
      vertex -11.1294 1.18903 0.4
      vertex -11.4 1.38564 0.4
    endloop
  endfacet
  facet normal -0.587785 -0.809017 -0
    outer loop
      vertex -11.1294 1.18903 0.4
      vertex -11.4 1.38564 -4
      vertex -11.1294 1.18903 -4
    endloop
  endfacet
  facet normal -0.994522 0.104528 0
    outer loop
      vertex -10.635 -0.332658 -4
      vertex -10.6 0 0.4
      vertex -10.6 0 -4
    endloop
  endfacet
  facet normal -0.994522 0.104528 0
    outer loop
      vertex -10.6 0 0.4
      vertex -10.635 -0.332658 -4
      vertex -10.635 -0.332658 0.4
    endloop
  endfacet
  facet normal -0.207909 0.978148 0
    outer loop
      vertex -11.7056 -1.52169 -4
      vertex -12.0328 -1.59123 0.4
      vertex -11.7056 -1.52169 0.4
    endloop
  endfacet
  facet normal -0.207909 0.978148 0
    outer loop
      vertex -12.0328 -1.59123 0.4
      vertex -11.7056 -1.52169 -4
      vertex -12.0328 -1.59123 -4
    endloop
  endfacet
  facet normal -0.743144 0.669132 0
    outer loop
      vertex -11.1294 -1.18903 -4
      vertex -10.9056 -0.940456 0.4
      vertex -10.9056 -0.940456 -4
    endloop
  endfacet
  facet normal -0.743144 0.669132 0
    outer loop
      vertex -10.9056 -0.940456 0.4
      vertex -11.1294 -1.18903 -4
      vertex -11.1294 -1.18903 0.4
    endloop
  endfacet
  facet normal -0.951056 0.309018 0
    outer loop
      vertex -10.7383 -0.650778 -4
      vertex -10.635 -0.332658 0.4
      vertex -10.635 -0.332658 -4
    endloop
  endfacet
  facet normal -0.951056 0.309018 0
    outer loop
      vertex -10.635 -0.332658 0.4
      vertex -10.7383 -0.650778 -4
      vertex -10.7383 -0.650778 0.4
    endloop
  endfacet
  facet normal -0.866027 0.499998 0
    outer loop
      vertex -10.9056 -0.940456 -4
      vertex -10.7383 -0.650778 0.4
      vertex -10.7383 -0.650778 -4
    endloop
  endfacet
  facet normal -0.866027 0.499998 0
    outer loop
      vertex -10.7383 -0.650778 0.4
      vertex -10.9056 -0.940456 -4
      vertex -10.9056 -0.940456 0.4
    endloop
  endfacet
  facet normal -0.587785 0.809017 0
    outer loop
      vertex -11.1294 -1.18903 -4
      vertex -11.4 -1.38564 0.4
      vertex -11.1294 -1.18903 0.4
    endloop
  endfacet
  facet normal -0.587785 0.809017 0
    outer loop
      vertex -11.4 -1.38564 0.4
      vertex -11.1294 -1.18903 -4
      vertex -11.4 -1.38564 -4
    endloop
  endfacet
  facet normal -0.406738 0.913545 0
    outer loop
      vertex -11.4 -1.38564 -4
      vertex -11.7056 -1.52169 0.4
      vertex -11.4 -1.38564 0.4
    endloop
  endfacet
  facet normal -0.406738 0.913545 0
    outer loop
      vertex -11.7056 -1.52169 0.4
      vertex -11.4 -1.38564 -4
      vertex -11.7056 -1.52169 -4
    endloop
  endfacet
  facet normal -1 0 0
    outer loop
      vertex -12.2 1.59123 -4
      vertex -12.2 1.6 0.4
      vertex -12.2 1.6 -4
    endloop
  endfacet
  facet normal -1 -0 0
    outer loop
      vertex -12.2 1.6 0.4
      vertex -12.2 1.59123 -4
      vertex -12.2 1.59123 0.4
    endloop
  endfacet
  facet normal -1 0 0
    outer loop
      vertex -12.2 -1.6 -4
      vertex -12.2 -1.59123 0.4
      vertex -12.2 -1.59123 -4
    endloop
  endfacet
  facet normal -1 -0 0
    outer loop
      vertex -12.2 -1.59123 0.4
      vertex -12.2 -1.6 -4
      vertex -12.2 -1.6 0.4
    endloop
  endfacet
  facet normal 0 -1 0
    outer loop
      vertex -15.5 1.6 -4
      vertex -12.2 1.6 0.4
      vertex -15.5 1.6 0.4
    endloop
  endfacet
  facet normal 0 -1 -0
    outer loop
      vertex -12.2 1.6 0.4
      vertex -15.5 1.6 -4
      vertex -12.2 1.6 -4
    endloop
  endfacet
  facet normal 0 1 -0
    outer loop
      vertex -12.2 -1.6 -4
      vertex -15.5 -1.6 0.4
      vertex -12.2 -1.6 0.4
    endloop
  endfacet
  facet normal 0 1 0
    outer loop
      vertex -15.5 -1.6 0.4
      vertex -12.2 -1.6 -4
      vertex -15.5 -1.6 -4
    endloop
  endfacet
  facet normal 0.994522 -0.104528 0
    outer loop
      vertex 10.6 0 0.4
      vertex 10.635 0.332658 -4
      vertex 10.635 0.332658 0.4
    endloop
  endfacet
  facet normal 0.994522 -0.104528 0
    outer loop
      vertex 10.635 0.332658 -4
      vertex 10.6 0 0.4
      vertex 10.6 0 -4
    endloop
  endfacet
  facet normal 0 -1 0
    outer loop
      vertex 12.0328 1.59123 -4
      vertex 12.2 1.59123 0.4
      vertex 12.0328 1.59123 0.4
    endloop
  endfacet
  facet normal 0 -1 -0
    outer loop
      vertex 12.2 1.59123 0.4
      vertex 12.0328 1.59123 -4
      vertex 12.2 1.59123 -4
    endloop
  endfacet
  facet normal 0 1 -0
    outer loop
      vertex 12.2 -1.59123 -4
      vertex 12.0328 -1.59123 0.4
      vertex 12.2 -1.59123 0.4
    endloop
  endfacet
  facet normal 0 1 0
    outer loop
      vertex 12.0328 -1.59123 0.4
      vertex 12.2 -1.59123 -4
      vertex 12.0328 -1.59123 -4
    endloop
  endfacet
  facet normal 0.743144 -0.669132 0
    outer loop
      vertex 10.9056 0.940456 0.4
      vertex 11.1294 1.18903 -4
      vertex 11.1294 1.18903 0.4
    endloop
  endfacet
  facet normal 0.743144 -0.669132 0
    outer loop
      vertex 11.1294 1.18903 -4
      vertex 10.9056 0.940456 0.4
      vertex 10.9056 0.940456 -4
    endloop
  endfacet
  facet normal 0.406738 -0.913545 0
    outer loop
      vertex 11.4 1.38564 -4
      vertex 11.7056 1.52169 0.4
      vertex 11.4 1.38564 0.4
    endloop
  endfacet
  facet normal 0.406738 -0.913545 0
    outer loop
      vertex 11.7056 1.52169 0.4
      vertex 11.4 1.38564 -4
      vertex 11.7056 1.52169 -4
    endloop
  endfacet
  facet normal 0.866027 -0.499998 0
    outer loop
      vertex 10.7383 0.650778 0.4
      vertex 10.9056 0.940456 -4
      vertex 10.9056 0.940456 0.4
    endloop
  endfacet
  facet normal 0.866027 -0.499998 0
    outer loop
      vertex 10.9056 0.940456 -4
      vertex 10.7383 0.650778 0.4
      vertex 10.7383 0.650778 -4
    endloop
  endfacet
  facet normal 0.951056 -0.309018 0
    outer loop
      vertex 10.635 0.332658 0.4
      vertex 10.7383 0.650778 -4
      vertex 10.7383 0.650778 0.4
    endloop
  endfacet
  facet normal 0.951056 -0.309018 0
    outer loop
      vertex 10.7383 0.650778 -4
      vertex 10.635 0.332658 0.4
      vertex 10.635 0.332658 -4
    endloop
  endfacet
  facet normal 0.587785 -0.809017 0
    outer loop
      vertex 11.1294 1.18903 -4
      vertex 11.4 1.38564 0.4
      vertex 11.1294 1.18903 0.4
    endloop
  endfacet
  facet normal 0.587785 -0.809017 0
    outer loop
      vertex 11.4 1.38564 0.4
      vertex 11.1294 1.18903 -4
      vertex 11.4 1.38564 -4
    endloop
  endfacet
  facet normal 0.207909 -0.978148 0
    outer loop
      vertex 11.7056 1.52169 -4
      vertex 12.0328 1.59123 0.4
      vertex 11.7056 1.52169 0.4
    endloop
  endfacet
  facet normal 0.207909 -0.978148 0
    outer loop
      vertex 12.0328 1.59123 0.4
      vertex 11.7056 1.52169 -4
      vertex 12.0328 1.59123 -4
    endloop
  endfacet
  facet normal 0.994522 0.104528 0
    outer loop
      vertex 10.635 -0.332658 0.4
      vertex 10.6 0 -4
      vertex 10.6 0 0.4
    endloop
  endfacet
  facet normal 0.994522 0.104528 0
    outer loop
      vertex 10.6 0 -4
      vertex 10.635 -0.332658 0.4
      vertex 10.635 -0.332658 -4
    endloop
  endfacet
  facet normal 0.866027 0.499998 0
    outer loop
      vertex 10.9056 -0.940456 0.4
      vertex 10.7383 -0.650778 -4
      vertex 10.7383 -0.650778 0.4
    endloop
  endfacet
  facet normal 0.866027 0.499998 0
    outer loop
      vertex 10.7383 -0.650778 -4
      vertex 10.9056 -0.940456 0.4
      vertex 10.9056 -0.940456 -4
    endloop
  endfacet
  facet normal 0.406738 0.913545 -0
    outer loop
      vertex 11.7056 -1.52169 -4
      vertex 11.4 -1.38564 0.4
      vertex 11.7056 -1.52169 0.4
    endloop
  endfacet
  facet normal 0.406738 0.913545 0
    outer loop
      vertex 11.4 -1.38564 0.4
      vertex 11.7056 -1.52169 -4
      vertex 11.4 -1.38564 -4
    endloop
  endfacet
  facet normal 0.743144 0.669132 0
    outer loop
      vertex 11.1294 -1.18903 0.4
      vertex 10.9056 -0.940456 -4
      vertex 10.9056 -0.940456 0.4
    endloop
  endfacet
  facet normal 0.743144 0.669132 0
    outer loop
      vertex 10.9056 -0.940456 -4
      vertex 11.1294 -1.18903 0.4
      vertex 11.1294 -1.18903 -4
    endloop
  endfacet
  facet normal 0.951056 0.309018 0
    outer loop
      vertex 10.7383 -0.650778 0.4
      vertex 10.635 -0.332658 -4
      vertex 10.635 -0.332658 0.4
    endloop
  endfacet
  facet normal 0.951056 0.309018 0
    outer loop
      vertex 10.635 -0.332658 -4
      vertex 10.7383 -0.650778 0.4
      vertex 10.7383 -0.650778 -4
    endloop
  endfacet
  facet normal 0.587785 0.809017 -0
    outer loop
      vertex 11.4 -1.38564 -4
      vertex 11.1294 -1.18903 0.4
      vertex 11.4 -1.38564 0.4
    endloop
  endfacet
  facet normal 0.587785 0.809017 0
    outer loop
      vertex 11.1294 -1.18903 0.4
      vertex 11.4 -1.38564 -4
      vertex 11.1294 -1.18903 -4
    endloop
  endfacet
  facet normal 0.207909 0.978148 -0
    outer loop
      vertex 12.0328 -1.59123 -4
      vertex 11.7056 -1.52169 0.4
      vertex 12.0328 -1.59123 0.4
    endloop
  endfacet
  facet normal 0.207909 0.978148 0
    outer loop
      vertex 11.7056 -1.52169 0.4
      vertex 12.0328 -1.59123 -4
      vertex 11.7056 -1.52169 -4
    endloop
  endfacet
  facet normal 1 -0 0
    outer loop
      vertex 12.2 -1.6 0.4
      vertex 12.2 -1.59123 -4
      vertex 12.2 -1.59123 0.4
    endloop
  endfacet
  facet normal 1 0 0
    outer loop
      vertex 12.2 -1.59123 -4
      vertex 12.2 -1.6 0.4
      vertex 12.2 -1.6 -4
    endloop
  endfacet
  facet normal 1 -0 0
    outer loop
      vertex 12.2 1.59123 0.4
      vertex 12.2 1.6 -4
      vertex 12.2 1.6 0.4
    endloop
  endfacet
  facet normal 1 0 0
    outer loop
      vertex 12.2 1.6 -4
      vertex 12.2 1.59123 0.4
      vertex 12.2 1.59123 -4
    endloop
  endfacet
  facet normal 0 -1 0
    outer loop
      vertex 12.2 1.6 -4
      vertex 15.5 1.6 0.4
      vertex 12.2 1.6 0.4
    endloop
  endfacet
  facet normal 0 -1 -0
    outer loop
      vertex 15.5 1.6 0.4
      vertex 12.2 1.6 -4
      vertex 15.5 1.6 -4
    endloop
  endfacet
  facet normal 0 1 -0
    outer loop
      vertex 15.5 -1.6 -4
      vertex 12.2 -1.6 0.4
      vertex 15.5 -1.6 0.4
    endloop
  endfacet
  facet normal 0 1 0
    outer loop
      vertex 12.2 -1.6 0.4
      vertex 15.5 -1.6 -4
      vertex 12.2 -1.6 -4
    endloop
  endfacet
  facet normal -1 0 0
    outer loop
      vertex -15.5 -7.5 -4
      vertex -15.5 -1.6 0.4
      vertex -15.5 -1.6 -4
    endloop
  endfacet
  facet normal -1 -0 0
    outer loop
      vertex -15.5 -1.6 0.4
      vertex -15.5 -7.5 -4
      vertex -15.5 -7.5 0.4
    endloop
  endfacet
  facet normal -1 0 0
    outer loop
      vertex -15.5 7.5 -4
      vertex -15.5 3.5 0.4
      vertex -15.5 7.5 4
    endloop
  endfacet
  facet normal -1 0 0
    outer loop
      vertex -15.5 1.6 -4
      vertex -15.5 3.5 0.4
      vertex -15.5 7.5 -4
    endloop
  endfacet
  facet normal -1 -0 0
    outer loop
      vertex -15.5 3.5 0.4
      vertex -15.5 1.6 -4
      vertex -15.5 1.6 0.4
    endloop
  endfacet
  facet normal -1 -0 0
    outer loop
      vertex -15.5 7.5 4
      vertex -15.5 3.5 0.4
      vertex -15.5 3.5 4
    endloop
  endfacet
  facet normal 0 -1 0
    outer loop
      vertex 6.1 -10 -4
      vertex 13 -10 0.4
      vertex 6.1 -10 0.4
    endloop
  endfacet
  facet normal 0 -1 -0
    outer loop
      vertex 13 -10 0.4
      vertex 6.1 -10 -4
      vertex 13 -10 -4
    endloop
  endfacet
  facet normal 0 -1 0
    outer loop
      vertex -13 -10 -4
      vertex -6.1 -10 0.4
      vertex -13 -10 0.4
    endloop
  endfacet
  facet normal 0 -1 -0
    outer loop
      vertex -6.1 -10 0.4
      vertex -13 -10 -4
      vertex -6.1 -10 -4
    endloop
  endfacet
  facet normal 0 0 -1
    outer loop
      vertex -11.1294 -1.18903 -4
      vertex -6.1 0 -4
      vertex -6.1 -10 -4
    endloop
  endfacet
  facet normal -0 0 -1
    outer loop
      vertex -6.1 0 -4
      vertex -10.635 -0.332658 -4
      vertex -10.6 0 -4
    endloop
  endfacet
  facet normal 0 0 -1
    outer loop
      vertex -6.1 0 -4
      vertex -10.7383 -0.650778 -4
      vertex -10.635 -0.332658 -4
    endloop
  endfacet
  facet normal 0 0 -1
    outer loop
      vertex -6.1 0 -4
      vertex -10.9056 -0.940456 -4
      vertex -10.7383 -0.650778 -4
    endloop
  endfacet
  facet normal 0 0 -1
    outer loop
      vertex -6.1 0 -4
      vertex -11.1294 -1.18903 -4
      vertex -10.9056 -0.940456 -4
    endloop
  endfacet
  facet normal 0 0 -1
    outer loop
      vertex -6.1 -10 -4
      vertex -11.4 -1.38564 -4
      vertex -11.1294 -1.18903 -4
    endloop
  endfacet
  facet normal 0 0 -1
    outer loop
      vertex -6.1 -10 -4
      vertex -11.7056 -1.52169 -4
      vertex -11.4 -1.38564 -4
    endloop
  endfacet
  facet normal 0 0 -1
    outer loop
      vertex -13 -10 -4
      vertex -11.7056 -1.52169 -4
      vertex -6.1 -10 -4
    endloop
  endfacet
  facet normal 0 0 -1
    outer loop
      vertex -11.7056 -1.52169 -4
      vertex -13 -10 -4
      vertex -12.0328 -1.59123 -4
    endloop
  endfacet
  facet normal 0 0 -1
    outer loop
      vertex -15.5 -7.5 -4
      vertex -12.0328 -1.59123 -4
      vertex -13 -10 -4
    endloop
  endfacet
  facet normal 0 0 -1
    outer loop
      vertex -15.5 -7.5 -4
      vertex -13 -10 -4
      vertex -13.9567 -9.8097 -4
    endloop
  endfacet
  facet normal 0 0 -1
    outer loop
      vertex -15.5 -7.5 -4
      vertex -13.9567 -9.8097 -4
      vertex -14.7678 -9.26777 -4
    endloop
  endfacet
  facet normal 0 0 -1
    outer loop
      vertex -15.5 -7.5 -4
      vertex -14.7678 -9.26777 -4
      vertex -15.3097 -8.45671 -4
    endloop
  endfacet
  facet normal 0 0 -1
    outer loop
      vertex -12.0328 -1.59123 -4
      vertex -15.5 -7.5 -4
      vertex -12.2 -1.6 -4
    endloop
  endfacet
  facet normal -0 0 -1
    outer loop
      vertex -12.2 -1.6 -4
      vertex -15.5 -7.5 -4
      vertex -15.5 -1.6 -4
    endloop
  endfacet
  facet normal 0 0 -1
    outer loop
      vertex 13 -10 -4
      vertex 15.5 -7.5 -4
      vertex 15.3097 -8.45671 -4
    endloop
  endfacet
  facet normal 0 0 -1
    outer loop
      vertex 13 -10 -4
      vertex 15.3097 -8.45671 -4
      vertex 14.7678 -9.26777 -4
    endloop
  endfacet
  facet normal 0 0 -1
    outer loop
      vertex 13 -10 -4
      vertex 14.7678 -9.26777 -4
      vertex 13.9567 -9.8097 -4
    endloop
  endfacet
  facet normal 0 0 -1
    outer loop
      vertex 12.0328 -1.59123 -4
      vertex 15.5 -7.5 -4
      vertex 13 -10 -4
    endloop
  endfacet
  facet normal 0 0 -1
    outer loop
      vertex 15.5 -7.5 -4
      vertex 12.2 -1.6 -4
      vertex 15.5 -1.6 -4
    endloop
  endfacet
  facet normal 0 0 -1
    outer loop
      vertex 12.2 -1.6 -4
      vertex 12.0328 -1.59123 -4
      vertex 12.2 -1.59123 -4
    endloop
  endfacet
  facet normal 0 0 -1
    outer loop
      vertex 15.5 -7.5 -4
      vertex 12.0328 -1.59123 -4
      vertex 12.2 -1.6 -4
    endloop
  endfacet
  facet normal 0 0 -1
    outer loop
      vertex 13 -10 -4
      vertex 11.7056 -1.52169 -4
      vertex 12.0328 -1.59123 -4
    endloop
  endfacet
  facet normal 0 0 -1
    outer loop
      vertex 6.1 -10 -4
      vertex 11.7056 -1.52169 -4
      vertex 13 -10 -4
    endloop
  endfacet
  facet normal -0 0 -1
    outer loop
      vertex 11.7056 -1.52169 -4
      vertex 6.1 -10 -4
      vertex 11.4 -1.38564 -4
    endloop
  endfacet
  facet normal -0 0 -1
    outer loop
      vertex 11.4 -1.38564 -4
      vertex 6.1 -10 -4
      vertex 11.1294 -1.18903 -4
    endloop
  endfacet
  facet normal 0 0 -1
    outer loop
      vertex 6.1 0 -4
      vertex 11.1294 -1.18903 -4
      vertex 6.1 -10 -4
    endloop
  endfacet
  facet normal 0 0 -1
    outer loop
      vertex 11.1294 -1.18903 -4
      vertex 6.1 0 -4
      vertex 10.9056 -0.940456 -4
    endloop
  endfacet
  facet normal 0 0 -1
    outer loop
      vertex 10.7383 -0.650778 -4
      vertex 6.1 0 -4
      vertex 10.635 -0.332658 -4
    endloop
  endfacet
  facet normal 0 0 -1
    outer loop
      vertex 10.9056 -0.940456 -4
      vertex 6.1 0 -4
      vertex 10.7383 -0.650778 -4
    endloop
  endfacet
  facet normal 0 0 -1
    outer loop
      vertex 12.2 1.59123 -4
      vertex 12.0328 1.59123 -4
      vertex 12.2 1.6 -4
    endloop
  endfacet
  facet normal 0 0 -1
    outer loop
      vertex 12.2 1.6 -4
      vertex 15.5 7.5 -4
      vertex 15.5 1.6 -4
    endloop
  endfacet
  facet normal 0 0 -1
    outer loop
      vertex 12.0328 1.59123 -4
      vertex 15.5 7.5 -4
      vertex 12.2 1.6 -4
    endloop
  endfacet
  facet normal 0 0 -1
    outer loop
      vertex 15.5 7.5 -4
      vertex 13 10 -4
      vertex 15.3097 8.45671 -4
    endloop
  endfacet
  facet normal 0 0 -1
    outer loop
      vertex 15.3097 8.45671 -4
      vertex 13 10 -4
      vertex 14.7678 9.26777 -4
    endloop
  endfacet
  facet normal 0 0 -1
    outer loop
      vertex 14.7678 9.26777 -4
      vertex 13 10 -4
      vertex 13.9567 9.8097 -4
    endloop
  endfacet
  facet normal -0 0 -1
    outer loop
      vertex 15.5 7.5 -4
      vertex 12.0328 1.59123 -4
      vertex 13 10 -4
    endloop
  endfacet
  facet normal 0 0 -1
    outer loop
      vertex 11.7056 1.52169 -4
      vertex 13 10 -4
      vertex 12.0328 1.59123 -4
    endloop
  endfacet
  facet normal 0 0 -1
    outer loop
      vertex 11.4 1.38564 -4
      vertex 13 10 -4
      vertex 11.7056 1.52169 -4
    endloop
  endfacet
  facet normal 0 0 -1
    outer loop
      vertex 5.57263 2.48109 -4
      vertex 11.4 1.38564 -4
      vertex 11.1294 1.18903 -4
    endloop
  endfacet
  facet normal 0 0 -1
    outer loop
      vertex 5.57263 2.48109 -4
      vertex 11.1294 1.18903 -4
      vertex 10.9056 0.940456 -4
    endloop
  endfacet
  facet normal 0 0 -1
    outer loop
      vertex 5.9667 1.26826 -4
      vertex 10.9056 0.940456 -4
      vertex 10.7383 0.650778 -4
    endloop
  endfacet
  facet normal 0 0 -1
    outer loop
      vertex 5.9667 1.26826 -4
      vertex 10.7383 0.650778 -4
      vertex 10.635 0.332658 -4
    endloop
  endfacet
  facet normal 0 0 -1
    outer loop
      vertex 10.635 -0.332658 -4
      vertex 6.1 0 -4
      vertex 10.6 0 -4
    endloop
  endfacet
  facet normal 0 0 -1
    outer loop
      vertex 10.6 0 -4
      vertex 6.1 0 -4
      vertex 10.635 0.332658 -4
    endloop
  endfacet
  facet normal 0 0 -1
    outer loop
      vertex 5.9667 1.26826 -4
      vertex 10.635 0.332658 -4
      vertex 6.1 0 -4
    endloop
  endfacet
  facet normal 0 0 -1
    outer loop
      vertex 10.9056 0.940456 -4
      vertex 5.9667 1.26826 -4
      vertex 5.57263 2.48109 -4
    endloop
  endfacet
  facet normal 0 0 -1
    outer loop
      vertex 11.4 1.38564 -4
      vertex 5.57263 2.48109 -4
      vertex 4.935 3.58549 -4
    endloop
  endfacet
  facet normal 0 0 -1
    outer loop
      vertex 11.4 1.38564 -4
      vertex 4.935 3.58549 -4
      vertex 13 10 -4
    endloop
  endfacet
  facet normal 0 0 -1
    outer loop
      vertex 4.0817 4.53318 -4
      vertex 13 10 -4
      vertex 4.935 3.58549 -4
    endloop
  endfacet
  facet normal 0 0 -1
    outer loop
      vertex 3.05 5.28275 -4
      vertex 13 10 -4
      vertex 4.0817 4.53318 -4
    endloop
  endfacet
  facet normal 0 0 -1
    outer loop
      vertex 1.885 5.80144 -4
      vertex 13 10 -4
      vertex 3.05 5.28275 -4
    endloop
  endfacet
  facet normal 0 0 -1
    outer loop
      vertex 0.637623 6.06658 -4
      vertex 13 10 -4
      vertex 1.885 5.80144 -4
    endloop
  endfacet
  facet normal 0 0 -1
    outer loop
      vertex -0.637623 6.06658 -4
      vertex 13 10 -4
      vertex 0.637623 6.06658 -4
    endloop
  endfacet
  facet normal 0 0 -1
    outer loop
      vertex -13 10 -4
      vertex -0.637623 6.06658 -4
      vertex -1.885 5.80144 -4
    endloop
  endfacet
  facet normal 0 0 -1
    outer loop
      vertex -10.635 0.332658 -4
      vertex -6.1 0 -4
      vertex -10.6 0 -4
    endloop
  endfacet
  facet normal 0 0 -1
    outer loop
      vertex -6.1 0 -4
      vertex -10.635 0.332658 -4
      vertex -5.9667 1.26826 -4
    endloop
  endfacet
  facet normal 0 0 -1
    outer loop
      vertex -10.7383 0.650778 -4
      vertex -5.9667 1.26826 -4
      vertex -10.635 0.332658 -4
    endloop
  endfacet
  facet normal 0 0 -1
    outer loop
      vertex -10.9056 0.940456 -4
      vertex -5.9667 1.26826 -4
      vertex -10.7383 0.650778 -4
    endloop
  endfacet
  facet normal -0 0 -1
    outer loop
      vertex -5.9667 1.26826 -4
      vertex -10.9056 0.940456 -4
      vertex -5.57263 2.48109 -4
    endloop
  endfacet
  facet normal 0 0 -1
    outer loop
      vertex -11.1294 1.18903 -4
      vertex -5.57263 2.48109 -4
      vertex -10.9056 0.940456 -4
    endloop
  endfacet
  facet normal 0 0 -1
    outer loop
      vertex -11.4 1.38564 -4
      vertex -5.57263 2.48109 -4
      vertex -11.1294 1.18903 -4
    endloop
  endfacet
  facet normal -0 0 -1
    outer loop
      vertex -5.57263 2.48109 -4
      vertex -11.4 1.38564 -4
      vertex -4.935 3.58549 -4
    endloop
  endfacet
  facet normal 0 0 -1
    outer loop
      vertex -13 10 -4
      vertex -4.935 3.58549 -4
      vertex -11.4 1.38564 -4
    endloop
  endfacet
  facet normal 0 0 -1
    outer loop
      vertex -4.935 3.58549 -4
      vertex -13 10 -4
      vertex -4.0817 4.53318 -4
    endloop
  endfacet
  facet normal 0 0 -1
    outer loop
      vertex -13 10 -4
      vertex -11.4 1.38564 -4
      vertex -11.7056 1.52169 -4
    endloop
  endfacet
  facet normal 0 0 -1
    outer loop
      vertex -4.0817 4.53318 -4
      vertex -13 10 -4
      vertex -3.05 5.28275 -4
    endloop
  endfacet
  facet normal 0 0 -1
    outer loop
      vertex -13 10 -4
      vertex -11.7056 1.52169 -4
      vertex -12.0328 1.59123 -4
    endloop
  endfacet
  facet normal 0 0 -1
    outer loop
      vertex -12.2 1.6 -4
      vertex -12.0328 1.59123 -4
      vertex -12.2 1.59123 -4
    endloop
  endfacet
  facet normal 0 0 -1
    outer loop
      vertex -15.5 7.5 -4
      vertex -12.0328 1.59123 -4
      vertex -12.2 1.6 -4
    endloop
  endfacet
  facet normal 0 0 -1
    outer loop
      vertex -0.637623 6.06658 -4
      vertex -13 10 -4
      vertex 13 10 -4
    endloop
  endfacet
  facet normal 0 0 -1
    outer loop
      vertex -3.05 5.28275 -4
      vertex -13 10 -4
      vertex -1.885 5.80144 -4
    endloop
  endfacet
  facet normal 0 0 -1
    outer loop
      vertex -12.0328 1.59123 -4
      vertex -15.5 7.5 -4
      vertex -13 10 -4
    endloop
  endfacet
  facet normal 0 0 -1
    outer loop
      vertex -13 10 -4
      vertex -15.5 7.5 -4
      vertex -13.9567 9.8097 -4
    endloop
  endfacet
  facet normal 0 0 -1
    outer loop
      vertex -13.9567 9.8097 -4
      vertex -15.5 7.5 -4
      vertex -14.7678 9.26777 -4
    endloop
  endfacet
  facet normal 0 0 -1
    outer loop
      vertex -15.5 7.5 -4
      vertex -12.2 1.6 -4
      vertex -15.5 1.6 -4
    endloop
  endfacet
  facet normal 0 0 -1
    outer loop
      vertex -14.7678 9.26777 -4
      vertex -15.5 7.5 -4
      vertex -15.3097 8.45671 -4
    endloop
  endfacet
  facet normal -0 0 -1
    outer loop
      vertex -12.0328 -1.59123 -4
      vertex -12.2 -1.6 -4
      vertex -12.2 -1.59123 -4
    endloop
  endfacet
  facet normal 0 0 1
    outer loop
      vertex 13 10 4
      vertex 15.5 7.5 4
      vertex 15.3097 8.45671 4
    endloop
  endfacet
  facet normal 0 0 1
    outer loop
      vertex 13 10 4
      vertex 15.3097 8.45671 4
      vertex 14.7678 9.26777 4
    endloop
  endfacet
  facet normal 0 0 1
    outer loop
      vertex 13 10 4
      vertex 14.7678 9.26777 4
      vertex 13.9567 9.8097 4
    endloop
  endfacet
  facet normal 0 0 1
    outer loop
      vertex 7.74046 3.5 4
      vertex 15.5 7.5 4
      vertex 13 10 4
    endloop
  endfacet
  facet normal 0 0 1
    outer loop
      vertex 15.5 7.5 4
      vertex 7.74046 3.5 4
      vertex 15.5 3.5 4
    endloop
  endfacet
  facet normal 0 0 1
    outer loop
      vertex 13 10 4
      vertex 6.87664 4.99617 4
      vertex 7.74046 3.5 4
    endloop
  endfacet
  facet normal 0 0 1
    outer loop
      vertex 13 10 4
      vertex 5.68761 6.31673 4
      vertex 6.87664 4.99617 4
    endloop
  endfacet
  facet normal 0 0 1
    outer loop
      vertex 13 10 4
      vertex 4.25 7.36122 4
      vertex 5.68761 6.31673 4
    endloop
  endfacet
  facet normal 0 0 1
    outer loop
      vertex 13 10 4
      vertex 2.62664 8.08398 4
      vertex 4.25 7.36122 4
    endloop
  endfacet
  facet normal 0 0 1
    outer loop
      vertex 13 10 4
      vertex 0.888492 8.45344 4
      vertex 2.62664 8.08398 4
    endloop
  endfacet
  facet normal 0 0 1
    outer loop
      vertex 13 10 4
      vertex -0.888492 8.45344 4
      vertex 0.888492 8.45344 4
    endloop
  endfacet
  facet normal -0 0 1
    outer loop
      vertex -13 10 4
      vertex -0.888492 8.45344 4
      vertex 13 10 4
    endloop
  endfacet
  facet normal 0 0 1
    outer loop
      vertex -13 10 4
      vertex -2.62664 8.08398 4
      vertex -0.888492 8.45344 4
    endloop
  endfacet
  facet normal 0 0 1
    outer loop
      vertex -13 10 4
      vertex -4.25 7.36122 4
      vertex -2.62664 8.08398 4
    endloop
  endfacet
  facet normal 0 0 1
    outer loop
      vertex -13 10 4
      vertex -5.68761 6.31673 4
      vertex -4.25 7.36122 4
    endloop
  endfacet
  facet normal 0 0 1
    outer loop
      vertex -13 10 4
      vertex -6.87664 4.99617 4
      vertex -5.68761 6.31673 4
    endloop
  endfacet
  facet normal 0 0 1
    outer loop
      vertex -13 10 4
      vertex -7.74046 3.5 4
      vertex -6.87664 4.99617 4
    endloop
  endfacet
  facet normal 0 0 1
    outer loop
      vertex -15.5 7.5 4
      vertex -13 10 4
      vertex -13.9567 9.8097 4
    endloop
  endfacet
  facet normal 0 0 1
    outer loop
      vertex -15.5 7.5 4
      vertex -13.9567 9.8097 4
      vertex -14.7678 9.26777 4
    endloop
  endfacet
  facet normal 0 0 1
    outer loop
      vertex -15.5 7.5 4
      vertex -14.7678 9.26777 4
      vertex -15.3097 8.45671 4
    endloop
  endfacet
  facet normal 0 0 1
    outer loop
      vertex -13 10 4
      vertex -15.5 7.5 4
      vertex -7.74046 3.5 4
    endloop
  endfacet
  facet normal 0 0 1
    outer loop
      vertex -7.74046 3.5 4
      vertex -15.5 7.5 4
      vertex -15.5 3.5 4
    endloop
  endfacet
  facet normal 1 0 0
    outer loop
      vertex 15.5 3.5 0.4
      vertex 15.5 7.5 4
      vertex 15.5 3.5 4
    endloop
  endfacet
  facet normal 1 0 0
    outer loop
      vertex 15.5 7.5 4
      vertex 15.5 3.5 0.4
      vertex 15.5 7.5 -4
    endloop
  endfacet
  facet normal 1 0 0
    outer loop
      vertex 15.5 1.6 -4
      vertex 15.5 3.5 0.4
      vertex 15.5 1.6 0.4
    endloop
  endfacet
  facet normal 1 0 0
    outer loop
      vertex 15.5 3.5 0.4
      vertex 15.5 1.6 -4
      vertex 15.5 7.5 -4
    endloop
  endfacet
  facet normal 1 -0 0
    outer loop
      vertex 15.5 -7.5 0.4
      vertex 15.5 -1.6 -4
      vertex 15.5 -1.6 0.4
    endloop
  endfacet
  facet normal 1 0 0
    outer loop
      vertex 15.5 -1.6 -4
      vertex 15.5 -7.5 0.4
      vertex 15.5 -7.5 -4
    endloop
  endfacet
  facet normal -0.555569 -0.83147 0
    outer loop
      vertex -14.7678 -9.26777 -4
      vertex -13.9567 -9.8097 0.4
      vertex -14.7678 -9.26777 0.4
    endloop
  endfacet
  facet normal -0.555569 -0.83147 -0
    outer loop
      vertex -13.9567 -9.8097 0.4
      vertex -14.7678 -9.26777 -4
      vertex -13.9567 -9.8097 -4
    endloop
  endfacet
  facet normal -0.980785 -0.195091 0
    outer loop
      vertex -15.3097 -8.45671 -4
      vertex -15.5 -7.5 0.4
      vertex -15.5 -7.5 -4
    endloop
  endfacet
  facet normal -0.980785 -0.195091 0
    outer loop
      vertex -15.5 -7.5 0.4
      vertex -15.3097 -8.45671 -4
      vertex -15.3097 -8.45671 0.4
    endloop
  endfacet
  facet normal -0.195091 0.980785 0
    outer loop
      vertex -13 10 -4
      vertex -13.9567 9.8097 4
      vertex -13 10 4
    endloop
  endfacet
  facet normal -0.195091 0.980785 0
    outer loop
      vertex -13.9567 9.8097 4
      vertex -13 10 -4
      vertex -13.9567 9.8097 -4
    endloop
  endfacet
  facet normal -0.980785 0.195091 0
    outer loop
      vertex -15.5 7.5 -4
      vertex -15.3097 8.45671 4
      vertex -15.3097 8.45671 -4
    endloop
  endfacet
  facet normal -0.980785 0.195091 0
    outer loop
      vertex -15.3097 8.45671 4
      vertex -15.5 7.5 -4
      vertex -15.5 7.5 4
    endloop
  endfacet
  facet normal -0.555569 0.83147 0
    outer loop
      vertex -13.9567 9.8097 -4
      vertex -14.7678 9.26777 4
      vertex -13.9567 9.8097 4
    endloop
  endfacet
  facet normal -0.555569 0.83147 0
    outer loop
      vertex -14.7678 9.26777 4
      vertex -13.9567 9.8097 -4
      vertex -14.7678 9.26777 -4
    endloop
  endfacet
  facet normal 0.83147 0.555569 0
    outer loop
      vertex 15.3097 8.45671 4
      vertex 14.7678 9.26777 -4
      vertex 14.7678 9.26777 4
    endloop
  endfacet
  facet normal 0.83147 0.555569 0
    outer loop
      vertex 14.7678 9.26777 -4
      vertex 15.3097 8.45671 4
      vertex 15.3097 8.45671 -4
    endloop
  endfacet
  facet normal 0.555569 0.83147 -0
    outer loop
      vertex 14.7678 9.26777 -4
      vertex 13.9567 9.8097 4
      vertex 14.7678 9.26777 4
    endloop
  endfacet
  facet normal 0.555569 0.83147 0
    outer loop
      vertex 13.9567 9.8097 4
      vertex 14.7678 9.26777 -4
      vertex 13.9567 9.8097 -4
    endloop
  endfacet
  facet normal 0.980785 -0.195091 0
    outer loop
      vertex 15.3097 -8.45671 0.4
      vertex 15.5 -7.5 -4
      vertex 15.5 -7.5 0.4
    endloop
  endfacet
  facet normal 0.980785 -0.195091 0
    outer loop
      vertex 15.5 -7.5 -4
      vertex 15.3097 -8.45671 0.4
      vertex 15.3097 -8.45671 -4
    endloop
  endfacet
  facet normal 0.83147 -0.555569 0
    outer loop
      vertex 14.7678 -9.26777 0.4
      vertex 15.3097 -8.45671 -4
      vertex 15.3097 -8.45671 0.4
    endloop
  endfacet
  facet normal 0.83147 -0.555569 0
    outer loop
      vertex 15.3097 -8.45671 -4
      vertex 14.7678 -9.26777 0.4
      vertex 14.7678 -9.26777 -4
    endloop
  endfacet
  facet normal 0.195091 -0.980785 0
    outer loop
      vertex 13 -10 -4
      vertex 13.9567 -9.8097 0.4
      vertex 13 -10 0.4
    endloop
  endfacet
  facet normal 0.195091 -0.980785 0
    outer loop
      vertex 13.9567 -9.8097 0.4
      vertex 13 -10 -4
      vertex 13.9567 -9.8097 -4
    endloop
  endfacet
  facet normal -0.195091 -0.980785 0
    outer loop
      vertex -13.9567 -9.8097 -4
      vertex -13 -10 0.4
      vertex -13.9567 -9.8097 0.4
    endloop
  endfacet
  facet normal -0.195091 -0.980785 -0
    outer loop
      vertex -13 -10 0.4
      vertex -13.9567 -9.8097 -4
      vertex -13 -10 -4
    endloop
  endfacet
  facet normal -0.83147 -0.555569 0
    outer loop
      vertex -14.7678 -9.26777 -4
      vertex -15.3097 -8.45671 0.4
      vertex -15.3097 -8.45671 -4
    endloop
  endfacet
  facet normal -0.83147 -0.555569 0
    outer loop
      vertex -15.3097 -8.45671 0.4
      vertex -14.7678 -9.26777 -4
      vertex -14.7678 -9.26777 0.4
    endloop
  endfacet
  facet normal 0 1 -0
    outer loop
      vertex 13 10 -4
      vertex -13 10 4
      vertex 13 10 4
    endloop
  endfacet
  facet normal 0 1 0
    outer loop
      vertex -13 10 4
      vertex 13 10 -4
      vertex -13 10 -4
    endloop
  endfacet
  facet normal -0.83147 0.555569 0
    outer loop
      vertex -15.3097 8.45671 -4
      vertex -14.7678 9.26777 4
      vertex -14.7678 9.26777 -4
    endloop
  endfacet
  facet normal -0.83147 0.555569 0
    outer loop
      vertex -14.7678 9.26777 4
      vertex -15.3097 8.45671 -4
      vertex -15.3097 8.45671 4
    endloop
  endfacet
  facet normal 0.195091 0.980785 -0
    outer loop
      vertex 13.9567 9.8097 -4
      vertex 13 10 4
      vertex 13.9567 9.8097 4
    endloop
  endfacet
  facet normal 0.195091 0.980785 0
    outer loop
      vertex 13 10 4
      vertex 13.9567 9.8097 -4
      vertex 13 10 -4
    endloop
  endfacet
  facet normal 0.555569 -0.83147 0
    outer loop
      vertex 13.9567 -9.8097 -4
      vertex 14.7678 -9.26777 0.4
      vertex 13.9567 -9.8097 0.4
    endloop
  endfacet
  facet normal 0.555569 -0.83147 0
    outer loop
      vertex 14.7678 -9.26777 0.4
      vertex 13.9567 -9.8097 -4
      vertex 14.7678 -9.26777 -4
    endloop
  endfacet
  facet normal 0.980785 0.195091 0
    outer loop
      vertex 15.5 7.5 4
      vertex 15.3097 8.45671 -4
      vertex 15.3097 8.45671 4
    endloop
  endfacet
  facet normal 0.980785 0.195091 0
    outer loop
      vertex 15.3097 8.45671 -4
      vertex 15.5 7.5 4
      vertex 15.5 7.5 -4
    endloop
  endfacet
endsolid OpenSCAD_Model
