solid OpenSCAD_Model
  facet normal -0.5 0 0.866025
    outer loop
      vertex 2.85788 4.5 3.35
      vertex 3.33067e-016 1.5 1.7
      vertex 2.85788 1.5 3.35
    endloop
  endfacet
  facet normal -0.5 -1.11022e-016 0.866025
    outer loop
      vertex 3.33067e-016 1.5 1.7
      vertex 2.85788 4.5 3.35
      vertex -3.33067e-016 4.5 1.7
    endloop
  endfacet
  facet normal -1 0 0
    outer loop
      vertex 2.85788 1.5 3.35
      vertex 2.85788 4.5 10
      vertex 2.85788 4.5 3.35
    endloop
  endfacet
  facet normal -1 -0 0
    outer loop
      vertex 2.85788 4.5 10
      vertex 2.85788 1.5 3.35
      vertex 2.85788 1.5 10
    endloop
  endfacet
  facet normal 0 -1 0
    outer loop
      vertex -2.85788 4.5 10
      vertex -3.33067e-016 4.5 6.65
      vertex 2.85788 4.5 10
    endloop
  endfacet
  facet normal 0 -1 0
    outer loop
      vertex -2.85788 4.5 10
      vertex -0.631427 4.5 6.5244
      vertex -3.33067e-016 4.5 6.65
    endloop
  endfacet
  facet normal 0 -1 0
    outer loop
      vertex -2.85788 4.5 10
      vertex -1.16673 4.5 6.16673
      vertex -0.631427 4.5 6.5244
    endloop
  endfacet
  facet normal 0 -1 0
    outer loop
      vertex -2.85788 4.5 10
      vertex -1.5244 4.5 5.63143
      vertex -1.16673 4.5 6.16673
    endloop
  endfacet
  facet normal 0 -1 0
    outer loop
      vertex -2.85788 4.5 3.35
      vertex -1.5244 4.5 5.63143
      vertex -2.85788 4.5 10
    endloop
  endfacet
  facet normal 0 -1 0
    outer loop
      vertex -1.5244 4.5 5.63143
      vertex -2.85788 4.5 3.35
      vertex -1.65 4.5 5
    endloop
  endfacet
  facet normal 0 -1 -0
    outer loop
      vertex -1.65 4.5 5
      vertex -2.85788 4.5 3.35
      vertex -1.5244 4.5 4.36857
    endloop
  endfacet
  facet normal 0 -1 0
    outer loop
      vertex -2.85788 4.5 3.35
      vertex -1.16673 4.5 3.83327
      vertex -1.5244 4.5 4.36857
    endloop
  endfacet
  facet normal 0 -1 0
    outer loop
      vertex -2.85788 4.5 3.35
      vertex -0.631427 4.5 3.4756
      vertex -1.16673 4.5 3.83327
    endloop
  endfacet
  facet normal 0 -1 0
    outer loop
      vertex -3.33067e-016 4.5 1.7
      vertex -0.631427 4.5 3.4756
      vertex -2.85788 4.5 3.35
    endloop
  endfacet
  facet normal 0 -1 0
    outer loop
      vertex -0.631427 4.5 3.4756
      vertex -3.33067e-016 4.5 1.7
      vertex -3.33067e-016 4.5 3.35
    endloop
  endfacet
  facet normal 0 -1 0
    outer loop
      vertex -3.33067e-016 4.5 3.35
      vertex -3.33067e-016 4.5 1.7
      vertex 2.85788 4.5 3.35
    endloop
  endfacet
  facet normal 0 -1 0
    outer loop
      vertex 0.631427 4.5 6.5244
      vertex 2.85788 4.5 10
      vertex -3.33067e-016 4.5 6.65
    endloop
  endfacet
  facet normal 0 -1 0
    outer loop
      vertex 1.16673 4.5 6.16673
      vertex 2.85788 4.5 10
      vertex 0.631427 4.5 6.5244
    endloop
  endfacet
  facet normal 0 -1 0
    outer loop
      vertex 1.5244 4.5 5.63143
      vertex 2.85788 4.5 10
      vertex 1.16673 4.5 6.16673
    endloop
  endfacet
  facet normal 0 -1 0
    outer loop
      vertex 2.85788 4.5 3.35
      vertex 1.5244 4.5 5.63143
      vertex 1.65 4.5 5
    endloop
  endfacet
  facet normal 0 -1 0
    outer loop
      vertex 2.85788 4.5 3.35
      vertex 1.65 4.5 5
      vertex 1.5244 4.5 4.36857
    endloop
  endfacet
  facet normal 0 -1 0
    outer loop
      vertex 1.5244 4.5 5.63143
      vertex 2.85788 4.5 3.35
      vertex 2.85788 4.5 10
    endloop
  endfacet
  facet normal 0 -1 0
    outer loop
      vertex 1.16673 4.5 3.83327
      vertex 2.85788 4.5 3.35
      vertex 1.5244 4.5 4.36857
    endloop
  endfacet
  facet normal 0 -1 0
    outer loop
      vertex 0.631427 4.5 3.4756
      vertex 2.85788 4.5 3.35
      vertex 1.16673 4.5 3.83327
    endloop
  endfacet
  facet normal 0 -1 0
    outer loop
      vertex 2.85788 4.5 3.35
      vertex 0.631427 4.5 3.4756
      vertex -3.33067e-016 4.5 3.35
    endloop
  endfacet
  facet normal 0 1 0
    outer loop
      vertex 2.85788 1.5 10
      vertex 3.33067e-016 1.5 6.65
      vertex -2.85788 1.5 10
    endloop
  endfacet
  facet normal 0 1 0
    outer loop
      vertex 2.85788 1.5 10
      vertex 0.631427 1.5 6.5244
      vertex 3.33067e-016 1.5 6.65
    endloop
  endfacet
  facet normal 0 1 0
    outer loop
      vertex 2.85788 1.5 10
      vertex 1.16673 1.5 6.16673
      vertex 0.631427 1.5 6.5244
    endloop
  endfacet
  facet normal 0 1 0
    outer loop
      vertex 2.85788 1.5 10
      vertex 1.5244 1.5 5.63143
      vertex 1.16673 1.5 6.16673
    endloop
  endfacet
  facet normal 0 1 -0
    outer loop
      vertex 2.85788 1.5 3.35
      vertex 1.5244 1.5 5.63143
      vertex 2.85788 1.5 10
    endloop
  endfacet
  facet normal 0 1 0
    outer loop
      vertex 1.5244 1.5 5.63143
      vertex 2.85788 1.5 3.35
      vertex 1.65 1.5 5
    endloop
  endfacet
  facet normal 0 1 0
    outer loop
      vertex 1.65 1.5 5
      vertex 2.85788 1.5 3.35
      vertex 1.5244 1.5 4.36857
    endloop
  endfacet
  facet normal 0 1 0
    outer loop
      vertex 2.85788 1.5 3.35
      vertex 1.16673 1.5 3.83327
      vertex 1.5244 1.5 4.36857
    endloop
  endfacet
  facet normal 0 1 0
    outer loop
      vertex 2.85788 1.5 3.35
      vertex 0.631427 1.5 3.4756
      vertex 1.16673 1.5 3.83327
    endloop
  endfacet
  facet normal 0 1 0
    outer loop
      vertex 3.33067e-016 1.5 1.7
      vertex 0.631427 1.5 3.4756
      vertex 2.85788 1.5 3.35
    endloop
  endfacet
  facet normal 0 1 0
    outer loop
      vertex 0.631427 1.5 3.4756
      vertex 3.33067e-016 1.5 1.7
      vertex 3.33067e-016 1.5 3.35
    endloop
  endfacet
  facet normal 0 1 0
    outer loop
      vertex 3.33067e-016 1.5 3.35
      vertex 3.33067e-016 1.5 1.7
      vertex -2.85788 1.5 3.35
    endloop
  endfacet
  facet normal 0 1 -0
    outer loop
      vertex -0.631427 1.5 6.5244
      vertex -2.85788 1.5 10
      vertex 3.33067e-016 1.5 6.65
    endloop
  endfacet
  facet normal 0 1 -0
    outer loop
      vertex -1.16673 1.5 6.16673
      vertex -2.85788 1.5 10
      vertex -0.631427 1.5 6.5244
    endloop
  endfacet
  facet normal 0 1 -0
    outer loop
      vertex -1.5244 1.5 5.63143
      vertex -2.85788 1.5 10
      vertex -1.16673 1.5 6.16673
    endloop
  endfacet
  facet normal 0 1 0
    outer loop
      vertex -2.85788 1.5 3.35
      vertex -1.5244 1.5 5.63143
      vertex -1.65 1.5 5
    endloop
  endfacet
  facet normal 0 1 0
    outer loop
      vertex -2.85788 1.5 3.35
      vertex -1.65 1.5 5
      vertex -1.5244 1.5 4.36857
    endloop
  endfacet
  facet normal 0 1 0
    outer loop
      vertex -1.5244 1.5 5.63143
      vertex -2.85788 1.5 3.35
      vertex -2.85788 1.5 10
    endloop
  endfacet
  facet normal 0 1 0
    outer loop
      vertex -1.16673 1.5 3.83327
      vertex -2.85788 1.5 3.35
      vertex -1.5244 1.5 4.36857
    endloop
  endfacet
  facet normal 0 1 0
    outer loop
      vertex -0.631427 1.5 3.4756
      vertex -2.85788 1.5 3.35
      vertex -1.16673 1.5 3.83327
    endloop
  endfacet
  facet normal 0 1 0
    outer loop
      vertex -2.85788 1.5 3.35
      vertex -0.631427 1.5 3.4756
      vertex 3.33067e-016 1.5 3.35
    endloop
  endfacet
  facet normal 1 -0 0
    outer loop
      vertex -2.85788 1.5 10
      vertex -2.85788 4.5 3.35
      vertex -2.85788 4.5 10
    endloop
  endfacet
  facet normal 1 0 0
    outer loop
      vertex -2.85788 4.5 3.35
      vertex -2.85788 1.5 10
      vertex -2.85788 1.5 3.35
    endloop
  endfacet
  facet normal 0.5 1.7943e-016 0.866025
    outer loop
      vertex -2.85788 4.5 3.35
      vertex 3.33067e-016 1.5 1.7
      vertex -3.33067e-016 4.5 1.7
    endloop
  endfacet
  facet normal 0.5 0 0.866025
    outer loop
      vertex 3.33067e-016 1.5 1.7
      vertex -2.85788 4.5 3.35
      vertex -2.85788 1.5 3.35
    endloop
  endfacet
  facet normal -0.195091 0 -0.980785
    outer loop
      vertex 6.66134e-016 0 6.65
      vertex 0.631427 1.5 6.5244
      vertex 0.631427 0 6.5244
    endloop
  endfacet
  facet normal -0.195091 -4.31123e-017 -0.980785
    outer loop
      vertex 0.631427 1.5 6.5244
      vertex 6.66134e-016 0 6.65
      vertex 3.33067e-016 1.5 6.65
    endloop
  endfacet
  facet normal -0.195091 0 -0.980785
    outer loop
      vertex -3.33067e-016 4.5 6.65
      vertex 0.631427 7 6.5244
      vertex 0.631427 4.5 6.5244
    endloop
  endfacet
  facet normal -0.195091 -4.31123e-017 -0.980785
    outer loop
      vertex 0.631427 7 6.5244
      vertex -3.33067e-016 4.5 6.65
      vertex -8.88178e-016 7 6.65
    endloop
  endfacet
  facet normal -0.195091 0 0.980785
    outer loop
      vertex 0.631427 1.5 3.4756
      vertex 6.66134e-016 0 3.35
      vertex 0.631427 0 3.4756
    endloop
  endfacet
  facet normal -0.195091 -4.33189e-017 0.980785
    outer loop
      vertex 6.66134e-016 0 3.35
      vertex 0.631427 1.5 3.4756
      vertex 3.33067e-016 1.5 3.35
    endloop
  endfacet
  facet normal -0.195091 0 0.980785
    outer loop
      vertex 0.631427 7 3.4756
      vertex -3.33067e-016 4.5 3.35
      vertex 0.631427 4.5 3.4756
    endloop
  endfacet
  facet normal -0.195091 -4.33189e-017 0.980785
    outer loop
      vertex -3.33067e-016 4.5 3.35
      vertex 0.631427 7 3.4756
      vertex -8.88178e-016 7 3.35
    endloop
  endfacet
  facet normal -0.980785 0 -0.195091
    outer loop
      vertex 1.65 0 5
      vertex 1.5244 1.5 5.63143
      vertex 1.65 1.5 5
    endloop
  endfacet
  facet normal -0.980785 -0 -0.195091
    outer loop
      vertex 1.5244 1.5 5.63143
      vertex 1.65 0 5
      vertex 1.5244 0 5.63143
    endloop
  endfacet
  facet normal -0.980785 0 -0.195091
    outer loop
      vertex 1.65 4.5 5
      vertex 1.5244 7 5.63143
      vertex 1.65 7 5
    endloop
  endfacet
  facet normal -0.980785 -0 -0.195091
    outer loop
      vertex 1.5244 7 5.63143
      vertex 1.65 4.5 5
      vertex 1.5244 4.5 5.63143
    endloop
  endfacet
  facet normal -0.555569 0 -0.83147
    outer loop
      vertex 0.631427 0 6.5244
      vertex 1.16673 1.5 6.16673
      vertex 1.16673 0 6.16673
    endloop
  endfacet
  facet normal -0.555569 0 -0.83147
    outer loop
      vertex 1.16673 1.5 6.16673
      vertex 0.631427 0 6.5244
      vertex 0.631427 1.5 6.5244
    endloop
  endfacet
  facet normal -0.555569 0 -0.83147
    outer loop
      vertex 0.631427 4.5 6.5244
      vertex 1.16673 7 6.16673
      vertex 1.16673 4.5 6.16673
    endloop
  endfacet
  facet normal -0.555569 0 -0.83147
    outer loop
      vertex 1.16673 7 6.16673
      vertex 0.631427 4.5 6.5244
      vertex 0.631427 7 6.5244
    endloop
  endfacet
  facet normal 0.980785 -0 0.195091
    outer loop
      vertex -1.65 4.5 5
      vertex -1.5244 7 4.36857
      vertex -1.65 7 5
    endloop
  endfacet
  facet normal 0.980785 0 0.195091
    outer loop
      vertex -1.5244 7 4.36857
      vertex -1.65 4.5 5
      vertex -1.5244 4.5 4.36857
    endloop
  endfacet
  facet normal 0.980785 -0 0.195091
    outer loop
      vertex -1.65 0 5
      vertex -1.5244 1.5 4.36857
      vertex -1.65 1.5 5
    endloop
  endfacet
  facet normal 0.980785 0 0.195091
    outer loop
      vertex -1.5244 1.5 4.36857
      vertex -1.65 0 5
      vertex -1.5244 0 4.36857
    endloop
  endfacet
  facet normal -0.83147 0 -0.555569
    outer loop
      vertex 1.5244 0 5.63143
      vertex 1.16673 1.5 6.16673
      vertex 1.5244 1.5 5.63143
    endloop
  endfacet
  facet normal -0.83147 -0 -0.555569
    outer loop
      vertex 1.16673 1.5 6.16673
      vertex 1.5244 0 5.63143
      vertex 1.16673 0 6.16673
    endloop
  endfacet
  facet normal -0.83147 0 -0.555569
    outer loop
      vertex 1.5244 4.5 5.63143
      vertex 1.16673 7 6.16673
      vertex 1.5244 7 5.63143
    endloop
  endfacet
  facet normal -0.83147 -0 -0.555569
    outer loop
      vertex 1.16673 7 6.16673
      vertex 1.5244 4.5 5.63143
      vertex 1.16673 4.5 6.16673
    endloop
  endfacet
  facet normal -0.83147 0 0.555569
    outer loop
      vertex 1.16673 4.5 3.83327
      vertex 1.5244 7 4.36857
      vertex 1.16673 7 3.83327
    endloop
  endfacet
  facet normal -0.83147 0 0.555569
    outer loop
      vertex 1.5244 7 4.36857
      vertex 1.16673 4.5 3.83327
      vertex 1.5244 4.5 4.36857
    endloop
  endfacet
  facet normal -0.83147 0 0.555569
    outer loop
      vertex 1.16673 0 3.83327
      vertex 1.5244 1.5 4.36857
      vertex 1.16673 1.5 3.83327
    endloop
  endfacet
  facet normal -0.83147 0 0.555569
    outer loop
      vertex 1.5244 1.5 4.36857
      vertex 1.16673 0 3.83327
      vertex 1.5244 0 4.36857
    endloop
  endfacet
  facet normal -0.555569 0 0.83147
    outer loop
      vertex 0.631427 1.5 3.4756
      vertex 1.16673 0 3.83327
      vertex 1.16673 1.5 3.83327
    endloop
  endfacet
  facet normal -0.555569 0 0.83147
    outer loop
      vertex 1.16673 0 3.83327
      vertex 0.631427 1.5 3.4756
      vertex 0.631427 0 3.4756
    endloop
  endfacet
  facet normal -0.555569 0 0.83147
    outer loop
      vertex 0.631427 7 3.4756
      vertex 1.16673 4.5 3.83327
      vertex 1.16673 7 3.83327
    endloop
  endfacet
  facet normal -0.555569 0 0.83147
    outer loop
      vertex 1.16673 4.5 3.83327
      vertex 0.631427 7 3.4756
      vertex 0.631427 4.5 3.4756
    endloop
  endfacet
  facet normal -0.980785 0 0.195091
    outer loop
      vertex 1.5244 0 4.36857
      vertex 1.65 1.5 5
      vertex 1.5244 1.5 4.36857
    endloop
  endfacet
  facet normal -0.980785 0 0.195091
    outer loop
      vertex 1.65 1.5 5
      vertex 1.5244 0 4.36857
      vertex 1.65 0 5
    endloop
  endfacet
  facet normal -0.980785 0 0.195091
    outer loop
      vertex 1.5244 4.5 4.36857
      vertex 1.65 7 5
      vertex 1.5244 7 4.36857
    endloop
  endfacet
  facet normal -0.980785 0 0.195091
    outer loop
      vertex 1.65 7 5
      vertex 1.5244 4.5 4.36857
      vertex 1.65 4.5 5
    endloop
  endfacet
  facet normal 0.83147 -0 0.555569
    outer loop
      vertex -1.5244 0 4.36857
      vertex -1.16673 1.5 3.83327
      vertex -1.5244 1.5 4.36857
    endloop
  endfacet
  facet normal 0.83147 0 0.555569
    outer loop
      vertex -1.16673 1.5 3.83327
      vertex -1.5244 0 4.36857
      vertex -1.16673 0 3.83327
    endloop
  endfacet
  facet normal 0.83147 -0 0.555569
    outer loop
      vertex -1.5244 4.5 4.36857
      vertex -1.16673 7 3.83327
      vertex -1.5244 7 4.36857
    endloop
  endfacet
  facet normal 0.83147 0 0.555569
    outer loop
      vertex -1.16673 7 3.83327
      vertex -1.5244 4.5 4.36857
      vertex -1.16673 4.5 3.83327
    endloop
  endfacet
  facet normal 0.195091 4.31123e-017 0.980785
    outer loop
      vertex -0.631427 1.5 3.4756
      vertex 6.66134e-016 0 3.35
      vertex 3.33067e-016 1.5 3.35
    endloop
  endfacet
  facet normal 0.195091 0 0.980785
    outer loop
      vertex 6.66134e-016 0 3.35
      vertex -0.631427 1.5 3.4756
      vertex -0.631427 0 3.4756
    endloop
  endfacet
  facet normal 0.195091 4.31123e-017 0.980785
    outer loop
      vertex -0.631427 7 3.4756
      vertex -3.33067e-016 4.5 3.35
      vertex -8.88178e-016 7 3.35
    endloop
  endfacet
  facet normal 0.195091 0 0.980785
    outer loop
      vertex -3.33067e-016 4.5 3.35
      vertex -0.631427 7 3.4756
      vertex -0.631427 4.5 3.4756
    endloop
  endfacet
  facet normal 0.83147 0 -0.555569
    outer loop
      vertex -1.16673 0 6.16673
      vertex -1.5244 1.5 5.63143
      vertex -1.16673 1.5 6.16673
    endloop
  endfacet
  facet normal 0.83147 0 -0.555569
    outer loop
      vertex -1.5244 1.5 5.63143
      vertex -1.16673 0 6.16673
      vertex -1.5244 0 5.63143
    endloop
  endfacet
  facet normal 0.83147 0 -0.555569
    outer loop
      vertex -1.16673 4.5 6.16673
      vertex -1.5244 7 5.63143
      vertex -1.16673 7 6.16673
    endloop
  endfacet
  facet normal 0.83147 0 -0.555569
    outer loop
      vertex -1.5244 7 5.63143
      vertex -1.16673 4.5 6.16673
      vertex -1.5244 4.5 5.63143
    endloop
  endfacet
  facet normal 0.980785 0 -0.195091
    outer loop
      vertex -1.5244 4.5 5.63143
      vertex -1.65 7 5
      vertex -1.5244 7 5.63143
    endloop
  endfacet
  facet normal 0.980785 0 -0.195091
    outer loop
      vertex -1.65 7 5
      vertex -1.5244 4.5 5.63143
      vertex -1.65 4.5 5
    endloop
  endfacet
  facet normal 0.980785 0 -0.195091
    outer loop
      vertex -1.5244 0 5.63143
      vertex -1.65 1.5 5
      vertex -1.5244 1.5 5.63143
    endloop
  endfacet
  facet normal 0.980785 0 -0.195091
    outer loop
      vertex -1.65 1.5 5
      vertex -1.5244 0 5.63143
      vertex -1.65 0 5
    endloop
  endfacet
  facet normal 0.555569 0 -0.83147
    outer loop
      vertex -1.16673 0 6.16673
      vertex -0.631427 1.5 6.5244
      vertex -0.631427 0 6.5244
    endloop
  endfacet
  facet normal 0.555569 0 -0.83147
    outer loop
      vertex -0.631427 1.5 6.5244
      vertex -1.16673 0 6.16673
      vertex -1.16673 1.5 6.16673
    endloop
  endfacet
  facet normal 0.555569 0 -0.83147
    outer loop
      vertex -1.16673 4.5 6.16673
      vertex -0.631427 7 6.5244
      vertex -0.631427 4.5 6.5244
    endloop
  endfacet
  facet normal 0.555569 0 -0.83147
    outer loop
      vertex -0.631427 7 6.5244
      vertex -1.16673 4.5 6.16673
      vertex -1.16673 7 6.16673
    endloop
  endfacet
  facet normal 0.555569 0 0.83147
    outer loop
      vertex -1.16673 1.5 3.83327
      vertex -0.631427 0 3.4756
      vertex -0.631427 1.5 3.4756
    endloop
  endfacet
  facet normal 0.555569 0 0.83147
    outer loop
      vertex -0.631427 0 3.4756
      vertex -1.16673 1.5 3.83327
      vertex -1.16673 0 3.83327
    endloop
  endfacet
  facet normal 0.555569 0 0.83147
    outer loop
      vertex -1.16673 7 3.83327
      vertex -0.631427 4.5 3.4756
      vertex -0.631427 7 3.4756
    endloop
  endfacet
  facet normal 0.555569 0 0.83147
    outer loop
      vertex -0.631427 4.5 3.4756
      vertex -1.16673 7 3.83327
      vertex -1.16673 4.5 3.83327
    endloop
  endfacet
  facet normal 0.195091 4.31123e-017 -0.980785
    outer loop
      vertex -0.631427 4.5 6.5244
      vertex -8.88178e-016 7 6.65
      vertex -3.33067e-016 4.5 6.65
    endloop
  endfacet
  facet normal 0.195091 0 -0.980785
    outer loop
      vertex -8.88178e-016 7 6.65
      vertex -0.631427 4.5 6.5244
      vertex -0.631427 7 6.5244
    endloop
  endfacet
  facet normal 0.195091 4.31123e-017 -0.980785
    outer loop
      vertex -0.631427 0 6.5244
      vertex 3.33067e-016 1.5 6.65
      vertex 6.66134e-016 0 6.65
    endloop
  endfacet
  facet normal 0.195091 0 -0.980785
    outer loop
      vertex 3.33067e-016 1.5 6.65
      vertex -0.631427 0 6.5244
      vertex -0.631427 1.5 6.5244
    endloop
  endfacet
  facet normal 0 0 -1
    outer loop
      vertex 5 0 0
      vertex 4 5.5 0
      vertex 10.5 5.5 0
    endloop
  endfacet
  facet normal 0 0 -1
    outer loop
      vertex 4 5.5 0
      vertex -4 5.5 0
      vertex 4 7 0
    endloop
  endfacet
  facet normal 0 0 -1
    outer loop
      vertex 5 0 0
      vertex -4 5.5 0
      vertex 4 5.5 0
    endloop
  endfacet
  facet normal 0 0 -1
    outer loop
      vertex -5 0 0
      vertex -4 5.5 0
      vertex 5 0 0
    endloop
  endfacet
  facet normal -0 0 -1
    outer loop
      vertex -4 5.5 0
      vertex -5 0 0
      vertex -10.5 5.5 0
    endloop
  endfacet
  facet normal -0 0 -1
    outer loop
      vertex 4 7 0
      vertex -4 5.5 0
      vertex -4 7 0
    endloop
  endfacet
  facet normal 0 0 1
    outer loop
      vertex 4 7 10
      vertex 2.85788 4.5 10
      vertex 4 5.5 10
    endloop
  endfacet
  facet normal 0 0 1
    outer loop
      vertex 4 7 10
      vertex -2.85788 4.5 10
      vertex 2.85788 4.5 10
    endloop
  endfacet
  facet normal -0 0 1
    outer loop
      vertex -4 5.5 10
      vertex -2.85788 4.5 10
      vertex -4 7 10
    endloop
  endfacet
  facet normal -0 0 1
    outer loop
      vertex -4 7 10
      vertex -2.85788 4.5 10
      vertex 4 7 10
    endloop
  endfacet
  facet normal -0 0 1
    outer loop
      vertex 4 5.5 10
      vertex 5 0 10
      vertex 10.5 5.5 10
    endloop
  endfacet
  facet normal 0 0 1
    outer loop
      vertex 2.85788 1.5 10
      vertex 4 5.5 10
      vertex 2.85788 4.5 10
    endloop
  endfacet
  facet normal 0 0 1
    outer loop
      vertex 4 5.5 10
      vertex 2.85788 1.5 10
      vertex 5 0 10
    endloop
  endfacet
  facet normal -0 0 1
    outer loop
      vertex -2.85788 1.5 10
      vertex 5 0 10
      vertex 2.85788 1.5 10
    endloop
  endfacet
  facet normal 0 0 1
    outer loop
      vertex -2.85788 4.5 10
      vertex -4 5.5 10
      vertex -2.85788 1.5 10
    endloop
  endfacet
  facet normal 0 0 1
    outer loop
      vertex -2.85788 1.5 10
      vertex -5 0 10
      vertex 5 0 10
    endloop
  endfacet
  facet normal 0 0 1
    outer loop
      vertex -4 5.5 10
      vertex -5 0 10
      vertex -2.85788 1.5 10
    endloop
  endfacet
  facet normal 0 -0 1
    outer loop
      vertex -5 0 10
      vertex -4 5.5 10
      vertex -10.5 5.5 10
    endloop
  endfacet
  facet normal 0 1 -0
    outer loop
      vertex 10.5 5.5 0
      vertex 4 5.5 10
      vertex 10.5 5.5 10
    endloop
  endfacet
  facet normal 0 1 0
    outer loop
      vertex 4 5.5 10
      vertex 10.5 5.5 0
      vertex 4 5.5 0
    endloop
  endfacet
  facet normal 1 -0 0
    outer loop
      vertex 4 5.5 10
      vertex 4 7 0
      vertex 4 7 10
    endloop
  endfacet
  facet normal 1 0 0
    outer loop
      vertex 4 7 0
      vertex 4 5.5 10
      vertex 4 5.5 0
    endloop
  endfacet
  facet normal 0 1 0
    outer loop
      vertex 4 7 10
      vertex -8.88178e-016 7 6.65
      vertex -4 7 10
    endloop
  endfacet
  facet normal 0 1 0
    outer loop
      vertex 4 7 10
      vertex 0.631427 7 6.5244
      vertex -8.88178e-016 7 6.65
    endloop
  endfacet
  facet normal 0 1 0
    outer loop
      vertex 4 7 10
      vertex 1.16673 7 6.16673
      vertex 0.631427 7 6.5244
    endloop
  endfacet
  facet normal 0 1 0
    outer loop
      vertex 4 7 10
      vertex 1.5244 7 5.63143
      vertex 1.16673 7 6.16673
    endloop
  endfacet
  facet normal 0 1 0
    outer loop
      vertex 4 7 10
      vertex 1.65 7 5
      vertex 1.5244 7 5.63143
    endloop
  endfacet
  facet normal 0 1 -0
    outer loop
      vertex 4 7 0
      vertex 1.65 7 5
      vertex 4 7 10
    endloop
  endfacet
  facet normal 0 1 0
    outer loop
      vertex 0.631427 7 3.4756
      vertex 4 7 0
      vertex -8.88178e-016 7 3.35
    endloop
  endfacet
  facet normal 0 1 0
    outer loop
      vertex 1.16673 7 3.83327
      vertex 4 7 0
      vertex 0.631427 7 3.4756
    endloop
  endfacet
  facet normal 0 1 0
    outer loop
      vertex 1.5244 7 4.36857
      vertex 4 7 0
      vertex 1.16673 7 3.83327
    endloop
  endfacet
  facet normal 0 1 0
    outer loop
      vertex 1.65 7 5
      vertex 4 7 0
      vertex 1.5244 7 4.36857
    endloop
  endfacet
  facet normal 0 1 -0
    outer loop
      vertex -0.631427 7 6.5244
      vertex -4 7 10
      vertex -8.88178e-016 7 6.65
    endloop
  endfacet
  facet normal 0 1 -0
    outer loop
      vertex -1.16673 7 6.16673
      vertex -4 7 10
      vertex -0.631427 7 6.5244
    endloop
  endfacet
  facet normal 0 1 -0
    outer loop
      vertex -1.5244 7 5.63143
      vertex -4 7 10
      vertex -1.16673 7 6.16673
    endloop
  endfacet
  facet normal 0 1 -0
    outer loop
      vertex -1.65 7 5
      vertex -4 7 10
      vertex -1.5244 7 5.63143
    endloop
  endfacet
  facet normal 0 1 0
    outer loop
      vertex -4 7 0
      vertex -1.65 7 5
      vertex -1.5244 7 4.36857
    endloop
  endfacet
  facet normal 0 1 0
    outer loop
      vertex -4 7 0
      vertex -8.88178e-016 7 3.35
      vertex 4 7 0
    endloop
  endfacet
  facet normal 0 1 0
    outer loop
      vertex -8.88178e-016 7 3.35
      vertex -4 7 0
      vertex -0.631427 7 3.4756
    endloop
  endfacet
  facet normal 0 1 0
    outer loop
      vertex -1.65 7 5
      vertex -4 7 0
      vertex -4 7 10
    endloop
  endfacet
  facet normal 0 1 0
    outer loop
      vertex -1.16673 7 3.83327
      vertex -4 7 0
      vertex -1.5244 7 4.36857
    endloop
  endfacet
  facet normal 0 1 0
    outer loop
      vertex -0.631427 7 3.4756
      vertex -4 7 0
      vertex -1.16673 7 3.83327
    endloop
  endfacet
  facet normal -1 0 0
    outer loop
      vertex -4 5.5 0
      vertex -4 7 10
      vertex -4 7 0
    endloop
  endfacet
  facet normal -1 -0 0
    outer loop
      vertex -4 7 10
      vertex -4 5.5 0
      vertex -4 5.5 10
    endloop
  endfacet
  facet normal 0 1 -0
    outer loop
      vertex -4 5.5 0
      vertex -10.5 5.5 10
      vertex -4 5.5 10
    endloop
  endfacet
  facet normal 0 1 0
    outer loop
      vertex -10.5 5.5 10
      vertex -4 5.5 0
      vertex -10.5 5.5 0
    endloop
  endfacet
  facet normal -0.707107 -0.707107 0
    outer loop
      vertex -5 0 0
      vertex -10.5 5.5 10
      vertex -10.5 5.5 0
    endloop
  endfacet
  facet normal -0.707107 -0.707107 0
    outer loop
      vertex -10.5 5.5 10
      vertex -5 0 0
      vertex -5 0 10
    endloop
  endfacet
  facet normal 0 -1 0
    outer loop
      vertex -5 0 10
      vertex 6.66134e-016 0 6.65
      vertex 5 0 10
    endloop
  endfacet
  facet normal 0 -1 0
    outer loop
      vertex -5 0 10
      vertex -0.631427 0 6.5244
      vertex 6.66134e-016 0 6.65
    endloop
  endfacet
  facet normal 0 -1 0
    outer loop
      vertex -5 0 10
      vertex -1.16673 0 6.16673
      vertex -0.631427 0 6.5244
    endloop
  endfacet
  facet normal 0 -1 0
    outer loop
      vertex -5 0 10
      vertex -1.5244 0 5.63143
      vertex -1.16673 0 6.16673
    endloop
  endfacet
  facet normal 0 -1 0
    outer loop
      vertex -5 0 10
      vertex -1.65 0 5
      vertex -1.5244 0 5.63143
    endloop
  endfacet
  facet normal 0 -1 0
    outer loop
      vertex -5 0 0
      vertex -1.65 0 5
      vertex -5 0 10
    endloop
  endfacet
  facet normal 0 -1 -0
    outer loop
      vertex -0.631427 0 3.4756
      vertex -5 0 0
      vertex 6.66134e-016 0 3.35
    endloop
  endfacet
  facet normal 0 -1 -0
    outer loop
      vertex -1.16673 0 3.83327
      vertex -5 0 0
      vertex -0.631427 0 3.4756
    endloop
  endfacet
  facet normal 0 -1 -0
    outer loop
      vertex -1.5244 0 4.36857
      vertex -5 0 0
      vertex -1.16673 0 3.83327
    endloop
  endfacet
  facet normal 0 -1 -0
    outer loop
      vertex -1.65 0 5
      vertex -5 0 0
      vertex -1.5244 0 4.36857
    endloop
  endfacet
  facet normal 0 -1 0
    outer loop
      vertex 0.631427 0 6.5244
      vertex 5 0 10
      vertex 6.66134e-016 0 6.65
    endloop
  endfacet
  facet normal 0 -1 0
    outer loop
      vertex 1.16673 0 6.16673
      vertex 5 0 10
      vertex 0.631427 0 6.5244
    endloop
  endfacet
  facet normal 0 -1 0
    outer loop
      vertex 1.5244 0 5.63143
      vertex 5 0 10
      vertex 1.16673 0 6.16673
    endloop
  endfacet
  facet normal 0 -1 0
    outer loop
      vertex 1.65 0 5
      vertex 5 0 10
      vertex 1.5244 0 5.63143
    endloop
  endfacet
  facet normal 0 -1 0
    outer loop
      vertex 5 0 0
      vertex 1.65 0 5
      vertex 1.5244 0 4.36857
    endloop
  endfacet
  facet normal 0 -1 0
    outer loop
      vertex 5 0 0
      vertex 6.66134e-016 0 3.35
      vertex -5 0 0
    endloop
  endfacet
  facet normal 0 -1 0
    outer loop
      vertex 1.65 0 5
      vertex 5 0 0
      vertex 5 0 10
    endloop
  endfacet
  facet normal 0 -1 0
    outer loop
      vertex 1.16673 0 3.83327
      vertex 5 0 0
      vertex 1.5244 0 4.36857
    endloop
  endfacet
  facet normal 0 -1 0
    outer loop
      vertex 0.631427 0 3.4756
      vertex 5 0 0
      vertex 1.16673 0 3.83327
    endloop
  endfacet
  facet normal 0 -1 0
    outer loop
      vertex 6.66134e-016 0 3.35
      vertex 5 0 0
      vertex 0.631427 0 3.4756
    endloop
  endfacet
  facet normal 0.707107 -0.707107 0
    outer loop
      vertex 5 0 10
      vertex 10.5 5.5 0
      vertex 10.5 5.5 10
    endloop
  endfacet
  facet normal 0.707107 -0.707107 0
    outer loop
      vertex 10.5 5.5 0
      vertex 5 0 10
      vertex 5 0 0
    endloop
  endfacet
endsolid OpenSCAD_Model
