solid OpenSCAD_Model
  facet normal -1 0 0
    outer loop
      vertex -12.7 7.5 -6
      vertex -12.7 12.5 6
      vertex -12.7 12.5 -6
    endloop
  endfacet
  facet normal -1 -0 0
    outer loop
      vertex -12.7 12.5 6
      vertex -12.7 7.5 -6
      vertex -12.7 7.5 6
    endloop
  endfacet
  facet normal -0.980795 -0.195042 0
    outer loop
      vertex -12.6239 7.11732 -6
      vertex -12.7 7.5 6
      vertex -12.7 7.5 -6
    endloop
  endfacet
  facet normal -0.980795 -0.195042 0
    outer loop
      vertex -12.7 7.5 6
      vertex -12.6239 7.11732 -6
      vertex -12.6239 7.11732 6
    endloop
  endfacet
  facet normal 0 0 1
    outer loop
      vertex 11.7 6.5 6
      vertex 12.7 7.5 6
      vertex 12.7 12.5 6
    endloop
  endfacet
  facet normal 0 0 1
    outer loop
      vertex 12.7 7.5 6
      vertex 11.7 6.5 6
      vertex 12.6239 7.11732 6
    endloop
  endfacet
  facet normal 0 0 1
    outer loop
      vertex 12.6239 7.11732 6
      vertex 11.7 6.5 6
      vertex 12.4071 6.79289 6
    endloop
  endfacet
  facet normal 0 0 1
    outer loop
      vertex 12.4071 6.79289 6
      vertex 11.7 6.5 6
      vertex 12.0827 6.57612 6
    endloop
  endfacet
  facet normal 0 0 1
    outer loop
      vertex 12.7 12.5 6
      vertex -11.7 6.5 6
      vertex 11.7 6.5 6
    endloop
  endfacet
  facet normal -0 0 1
    outer loop
      vertex -12.7 12.5 6
      vertex -11.7 6.5 6
      vertex 12.7 12.5 6
    endloop
  endfacet
  facet normal -0 0 1
    outer loop
      vertex -12.7 7.5 6
      vertex -11.7 6.5 6
      vertex -12.7 12.5 6
    endloop
  endfacet
  facet normal 0 0 1
    outer loop
      vertex -11.7 6.5 6
      vertex -12.7 7.5 6
      vertex -12.0827 6.57612 6
    endloop
  endfacet
  facet normal 0 0 1
    outer loop
      vertex -12.0827 6.57612 6
      vertex -12.7 7.5 6
      vertex -12.4071 6.79289 6
    endloop
  endfacet
  facet normal 0 0 1
    outer loop
      vertex -12.4071 6.79289 6
      vertex -12.7 7.5 6
      vertex -12.6239 7.11732 6
    endloop
  endfacet
  facet normal 1 -0 0
    outer loop
      vertex 12.7 7.5 6
      vertex 12.7 12.5 -2
      vertex 12.7 12.5 6
    endloop
  endfacet
  facet normal 1 0 0
    outer loop
      vertex 12.7 12.5 -2
      vertex 12.7 7.5 6
      vertex 12.7 7.5 -2
    endloop
  endfacet
  facet normal 0 1 0
    outer loop
      vertex 30.7 12.5 -2
      vertex 30.7 12.5 -6
      vertex 12.7 12.5 -2
    endloop
  endfacet
  facet normal 0 1 -0
    outer loop
      vertex 3.42597 12.5 2.38582
      vertex -4 12.5 2.5
      vertex 4 12.5 2.5
    endloop
  endfacet
  facet normal 0 1 0
    outer loop
      vertex 3.42597 12.5 2.38582
      vertex -3.42597 12.5 2.38582
      vertex -4 12.5 2.5
    endloop
  endfacet
  facet normal 0 1 -0
    outer loop
      vertex 2.93934 12.5 2.06066
      vertex -3.42597 12.5 2.38582
      vertex 3.42597 12.5 2.38582
    endloop
  endfacet
  facet normal 0 1 0
    outer loop
      vertex 2.93934 12.5 2.06066
      vertex -2.93934 12.5 2.06066
      vertex -3.42597 12.5 2.38582
    endloop
  endfacet
  facet normal 0 1 -0
    outer loop
      vertex 2.61418 12.5 1.57402
      vertex -2.93934 12.5 2.06066
      vertex 2.93934 12.5 2.06066
    endloop
  endfacet
  facet normal 0 1 0
    outer loop
      vertex 2.61418 12.5 1.57402
      vertex -2.61418 12.5 1.57402
      vertex -2.93934 12.5 2.06066
    endloop
  endfacet
  facet normal 0 1 -0
    outer loop
      vertex 2.5 12.5 1
      vertex -2.61418 12.5 1.57402
      vertex 2.61418 12.5 1.57402
    endloop
  endfacet
  facet normal 0 1 0
    outer loop
      vertex 2.5 12.5 1
      vertex -2.5 12.5 1
      vertex -2.61418 12.5 1.57402
    endloop
  endfacet
  facet normal 0 1 0
    outer loop
      vertex 2.61418 12.5 0.425975
      vertex -2.5 12.5 1
      vertex 2.5 12.5 1
    endloop
  endfacet
  facet normal 0 1 0
    outer loop
      vertex 2.61418 12.5 0.425975
      vertex -2.61418 12.5 0.425975
      vertex -2.5 12.5 1
    endloop
  endfacet
  facet normal 0 1 0
    outer loop
      vertex 2.93934 12.5 -0.0606594
      vertex -2.61418 12.5 0.425975
      vertex 2.61418 12.5 0.425975
    endloop
  endfacet
  facet normal 0 1 0
    outer loop
      vertex 2.93934 12.5 -0.0606594
      vertex -2.93934 12.5 -0.0606594
      vertex -2.61418 12.5 0.425975
    endloop
  endfacet
  facet normal 0 1 0
    outer loop
      vertex 3.42597 12.5 -0.385818
      vertex -2.93934 12.5 -0.0606594
      vertex 2.93934 12.5 -0.0606594
    endloop
  endfacet
  facet normal 0 1 0
    outer loop
      vertex 3.42597 12.5 -0.385818
      vertex -3.42597 12.5 -0.385818
      vertex -2.93934 12.5 -0.0606594
    endloop
  endfacet
  facet normal 0 1 0
    outer loop
      vertex -12.7 12.5 -6
      vertex 3.42597 12.5 -0.385818
      vertex 4 12.5 -0.5
    endloop
  endfacet
  facet normal 0 1 0
    outer loop
      vertex 3.42597 12.5 -0.385818
      vertex -12.7 12.5 -6
      vertex -3.42597 12.5 -0.385818
    endloop
  endfacet
  facet normal 0 1 0
    outer loop
      vertex 12.7 12.5 6
      vertex 4 12.5 2.5
      vertex -12.7 12.5 6
    endloop
  endfacet
  facet normal 0 1 0
    outer loop
      vertex 12.7 12.5 6
      vertex 4.57402 12.5 2.38582
      vertex 4 12.5 2.5
    endloop
  endfacet
  facet normal 0 1 0
    outer loop
      vertex 12.7 12.5 6
      vertex 5.06066 12.5 2.06066
      vertex 4.57402 12.5 2.38582
    endloop
  endfacet
  facet normal 0 1 0
    outer loop
      vertex 12.7 12.5 6
      vertex 5.38582 12.5 1.57402
      vertex 5.06066 12.5 2.06066
    endloop
  endfacet
  facet normal 0 1 0
    outer loop
      vertex 12.7 12.5 6
      vertex 5.5 12.5 1
      vertex 5.38582 12.5 1.57402
    endloop
  endfacet
  facet normal 0 1 -0
    outer loop
      vertex 12.7 12.5 -2
      vertex 5.5 12.5 1
      vertex 12.7 12.5 6
    endloop
  endfacet
  facet normal 0 1 0
    outer loop
      vertex 5.5 12.5 1
      vertex 12.7 12.5 -2
      vertex 5.38582 12.5 0.425975
    endloop
  endfacet
  facet normal 0 1 0
    outer loop
      vertex -12.7 12.5 -6
      vertex 4 12.5 -0.5
      vertex 12.7 12.5 -2
    endloop
  endfacet
  facet normal 0 1 0
    outer loop
      vertex 4.57402 12.5 -0.385818
      vertex 12.7 12.5 -2
      vertex 4 12.5 -0.5
    endloop
  endfacet
  facet normal 0 1 0
    outer loop
      vertex 5.06066 12.5 -0.0606594
      vertex 12.7 12.5 -2
      vertex 4.57402 12.5 -0.385818
    endloop
  endfacet
  facet normal 0 1 0
    outer loop
      vertex 5.38582 12.5 0.425975
      vertex 12.7 12.5 -2
      vertex 5.06066 12.5 -0.0606594
    endloop
  endfacet
  facet normal 0 1 -0
    outer loop
      vertex -4 12.5 2.5
      vertex -12.7 12.5 6
      vertex 4 12.5 2.5
    endloop
  endfacet
  facet normal 0 1 -0
    outer loop
      vertex -4.57402 12.5 2.38582
      vertex -12.7 12.5 6
      vertex -4 12.5 2.5
    endloop
  endfacet
  facet normal 0 1 -0
    outer loop
      vertex -5.06066 12.5 2.06066
      vertex -12.7 12.5 6
      vertex -4.57402 12.5 2.38582
    endloop
  endfacet
  facet normal 0 1 -0
    outer loop
      vertex -5.38582 12.5 1.57402
      vertex -12.7 12.5 6
      vertex -5.06066 12.5 2.06066
    endloop
  endfacet
  facet normal 0 1 -0
    outer loop
      vertex -5.5 12.5 1
      vertex -12.7 12.5 6
      vertex -5.38582 12.5 1.57402
    endloop
  endfacet
  facet normal 0 1 0
    outer loop
      vertex -12.7 12.5 -6
      vertex -5.5 12.5 1
      vertex -5.38582 12.5 0.425975
    endloop
  endfacet
  facet normal 0 1 0
    outer loop
      vertex -12.7 12.5 -6
      vertex -5.38582 12.5 0.425975
      vertex -5.06066 12.5 -0.0606594
    endloop
  endfacet
  facet normal 0 1 0
    outer loop
      vertex -12.7 12.5 -6
      vertex 12.7 12.5 -2
      vertex 30.7 12.5 -6
    endloop
  endfacet
  facet normal 0 1 0
    outer loop
      vertex -5.5 12.5 1
      vertex -12.7 12.5 -6
      vertex -12.7 12.5 6
    endloop
  endfacet
  facet normal 0 1 0
    outer loop
      vertex -4.57402 12.5 -0.385818
      vertex -12.7 12.5 -6
      vertex -5.06066 12.5 -0.0606594
    endloop
  endfacet
  facet normal 0 1 0
    outer loop
      vertex -4 12.5 -0.5
      vertex -12.7 12.5 -6
      vertex -4.57402 12.5 -0.385818
    endloop
  endfacet
  facet normal 0 1 0
    outer loop
      vertex -3.42597 12.5 -0.385818
      vertex -12.7 12.5 -6
      vertex -4 12.5 -0.5
    endloop
  endfacet
  facet normal 0 0 -1
    outer loop
      vertex 29.6239 2.11732 -6
      vertex 31.7 -11.5 -6
      vertex 29.6239 -7.11732 -6
    endloop
  endfacet
  facet normal 0 0 -1
    outer loop
      vertex 31.7 -11.5 -6
      vertex 29.6239 2.11732 -6
      vertex 29.7 2.5 -6
    endloop
  endfacet
  facet normal 0 0 -1
    outer loop
      vertex 29.4071 -6.79289 -6
      vertex 29.6239 2.11732 -6
      vertex 29.6239 -7.11732 -6
    endloop
  endfacet
  facet normal 0 0 -1
    outer loop
      vertex 29.4071 -6.79289 -6
      vertex 29.4071 1.79289 -6
      vertex 29.6239 2.11732 -6
    endloop
  endfacet
  facet normal 0 0 -1
    outer loop
      vertex 29.0827 -6.57612 -6
      vertex 29.4071 1.79289 -6
      vertex 29.4071 -6.79289 -6
    endloop
  endfacet
  facet normal 0 0 -1
    outer loop
      vertex 29.0827 -6.57612 -6
      vertex 29.0827 1.57612 -6
      vertex 29.4071 1.79289 -6
    endloop
  endfacet
  facet normal 0 0 -1
    outer loop
      vertex 28.7 -6.5 -6
      vertex 29.0827 1.57612 -6
      vertex 29.0827 -6.57612 -6
    endloop
  endfacet
  facet normal 0 0 -1
    outer loop
      vertex 28.7 -6.5 -6
      vertex 28.7 1.5 -6
      vertex 29.0827 1.57612 -6
    endloop
  endfacet
  facet normal 0 0 -1
    outer loop
      vertex 28.3173 -6.57612 -6
      vertex 28.7 1.5 -6
      vertex 28.7 -6.5 -6
    endloop
  endfacet
  facet normal 0 0 -1
    outer loop
      vertex 28.3173 -6.57612 -6
      vertex 28.3173 1.57612 -6
      vertex 28.7 1.5 -6
    endloop
  endfacet
  facet normal 0 0 -1
    outer loop
      vertex 27.9929 -6.79289 -6
      vertex 28.3173 1.57612 -6
      vertex 28.3173 -6.57612 -6
    endloop
  endfacet
  facet normal 0 0 -1
    outer loop
      vertex 27.9929 -6.79289 -6
      vertex 27.9929 1.79289 -6
      vertex 28.3173 1.57612 -6
    endloop
  endfacet
  facet normal 0 0 -1
    outer loop
      vertex 27.7761 -7.11732 -6
      vertex 27.9929 1.79289 -6
      vertex 27.9929 -6.79289 -6
    endloop
  endfacet
  facet normal 0 0 -1
    outer loop
      vertex 27.7761 -7.11732 -6
      vertex 27.7761 2.11732 -6
      vertex 27.9929 1.79289 -6
    endloop
  endfacet
  facet normal 0 0 -1
    outer loop
      vertex 1 -12.5 -6
      vertex 27.7761 -7.11732 -6
      vertex 27.7 -7.5 -6
    endloop
  endfacet
  facet normal -0 0 -1
    outer loop
      vertex 27.7761 -7.11732 -6
      vertex 1 -12.5 -6
      vertex 27.7761 2.11732 -6
    endloop
  endfacet
  facet normal 0 0 -1
    outer loop
      vertex 30.7 -12.5 -6
      vertex 31.7 -11.5 -6
      vertex 31.6239 -11.8827 -6
    endloop
  endfacet
  facet normal 0 0 -1
    outer loop
      vertex 31.7 -11.5 -6
      vertex 29.7 2.5 -6
      vertex 31.7 11.5 -6
    endloop
  endfacet
  facet normal 0 0 -1
    outer loop
      vertex 30.7 -12.5 -6
      vertex 31.6239 -11.8827 -6
      vertex 31.4071 -12.2071 -6
    endloop
  endfacet
  facet normal 0 0 -1
    outer loop
      vertex 29.6239 2.88268 -6
      vertex 31.7 11.5 -6
      vertex 29.7 2.5 -6
    endloop
  endfacet
  facet normal 0 0 -1
    outer loop
      vertex 30.7 -12.5 -6
      vertex 31.4071 -12.2071 -6
      vertex 31.0827 -12.4239 -6
    endloop
  endfacet
  facet normal 0 0 -1
    outer loop
      vertex 29.4071 3.20711 -6
      vertex 31.7 11.5 -6
      vertex 29.6239 2.88268 -6
    endloop
  endfacet
  facet normal -0 0 -1
    outer loop
      vertex 31.7 -11.5 -6
      vertex 30.7 -12.5 -6
      vertex 29.0827 -8.42388 -6
    endloop
  endfacet
  facet normal 0 0 -1
    outer loop
      vertex 29.0827 3.42388 -6
      vertex 31.7 11.5 -6
      vertex 29.4071 3.20711 -6
    endloop
  endfacet
  facet normal 0 0 -1
    outer loop
      vertex 29.6239 -7.11732 -6
      vertex 31.7 -11.5 -6
      vertex 29.7 -7.5 -6
    endloop
  endfacet
  facet normal 0 0 -1
    outer loop
      vertex 31.7 -11.5 -6
      vertex 29.6239 -7.88268 -6
      vertex 29.7 -7.5 -6
    endloop
  endfacet
  facet normal 0 0 -1
    outer loop
      vertex 31.7 -11.5 -6
      vertex 29.4071 -8.20711 -6
      vertex 29.6239 -7.88268 -6
    endloop
  endfacet
  facet normal 0 0 -1
    outer loop
      vertex 31.7 -11.5 -6
      vertex 29.0827 -8.42388 -6
      vertex 29.4071 -8.20711 -6
    endloop
  endfacet
  facet normal 0 0 -1
    outer loop
      vertex 30.7 -12.5 -6
      vertex 28.7 -8.5 -6
      vertex 29.0827 -8.42388 -6
    endloop
  endfacet
  facet normal 0 0 -1
    outer loop
      vertex 30.7 -12.5 -6
      vertex 28.3173 -8.42388 -6
      vertex 28.7 -8.5 -6
    endloop
  endfacet
  facet normal 0 0 -1
    outer loop
      vertex 30.7 -12.5 -6
      vertex 27.9929 -8.20711 -6
      vertex 28.3173 -8.42388 -6
    endloop
  endfacet
  facet normal 0 0 -1
    outer loop
      vertex 1 -12.5 -6
      vertex 27.9929 -8.20711 -6
      vertex 30.7 -12.5 -6
    endloop
  endfacet
  facet normal 0 0 -1
    outer loop
      vertex 0 6.5 -6
      vertex 27.7761 2.11732 -6
      vertex 1 -12.5 -6
    endloop
  endfacet
  facet normal -0 0 -1
    outer loop
      vertex 27.7761 -7.88268 -6
      vertex 1 -12.5 -6
      vertex 27.7 -7.5 -6
    endloop
  endfacet
  facet normal -0 0 -1
    outer loop
      vertex 27.9929 -8.20711 -6
      vertex 1 -12.5 -6
      vertex 27.7761 -7.88268 -6
    endloop
  endfacet
  facet normal 0 0 -1
    outer loop
      vertex 28.7 3.5 -6
      vertex 31.7 11.5 -6
      vertex 29.0827 3.42388 -6
    endloop
  endfacet
  facet normal 0 -0 -1
    outer loop
      vertex 30.7 12.5 -6
      vertex 31.7 11.5 -6
      vertex 28.7 3.5 -6
    endloop
  endfacet
  facet normal 0 0 -1
    outer loop
      vertex 31.7 11.5 -6
      vertex 30.7 12.5 -6
      vertex 31.6239 11.8827 -6
    endloop
  endfacet
  facet normal 0 0 -1
    outer loop
      vertex 31.4071 12.2071 -6
      vertex 30.7 12.5 -6
      vertex 31.0827 12.4239 -6
    endloop
  endfacet
  facet normal 0 0 -1
    outer loop
      vertex 31.6239 11.8827 -6
      vertex 30.7 12.5 -6
      vertex 31.4071 12.2071 -6
    endloop
  endfacet
  facet normal 0 0 -1
    outer loop
      vertex 28.3173 3.42388 -6
      vertex 30.7 12.5 -6
      vertex 28.7 3.5 -6
    endloop
  endfacet
  facet normal 0 0 -1
    outer loop
      vertex 27.9929 3.20711 -6
      vertex 30.7 12.5 -6
      vertex 28.3173 3.42388 -6
    endloop
  endfacet
  facet normal 0 0 -1
    outer loop
      vertex 0 6.5 -6
      vertex 27.9929 3.20711 -6
      vertex 27.7761 2.88268 -6
    endloop
  endfacet
  facet normal 0 0 -1
    outer loop
      vertex 27.7761 2.11732 -6
      vertex 0 6.5 -6
      vertex 27.7 2.5 -6
    endloop
  endfacet
  facet normal 0 0 -1
    outer loop
      vertex 27.7 2.5 -6
      vertex 0 6.5 -6
      vertex 27.7761 2.88268 -6
    endloop
  endfacet
  facet normal 0 0 -1
    outer loop
      vertex 0 -11.5 -6
      vertex 1 -12.5 -6
      vertex 0.617316 -12.4239 -6
    endloop
  endfacet
  facet normal 0 0 -1
    outer loop
      vertex 0 -11.5 -6
      vertex 0.617316 -12.4239 -6
      vertex 0.292892 -12.2071 -6
    endloop
  endfacet
  facet normal 0 0 -1
    outer loop
      vertex 0 -11.5 -6
      vertex 0.292892 -12.2071 -6
      vertex 0.0761204 -11.8827 -6
    endloop
  endfacet
  facet normal 0 0 -1
    outer loop
      vertex 1 -12.5 -6
      vertex 0 -11.5 -6
      vertex 0 6.5 -6
    endloop
  endfacet
  facet normal 0 0 -1
    outer loop
      vertex 27.9929 3.20711 -6
      vertex 0 6.5 -6
      vertex 30.7 12.5 -6
    endloop
  endfacet
  facet normal 0 0 -1
    outer loop
      vertex -12.7 12.5 -6
      vertex 0 6.5 -6
      vertex -11.7 6.5 -6
    endloop
  endfacet
  facet normal 0 0 -1
    outer loop
      vertex -12.7 7.5 -6
      vertex -11.7 6.5 -6
      vertex -12.0827 6.57612 -6
    endloop
  endfacet
  facet normal 0 0 -1
    outer loop
      vertex -12.7 7.5 -6
      vertex -12.0827 6.57612 -6
      vertex -12.4071 6.79289 -6
    endloop
  endfacet
  facet normal 0 0 -1
    outer loop
      vertex -12.7 7.5 -6
      vertex -12.4071 6.79289 -6
      vertex -12.6239 7.11732 -6
    endloop
  endfacet
  facet normal 0 0 -1
    outer loop
      vertex -11.7 6.5 -6
      vertex -12.7 7.5 -6
      vertex -12.7 12.5 -6
    endloop
  endfacet
  facet normal 0 0 -1
    outer loop
      vertex 0 6.5 -6
      vertex -12.7 12.5 -6
      vertex 30.7 12.5 -6
    endloop
  endfacet
  facet normal -0.831443 -0.555611 0
    outer loop
      vertex -12.4071 6.79289 -6
      vertex -12.6239 7.11732 6
      vertex -12.6239 7.11732 -6
    endloop
  endfacet
  facet normal -0.831443 -0.555611 0
    outer loop
      vertex -12.6239 7.11732 6
      vertex -12.4071 6.79289 -6
      vertex -12.4071 6.79289 6
    endloop
  endfacet
  facet normal 0.555593 -0.831454 0
    outer loop
      vertex 12.0827 6.57612 -2
      vertex 12.4071 6.79289 6
      vertex 12.0827 6.57612 6
    endloop
  endfacet
  facet normal 0.555593 -0.831454 0
    outer loop
      vertex 12.4071 6.79289 6
      vertex 12.0827 6.57612 -2
      vertex 12.4071 6.79289 -2
    endloop
  endfacet
  facet normal -0.555593 -0.831454 0
    outer loop
      vertex -12.4071 6.79289 -6
      vertex -12.0827 6.57612 6
      vertex -12.4071 6.79289 6
    endloop
  endfacet
  facet normal -0.555593 -0.831454 -0
    outer loop
      vertex -12.0827 6.57612 6
      vertex -12.4071 6.79289 -6
      vertex -12.0827 6.57612 -6
    endloop
  endfacet
  facet normal 0.195081 -0.980787 0
    outer loop
      vertex 11.7 6.5 -2
      vertex 12.0827 6.57612 6
      vertex 11.7 6.5 6
    endloop
  endfacet
  facet normal 0.195081 -0.980787 0
    outer loop
      vertex 12.0827 6.57612 6
      vertex 11.7 6.5 -2
      vertex 12.0827 6.57612 -2
    endloop
  endfacet
  facet normal 0 -1 0
    outer loop
      vertex -2.85195 6.5 3.77164
      vertex 4 6.5 4
      vertex -4 6.5 4
    endloop
  endfacet
  facet normal 0 -1 0
    outer loop
      vertex -2.85195 6.5 3.77164
      vertex 2.85195 6.5 3.77164
      vertex 4 6.5 4
    endloop
  endfacet
  facet normal 0 -1 0
    outer loop
      vertex -1.87868 6.5 3.12132
      vertex 2.85195 6.5 3.77164
      vertex -2.85195 6.5 3.77164
    endloop
  endfacet
  facet normal 0 -1 0
    outer loop
      vertex -1.87868 6.5 3.12132
      vertex 1.87868 6.5 3.12132
      vertex 2.85195 6.5 3.77164
    endloop
  endfacet
  facet normal 0 -1 0
    outer loop
      vertex -1.22836 6.5 2.14805
      vertex 1.87868 6.5 3.12132
      vertex -1.87868 6.5 3.12132
    endloop
  endfacet
  facet normal 0 -1 0
    outer loop
      vertex -1.22836 6.5 2.14805
      vertex 1.22836 6.5 2.14805
      vertex 1.87868 6.5 3.12132
    endloop
  endfacet
  facet normal 0 -1 0
    outer loop
      vertex -1 6.5 1
      vertex 1.22836 6.5 2.14805
      vertex -1.22836 6.5 2.14805
    endloop
  endfacet
  facet normal 0 -1 0
    outer loop
      vertex -1 6.5 1
      vertex 1 6.5 1
      vertex 1.22836 6.5 2.14805
    endloop
  endfacet
  facet normal 0 -1 0
    outer loop
      vertex -1.22836 6.5 -0.148049
      vertex 1 6.5 1
      vertex -1 6.5 1
    endloop
  endfacet
  facet normal 0 -1 0
    outer loop
      vertex -1.22836 6.5 -0.148049
      vertex 1.22836 6.5 -0.148049
      vertex 1 6.5 1
    endloop
  endfacet
  facet normal 0 -1 0
    outer loop
      vertex 0 6.5 -2
      vertex -1.22836 6.5 -0.148049
      vertex -1.87868 6.5 -1.12132
    endloop
  endfacet
  facet normal 0 -1 0
    outer loop
      vertex -1.22836 6.5 -0.148049
      vertex 0 6.5 -2
      vertex 1.22836 6.5 -0.148049
    endloop
  endfacet
  facet normal 0 -1 0
    outer loop
      vertex 0 6.5 -2
      vertex -1.87868 6.5 -1.12132
      vertex -2.85195 6.5 -1.77164
    endloop
  endfacet
  facet normal 0 -1 -0
    outer loop
      vertex 1.22836 6.5 -0.148049
      vertex 0 6.5 -2
      vertex 1.87868 6.5 -1.12132
    endloop
  endfacet
  facet normal 0 -1 0
    outer loop
      vertex 0 6.5 -6
      vertex -2.85195 6.5 -1.77164
      vertex -4 6.5 -2
    endloop
  endfacet
  facet normal 0 -1 -0
    outer loop
      vertex 1.87868 6.5 -1.12132
      vertex 0 6.5 -2
      vertex 2.85195 6.5 -1.77164
    endloop
  endfacet
  facet normal 0 -1 -0
    outer loop
      vertex 2.85195 6.5 -1.77164
      vertex 0 6.5 -2
      vertex 4 6.5 -2
    endloop
  endfacet
  facet normal 0 -1 0
    outer loop
      vertex -11.7 6.5 6
      vertex -4 6.5 4
      vertex 11.7 6.5 6
    endloop
  endfacet
  facet normal 0 -1 0
    outer loop
      vertex -11.7 6.5 6
      vertex -5.14805 6.5 3.77164
      vertex -4 6.5 4
    endloop
  endfacet
  facet normal 0 -1 0
    outer loop
      vertex -11.7 6.5 6
      vertex -6.12132 6.5 3.12132
      vertex -5.14805 6.5 3.77164
    endloop
  endfacet
  facet normal 0 -1 0
    outer loop
      vertex -11.7 6.5 6
      vertex -6.77164 6.5 2.14805
      vertex -6.12132 6.5 3.12132
    endloop
  endfacet
  facet normal 0 -1 0
    outer loop
      vertex -11.7 6.5 6
      vertex -7 6.5 1
      vertex -6.77164 6.5 2.14805
    endloop
  endfacet
  facet normal 0 -1 0
    outer loop
      vertex -11.7 6.5 -6
      vertex -7 6.5 1
      vertex -11.7 6.5 6
    endloop
  endfacet
  facet normal 0 -1 -0
    outer loop
      vertex -7 6.5 1
      vertex -11.7 6.5 -6
      vertex -6.77164 6.5 -0.148049
    endloop
  endfacet
  facet normal 0 -1 -0
    outer loop
      vertex -6.77164 6.5 -0.148049
      vertex -11.7 6.5 -6
      vertex -6.12132 6.5 -1.12132
    endloop
  endfacet
  facet normal 0 -1 0
    outer loop
      vertex -11.7 6.5 -6
      vertex -5.14805 6.5 -1.77164
      vertex -6.12132 6.5 -1.12132
    endloop
  endfacet
  facet normal 0 -1 0
    outer loop
      vertex 0 6.5 -6
      vertex -5.14805 6.5 -1.77164
      vertex -11.7 6.5 -6
    endloop
  endfacet
  facet normal 0 -1 0
    outer loop
      vertex -5.14805 6.5 -1.77164
      vertex 0 6.5 -6
      vertex -4 6.5 -2
    endloop
  endfacet
  facet normal 0 -1 0
    outer loop
      vertex -2.85195 6.5 -1.77164
      vertex 0 6.5 -6
      vertex 0 6.5 -2
    endloop
  endfacet
  facet normal 0 -1 0
    outer loop
      vertex 4 6.5 4
      vertex 11.7 6.5 6
      vertex -4 6.5 4
    endloop
  endfacet
  facet normal 0 -1 0
    outer loop
      vertex 5.14805 6.5 3.77164
      vertex 11.7 6.5 6
      vertex 4 6.5 4
    endloop
  endfacet
  facet normal 0 -1 0
    outer loop
      vertex 6.12132 6.5 3.12132
      vertex 11.7 6.5 6
      vertex 5.14805 6.5 3.77164
    endloop
  endfacet
  facet normal 0 -1 0
    outer loop
      vertex 6.77164 6.5 2.14805
      vertex 11.7 6.5 6
      vertex 6.12132 6.5 3.12132
    endloop
  endfacet
  facet normal 0 -1 0
    outer loop
      vertex 7 6.5 1
      vertex 11.7 6.5 6
      vertex 6.77164 6.5 2.14805
    endloop
  endfacet
  facet normal 0 -1 0
    outer loop
      vertex 11.7 6.5 -2
      vertex 7 6.5 1
      vertex 6.77164 6.5 -0.148049
    endloop
  endfacet
  facet normal 0 -1 0
    outer loop
      vertex 11.7 6.5 -2
      vertex 6.77164 6.5 -0.148049
      vertex 6.12132 6.5 -1.12132
    endloop
  endfacet
  facet normal 0 -1 0
    outer loop
      vertex 7 6.5 1
      vertex 11.7 6.5 -2
      vertex 11.7 6.5 6
    endloop
  endfacet
  facet normal 0 -1 0
    outer loop
      vertex 5.14805 6.5 -1.77164
      vertex 11.7 6.5 -2
      vertex 6.12132 6.5 -1.12132
    endloop
  endfacet
  facet normal 0 -1 0
    outer loop
      vertex 11.7 6.5 -2
      vertex 5.14805 6.5 -1.77164
      vertex 4 6.5 -2
    endloop
  endfacet
  facet normal 0.831443 -0.555611 0
    outer loop
      vertex 12.4071 6.79289 6
      vertex 12.6239 7.11732 -2
      vertex 12.6239 7.11732 6
    endloop
  endfacet
  facet normal 0.831443 -0.555611 0
    outer loop
      vertex 12.6239 7.11732 -2
      vertex 12.4071 6.79289 6
      vertex 12.4071 6.79289 -2
    endloop
  endfacet
  facet normal 0.980795 -0.195042 0
    outer loop
      vertex 12.6239 7.11732 6
      vertex 12.7 7.5 -2
      vertex 12.7 7.5 6
    endloop
  endfacet
  facet normal 0.980795 -0.195042 0
    outer loop
      vertex 12.7 7.5 -2
      vertex 12.6239 7.11732 6
      vertex 12.6239 7.11732 -2
    endloop
  endfacet
  facet normal -0.195081 -0.980787 0
    outer loop
      vertex -12.0827 6.57612 -6
      vertex -11.7 6.5 6
      vertex -12.0827 6.57612 6
    endloop
  endfacet
  facet normal -0.195081 -0.980787 -0
    outer loop
      vertex -11.7 6.5 6
      vertex -12.0827 6.57612 -6
      vertex -11.7 6.5 -6
    endloop
  endfacet
  facet normal -1 0 0
    outer loop
      vertex 0 -11.5 -6
      vertex 0 6.5 -2
      vertex 0 6.5 -6
    endloop
  endfacet
  facet normal -1 -0 0
    outer loop
      vertex 0 6.5 -2
      vertex 0 -11.5 -6
      vertex 0 -11.5 -2
    endloop
  endfacet
  facet normal 0.980797 0.195032 0
    outer loop
      vertex 31.7 11.5 -2
      vertex 31.6239 11.8827 -6
      vertex 31.6239 11.8827 -2
    endloop
  endfacet
  facet normal 0.980797 0.195032 0
    outer loop
      vertex 31.6239 11.8827 -6
      vertex 31.7 11.5 -2
      vertex 31.7 11.5 -6
    endloop
  endfacet
  facet normal 0 -1 0
    outer loop
      vertex 1 -12.5 -6
      vertex 4 -12.5 -2
      vertex 1 -12.5 -2
    endloop
  endfacet
  facet normal 0 -1 0
    outer loop
      vertex 30.7 -12.5 -6
      vertex 4 -12.5 -2
      vertex 1 -12.5 -6
    endloop
  endfacet
  facet normal 0 -1 0
    outer loop
      vertex 4 -12.5 -2
      vertex 30.7 -12.5 -6
      vertex 30.7 -12.5 -2
    endloop
  endfacet
  facet normal -0.980787 -0.195082 0
    outer loop
      vertex 0.0761204 -11.8827 -6
      vertex 0 -11.5 -2
      vertex 0 -11.5 -6
    endloop
  endfacet
  facet normal -0.980787 -0.195082 0
    outer loop
      vertex 0 -11.5 -2
      vertex 0.0761204 -11.8827 -6
      vertex 0.0761204 -11.8827 -2
    endloop
  endfacet
  facet normal -0.831453 -0.555596 0
    outer loop
      vertex 0.292892 -12.2071 -6
      vertex 0.0761204 -11.8827 -2
      vertex 0.0761204 -11.8827 -6
    endloop
  endfacet
  facet normal -0.831453 -0.555596 0
    outer loop
      vertex 0.0761204 -11.8827 -2
      vertex 0.292892 -12.2071 -6
      vertex 0.292892 -12.2071 -2
    endloop
  endfacet
  facet normal -0 0 1
    outer loop
      vertex 0 -11.5 -2
      vertex 4 -12.5 -2
      vertex 4 6.5 -2
    endloop
  endfacet
  facet normal 0 0 1
    outer loop
      vertex 4 -12.5 -2
      vertex 0 -11.5 -2
      vertex 1 -12.5 -2
    endloop
  endfacet
  facet normal 0 0 1
    outer loop
      vertex 1 -12.5 -2
      vertex 0 -11.5 -2
      vertex 0.617316 -12.4239 -2
    endloop
  endfacet
  facet normal 0 0 1
    outer loop
      vertex 0.617316 -12.4239 -2
      vertex 0 -11.5 -2
      vertex 0.292892 -12.2071 -2
    endloop
  endfacet
  facet normal 0 0 1
    outer loop
      vertex 0 -11.5 -2
      vertex 4 6.5 -2
      vertex 0 6.5 -2
    endloop
  endfacet
  facet normal 0 0 1
    outer loop
      vertex 0.292892 -12.2071 -2
      vertex 0 -11.5 -2
      vertex 0.0761204 -11.8827 -2
    endloop
  endfacet
  facet normal -0 0 1
    outer loop
      vertex 29.6239 -7.11732 -2
      vertex 31.7 -11.5 -2
      vertex 29.6239 2.11732 -2
    endloop
  endfacet
  facet normal 0 0 1
    outer loop
      vertex 31.7 -11.5 -2
      vertex 29.6239 -7.11732 -2
      vertex 29.7 -7.5 -2
    endloop
  endfacet
  facet normal -0 0 1
    outer loop
      vertex 29.4071 1.79289 -2
      vertex 29.6239 -7.11732 -2
      vertex 29.6239 2.11732 -2
    endloop
  endfacet
  facet normal 0 0 1
    outer loop
      vertex 29.4071 1.79289 -2
      vertex 29.4071 -6.79289 -2
      vertex 29.6239 -7.11732 -2
    endloop
  endfacet
  facet normal -0 0 1
    outer loop
      vertex 29.0827 1.57612 -2
      vertex 29.4071 -6.79289 -2
      vertex 29.4071 1.79289 -2
    endloop
  endfacet
  facet normal 0 0 1
    outer loop
      vertex 29.0827 1.57612 -2
      vertex 29.0827 -6.57612 -2
      vertex 29.4071 -6.79289 -2
    endloop
  endfacet
  facet normal -0 0 1
    outer loop
      vertex 28.7 1.5 -2
      vertex 29.0827 -6.57612 -2
      vertex 29.0827 1.57612 -2
    endloop
  endfacet
  facet normal 0 0 1
    outer loop
      vertex 28.7 1.5 -2
      vertex 28.7 -6.5 -2
      vertex 29.0827 -6.57612 -2
    endloop
  endfacet
  facet normal 0 0 1
    outer loop
      vertex 28.3173 1.57612 -2
      vertex 28.7 -6.5 -2
      vertex 28.7 1.5 -2
    endloop
  endfacet
  facet normal 0 0 1
    outer loop
      vertex 28.3173 1.57612 -2
      vertex 28.3173 -6.57612 -2
      vertex 28.7 -6.5 -2
    endloop
  endfacet
  facet normal 0 0 1
    outer loop
      vertex 27.9929 1.79289 -2
      vertex 28.3173 -6.57612 -2
      vertex 28.3173 1.57612 -2
    endloop
  endfacet
  facet normal 0 0 1
    outer loop
      vertex 27.9929 1.79289 -2
      vertex 27.9929 -6.79289 -2
      vertex 28.3173 -6.57612 -2
    endloop
  endfacet
  facet normal 0 0 1
    outer loop
      vertex 27.7761 2.11732 -2
      vertex 27.9929 -6.79289 -2
      vertex 27.9929 1.79289 -2
    endloop
  endfacet
  facet normal 0 0 1
    outer loop
      vertex 27.7761 2.11732 -2
      vertex 27.7761 -7.11732 -2
      vertex 27.9929 -6.79289 -2
    endloop
  endfacet
  facet normal 0 0 1
    outer loop
      vertex 12.4071 6.79289 -2
      vertex 27.7761 2.11732 -2
      vertex 27.7 2.5 -2
    endloop
  endfacet
  facet normal 0 0 1
    outer loop
      vertex 27.7761 2.11732 -2
      vertex 12.0827 6.57612 -2
      vertex 27.7761 -7.11732 -2
    endloop
  endfacet
  facet normal 0 0 1
    outer loop
      vertex 30.7 12.5 -2
      vertex 31.7 11.5 -2
      vertex 31.6239 11.8827 -2
    endloop
  endfacet
  facet normal 0 0 1
    outer loop
      vertex 31.7 11.5 -2
      vertex 29.7 2.5 -2
      vertex 31.7 -11.5 -2
    endloop
  endfacet
  facet normal 0 0 1
    outer loop
      vertex 30.7 12.5 -2
      vertex 31.6239 11.8827 -2
      vertex 31.4071 12.2071 -2
    endloop
  endfacet
  facet normal -0 0 1
    outer loop
      vertex 29.6239 2.11732 -2
      vertex 31.7 -11.5 -2
      vertex 29.7 2.5 -2
    endloop
  endfacet
  facet normal 0 0 1
    outer loop
      vertex 30.7 12.5 -2
      vertex 31.4071 12.2071 -2
      vertex 31.0827 12.4239 -2
    endloop
  endfacet
  facet normal -0 0 1
    outer loop
      vertex 29.6239 -7.88268 -2
      vertex 31.7 -11.5 -2
      vertex 29.7 -7.5 -2
    endloop
  endfacet
  facet normal 0 0 1
    outer loop
      vertex 31.7 11.5 -2
      vertex 30.7 12.5 -2
      vertex 28.7 3.5 -2
    endloop
  endfacet
  facet normal -0 0 1
    outer loop
      vertex 29.4071 -8.20711 -2
      vertex 31.7 -11.5 -2
      vertex 29.6239 -7.88268 -2
    endloop
  endfacet
  facet normal -0 0 1
    outer loop
      vertex 29.0827 -8.42388 -2
      vertex 31.7 -11.5 -2
      vertex 29.4071 -8.20711 -2
    endloop
  endfacet
  facet normal 0 0 1
    outer loop
      vertex 31.7 11.5 -2
      vertex 29.6239 2.88268 -2
      vertex 29.7 2.5 -2
    endloop
  endfacet
  facet normal 0 0 1
    outer loop
      vertex 31.7 11.5 -2
      vertex 29.4071 3.20711 -2
      vertex 29.6239 2.88268 -2
    endloop
  endfacet
  facet normal 0 0 1
    outer loop
      vertex 31.7 11.5 -2
      vertex 29.0827 3.42388 -2
      vertex 29.4071 3.20711 -2
    endloop
  endfacet
  facet normal 0 0 1
    outer loop
      vertex 31.7 11.5 -2
      vertex 28.7 3.5 -2
      vertex 29.0827 3.42388 -2
    endloop
  endfacet
  facet normal 0 0 1
    outer loop
      vertex 30.7 12.5 -2
      vertex 28.3173 3.42388 -2
      vertex 28.7 3.5 -2
    endloop
  endfacet
  facet normal 0 0 1
    outer loop
      vertex 30.7 12.5 -2
      vertex 27.9929 3.20711 -2
      vertex 28.3173 3.42388 -2
    endloop
  endfacet
  facet normal -0 0 1
    outer loop
      vertex 12.7 12.5 -2
      vertex 27.9929 3.20711 -2
      vertex 30.7 12.5 -2
    endloop
  endfacet
  facet normal -0 0 1
    outer loop
      vertex 12.6239 7.11732 -2
      vertex 27.7761 2.88268 -2
      vertex 12.7 7.5 -2
    endloop
  endfacet
  facet normal 0 0 1
    outer loop
      vertex 27.9929 3.20711 -2
      vertex 12.7 7.5 -2
      vertex 27.7761 2.88268 -2
    endloop
  endfacet
  facet normal -0 0 1
    outer loop
      vertex 12.7 7.5 -2
      vertex 27.9929 3.20711 -2
      vertex 12.7 12.5 -2
    endloop
  endfacet
  facet normal 0 -0 1
    outer loop
      vertex 30.7 -12.5 -2
      vertex 31.7 -11.5 -2
      vertex 29.0827 -8.42388 -2
    endloop
  endfacet
  facet normal 0 0 1
    outer loop
      vertex 31.7 -11.5 -2
      vertex 30.7 -12.5 -2
      vertex 31.6239 -11.8827 -2
    endloop
  endfacet
  facet normal 0 0 1
    outer loop
      vertex 31.6239 -11.8827 -2
      vertex 30.7 -12.5 -2
      vertex 31.4071 -12.2071 -2
    endloop
  endfacet
  facet normal 0 0 1
    outer loop
      vertex 31.4071 -12.2071 -2
      vertex 30.7 -12.5 -2
      vertex 31.0827 -12.4239 -2
    endloop
  endfacet
  facet normal -0 0 1
    outer loop
      vertex 28.7 -8.5 -2
      vertex 30.7 -12.5 -2
      vertex 29.0827 -8.42388 -2
    endloop
  endfacet
  facet normal 0 0 1
    outer loop
      vertex 28.3173 -8.42388 -2
      vertex 30.7 -12.5 -2
      vertex 28.7 -8.5 -2
    endloop
  endfacet
  facet normal 0 0 1
    outer loop
      vertex 27.9929 -8.20711 -2
      vertex 30.7 -12.5 -2
      vertex 28.3173 -8.42388 -2
    endloop
  endfacet
  facet normal 0 0 1
    outer loop
      vertex 4 -12.5 -2
      vertex 27.9929 -8.20711 -2
      vertex 27.7761 -7.88268 -2
    endloop
  endfacet
  facet normal 0 0 1
    outer loop
      vertex 27.7761 2.88268 -2
      vertex 12.6239 7.11732 -2
      vertex 27.7 2.5 -2
    endloop
  endfacet
  facet normal -0 0 1
    outer loop
      vertex 12.4071 6.79289 -2
      vertex 27.7 2.5 -2
      vertex 12.6239 7.11732 -2
    endloop
  endfacet
  facet normal 0 0 1
    outer loop
      vertex 27.7761 2.11732 -2
      vertex 12.4071 6.79289 -2
      vertex 12.0827 6.57612 -2
    endloop
  endfacet
  facet normal 0 0 1
    outer loop
      vertex 27.7761 -7.11732 -2
      vertex 12.0827 6.57612 -2
      vertex 27.7 -7.5 -2
    endloop
  endfacet
  facet normal 0 0 1
    outer loop
      vertex 4 -12.5 -2
      vertex 27.7 -7.5 -2
      vertex 12.0827 6.57612 -2
    endloop
  endfacet
  facet normal 0 0 1
    outer loop
      vertex 27.7 -7.5 -2
      vertex 4 -12.5 -2
      vertex 27.7761 -7.88268 -2
    endloop
  endfacet
  facet normal 0 0 1
    outer loop
      vertex 4 -12.5 -2
      vertex 12.0827 6.57612 -2
      vertex 11.7 6.5 -2
    endloop
  endfacet
  facet normal 0 0 1
    outer loop
      vertex 4 -12.5 -2
      vertex 11.7 6.5 -2
      vertex 4 6.5 -2
    endloop
  endfacet
  facet normal 0 0 1
    outer loop
      vertex 27.9929 -8.20711 -2
      vertex 4 -12.5 -2
      vertex 30.7 -12.5 -2
    endloop
  endfacet
  facet normal 0.831419 0.555646 0
    outer loop
      vertex 31.6239 11.8827 -2
      vertex 31.4071 12.2071 -6
      vertex 31.4071 12.2071 -2
    endloop
  endfacet
  facet normal 0.831419 0.555646 0
    outer loop
      vertex 31.4071 12.2071 -6
      vertex 31.6239 11.8827 -2
      vertex 31.6239 11.8827 -6
    endloop
  endfacet
  facet normal 0.831419 -0.555646 0
    outer loop
      vertex 31.4071 -12.2071 -2
      vertex 31.6239 -11.8827 -6
      vertex 31.6239 -11.8827 -2
    endloop
  endfacet
  facet normal 0.831419 -0.555646 0
    outer loop
      vertex 31.6239 -11.8827 -6
      vertex 31.4071 -12.2071 -2
      vertex 31.4071 -12.2071 -6
    endloop
  endfacet
  facet normal 0.980797 -0.195032 0
    outer loop
      vertex 31.6239 -11.8827 -2
      vertex 31.7 -11.5 -6
      vertex 31.7 -11.5 -2
    endloop
  endfacet
  facet normal 0.980797 -0.195032 0
    outer loop
      vertex 31.7 -11.5 -6
      vertex 31.6239 -11.8827 -2
      vertex 31.6239 -11.8827 -6
    endloop
  endfacet
  facet normal 1 -0 0
    outer loop
      vertex 31.7 -11.5 -2
      vertex 31.7 11.5 -6
      vertex 31.7 11.5 -2
    endloop
  endfacet
  facet normal 1 0 0
    outer loop
      vertex 31.7 11.5 -6
      vertex 31.7 -11.5 -2
      vertex 31.7 -11.5 -6
    endloop
  endfacet
  facet normal -0.555618 -0.831438 0
    outer loop
      vertex 0.292892 -12.2071 -6
      vertex 0.617316 -12.4239 -2
      vertex 0.292892 -12.2071 -2
    endloop
  endfacet
  facet normal -0.555618 -0.831438 -0
    outer loop
      vertex 0.617316 -12.4239 -2
      vertex 0.292892 -12.2071 -6
      vertex 0.617316 -12.4239 -6
    endloop
  endfacet
  facet normal 0.195032 -0.980797 0
    outer loop
      vertex 30.7 -12.5 -6
      vertex 31.0827 -12.4239 -2
      vertex 30.7 -12.5 -2
    endloop
  endfacet
  facet normal 0.195032 -0.980797 0
    outer loop
      vertex 31.0827 -12.4239 -2
      vertex 30.7 -12.5 -6
      vertex 31.0827 -12.4239 -6
    endloop
  endfacet
  facet normal 0.195032 0.980797 -0
    outer loop
      vertex 31.0827 12.4239 -6
      vertex 30.7 12.5 -2
      vertex 31.0827 12.4239 -2
    endloop
  endfacet
  facet normal 0.195032 0.980797 0
    outer loop
      vertex 30.7 12.5 -2
      vertex 31.0827 12.4239 -6
      vertex 30.7 12.5 -6
    endloop
  endfacet
  facet normal -0.19504 -0.980795 0
    outer loop
      vertex 0.617316 -12.4239 -6
      vertex 1 -12.5 -2
      vertex 0.617316 -12.4239 -2
    endloop
  endfacet
  facet normal -0.19504 -0.980795 -0
    outer loop
      vertex 1 -12.5 -2
      vertex 0.617316 -12.4239 -6
      vertex 1 -12.5 -6
    endloop
  endfacet
  facet normal 0.555646 -0.831419 0
    outer loop
      vertex 31.0827 -12.4239 -6
      vertex 31.4071 -12.2071 -2
      vertex 31.0827 -12.4239 -2
    endloop
  endfacet
  facet normal 0.555646 -0.831419 0
    outer loop
      vertex 31.4071 -12.2071 -2
      vertex 31.0827 -12.4239 -6
      vertex 31.4071 -12.2071 -6
    endloop
  endfacet
  facet normal 0.555646 0.831419 -0
    outer loop
      vertex 31.4071 12.2071 -6
      vertex 31.0827 12.4239 -2
      vertex 31.4071 12.2071 -2
    endloop
  endfacet
  facet normal 0.555646 0.831419 0
    outer loop
      vertex 31.0827 12.4239 -2
      vertex 31.4071 12.2071 -6
      vertex 31.0827 12.4239 -6
    endloop
  endfacet
  facet normal -0.980785 0 -0.195091
    outer loop
      vertex -2.5 8.5 1
      vertex -2.61418 12.5 1.57402
      vertex -2.5 12.5 1
    endloop
  endfacet
  facet normal -0.980785 -0 -0.195091
    outer loop
      vertex -2.61418 12.5 1.57402
      vertex -2.5 8.5 1
      vertex -2.61418 8.5 1.57402
    endloop
  endfacet
  facet normal -0.831472 0 -0.555567
    outer loop
      vertex -2.61418 8.5 1.57402
      vertex -2.93934 12.5 2.06066
      vertex -2.61418 12.5 1.57402
    endloop
  endfacet
  facet normal -0.831472 -0 -0.555567
    outer loop
      vertex -2.93934 12.5 2.06066
      vertex -2.61418 8.5 1.57402
      vertex -2.93934 8.5 2.06066
    endloop
  endfacet
  facet normal 0.980785 0 -0.195091
    outer loop
      vertex -5.38582 8.5 1.57402
      vertex -5.5 12.5 1
      vertex -5.38582 12.5 1.57402
    endloop
  endfacet
  facet normal 0.980785 0 -0.195091
    outer loop
      vertex -5.5 12.5 1
      vertex -5.38582 8.5 1.57402
      vertex -5.5 8.5 1
    endloop
  endfacet
  facet normal -0.195088 0 -0.980786
    outer loop
      vertex -4 8.5 2.5
      vertex -3.42597 12.5 2.38582
      vertex -3.42597 8.5 2.38582
    endloop
  endfacet
  facet normal -0.195088 0 -0.980786
    outer loop
      vertex -3.42597 12.5 2.38582
      vertex -4 8.5 2.5
      vertex -4 12.5 2.5
    endloop
  endfacet
  facet normal 0.195094 0 0.980785
    outer loop
      vertex -4.57402 12.5 -0.385818
      vertex -4 8.5 -0.5
      vertex -4 12.5 -0.5
    endloop
  endfacet
  facet normal 0.195094 0 0.980785
    outer loop
      vertex -4 8.5 -0.5
      vertex -4.57402 12.5 -0.385818
      vertex -4.57402 8.5 -0.385818
    endloop
  endfacet
  facet normal -0.831469 0 0.555572
    outer loop
      vertex -2.93934 8.5 -0.0606594
      vertex -2.61418 12.5 0.425975
      vertex -2.93934 12.5 -0.0606594
    endloop
  endfacet
  facet normal -0.831469 0 0.555572
    outer loop
      vertex -2.61418 12.5 0.425975
      vertex -2.93934 8.5 -0.0606594
      vertex -2.61418 8.5 0.425975
    endloop
  endfacet
  facet normal -0.555575 0 -0.831466
    outer loop
      vertex -3.42597 8.5 2.38582
      vertex -2.93934 12.5 2.06066
      vertex -2.93934 8.5 2.06066
    endloop
  endfacet
  facet normal -0.555575 0 -0.831466
    outer loop
      vertex -2.93934 12.5 2.06066
      vertex -3.42597 8.5 2.38582
      vertex -3.42597 12.5 2.38582
    endloop
  endfacet
  facet normal 0.831472 0 -0.555567
    outer loop
      vertex -5.06066 8.5 2.06066
      vertex -5.38582 12.5 1.57402
      vertex -5.06066 12.5 2.06066
    endloop
  endfacet
  facet normal 0.831472 0 -0.555567
    outer loop
      vertex -5.38582 12.5 1.57402
      vertex -5.06066 8.5 2.06066
      vertex -5.38582 8.5 1.57402
    endloop
  endfacet
  facet normal 0.195091 0 -0.980785
    outer loop
      vertex -4.57402 8.5 2.38582
      vertex -4 12.5 2.5
      vertex -4 8.5 2.5
    endloop
  endfacet
  facet normal 0.195091 0 -0.980785
    outer loop
      vertex -4 12.5 2.5
      vertex -4.57402 8.5 2.38582
      vertex -4.57402 12.5 2.38582
    endloop
  endfacet
  facet normal 0.555567 0 -0.831472
    outer loop
      vertex -5.06066 8.5 2.06066
      vertex -4.57402 12.5 2.38582
      vertex -4.57402 8.5 2.38582
    endloop
  endfacet
  facet normal 0.555567 0 -0.831472
    outer loop
      vertex -4.57402 12.5 2.38582
      vertex -5.06066 8.5 2.06066
      vertex -5.06066 12.5 2.06066
    endloop
  endfacet
  facet normal 0.555566 0 0.831473
    outer loop
      vertex -5.06066 12.5 -0.0606594
      vertex -4.57402 8.5 -0.385818
      vertex -4.57402 12.5 -0.385818
    endloop
  endfacet
  facet normal 0.555566 0 0.831473
    outer loop
      vertex -4.57402 8.5 -0.385818
      vertex -5.06066 12.5 -0.0606594
      vertex -5.06066 8.5 -0.0606594
    endloop
  endfacet
  facet normal 0.980785 -0 0.195089
    outer loop
      vertex -5.5 8.5 1
      vertex -5.38582 12.5 0.425975
      vertex -5.5 12.5 1
    endloop
  endfacet
  facet normal 0.980785 0 0.195089
    outer loop
      vertex -5.38582 12.5 0.425975
      vertex -5.5 8.5 1
      vertex -5.38582 8.5 0.425975
    endloop
  endfacet
  facet normal 0.831469 -0 0.555572
    outer loop
      vertex -5.38582 8.5 0.425975
      vertex -5.06066 12.5 -0.0606594
      vertex -5.38582 12.5 0.425975
    endloop
  endfacet
  facet normal 0.831469 0 0.555572
    outer loop
      vertex -5.06066 12.5 -0.0606594
      vertex -5.38582 8.5 0.425975
      vertex -5.06066 8.5 -0.0606594
    endloop
  endfacet
  facet normal -0.980785 0 0.195089
    outer loop
      vertex -2.61418 8.5 0.425975
      vertex -2.5 12.5 1
      vertex -2.61418 12.5 0.425975
    endloop
  endfacet
  facet normal -0.980785 0 0.195089
    outer loop
      vertex -2.5 12.5 1
      vertex -2.61418 8.5 0.425975
      vertex -2.5 8.5 1
    endloop
  endfacet
  facet normal -0.195091 0 0.980785
    outer loop
      vertex -4 12.5 -0.5
      vertex -3.42597 8.5 -0.385818
      vertex -3.42597 12.5 -0.385818
    endloop
  endfacet
  facet normal -0.195091 0 0.980785
    outer loop
      vertex -3.42597 8.5 -0.385818
      vertex -4 12.5 -0.5
      vertex -4 8.5 -0.5
    endloop
  endfacet
  facet normal -0.555574 0 0.831467
    outer loop
      vertex -3.42597 12.5 -0.385818
      vertex -2.93934 8.5 -0.0606594
      vertex -2.93934 12.5 -0.0606594
    endloop
  endfacet
  facet normal -0.555574 0 0.831467
    outer loop
      vertex -2.93934 8.5 -0.0606594
      vertex -3.42597 12.5 -0.385818
      vertex -3.42597 8.5 -0.385818
    endloop
  endfacet
  facet normal -0.980785 0 -0.195089
    outer loop
      vertex -1 6.5 1
      vertex -1.22836 8.5 2.14805
      vertex -1 8.5 1
    endloop
  endfacet
  facet normal -0.980785 -0 -0.195089
    outer loop
      vertex -1.22836 8.5 2.14805
      vertex -1 6.5 1
      vertex -1.22836 6.5 2.14805
    endloop
  endfacet
  facet normal -0.831469 0 -0.555571
    outer loop
      vertex -1.22836 6.5 2.14805
      vertex -1.87868 8.5 3.12132
      vertex -1.22836 8.5 2.14805
    endloop
  endfacet
  facet normal -0.831469 -0 -0.555571
    outer loop
      vertex -1.87868 8.5 3.12132
      vertex -1.22836 6.5 2.14805
      vertex -1.87868 6.5 3.12132
    endloop
  endfacet
  facet normal 0.980785 0 -0.195089
    outer loop
      vertex -6.77164 6.5 2.14805
      vertex -7 8.5 1
      vertex -6.77164 8.5 2.14805
    endloop
  endfacet
  facet normal 0.980785 0 -0.195089
    outer loop
      vertex -7 8.5 1
      vertex -6.77164 6.5 2.14805
      vertex -7 6.5 1
    endloop
  endfacet
  facet normal -0.195089 0 -0.980785
    outer loop
      vertex -4 6.5 4
      vertex -2.85195 8.5 3.77164
      vertex -2.85195 6.5 3.77164
    endloop
  endfacet
  facet normal -0.195089 0 -0.980785
    outer loop
      vertex -2.85195 8.5 3.77164
      vertex -4 6.5 4
      vertex -4 8.5 4
    endloop
  endfacet
  facet normal -0.980785 0 0.195089
    outer loop
      vertex -1.22836 6.5 -0.148049
      vertex -1 8.5 1
      vertex -1.22836 8.5 -0.148049
    endloop
  endfacet
  facet normal -0.980785 0 0.195089
    outer loop
      vertex -1 8.5 1
      vertex -1.22836 6.5 -0.148049
      vertex -1 6.5 1
    endloop
  endfacet
  facet normal 0.195089 0 0.980785
    outer loop
      vertex -5.14805 8.5 -1.77164
      vertex -4 6.5 -2
      vertex -4 8.5 -2
    endloop
  endfacet
  facet normal 0.195089 0 0.980785
    outer loop
      vertex -4 6.5 -2
      vertex -5.14805 8.5 -1.77164
      vertex -5.14805 6.5 -1.77164
    endloop
  endfacet
  facet normal -0.555571 0 0.831469
    outer loop
      vertex -2.85195 8.5 -1.77164
      vertex -1.87868 6.5 -1.12132
      vertex -1.87868 8.5 -1.12132
    endloop
  endfacet
  facet normal -0.555571 0 0.831469
    outer loop
      vertex -1.87868 6.5 -1.12132
      vertex -2.85195 8.5 -1.77164
      vertex -2.85195 6.5 -1.77164
    endloop
  endfacet
  facet normal -0.195089 0 0.980785
    outer loop
      vertex -4 8.5 -2
      vertex -2.85195 6.5 -1.77164
      vertex -2.85195 8.5 -1.77164
    endloop
  endfacet
  facet normal -0.195089 0 0.980785
    outer loop
      vertex -2.85195 6.5 -1.77164
      vertex -4 8.5 -2
      vertex -4 6.5 -2
    endloop
  endfacet
  facet normal -0.831469 0 0.555571
    outer loop
      vertex -1.87868 6.5 -1.12132
      vertex -1.22836 8.5 -0.148049
      vertex -1.87868 8.5 -1.12132
    endloop
  endfacet
  facet normal -0.831469 0 0.555571
    outer loop
      vertex -1.22836 8.5 -0.148049
      vertex -1.87868 6.5 -1.12132
      vertex -1.22836 6.5 -0.148049
    endloop
  endfacet
  facet normal 0.555571 0 0.831469
    outer loop
      vertex -6.12132 8.5 -1.12132
      vertex -5.14805 6.5 -1.77164
      vertex -5.14805 8.5 -1.77164
    endloop
  endfacet
  facet normal 0.555571 0 0.831469
    outer loop
      vertex -5.14805 6.5 -1.77164
      vertex -6.12132 8.5 -1.12132
      vertex -6.12132 6.5 -1.12132
    endloop
  endfacet
  facet normal 0 -1 0
    outer loop
      vertex -4 8.5 2.5
      vertex -4 8.5 4
      vertex -5.14805 8.5 3.77164
    endloop
  endfacet
  facet normal 0 -1 0
    outer loop
      vertex -4.57402 8.5 2.38582
      vertex -5.14805 8.5 3.77164
      vertex -6.12132 8.5 3.12132
    endloop
  endfacet
  facet normal 0 -1 0
    outer loop
      vertex -4 8.5 4
      vertex -4 8.5 2.5
      vertex -2.85195 8.5 3.77164
    endloop
  endfacet
  facet normal 0 -1 0
    outer loop
      vertex -3.42597 8.5 2.38582
      vertex -2.85195 8.5 3.77164
      vertex -4 8.5 2.5
    endloop
  endfacet
  facet normal 0 -1 0
    outer loop
      vertex -5.14805 8.5 3.77164
      vertex -4.57402 8.5 2.38582
      vertex -4 8.5 2.5
    endloop
  endfacet
  facet normal 0 -1 0
    outer loop
      vertex -5.06066 8.5 2.06066
      vertex -6.12132 8.5 3.12132
      vertex -6.77164 8.5 2.14805
    endloop
  endfacet
  facet normal 0 -1 0
    outer loop
      vertex -6.12132 8.5 3.12132
      vertex -5.06066 8.5 2.06066
      vertex -4.57402 8.5 2.38582
    endloop
  endfacet
  facet normal 0 -1 0
    outer loop
      vertex -6.77164 8.5 2.14805
      vertex -5.38582 8.5 1.57402
      vertex -5.06066 8.5 2.06066
    endloop
  endfacet
  facet normal 0 -1 0
    outer loop
      vertex -7 8.5 1
      vertex -5.38582 8.5 1.57402
      vertex -6.77164 8.5 2.14805
    endloop
  endfacet
  facet normal 0 -1 0
    outer loop
      vertex -7 8.5 1
      vertex -5.5 8.5 1
      vertex -5.38582 8.5 1.57402
    endloop
  endfacet
  facet normal 0 -1 0
    outer loop
      vertex -7 8.5 1
      vertex -5.38582 8.5 0.425975
      vertex -5.5 8.5 1
    endloop
  endfacet
  facet normal 0 -1 0
    outer loop
      vertex -6.77164 8.5 -0.148049
      vertex -5.38582 8.5 0.425975
      vertex -7 8.5 1
    endloop
  endfacet
  facet normal 0 -1 -0
    outer loop
      vertex -5.38582 8.5 0.425975
      vertex -6.77164 8.5 -0.148049
      vertex -5.06066 8.5 -0.0606594
    endloop
  endfacet
  facet normal 0 -1 0
    outer loop
      vertex -6.12132 8.5 -1.12132
      vertex -5.06066 8.5 -0.0606594
      vertex -6.77164 8.5 -0.148049
    endloop
  endfacet
  facet normal 0 -1 -0
    outer loop
      vertex -5.06066 8.5 -0.0606594
      vertex -6.12132 8.5 -1.12132
      vertex -4.57402 8.5 -0.385818
    endloop
  endfacet
  facet normal 0 -1 0
    outer loop
      vertex -5.14805 8.5 -1.77164
      vertex -4.57402 8.5 -0.385818
      vertex -6.12132 8.5 -1.12132
    endloop
  endfacet
  facet normal 0 -1 -0
    outer loop
      vertex -2.85195 8.5 3.77164
      vertex -3.42597 8.5 2.38582
      vertex -1.87868 8.5 3.12132
    endloop
  endfacet
  facet normal 0 -1 0
    outer loop
      vertex -2.93934 8.5 2.06066
      vertex -1.87868 8.5 3.12132
      vertex -3.42597 8.5 2.38582
    endloop
  endfacet
  facet normal 0 -1 -0
    outer loop
      vertex -1.87868 8.5 3.12132
      vertex -2.93934 8.5 2.06066
      vertex -1.22836 8.5 2.14805
    endloop
  endfacet
  facet normal 0 -1 0
    outer loop
      vertex -2.61418 8.5 1.57402
      vertex -1.22836 8.5 2.14805
      vertex -2.93934 8.5 2.06066
    endloop
  endfacet
  facet normal 0 -1 0
    outer loop
      vertex -2.5 8.5 1
      vertex -1.22836 8.5 2.14805
      vertex -2.61418 8.5 1.57402
    endloop
  endfacet
  facet normal 0 -1 0
    outer loop
      vertex -2.5 8.5 1
      vertex -1 8.5 1
      vertex -1.22836 8.5 2.14805
    endloop
  endfacet
  facet normal 0 -1 0
    outer loop
      vertex -2.61418 8.5 0.425975
      vertex -1 8.5 1
      vertex -2.5 8.5 1
    endloop
  endfacet
  facet normal 0 -1 0
    outer loop
      vertex -1.22836 8.5 -0.148049
      vertex -2.61418 8.5 0.425975
      vertex -2.93934 8.5 -0.0606594
    endloop
  endfacet
  facet normal 0 -1 0
    outer loop
      vertex -2.61418 8.5 0.425975
      vertex -1.22836 8.5 -0.148049
      vertex -1 8.5 1
    endloop
  endfacet
  facet normal 0 -1 0
    outer loop
      vertex -1.87868 8.5 -1.12132
      vertex -2.93934 8.5 -0.0606594
      vertex -3.42597 8.5 -0.385818
    endloop
  endfacet
  facet normal 0 -1 0
    outer loop
      vertex -2.85195 8.5 -1.77164
      vertex -3.42597 8.5 -0.385818
      vertex -4 8.5 -0.5
    endloop
  endfacet
  facet normal 0 -1 -0
    outer loop
      vertex -4.57402 8.5 -0.385818
      vertex -5.14805 8.5 -1.77164
      vertex -4 8.5 -0.5
    endloop
  endfacet
  facet normal 0 -1 0
    outer loop
      vertex -2.93934 8.5 -0.0606594
      vertex -1.87868 8.5 -1.12132
      vertex -1.22836 8.5 -0.148049
    endloop
  endfacet
  facet normal 0 -1 0
    outer loop
      vertex -4 8.5 -2
      vertex -4 8.5 -0.5
      vertex -5.14805 8.5 -1.77164
    endloop
  endfacet
  facet normal 0 -1 0
    outer loop
      vertex -3.42597 8.5 -0.385818
      vertex -2.85195 8.5 -1.77164
      vertex -1.87868 8.5 -1.12132
    endloop
  endfacet
  facet normal 0 -1 0
    outer loop
      vertex -4 8.5 -0.5
      vertex -4 8.5 -2
      vertex -2.85195 8.5 -1.77164
    endloop
  endfacet
  facet normal -0.555571 0 -0.831469
    outer loop
      vertex -2.85195 6.5 3.77164
      vertex -1.87868 8.5 3.12132
      vertex -1.87868 6.5 3.12132
    endloop
  endfacet
  facet normal -0.555571 0 -0.831469
    outer loop
      vertex -1.87868 8.5 3.12132
      vertex -2.85195 6.5 3.77164
      vertex -2.85195 8.5 3.77164
    endloop
  endfacet
  facet normal 0.831469 0 -0.555571
    outer loop
      vertex -6.12132 6.5 3.12132
      vertex -6.77164 8.5 2.14805
      vertex -6.12132 8.5 3.12132
    endloop
  endfacet
  facet normal 0.831469 0 -0.555571
    outer loop
      vertex -6.77164 8.5 2.14805
      vertex -6.12132 6.5 3.12132
      vertex -6.77164 6.5 2.14805
    endloop
  endfacet
  facet normal 0.195089 0 -0.980785
    outer loop
      vertex -5.14805 6.5 3.77164
      vertex -4 8.5 4
      vertex -4 6.5 4
    endloop
  endfacet
  facet normal 0.195089 0 -0.980785
    outer loop
      vertex -4 8.5 4
      vertex -5.14805 6.5 3.77164
      vertex -5.14805 8.5 3.77164
    endloop
  endfacet
  facet normal 0.555571 0 -0.831469
    outer loop
      vertex -6.12132 6.5 3.12132
      vertex -5.14805 8.5 3.77164
      vertex -5.14805 6.5 3.77164
    endloop
  endfacet
  facet normal 0.555571 0 -0.831469
    outer loop
      vertex -5.14805 8.5 3.77164
      vertex -6.12132 6.5 3.12132
      vertex -6.12132 8.5 3.12132
    endloop
  endfacet
  facet normal 0.980785 -0 0.195089
    outer loop
      vertex -7 6.5 1
      vertex -6.77164 8.5 -0.148049
      vertex -7 8.5 1
    endloop
  endfacet
  facet normal 0.980785 0 0.195089
    outer loop
      vertex -6.77164 8.5 -0.148049
      vertex -7 6.5 1
      vertex -6.77164 6.5 -0.148049
    endloop
  endfacet
  facet normal 0.831469 -0 0.555571
    outer loop
      vertex -6.77164 6.5 -0.148049
      vertex -6.12132 8.5 -1.12132
      vertex -6.77164 8.5 -0.148049
    endloop
  endfacet
  facet normal 0.831469 0 0.555571
    outer loop
      vertex -6.12132 8.5 -1.12132
      vertex -6.77164 6.5 -0.148049
      vertex -6.12132 6.5 -1.12132
    endloop
  endfacet
  facet normal -0.980785 0 -0.195091
    outer loop
      vertex 5.5 8.5 1
      vertex 5.38582 12.5 1.57402
      vertex 5.5 12.5 1
    endloop
  endfacet
  facet normal -0.980785 -0 -0.195091
    outer loop
      vertex 5.38582 12.5 1.57402
      vertex 5.5 8.5 1
      vertex 5.38582 8.5 1.57402
    endloop
  endfacet
  facet normal -0.831472 0 -0.555567
    outer loop
      vertex 5.38582 8.5 1.57402
      vertex 5.06066 12.5 2.06066
      vertex 5.38582 12.5 1.57402
    endloop
  endfacet
  facet normal -0.831472 -0 -0.555567
    outer loop
      vertex 5.06066 12.5 2.06066
      vertex 5.38582 8.5 1.57402
      vertex 5.06066 8.5 2.06066
    endloop
  endfacet
  facet normal 0.195088 0 -0.980786
    outer loop
      vertex 3.42597 8.5 2.38582
      vertex 4 12.5 2.5
      vertex 4 8.5 2.5
    endloop
  endfacet
  facet normal 0.195088 0 -0.980786
    outer loop
      vertex 4 12.5 2.5
      vertex 3.42597 8.5 2.38582
      vertex 3.42597 12.5 2.38582
    endloop
  endfacet
  facet normal 0.980785 -0 0.195089
    outer loop
      vertex 2.5 8.5 1
      vertex 2.61418 12.5 0.425975
      vertex 2.5 12.5 1
    endloop
  endfacet
  facet normal 0.980785 0 0.195089
    outer loop
      vertex 2.61418 12.5 0.425975
      vertex 2.5 8.5 1
      vertex 2.61418 8.5 0.425975
    endloop
  endfacet
  facet normal -0.555567 0 -0.831472
    outer loop
      vertex 4.57402 8.5 2.38582
      vertex 5.06066 12.5 2.06066
      vertex 5.06066 8.5 2.06066
    endloop
  endfacet
  facet normal -0.555567 0 -0.831472
    outer loop
      vertex 5.06066 12.5 2.06066
      vertex 4.57402 8.5 2.38582
      vertex 4.57402 12.5 2.38582
    endloop
  endfacet
  facet normal 0.831469 -0 0.555572
    outer loop
      vertex 2.61418 8.5 0.425975
      vertex 2.93934 12.5 -0.0606594
      vertex 2.61418 12.5 0.425975
    endloop
  endfacet
  facet normal 0.831469 0 0.555572
    outer loop
      vertex 2.93934 12.5 -0.0606594
      vertex 2.61418 8.5 0.425975
      vertex 2.93934 8.5 -0.0606594
    endloop
  endfacet
  facet normal 0.555574 0 0.831467
    outer loop
      vertex 2.93934 12.5 -0.0606594
      vertex 3.42597 8.5 -0.385818
      vertex 3.42597 12.5 -0.385818
    endloop
  endfacet
  facet normal 0.555574 0 0.831467
    outer loop
      vertex 3.42597 8.5 -0.385818
      vertex 2.93934 12.5 -0.0606594
      vertex 2.93934 8.5 -0.0606594
    endloop
  endfacet
  facet normal -0.831469 0 0.555572
    outer loop
      vertex 5.06066 8.5 -0.0606594
      vertex 5.38582 12.5 0.425975
      vertex 5.06066 12.5 -0.0606594
    endloop
  endfacet
  facet normal -0.831469 0 0.555572
    outer loop
      vertex 5.38582 12.5 0.425975
      vertex 5.06066 8.5 -0.0606594
      vertex 5.38582 8.5 0.425975
    endloop
  endfacet
  facet normal -0.195091 0 -0.980785
    outer loop
      vertex 4 8.5 2.5
      vertex 4.57402 12.5 2.38582
      vertex 4.57402 8.5 2.38582
    endloop
  endfacet
  facet normal -0.195091 0 -0.980785
    outer loop
      vertex 4.57402 12.5 2.38582
      vertex 4 8.5 2.5
      vertex 4 12.5 2.5
    endloop
  endfacet
  facet normal 0.980785 0 -0.195091
    outer loop
      vertex 2.61418 8.5 1.57402
      vertex 2.5 12.5 1
      vertex 2.61418 12.5 1.57402
    endloop
  endfacet
  facet normal 0.980785 0 -0.195091
    outer loop
      vertex 2.5 12.5 1
      vertex 2.61418 8.5 1.57402
      vertex 2.5 8.5 1
    endloop
  endfacet
  facet normal 0.555575 0 -0.831466
    outer loop
      vertex 2.93934 8.5 2.06066
      vertex 3.42597 12.5 2.38582
      vertex 3.42597 8.5 2.38582
    endloop
  endfacet
  facet normal 0.555575 0 -0.831466
    outer loop
      vertex 3.42597 12.5 2.38582
      vertex 2.93934 8.5 2.06066
      vertex 2.93934 12.5 2.06066
    endloop
  endfacet
  facet normal 0.831472 0 -0.555567
    outer loop
      vertex 2.93934 8.5 2.06066
      vertex 2.61418 12.5 1.57402
      vertex 2.93934 12.5 2.06066
    endloop
  endfacet
  facet normal 0.831472 0 -0.555567
    outer loop
      vertex 2.61418 12.5 1.57402
      vertex 2.93934 8.5 2.06066
      vertex 2.61418 8.5 1.57402
    endloop
  endfacet
  facet normal 0.195091 0 0.980785
    outer loop
      vertex 3.42597 12.5 -0.385818
      vertex 4 8.5 -0.5
      vertex 4 12.5 -0.5
    endloop
  endfacet
  facet normal 0.195091 0 0.980785
    outer loop
      vertex 4 8.5 -0.5
      vertex 3.42597 12.5 -0.385818
      vertex 3.42597 8.5 -0.385818
    endloop
  endfacet
  facet normal -0.195094 0 0.980785
    outer loop
      vertex 4 12.5 -0.5
      vertex 4.57402 8.5 -0.385818
      vertex 4.57402 12.5 -0.385818
    endloop
  endfacet
  facet normal -0.195094 0 0.980785
    outer loop
      vertex 4.57402 8.5 -0.385818
      vertex 4 12.5 -0.5
      vertex 4 8.5 -0.5
    endloop
  endfacet
  facet normal -0.555566 0 0.831473
    outer loop
      vertex 4.57402 12.5 -0.385818
      vertex 5.06066 8.5 -0.0606594
      vertex 5.06066 12.5 -0.0606594
    endloop
  endfacet
  facet normal -0.555566 0 0.831473
    outer loop
      vertex 5.06066 8.5 -0.0606594
      vertex 4.57402 12.5 -0.385818
      vertex 4.57402 8.5 -0.385818
    endloop
  endfacet
  facet normal -0.980785 0 0.195089
    outer loop
      vertex 5.38582 8.5 0.425975
      vertex 5.5 12.5 1
      vertex 5.38582 12.5 0.425975
    endloop
  endfacet
  facet normal -0.980785 0 0.195089
    outer loop
      vertex 5.5 12.5 1
      vertex 5.38582 8.5 0.425975
      vertex 5.5 8.5 1
    endloop
  endfacet
  facet normal -0.980785 0 -0.195089
    outer loop
      vertex 7 6.5 1
      vertex 6.77164 8.5 2.14805
      vertex 7 8.5 1
    endloop
  endfacet
  facet normal -0.980785 -0 -0.195089
    outer loop
      vertex 6.77164 8.5 2.14805
      vertex 7 6.5 1
      vertex 6.77164 6.5 2.14805
    endloop
  endfacet
  facet normal -0.831469 0 -0.555571
    outer loop
      vertex 6.77164 6.5 2.14805
      vertex 6.12132 8.5 3.12132
      vertex 6.77164 8.5 2.14805
    endloop
  endfacet
  facet normal -0.831469 -0 -0.555571
    outer loop
      vertex 6.12132 8.5 3.12132
      vertex 6.77164 6.5 2.14805
      vertex 6.12132 6.5 3.12132
    endloop
  endfacet
  facet normal 0.195089 0 -0.980785
    outer loop
      vertex 2.85195 6.5 3.77164
      vertex 4 8.5 4
      vertex 4 6.5 4
    endloop
  endfacet
  facet normal 0.195089 0 -0.980785
    outer loop
      vertex 4 8.5 4
      vertex 2.85195 6.5 3.77164
      vertex 2.85195 8.5 3.77164
    endloop
  endfacet
  facet normal 0.980785 -0 0.195089
    outer loop
      vertex 1 6.5 1
      vertex 1.22836 8.5 -0.148049
      vertex 1 8.5 1
    endloop
  endfacet
  facet normal 0.980785 0 0.195089
    outer loop
      vertex 1.22836 8.5 -0.148049
      vertex 1 6.5 1
      vertex 1.22836 6.5 -0.148049
    endloop
  endfacet
  facet normal -0.555571 0 -0.831469
    outer loop
      vertex 5.14805 6.5 3.77164
      vertex 6.12132 8.5 3.12132
      vertex 6.12132 6.5 3.12132
    endloop
  endfacet
  facet normal -0.555571 0 -0.831469
    outer loop
      vertex 6.12132 8.5 3.12132
      vertex 5.14805 6.5 3.77164
      vertex 5.14805 8.5 3.77164
    endloop
  endfacet
  facet normal 0 -1 0
    outer loop
      vertex 4 8.5 2.5
      vertex 4 8.5 4
      vertex 2.85195 8.5 3.77164
    endloop
  endfacet
  facet normal 0 -1 0
    outer loop
      vertex 3.42597 8.5 2.38582
      vertex 2.85195 8.5 3.77164
      vertex 1.87868 8.5 3.12132
    endloop
  endfacet
  facet normal 0 -1 0
    outer loop
      vertex 4 8.5 4
      vertex 4 8.5 2.5
      vertex 5.14805 8.5 3.77164
    endloop
  endfacet
  facet normal 0 -1 0
    outer loop
      vertex 4.57402 8.5 2.38582
      vertex 5.14805 8.5 3.77164
      vertex 4 8.5 2.5
    endloop
  endfacet
  facet normal 0 -1 0
    outer loop
      vertex 2.85195 8.5 3.77164
      vertex 3.42597 8.5 2.38582
      vertex 4 8.5 2.5
    endloop
  endfacet
  facet normal 0 -1 0
    outer loop
      vertex 2.93934 8.5 2.06066
      vertex 1.87868 8.5 3.12132
      vertex 1.22836 8.5 2.14805
    endloop
  endfacet
  facet normal 0 -1 0
    outer loop
      vertex 1.87868 8.5 3.12132
      vertex 2.93934 8.5 2.06066
      vertex 3.42597 8.5 2.38582
    endloop
  endfacet
  facet normal 0 -1 0
    outer loop
      vertex 1.22836 8.5 2.14805
      vertex 2.61418 8.5 1.57402
      vertex 2.93934 8.5 2.06066
    endloop
  endfacet
  facet normal 0 -1 0
    outer loop
      vertex 1 8.5 1
      vertex 2.61418 8.5 1.57402
      vertex 1.22836 8.5 2.14805
    endloop
  endfacet
  facet normal 0 -1 0
    outer loop
      vertex 1 8.5 1
      vertex 2.5 8.5 1
      vertex 2.61418 8.5 1.57402
    endloop
  endfacet
  facet normal 0 -1 0
    outer loop
      vertex 1 8.5 1
      vertex 2.61418 8.5 0.425975
      vertex 2.5 8.5 1
    endloop
  endfacet
  facet normal 0 -1 0
    outer loop
      vertex 1.22836 8.5 -0.148049
      vertex 2.61418 8.5 0.425975
      vertex 1 8.5 1
    endloop
  endfacet
  facet normal 0 -1 -0
    outer loop
      vertex 2.61418 8.5 0.425975
      vertex 1.22836 8.5 -0.148049
      vertex 2.93934 8.5 -0.0606594
    endloop
  endfacet
  facet normal 0 -1 0
    outer loop
      vertex 1.87868 8.5 -1.12132
      vertex 2.93934 8.5 -0.0606594
      vertex 1.22836 8.5 -0.148049
    endloop
  endfacet
  facet normal 0 -1 -0
    outer loop
      vertex 2.93934 8.5 -0.0606594
      vertex 1.87868 8.5 -1.12132
      vertex 3.42597 8.5 -0.385818
    endloop
  endfacet
  facet normal 0 -1 0
    outer loop
      vertex 2.85195 8.5 -1.77164
      vertex 3.42597 8.5 -0.385818
      vertex 1.87868 8.5 -1.12132
    endloop
  endfacet
  facet normal 0 -1 -0
    outer loop
      vertex 5.14805 8.5 3.77164
      vertex 4.57402 8.5 2.38582
      vertex 6.12132 8.5 3.12132
    endloop
  endfacet
  facet normal 0 -1 0
    outer loop
      vertex 5.06066 8.5 2.06066
      vertex 6.12132 8.5 3.12132
      vertex 4.57402 8.5 2.38582
    endloop
  endfacet
  facet normal 0 -1 -0
    outer loop
      vertex 6.12132 8.5 3.12132
      vertex 5.06066 8.5 2.06066
      vertex 6.77164 8.5 2.14805
    endloop
  endfacet
  facet normal 0 -1 0
    outer loop
      vertex 5.38582 8.5 1.57402
      vertex 6.77164 8.5 2.14805
      vertex 5.06066 8.5 2.06066
    endloop
  endfacet
  facet normal 0 -1 0
    outer loop
      vertex 5.5 8.5 1
      vertex 6.77164 8.5 2.14805
      vertex 5.38582 8.5 1.57402
    endloop
  endfacet
  facet normal 0 -1 0
    outer loop
      vertex 5.5 8.5 1
      vertex 7 8.5 1
      vertex 6.77164 8.5 2.14805
    endloop
  endfacet
  facet normal 0 -1 0
    outer loop
      vertex 5.38582 8.5 0.425975
      vertex 7 8.5 1
      vertex 5.5 8.5 1
    endloop
  endfacet
  facet normal 0 -1 0
    outer loop
      vertex 6.77164 8.5 -0.148049
      vertex 5.38582 8.5 0.425975
      vertex 5.06066 8.5 -0.0606594
    endloop
  endfacet
  facet normal 0 -1 0
    outer loop
      vertex 5.38582 8.5 0.425975
      vertex 6.77164 8.5 -0.148049
      vertex 7 8.5 1
    endloop
  endfacet
  facet normal 0 -1 0
    outer loop
      vertex 6.12132 8.5 -1.12132
      vertex 5.06066 8.5 -0.0606594
      vertex 4.57402 8.5 -0.385818
    endloop
  endfacet
  facet normal 0 -1 0
    outer loop
      vertex 5.14805 8.5 -1.77164
      vertex 4.57402 8.5 -0.385818
      vertex 4 8.5 -0.5
    endloop
  endfacet
  facet normal 0 -1 -0
    outer loop
      vertex 3.42597 8.5 -0.385818
      vertex 2.85195 8.5 -1.77164
      vertex 4 8.5 -0.5
    endloop
  endfacet
  facet normal 0 -1 0
    outer loop
      vertex 5.06066 8.5 -0.0606594
      vertex 6.12132 8.5 -1.12132
      vertex 6.77164 8.5 -0.148049
    endloop
  endfacet
  facet normal 0 -1 0
    outer loop
      vertex 4 8.5 -2
      vertex 4 8.5 -0.5
      vertex 2.85195 8.5 -1.77164
    endloop
  endfacet
  facet normal 0 -1 0
    outer loop
      vertex 4.57402 8.5 -0.385818
      vertex 5.14805 8.5 -1.77164
      vertex 6.12132 8.5 -1.12132
    endloop
  endfacet
  facet normal 0 -1 0
    outer loop
      vertex 4 8.5 -0.5
      vertex 4 8.5 -2
      vertex 5.14805 8.5 -1.77164
    endloop
  endfacet
  facet normal -0.980785 0 0.195089
    outer loop
      vertex 6.77164 6.5 -0.148049
      vertex 7 8.5 1
      vertex 6.77164 8.5 -0.148049
    endloop
  endfacet
  facet normal -0.980785 0 0.195089
    outer loop
      vertex 7 8.5 1
      vertex 6.77164 6.5 -0.148049
      vertex 7 6.5 1
    endloop
  endfacet
  facet normal 0.831469 -0 0.555571
    outer loop
      vertex 1.22836 6.5 -0.148049
      vertex 1.87868 8.5 -1.12132
      vertex 1.22836 8.5 -0.148049
    endloop
  endfacet
  facet normal 0.831469 0 0.555571
    outer loop
      vertex 1.87868 8.5 -1.12132
      vertex 1.22836 6.5 -0.148049
      vertex 1.87868 6.5 -1.12132
    endloop
  endfacet
  facet normal 0.555571 0 0.831469
    outer loop
      vertex 1.87868 8.5 -1.12132
      vertex 2.85195 6.5 -1.77164
      vertex 2.85195 8.5 -1.77164
    endloop
  endfacet
  facet normal 0.555571 0 0.831469
    outer loop
      vertex 2.85195 6.5 -1.77164
      vertex 1.87868 8.5 -1.12132
      vertex 1.87868 6.5 -1.12132
    endloop
  endfacet
  facet normal -0.195089 0 -0.980785
    outer loop
      vertex 4 6.5 4
      vertex 5.14805 8.5 3.77164
      vertex 5.14805 6.5 3.77164
    endloop
  endfacet
  facet normal -0.195089 0 -0.980785
    outer loop
      vertex 5.14805 8.5 3.77164
      vertex 4 6.5 4
      vertex 4 8.5 4
    endloop
  endfacet
  facet normal 0.980785 0 -0.195089
    outer loop
      vertex 1.22836 6.5 2.14805
      vertex 1 8.5 1
      vertex 1.22836 8.5 2.14805
    endloop
  endfacet
  facet normal 0.980785 0 -0.195089
    outer loop
      vertex 1 8.5 1
      vertex 1.22836 6.5 2.14805
      vertex 1 6.5 1
    endloop
  endfacet
  facet normal 0.555571 0 -0.831469
    outer loop
      vertex 1.87868 6.5 3.12132
      vertex 2.85195 8.5 3.77164
      vertex 2.85195 6.5 3.77164
    endloop
  endfacet
  facet normal 0.555571 0 -0.831469
    outer loop
      vertex 2.85195 8.5 3.77164
      vertex 1.87868 6.5 3.12132
      vertex 1.87868 8.5 3.12132
    endloop
  endfacet
  facet normal 0.831469 0 -0.555571
    outer loop
      vertex 1.87868 6.5 3.12132
      vertex 1.22836 8.5 2.14805
      vertex 1.87868 8.5 3.12132
    endloop
  endfacet
  facet normal 0.831469 0 -0.555571
    outer loop
      vertex 1.22836 8.5 2.14805
      vertex 1.87868 6.5 3.12132
      vertex 1.22836 6.5 2.14805
    endloop
  endfacet
  facet normal 0.195089 0 0.980785
    outer loop
      vertex 2.85195 8.5 -1.77164
      vertex 4 6.5 -2
      vertex 4 8.5 -2
    endloop
  endfacet
  facet normal 0.195089 0 0.980785
    outer loop
      vertex 4 6.5 -2
      vertex 2.85195 8.5 -1.77164
      vertex 2.85195 6.5 -1.77164
    endloop
  endfacet
  facet normal -0.195089 0 0.980785
    outer loop
      vertex 4 8.5 -2
      vertex 5.14805 6.5 -1.77164
      vertex 5.14805 8.5 -1.77164
    endloop
  endfacet
  facet normal -0.195089 0 0.980785
    outer loop
      vertex 5.14805 6.5 -1.77164
      vertex 4 8.5 -2
      vertex 4 6.5 -2
    endloop
  endfacet
  facet normal -0.555571 0 0.831469
    outer loop
      vertex 5.14805 8.5 -1.77164
      vertex 6.12132 6.5 -1.12132
      vertex 6.12132 8.5 -1.12132
    endloop
  endfacet
  facet normal -0.555571 0 0.831469
    outer loop
      vertex 6.12132 6.5 -1.12132
      vertex 5.14805 8.5 -1.77164
      vertex 5.14805 6.5 -1.77164
    endloop
  endfacet
  facet normal -0.831469 0 0.555571
    outer loop
      vertex 6.12132 6.5 -1.12132
      vertex 6.77164 8.5 -0.148049
      vertex 6.12132 8.5 -1.12132
    endloop
  endfacet
  facet normal -0.831469 0 0.555571
    outer loop
      vertex 6.77164 8.5 -0.148049
      vertex 6.12132 6.5 -1.12132
      vertex 6.77164 6.5 -0.148049
    endloop
  endfacet
  facet normal -0.980795 -0.195042 0
    outer loop
      vertex 29.7 -7.5 -6
      vertex 29.6239 -7.11732 -2
      vertex 29.6239 -7.11732 -6
    endloop
  endfacet
  facet normal -0.980795 -0.195042 0
    outer loop
      vertex 29.6239 -7.11732 -2
      vertex 29.7 -7.5 -6
      vertex 29.7 -7.5 -2
    endloop
  endfacet
  facet normal 0.980795 -0.195042 0
    outer loop
      vertex 27.7 -7.5 -2
      vertex 27.7761 -7.11732 -6
      vertex 27.7761 -7.11732 -2
    endloop
  endfacet
  facet normal 0.980795 -0.195042 0
    outer loop
      vertex 27.7761 -7.11732 -6
      vertex 27.7 -7.5 -2
      vertex 27.7 -7.5 -6
    endloop
  endfacet
  facet normal -0.195081 -0.980787 0
    outer loop
      vertex 28.7 -6.5 -6
      vertex 29.0827 -6.57612 -2
      vertex 28.7 -6.5 -2
    endloop
  endfacet
  facet normal -0.195081 -0.980787 -0
    outer loop
      vertex 29.0827 -6.57612 -2
      vertex 28.7 -6.5 -6
      vertex 29.0827 -6.57612 -6
    endloop
  endfacet
  facet normal 0.555593 -0.831454 0
    outer loop
      vertex 27.9929 -6.79289 -6
      vertex 28.3173 -6.57612 -2
      vertex 27.9929 -6.79289 -2
    endloop
  endfacet
  facet normal 0.555593 -0.831454 0
    outer loop
      vertex 28.3173 -6.57612 -2
      vertex 27.9929 -6.79289 -6
      vertex 28.3173 -6.57612 -6
    endloop
  endfacet
  facet normal -0.831443 0.555611 0
    outer loop
      vertex 29.4071 -8.20711 -6
      vertex 29.6239 -7.88268 -2
      vertex 29.6239 -7.88268 -6
    endloop
  endfacet
  facet normal -0.831443 0.555611 0
    outer loop
      vertex 29.6239 -7.88268 -2
      vertex 29.4071 -8.20711 -6
      vertex 29.4071 -8.20711 -2
    endloop
  endfacet
  facet normal 0.195081 0.980787 -0
    outer loop
      vertex 28.7 -8.5 -6
      vertex 28.3173 -8.42388 -2
      vertex 28.7 -8.5 -2
    endloop
  endfacet
  facet normal 0.195081 0.980787 0
    outer loop
      vertex 28.3173 -8.42388 -2
      vertex 28.7 -8.5 -6
      vertex 28.3173 -8.42388 -6
    endloop
  endfacet
  facet normal -0.555593 -0.831454 0
    outer loop
      vertex 29.0827 -6.57612 -6
      vertex 29.4071 -6.79289 -2
      vertex 29.0827 -6.57612 -2
    endloop
  endfacet
  facet normal -0.555593 -0.831454 -0
    outer loop
      vertex 29.4071 -6.79289 -2
      vertex 29.0827 -6.57612 -6
      vertex 29.4071 -6.79289 -6
    endloop
  endfacet
  facet normal -0.831443 -0.555611 0
    outer loop
      vertex 29.6239 -7.11732 -6
      vertex 29.4071 -6.79289 -2
      vertex 29.4071 -6.79289 -6
    endloop
  endfacet
  facet normal -0.831443 -0.555611 0
    outer loop
      vertex 29.4071 -6.79289 -2
      vertex 29.6239 -7.11732 -6
      vertex 29.6239 -7.11732 -2
    endloop
  endfacet
  facet normal 0.195081 -0.980787 0
    outer loop
      vertex 28.3173 -6.57612 -6
      vertex 28.7 -6.5 -2
      vertex 28.3173 -6.57612 -2
    endloop
  endfacet
  facet normal 0.195081 -0.980787 0
    outer loop
      vertex 28.7 -6.5 -2
      vertex 28.3173 -6.57612 -6
      vertex 28.7 -6.5 -6
    endloop
  endfacet
  facet normal 0.980795 0.195042 0
    outer loop
      vertex 27.7761 -7.88268 -2
      vertex 27.7 -7.5 -6
      vertex 27.7 -7.5 -2
    endloop
  endfacet
  facet normal 0.980795 0.195042 0
    outer loop
      vertex 27.7 -7.5 -6
      vertex 27.7761 -7.88268 -2
      vertex 27.7761 -7.88268 -6
    endloop
  endfacet
  facet normal 0.555593 0.831454 -0
    outer loop
      vertex 28.3173 -8.42388 -6
      vertex 27.9929 -8.20711 -2
      vertex 28.3173 -8.42388 -2
    endloop
  endfacet
  facet normal 0.555593 0.831454 0
    outer loop
      vertex 27.9929 -8.20711 -2
      vertex 28.3173 -8.42388 -6
      vertex 27.9929 -8.20711 -6
    endloop
  endfacet
  facet normal 0.831443 0.555611 0
    outer loop
      vertex 27.9929 -8.20711 -2
      vertex 27.7761 -7.88268 -6
      vertex 27.7761 -7.88268 -2
    endloop
  endfacet
  facet normal 0.831443 0.555611 0
    outer loop
      vertex 27.7761 -7.88268 -6
      vertex 27.9929 -8.20711 -2
      vertex 27.9929 -8.20711 -6
    endloop
  endfacet
  facet normal 0.831443 -0.555611 0
    outer loop
      vertex 27.7761 -7.11732 -2
      vertex 27.9929 -6.79289 -6
      vertex 27.9929 -6.79289 -2
    endloop
  endfacet
  facet normal 0.831443 -0.555611 0
    outer loop
      vertex 27.9929 -6.79289 -6
      vertex 27.7761 -7.11732 -2
      vertex 27.7761 -7.11732 -6
    endloop
  endfacet
  facet normal -0.195081 0.980787 0
    outer loop
      vertex 29.0827 -8.42388 -6
      vertex 28.7 -8.5 -2
      vertex 29.0827 -8.42388 -2
    endloop
  endfacet
  facet normal -0.195081 0.980787 0
    outer loop
      vertex 28.7 -8.5 -2
      vertex 29.0827 -8.42388 -6
      vertex 28.7 -8.5 -6
    endloop
  endfacet
  facet normal -0.980795 0.195042 0
    outer loop
      vertex 29.6239 -7.88268 -6
      vertex 29.7 -7.5 -2
      vertex 29.7 -7.5 -6
    endloop
  endfacet
  facet normal -0.980795 0.195042 0
    outer loop
      vertex 29.7 -7.5 -2
      vertex 29.6239 -7.88268 -6
      vertex 29.6239 -7.88268 -2
    endloop
  endfacet
  facet normal -0.555593 0.831454 0
    outer loop
      vertex 29.4071 -8.20711 -6
      vertex 29.0827 -8.42388 -2
      vertex 29.4071 -8.20711 -2
    endloop
  endfacet
  facet normal -0.555593 0.831454 0
    outer loop
      vertex 29.0827 -8.42388 -2
      vertex 29.4071 -8.20711 -6
      vertex 29.0827 -8.42388 -6
    endloop
  endfacet
  facet normal -0.980795 -0.195042 0
    outer loop
      vertex 29.7 2.5 -6
      vertex 29.6239 2.88268 -2
      vertex 29.6239 2.88268 -6
    endloop
  endfacet
  facet normal -0.980795 -0.195042 0
    outer loop
      vertex 29.6239 2.88268 -2
      vertex 29.7 2.5 -6
      vertex 29.7 2.5 -2
    endloop
  endfacet
  facet normal -0.195081 -0.980787 0
    outer loop
      vertex 28.7 3.5 -6
      vertex 29.0827 3.42388 -2
      vertex 28.7 3.5 -2
    endloop
  endfacet
  facet normal -0.195081 -0.980787 -0
    outer loop
      vertex 29.0827 3.42388 -2
      vertex 28.7 3.5 -6
      vertex 29.0827 3.42388 -6
    endloop
  endfacet
  facet normal 0.980795 0.195042 0
    outer loop
      vertex 27.7761 2.11732 -2
      vertex 27.7 2.5 -6
      vertex 27.7 2.5 -2
    endloop
  endfacet
  facet normal 0.980795 0.195042 0
    outer loop
      vertex 27.7 2.5 -6
      vertex 27.7761 2.11732 -2
      vertex 27.7761 2.11732 -6
    endloop
  endfacet
  facet normal -0.831443 0.555611 0
    outer loop
      vertex 29.4071 1.79289 -6
      vertex 29.6239 2.11732 -2
      vertex 29.6239 2.11732 -6
    endloop
  endfacet
  facet normal -0.831443 0.555611 0
    outer loop
      vertex 29.6239 2.11732 -2
      vertex 29.4071 1.79289 -6
      vertex 29.4071 1.79289 -2
    endloop
  endfacet
  facet normal -0.555593 0.831454 0
    outer loop
      vertex 29.4071 1.79289 -6
      vertex 29.0827 1.57612 -2
      vertex 29.4071 1.79289 -2
    endloop
  endfacet
  facet normal -0.555593 0.831454 0
    outer loop
      vertex 29.0827 1.57612 -2
      vertex 29.4071 1.79289 -6
      vertex 29.0827 1.57612 -6
    endloop
  endfacet
  facet normal -0.195081 0.980787 0
    outer loop
      vertex 29.0827 1.57612 -6
      vertex 28.7 1.5 -2
      vertex 29.0827 1.57612 -2
    endloop
  endfacet
  facet normal -0.195081 0.980787 0
    outer loop
      vertex 28.7 1.5 -2
      vertex 29.0827 1.57612 -6
      vertex 28.7 1.5 -6
    endloop
  endfacet
  facet normal -0.555593 -0.831454 0
    outer loop
      vertex 29.0827 3.42388 -6
      vertex 29.4071 3.20711 -2
      vertex 29.0827 3.42388 -2
    endloop
  endfacet
  facet normal -0.555593 -0.831454 -0
    outer loop
      vertex 29.4071 3.20711 -2
      vertex 29.0827 3.42388 -6
      vertex 29.4071 3.20711 -6
    endloop
  endfacet
  facet normal -0.831443 -0.555611 0
    outer loop
      vertex 29.6239 2.88268 -6
      vertex 29.4071 3.20711 -2
      vertex 29.4071 3.20711 -6
    endloop
  endfacet
  facet normal -0.831443 -0.555611 0
    outer loop
      vertex 29.4071 3.20711 -2
      vertex 29.6239 2.88268 -6
      vertex 29.6239 2.88268 -2
    endloop
  endfacet
  facet normal 0.195081 -0.980787 0
    outer loop
      vertex 28.3173 3.42388 -6
      vertex 28.7 3.5 -2
      vertex 28.3173 3.42388 -2
    endloop
  endfacet
  facet normal 0.195081 -0.980787 0
    outer loop
      vertex 28.7 3.5 -2
      vertex 28.3173 3.42388 -6
      vertex 28.7 3.5 -6
    endloop
  endfacet
  facet normal 0.555593 -0.831454 0
    outer loop
      vertex 27.9929 3.20711 -6
      vertex 28.3173 3.42388 -2
      vertex 27.9929 3.20711 -2
    endloop
  endfacet
  facet normal 0.555593 -0.831454 0
    outer loop
      vertex 28.3173 3.42388 -2
      vertex 27.9929 3.20711 -6
      vertex 28.3173 3.42388 -6
    endloop
  endfacet
  facet normal 0.980795 -0.195042 0
    outer loop
      vertex 27.7 2.5 -2
      vertex 27.7761 2.88268 -6
      vertex 27.7761 2.88268 -2
    endloop
  endfacet
  facet normal 0.980795 -0.195042 0
    outer loop
      vertex 27.7761 2.88268 -6
      vertex 27.7 2.5 -2
      vertex 27.7 2.5 -6
    endloop
  endfacet
  facet normal 0.831443 -0.555611 0
    outer loop
      vertex 27.7761 2.88268 -2
      vertex 27.9929 3.20711 -6
      vertex 27.9929 3.20711 -2
    endloop
  endfacet
  facet normal 0.831443 -0.555611 0
    outer loop
      vertex 27.9929 3.20711 -6
      vertex 27.7761 2.88268 -2
      vertex 27.7761 2.88268 -6
    endloop
  endfacet
  facet normal 0.831443 0.555611 0
    outer loop
      vertex 27.9929 1.79289 -2
      vertex 27.7761 2.11732 -6
      vertex 27.7761 2.11732 -2
    endloop
  endfacet
  facet normal 0.831443 0.555611 0
    outer loop
      vertex 27.7761 2.11732 -6
      vertex 27.9929 1.79289 -2
      vertex 27.9929 1.79289 -6
    endloop
  endfacet
  facet normal 0.195081 0.980787 -0
    outer loop
      vertex 28.7 1.5 -6
      vertex 28.3173 1.57612 -2
      vertex 28.7 1.5 -2
    endloop
  endfacet
  facet normal 0.195081 0.980787 0
    outer loop
      vertex 28.3173 1.57612 -2
      vertex 28.7 1.5 -6
      vertex 28.3173 1.57612 -6
    endloop
  endfacet
  facet normal 0.555593 0.831454 -0
    outer loop
      vertex 28.3173 1.57612 -6
      vertex 27.9929 1.79289 -2
      vertex 28.3173 1.57612 -2
    endloop
  endfacet
  facet normal 0.555593 0.831454 0
    outer loop
      vertex 27.9929 1.79289 -2
      vertex 28.3173 1.57612 -6
      vertex 27.9929 1.79289 -6
    endloop
  endfacet
  facet normal -0.980795 0.195042 0
    outer loop
      vertex 29.6239 2.11732 -6
      vertex 29.7 2.5 -2
      vertex 29.7 2.5 -6
    endloop
  endfacet
  facet normal -0.980795 0.195042 0
    outer loop
      vertex 29.7 2.5 -2
      vertex 29.6239 2.11732 -6
      vertex 29.6239 2.11732 -2
    endloop
  endfacet
endsolid OpenSCAD_Model
