solid OpenSCAD_Model
  facet normal 0 1 -0
    outer loop
      vertex 4.45 47 11.7
      vertex 2.45 47 16.2
      vertex 4.45 47 16.2
    endloop
  endfacet
  facet normal 0 1 0
    outer loop
      vertex 2.45 47 16.2
      vertex 4.45 47 11.7
      vertex 2.45 47 11.7
    endloop
  endfacet
  facet normal 0 -1 0
    outer loop
      vertex 2.45 58 11.7
      vertex 4.45 58 16.2
      vertex 2.45 58 16.2
    endloop
  endfacet
  facet normal 0 -1 -0
    outer loop
      vertex 4.45 58 16.2
      vertex 2.45 58 11.7
      vertex 4.45 58 11.7
    endloop
  endfacet
  facet normal 0 0 -1
    outer loop
      vertex 2.45 55.1 16.2
      vertex 4.45 58 16.2
      vertex 4.45 55.1 16.2
    endloop
  endfacet
  facet normal -0 0 -1
    outer loop
      vertex 4.45 58 16.2
      vertex 2.45 55.1 16.2
      vertex 2.45 58 16.2
    endloop
  endfacet
  facet normal 0 0 -1
    outer loop
      vertex 2.45 47 16.2
      vertex 4.45 49.9 16.2
      vertex 4.45 47 16.2
    endloop
  endfacet
  facet normal -0 0 -1
    outer loop
      vertex 4.45 49.9 16.2
      vertex 2.45 47 16.2
      vertex 2.45 49.9 16.2
    endloop
  endfacet
  facet normal -0 0 1
    outer loop
      vertex 2.45 58 11.7
      vertex 4.45 47 11.7
      vertex 4.45 58 11.7
    endloop
  endfacet
  facet normal 0 0 1
    outer loop
      vertex 4.45 47 11.7
      vertex 2.45 58 11.7
      vertex 2.45 47 11.7
    endloop
  endfacet
  facet normal 0 1 -0
    outer loop
      vertex 4.45 49.9 16.2
      vertex 2.45 49.9 19.8
      vertex 4.45 49.9 19.8
    endloop
  endfacet
  facet normal 0 1 0
    outer loop
      vertex 2.45 49.9 19.8
      vertex 4.45 49.9 16.2
      vertex 2.45 49.9 16.2
    endloop
  endfacet
  facet normal 0 -1 0
    outer loop
      vertex 2.45 55.1 16.2
      vertex 4.45 55.1 19.8
      vertex 2.45 55.1 19.8
    endloop
  endfacet
  facet normal 0 -1 -0
    outer loop
      vertex 4.45 55.1 19.8
      vertex 2.45 55.1 16.2
      vertex 4.45 55.1 16.2
    endloop
  endfacet
  facet normal 0 0 -1
    outer loop
      vertex 2.45 49.9 19.8
      vertex 4.45 55.1 19.8
      vertex 4.45 49.9 19.8
    endloop
  endfacet
  facet normal -0 0 -1
    outer loop
      vertex 4.45 55.1 19.8
      vertex 2.45 49.9 19.8
      vertex 2.45 55.1 19.8
    endloop
  endfacet
  facet normal 0 0.960374 0.278715
    outer loop
      vertex 4.45 163.487 55.0474
      vertex 2.45 163.452 55.168
      vertex 4.45 163.452 55.168
    endloop
  endfacet
  facet normal 0 0.960374 0.278715
    outer loop
      vertex 2.45 163.452 55.168
      vertex 4.45 163.487 55.0474
      vertex 2.45 163.487 55.0474
    endloop
  endfacet
  facet normal 0 -0.999506 -0.0314385
    outer loop
      vertex 2.45 2.45395 4.32442
      vertex 4.45 2.45 4.45
      vertex 2.45 2.45 4.45
    endloop
  endfacet
  facet normal 0 -0.999506 -0.0314385
    outer loop
      vertex 4.45 2.45 4.45
      vertex 2.45 2.45395 4.32442
      vertex 4.45 2.45395 4.32442
    endloop
  endfacet
  facet normal -0 0.278598 0.960408
    outer loop
      vertex 2.45 162.168 56.4521
      vertex 4.45 162.047 56.4872
      vertex 4.45 162.168 56.4521
    endloop
  endfacet
  facet normal 0 0.278598 0.960408
    outer loop
      vertex 4.45 162.047 56.4872
      vertex 2.45 162.168 56.4521
      vertex 2.45 162.047 56.4872
    endloop
  endfacet
  facet normal 0 0 -1
    outer loop
      vertex 2.45 4.45 2.45
      vertex 4.45 161.55 2.45
      vertex 4.45 4.45 2.45
    endloop
  endfacet
  facet normal -0 0 -1
    outer loop
      vertex 4.45 161.55 2.45
      vertex 2.45 4.45 2.45
      vertex 2.45 161.55 2.45
    endloop
  endfacet
  facet normal 0 1 -0
    outer loop
      vertex 4.45 163.55 4.45
      vertex 2.45 163.55 54.55
      vertex 4.45 163.55 54.55
    endloop
  endfacet
  facet normal 0 1 0
    outer loop
      vertex 2.45 163.55 54.55
      vertex 4.45 163.55 4.45
      vertex 2.45 163.55 4.45
    endloop
  endfacet
  facet normal 1 0 0
    outer loop
      vertex 4.45 161.55 56.55
      vertex 4.45 163.55 54.55
      vertex 4.45 163.546 54.6756
    endloop
  endfacet
  facet normal 1 0 0
    outer loop
      vertex 4.45 163.55 54.55
      vertex 4.45 161.55 56.55
      vertex 4.45 163.55 4.45
    endloop
  endfacet
  facet normal 1 0 0
    outer loop
      vertex 4.45 161.55 56.55
      vertex 4.45 163.546 54.6756
      vertex 4.45 163.534 54.8007
    endloop
  endfacet
  facet normal 1 0 0
    outer loop
      vertex 4.45 161.55 2.45
      vertex 4.45 163.55 4.45
      vertex 4.45 161.55 56.55
    endloop
  endfacet
  facet normal 1 0 0
    outer loop
      vertex 4.45 161.55 56.55
      vertex 4.45 163.534 54.8007
      vertex 4.45 163.515 54.9248
    endloop
  endfacet
  facet normal 1 0 0
    outer loop
      vertex 4.45 163.55 4.45
      vertex 4.45 161.55 2.45
      vertex 4.45 163.546 4.32442
    endloop
  endfacet
  facet normal 1 0 0
    outer loop
      vertex 4.45 161.55 56.55
      vertex 4.45 163.515 54.9248
      vertex 4.45 163.487 55.0474
    endloop
  endfacet
  facet normal 1 0 0
    outer loop
      vertex 4.45 163.546 4.32442
      vertex 4.45 161.55 2.45
      vertex 4.45 163.534 4.19933
    endloop
  endfacet
  facet normal 1 0 0
    outer loop
      vertex 4.45 161.55 56.55
      vertex 4.45 163.487 55.0474
      vertex 4.45 163.452 55.168
    endloop
  endfacet
  facet normal 1 0 0
    outer loop
      vertex 4.45 163.534 4.19933
      vertex 4.45 161.55 2.45
      vertex 4.45 163.515 4.07524
    endloop
  endfacet
  facet normal 1 0 0
    outer loop
      vertex 4.45 161.55 56.55
      vertex 4.45 163.452 55.168
      vertex 4.45 163.41 55.2862
    endloop
  endfacet
  facet normal 1 0 0
    outer loop
      vertex 4.45 163.515 4.07524
      vertex 4.45 161.55 2.45
      vertex 4.45 163.487 3.95262
    endloop
  endfacet
  facet normal 1 0 0
    outer loop
      vertex 4.45 161.55 56.55
      vertex 4.45 163.41 55.2862
      vertex 4.45 163.36 55.4016
    endloop
  endfacet
  facet normal 1 0 0
    outer loop
      vertex 4.45 163.487 3.95262
      vertex 4.45 161.55 2.45
      vertex 4.45 163.452 3.83197
    endloop
  endfacet
  facet normal 1 0 0
    outer loop
      vertex 4.45 161.55 56.55
      vertex 4.45 163.36 55.4016
      vertex 4.45 163.303 55.5135
    endloop
  endfacet
  facet normal 1 0 0
    outer loop
      vertex 4.45 163.452 3.83197
      vertex 4.45 161.55 2.45
      vertex 4.45 163.41 3.71375
    endloop
  endfacet
  facet normal 1 0 0
    outer loop
      vertex 4.45 161.55 56.55
      vertex 4.45 163.303 55.5135
      vertex 4.45 163.239 55.6217
    endloop
  endfacet
  facet normal 1 0 0
    outer loop
      vertex 4.45 163.41 3.71375
      vertex 4.45 161.55 2.45
      vertex 4.45 163.36 3.59844
    endloop
  endfacet
  facet normal 1 0 0
    outer loop
      vertex 4.45 161.55 56.55
      vertex 4.45 163.239 55.6217
      vertex 4.45 163.168 55.7256
    endloop
  endfacet
  facet normal 1 0 0
    outer loop
      vertex 4.45 163.36 3.59844
      vertex 4.45 161.55 2.45
      vertex 4.45 163.303 3.48649
    endloop
  endfacet
  facet normal 1 0 0
    outer loop
      vertex 4.45 161.55 56.55
      vertex 4.45 163.168 55.7256
      vertex 4.45 163.091 55.8248
    endloop
  endfacet
  facet normal 1 0 0
    outer loop
      vertex 4.45 163.303 3.48649
      vertex 4.45 161.55 2.45
      vertex 4.45 163.239 3.37835
    endloop
  endfacet
  facet normal 1 0 0
    outer loop
      vertex 4.45 161.55 56.55
      vertex 4.45 163.091 55.8248
      vertex 4.45 163.008 55.9191
    endloop
  endfacet
  facet normal 1 0 0
    outer loop
      vertex 4.45 163.239 3.37835
      vertex 4.45 161.55 2.45
      vertex 4.45 163.168 3.27443
    endloop
  endfacet
  facet normal 1 0 0
    outer loop
      vertex 4.45 161.55 56.55
      vertex 4.45 163.008 55.9191
      vertex 4.45 162.919 56.0079
    endloop
  endfacet
  facet normal 1 0 0
    outer loop
      vertex 4.45 163.168 3.27443
      vertex 4.45 161.55 2.45
      vertex 4.45 163.091 3.17515
    endloop
  endfacet
  facet normal 1 0 0
    outer loop
      vertex 4.45 161.55 56.55
      vertex 4.45 162.919 56.0079
      vertex 4.45 162.825 56.091
    endloop
  endfacet
  facet normal 1 0 0
    outer loop
      vertex 4.45 163.091 3.17515
      vertex 4.45 161.55 2.45
      vertex 4.45 163.008 3.08091
    endloop
  endfacet
  facet normal 1 0 0
    outer loop
      vertex 4.45 161.55 56.55
      vertex 4.45 162.825 56.091
      vertex 4.45 162.726 56.168
    endloop
  endfacet
  facet normal 1 0 0
    outer loop
      vertex 4.45 163.008 3.08091
      vertex 4.45 161.55 2.45
      vertex 4.45 162.919 2.99206
    endloop
  endfacet
  facet normal 1 0 0
    outer loop
      vertex 4.45 161.55 56.55
      vertex 4.45 162.726 56.168
      vertex 4.45 162.622 56.2387
    endloop
  endfacet
  facet normal 1 0 0
    outer loop
      vertex 4.45 162.919 2.99206
      vertex 4.45 161.55 2.45
      vertex 4.45 162.825 2.90897
    endloop
  endfacet
  facet normal 1 0 0
    outer loop
      vertex 4.45 161.55 56.55
      vertex 4.45 162.622 56.2387
      vertex 4.45 162.514 56.3026
    endloop
  endfacet
  facet normal 1 0 0
    outer loop
      vertex 4.45 162.825 2.90897
      vertex 4.45 161.55 2.45
      vertex 4.45 162.726 2.83197
    endloop
  endfacet
  facet normal 1 0 0
    outer loop
      vertex 4.45 161.55 56.55
      vertex 4.45 162.514 56.3026
      vertex 4.45 162.402 56.3597
    endloop
  endfacet
  facet normal 1 0 0
    outer loop
      vertex 4.45 162.726 2.83197
      vertex 4.45 161.55 2.45
      vertex 4.45 162.622 2.76134
    endloop
  endfacet
  facet normal 1 0 0
    outer loop
      vertex 4.45 161.55 56.55
      vertex 4.45 162.402 56.3597
      vertex 4.45 162.286 56.4096
    endloop
  endfacet
  facet normal 1 0 0
    outer loop
      vertex 4.45 162.622 2.76134
      vertex 4.45 161.55 2.45
      vertex 4.45 162.514 2.69739
    endloop
  endfacet
  facet normal 1 0 0
    outer loop
      vertex 4.45 161.55 56.55
      vertex 4.45 162.286 56.4096
      vertex 4.45 162.168 56.4521
    endloop
  endfacet
  facet normal 1 0 0
    outer loop
      vertex 4.45 162.514 2.69739
      vertex 4.45 161.55 2.45
      vertex 4.45 162.402 2.64035
    endloop
  endfacet
  facet normal 1 0 0
    outer loop
      vertex 4.45 161.55 56.55
      vertex 4.45 162.168 56.4521
      vertex 4.45 162.047 56.4872
    endloop
  endfacet
  facet normal 1 0 0
    outer loop
      vertex 4.45 162.402 2.64035
      vertex 4.45 161.55 2.45
      vertex 4.45 162.286 2.59045
    endloop
  endfacet
  facet normal 1 0 0
    outer loop
      vertex 4.45 161.55 56.55
      vertex 4.45 162.047 56.4872
      vertex 4.45 161.925 56.5146
    endloop
  endfacet
  facet normal 1 0 0
    outer loop
      vertex 4.45 162.286 2.59045
      vertex 4.45 161.55 2.45
      vertex 4.45 162.168 2.54789
    endloop
  endfacet
  facet normal 1 0 0
    outer loop
      vertex 4.45 161.55 56.55
      vertex 4.45 161.925 56.5146
      vertex 4.45 161.801 56.5342
    endloop
  endfacet
  facet normal 1 0 0
    outer loop
      vertex 4.45 162.168 2.54789
      vertex 4.45 161.55 2.45
      vertex 4.45 162.047 2.51283
    endloop
  endfacet
  facet normal 1 0 0
    outer loop
      vertex 4.45 161.55 56.55
      vertex 4.45 161.801 56.5342
      vertex 4.45 161.676 56.5461
    endloop
  endfacet
  facet normal 1 0 0
    outer loop
      vertex 4.45 162.047 2.51283
      vertex 4.45 161.55 2.45
      vertex 4.45 161.925 2.48543
    endloop
  endfacet
  facet normal 1 0 0
    outer loop
      vertex 4.45 161.925 2.48543
      vertex 4.45 161.55 2.45
      vertex 4.45 161.801 2.46577
    endloop
  endfacet
  facet normal 1 0 0
    outer loop
      vertex 4.45 161.801 2.46577
      vertex 4.45 161.55 2.45
      vertex 4.45 161.676 2.45395
    endloop
  endfacet
  facet normal 1 0 0
    outer loop
      vertex 4.45 161.55 56.55
      vertex 4.45 58 16.2
      vertex 4.45 161.55 2.45
    endloop
  endfacet
  facet normal 1 0 0
    outer loop
      vertex 4.45 161.55 56.55
      vertex 4.45 55.1 19.8
      vertex 4.45 58 16.2
    endloop
  endfacet
  facet normal 1 -0 0
    outer loop
      vertex 4.45 4.45 56.55
      vertex 4.45 55.1 19.8
      vertex 4.45 161.55 56.55
    endloop
  endfacet
  facet normal 1 0 0
    outer loop
      vertex 4.45 49.9 19.8
      vertex 4.45 47 16.2
      vertex 4.45 49.9 16.2
    endloop
  endfacet
  facet normal 1 -0 0
    outer loop
      vertex 4.45 2.45 54.55
      vertex 4.45 47 16.2
      vertex 4.45 4.45 56.55
    endloop
  endfacet
  facet normal 1 0 0
    outer loop
      vertex 4.45 49.9 19.8
      vertex 4.45 4.45 56.55
      vertex 4.45 47 16.2
    endloop
  endfacet
  facet normal 1 0 0
    outer loop
      vertex 4.45 55.1 19.8
      vertex 4.45 4.45 56.55
      vertex 4.45 49.9 19.8
    endloop
  endfacet
  facet normal 1 -0 0
    outer loop
      vertex 4.45 58 11.7
      vertex 4.45 161.55 2.45
      vertex 4.45 58 16.2
    endloop
  endfacet
  facet normal 1 0 0
    outer loop
      vertex 4.45 4.45 2.45
      vertex 4.45 58 11.7
      vertex 4.45 47 11.7
    endloop
  endfacet
  facet normal 1 0 0
    outer loop
      vertex 4.45 58 11.7
      vertex 4.45 4.45 2.45
      vertex 4.45 161.55 2.45
    endloop
  endfacet
  facet normal 1 0 0
    outer loop
      vertex 4.45 2.45 4.45
      vertex 4.45 47 16.2
      vertex 4.45 2.45 54.55
    endloop
  endfacet
  facet normal 1 0 0
    outer loop
      vertex 4.45 2.45 54.55
      vertex 4.45 4.45 56.55
      vertex 4.45 4.32442 56.5461
    endloop
  endfacet
  facet normal 1 0 -0
    outer loop
      vertex 4.45 4.45 2.45
      vertex 4.45 47 16.2
      vertex 4.45 2.45 4.45
    endloop
  endfacet
  facet normal 1 0 0
    outer loop
      vertex 4.45 2.45 54.55
      vertex 4.45 4.32442 56.5461
      vertex 4.45 4.19933 56.5342
    endloop
  endfacet
  facet normal 1 0 0
    outer loop
      vertex 4.45 47 16.2
      vertex 4.45 4.45 2.45
      vertex 4.45 47 11.7
    endloop
  endfacet
  facet normal 1 0 0
    outer loop
      vertex 4.45 2.45 54.55
      vertex 4.45 4.19933 56.5342
      vertex 4.45 4.07524 56.5146
    endloop
  endfacet
  facet normal 1 0 0
    outer loop
      vertex 4.45 4.45 2.45
      vertex 4.45 2.45 4.45
      vertex 4.45 4.32442 2.45395
    endloop
  endfacet
  facet normal 1 0 0
    outer loop
      vertex 4.45 2.45 54.55
      vertex 4.45 4.07524 56.5146
      vertex 4.45 3.95262 56.4872
    endloop
  endfacet
  facet normal 1 0 0
    outer loop
      vertex 4.45 4.32442 2.45395
      vertex 4.45 2.45 4.45
      vertex 4.45 4.19933 2.46577
    endloop
  endfacet
  facet normal 1 0 0
    outer loop
      vertex 4.45 2.45 54.55
      vertex 4.45 3.95262 56.4872
      vertex 4.45 3.83197 56.4521
    endloop
  endfacet
  facet normal 1 0 0
    outer loop
      vertex 4.45 4.19933 2.46577
      vertex 4.45 2.45 4.45
      vertex 4.45 4.07524 2.48543
    endloop
  endfacet
  facet normal 1 0 0
    outer loop
      vertex 4.45 2.45 54.55
      vertex 4.45 3.83197 56.4521
      vertex 4.45 3.71375 56.4096
    endloop
  endfacet
  facet normal 1 0 0
    outer loop
      vertex 4.45 4.07524 2.48543
      vertex 4.45 2.45 4.45
      vertex 4.45 3.95262 2.51283
    endloop
  endfacet
  facet normal 1 0 0
    outer loop
      vertex 4.45 2.45 54.55
      vertex 4.45 3.71375 56.4096
      vertex 4.45 3.59844 56.3597
    endloop
  endfacet
  facet normal 1 0 0
    outer loop
      vertex 4.45 3.95262 2.51283
      vertex 4.45 2.45 4.45
      vertex 4.45 3.83197 2.54789
    endloop
  endfacet
  facet normal 1 0 0
    outer loop
      vertex 4.45 2.45 54.55
      vertex 4.45 3.59844 56.3597
      vertex 4.45 3.48649 56.3026
    endloop
  endfacet
  facet normal 1 0 0
    outer loop
      vertex 4.45 3.83197 2.54789
      vertex 4.45 2.45 4.45
      vertex 4.45 3.71375 2.59045
    endloop
  endfacet
  facet normal 1 0 0
    outer loop
      vertex 4.45 2.45 54.55
      vertex 4.45 3.48649 56.3026
      vertex 4.45 3.37835 56.2387
    endloop
  endfacet
  facet normal 1 0 0
    outer loop
      vertex 4.45 3.71375 2.59045
      vertex 4.45 2.45 4.45
      vertex 4.45 3.59844 2.64035
    endloop
  endfacet
  facet normal 1 0 0
    outer loop
      vertex 4.45 2.45 54.55
      vertex 4.45 3.37835 56.2387
      vertex 4.45 3.27443 56.168
    endloop
  endfacet
  facet normal 1 0 0
    outer loop
      vertex 4.45 3.59844 2.64035
      vertex 4.45 2.45 4.45
      vertex 4.45 3.48649 2.69739
    endloop
  endfacet
  facet normal 1 0 0
    outer loop
      vertex 4.45 2.45 54.55
      vertex 4.45 3.27443 56.168
      vertex 4.45 3.17515 56.091
    endloop
  endfacet
  facet normal 1 0 0
    outer loop
      vertex 4.45 3.48649 2.69739
      vertex 4.45 2.45 4.45
      vertex 4.45 3.37835 2.76134
    endloop
  endfacet
  facet normal 1 0 0
    outer loop
      vertex 4.45 2.45 54.55
      vertex 4.45 3.17515 56.091
      vertex 4.45 3.08091 56.0079
    endloop
  endfacet
  facet normal 1 0 0
    outer loop
      vertex 4.45 3.37835 2.76134
      vertex 4.45 2.45 4.45
      vertex 4.45 3.27443 2.83197
    endloop
  endfacet
  facet normal 1 0 0
    outer loop
      vertex 4.45 2.45 54.55
      vertex 4.45 3.08091 56.0079
      vertex 4.45 2.99206 55.9191
    endloop
  endfacet
  facet normal 1 0 0
    outer loop
      vertex 4.45 3.27443 2.83197
      vertex 4.45 2.45 4.45
      vertex 4.45 3.17515 2.90897
    endloop
  endfacet
  facet normal 1 0 0
    outer loop
      vertex 4.45 2.45 54.55
      vertex 4.45 2.99206 55.9191
      vertex 4.45 2.90897 55.8248
    endloop
  endfacet
  facet normal 1 0 0
    outer loop
      vertex 4.45 3.17515 2.90897
      vertex 4.45 2.45 4.45
      vertex 4.45 3.08091 2.99206
    endloop
  endfacet
  facet normal 1 0 0
    outer loop
      vertex 4.45 2.45 54.55
      vertex 4.45 2.90897 55.8248
      vertex 4.45 2.83197 55.7256
    endloop
  endfacet
  facet normal 1 0 0
    outer loop
      vertex 4.45 3.08091 2.99206
      vertex 4.45 2.45 4.45
      vertex 4.45 2.99206 3.08091
    endloop
  endfacet
  facet normal 1 0 0
    outer loop
      vertex 4.45 2.45 54.55
      vertex 4.45 2.83197 55.7256
      vertex 4.45 2.76134 55.6217
    endloop
  endfacet
  facet normal 1 0 0
    outer loop
      vertex 4.45 2.99206 3.08091
      vertex 4.45 2.45 4.45
      vertex 4.45 2.90897 3.17515
    endloop
  endfacet
  facet normal 1 0 0
    outer loop
      vertex 4.45 2.45 54.55
      vertex 4.45 2.76134 55.6217
      vertex 4.45 2.69739 55.5135
    endloop
  endfacet
  facet normal 1 0 0
    outer loop
      vertex 4.45 2.90897 3.17515
      vertex 4.45 2.45 4.45
      vertex 4.45 2.83197 3.27443
    endloop
  endfacet
  facet normal 1 0 0
    outer loop
      vertex 4.45 2.45 54.55
      vertex 4.45 2.69739 55.5135
      vertex 4.45 2.64035 55.4016
    endloop
  endfacet
  facet normal 1 0 0
    outer loop
      vertex 4.45 2.83197 3.27443
      vertex 4.45 2.45 4.45
      vertex 4.45 2.76134 3.37835
    endloop
  endfacet
  facet normal 1 0 0
    outer loop
      vertex 4.45 2.45 54.55
      vertex 4.45 2.64035 55.4016
      vertex 4.45 2.59045 55.2862
    endloop
  endfacet
  facet normal 1 0 0
    outer loop
      vertex 4.45 2.76134 3.37835
      vertex 4.45 2.45 4.45
      vertex 4.45 2.69739 3.48649
    endloop
  endfacet
  facet normal 1 0 0
    outer loop
      vertex 4.45 2.45 54.55
      vertex 4.45 2.59045 55.2862
      vertex 4.45 2.54789 55.168
    endloop
  endfacet
  facet normal 1 0 0
    outer loop
      vertex 4.45 2.69739 3.48649
      vertex 4.45 2.45 4.45
      vertex 4.45 2.64035 3.59844
    endloop
  endfacet
  facet normal 1 0 0
    outer loop
      vertex 4.45 2.45 54.55
      vertex 4.45 2.54789 55.168
      vertex 4.45 2.51283 55.0474
    endloop
  endfacet
  facet normal 1 0 0
    outer loop
      vertex 4.45 2.64035 3.59844
      vertex 4.45 2.45 4.45
      vertex 4.45 2.59045 3.71375
    endloop
  endfacet
  facet normal 1 0 0
    outer loop
      vertex 4.45 2.45 54.55
      vertex 4.45 2.51283 55.0474
      vertex 4.45 2.48543 54.9248
    endloop
  endfacet
  facet normal 1 0 0
    outer loop
      vertex 4.45 2.59045 3.71375
      vertex 4.45 2.45 4.45
      vertex 4.45 2.54789 3.83197
    endloop
  endfacet
  facet normal 1 0 0
    outer loop
      vertex 4.45 2.45 54.55
      vertex 4.45 2.48543 54.9248
      vertex 4.45 2.46577 54.8007
    endloop
  endfacet
  facet normal 1 0 0
    outer loop
      vertex 4.45 2.54789 3.83197
      vertex 4.45 2.45 4.45
      vertex 4.45 2.51283 3.95262
    endloop
  endfacet
  facet normal 1 0 0
    outer loop
      vertex 4.45 2.45 54.55
      vertex 4.45 2.46577 54.8007
      vertex 4.45 2.45395 54.6756
    endloop
  endfacet
  facet normal 1 0 0
    outer loop
      vertex 4.45 2.51283 3.95262
      vertex 4.45 2.45 4.45
      vertex 4.45 2.48543 4.07524
    endloop
  endfacet
  facet normal 1 0 0
    outer loop
      vertex 4.45 2.48543 4.07524
      vertex 4.45 2.45 4.45
      vertex 4.45 2.46577 4.19933
    endloop
  endfacet
  facet normal 1 0 0
    outer loop
      vertex 4.45 2.46577 4.19933
      vertex 4.45 2.45 4.45
      vertex 4.45 2.45395 4.32442
    endloop
  endfacet
  facet normal 1 0 0
    outer loop
      vertex 4.45 58 16.2
      vertex 4.45 55.1 19.8
      vertex 4.45 55.1 16.2
    endloop
  endfacet
  facet normal 0 0.75065 0.6607
    outer loop
      vertex 4.45 163.091 55.8248
      vertex 2.45 163.008 55.9191
      vertex 4.45 163.008 55.9191
    endloop
  endfacet
  facet normal 0 0.75065 0.6607
    outer loop
      vertex 2.45 163.008 55.9191
      vertex 4.45 163.091 55.8248
      vertex 2.45 163.091 55.8248
    endloop
  endfacet
  facet normal -0 0.562201 0.827
    outer loop
      vertex 2.45 162.726 56.168
      vertex 4.45 162.622 56.2387
      vertex 4.45 162.726 56.168
    endloop
  endfacet
  facet normal 0 0.562201 0.827
    outer loop
      vertex 4.45 162.622 56.2387
      vertex 2.45 162.726 56.168
      vertex 2.45 162.622 56.2387
    endloop
  endfacet
  facet normal -0 0 1
    outer loop
      vertex 2.45 161.55 56.55
      vertex 4.45 4.45 56.55
      vertex 4.45 161.55 56.55
    endloop
  endfacet
  facet normal 0 0 1
    outer loop
      vertex 4.45 4.45 56.55
      vertex 2.45 161.55 56.55
      vertex 2.45 4.45 56.55
    endloop
  endfacet
  facet normal -0 0.0309376 0.999521
    outer loop
      vertex 2.45 161.676 56.5461
      vertex 4.45 161.55 56.55
      vertex 4.45 161.676 56.5461
    endloop
  endfacet
  facet normal 0 0.0309376 0.999521
    outer loop
      vertex 4.45 161.55 56.55
      vertex 2.45 161.676 56.5461
      vertex 2.45 161.55 56.55
    endloop
  endfacet
  facet normal 0 0.339284 -0.940684
    outer loop
      vertex 2.45 162.168 2.54789
      vertex 4.45 162.286 2.59045
      vertex 4.45 162.168 2.54789
    endloop
  endfacet
  facet normal 0 0.339284 -0.940684
    outer loop
      vertex 4.45 162.286 2.59045
      vertex 2.45 162.168 2.54789
      vertex 2.45 162.286 2.59045
    endloop
  endfacet
  facet normal 0 0.156592 -0.987663
    outer loop
      vertex 2.45 161.801 2.46577
      vertex 4.45 161.925 2.48543
      vertex 4.45 161.801 2.46577
    endloop
  endfacet
  facet normal 0 0.156592 -0.987663
    outer loop
      vertex 4.45 161.925 2.48543
      vertex 2.45 161.801 2.46577
      vertex 2.45 161.925 2.48543
    endloop
  endfacet
  facet normal 0 -1 0
    outer loop
      vertex 2.45 2.45 4.45
      vertex 4.45 2.45 54.55
      vertex 2.45 2.45 54.55
    endloop
  endfacet
  facet normal 0 -1 -0
    outer loop
      vertex 4.45 2.45 54.55
      vertex 2.45 2.45 4.45
      vertex 4.45 2.45 4.45
    endloop
  endfacet
  facet normal 0 -0.0314385 -0.999506
    outer loop
      vertex 2.45 4.32442 2.45395
      vertex 4.45 4.45 2.45
      vertex 4.45 4.32442 2.45395
    endloop
  endfacet
  facet normal -0 -0.0314385 -0.999506
    outer loop
      vertex 4.45 4.45 2.45
      vertex 2.45 4.32442 2.45395
      vertex 2.45 4.45 2.45
    endloop
  endfacet
  facet normal 0 0.891058 0.45389
    outer loop
      vertex 4.45 163.36 55.4016
      vertex 2.45 163.303 55.5135
      vertex 4.45 163.303 55.5135
    endloop
  endfacet
  facet normal 0 0.891058 0.45389
    outer loop
      vertex 2.45 163.303 55.5135
      vertex 4.45 163.36 55.4016
      vertex 2.45 163.36 55.4016
    endloop
  endfacet
  facet normal 0 0.917575 0.397563
    outer loop
      vertex 4.45 163.41 55.2862
      vertex 2.45 163.36 55.4016
      vertex 4.45 163.36 55.4016
    endloop
  endfacet
  facet normal 0 0.917575 0.397563
    outer loop
      vertex 2.45 163.36 55.4016
      vertex 4.45 163.41 55.2862
      vertex 2.45 163.41 55.2862
    endloop
  endfacet
  facet normal 0 0.942282 0.334821
    outer loop
      vertex 4.45 163.452 55.168
      vertex 2.45 163.41 55.2862
      vertex 4.45 163.41 55.2862
    endloop
  endfacet
  facet normal 0 0.942282 0.334821
    outer loop
      vertex 2.45 163.41 55.2862
      vertex 4.45 163.452 55.168
      vertex 2.45 163.452 55.168
    endloop
  endfacet
  facet normal -0 0.613941 0.789352
    outer loop
      vertex 2.45 162.825 56.091
      vertex 4.45 162.726 56.168
      vertex 4.45 162.825 56.091
    endloop
  endfacet
  facet normal 0 0.613941 0.789352
    outer loop
      vertex 4.45 162.726 56.168
      vertex 2.45 162.825 56.091
      vertex 2.45 162.726 56.168
    endloop
  endfacet
  facet normal 0 0.974906 -0.222618
    outer loop
      vertex 4.45 163.487 3.95262
      vertex 2.45 163.515 4.07524
      vertex 4.45 163.515 4.07524
    endloop
  endfacet
  facet normal 0 0.974906 -0.222618
    outer loop
      vertex 2.45 163.515 4.07524
      vertex 4.45 163.487 3.95262
      vertex 2.45 163.487 3.95262
    endloop
  endfacet
  facet normal 0 0.56182 -0.827259
    outer loop
      vertex 2.45 162.622 2.76134
      vertex 4.45 162.726 2.83197
      vertex 4.45 162.622 2.76134
    endloop
  endfacet
  facet normal 0 0.56182 -0.827259
    outer loop
      vertex 4.45 162.726 2.83197
      vertex 2.45 162.622 2.76134
      vertex 2.45 162.726 2.83197
    endloop
  endfacet
  facet normal 0 -0.707107 -0.707107
    outer loop
      vertex 2.45 3.08091 2.99206
      vertex 4.45 2.99206 3.08091
      vertex 2.45 2.99206 3.08091
    endloop
  endfacet
  facet normal 0 -0.707107 -0.707107
    outer loop
      vertex 4.45 2.99206 3.08091
      vertex 2.45 3.08091 2.99206
      vertex 4.45 3.08091 2.99206
    endloop
  endfacet
  facet normal 0 -0.917752 -0.397154
    outer loop
      vertex 2.45 2.64035 3.59844
      vertex 4.45 2.59045 3.71375
      vertex 2.45 2.59045 3.71375
    endloop
  endfacet
  facet normal 0 -0.917752 -0.397154
    outer loop
      vertex 4.45 2.59045 3.71375
      vertex 2.45 2.64035 3.59844
      vertex 4.45 2.64035 3.59844
    endloop
  endfacet
  facet normal 0 0.706311 0.707902
    outer loop
      vertex 4.45 163.008 55.9191
      vertex 2.45 162.919 56.0079
      vertex 4.45 162.919 56.0079
    endloop
  endfacet
  facet normal 0 0.706311 0.707902
    outer loop
      vertex 2.45 162.919 56.0079
      vertex 4.45 163.008 55.9191
      vertex 2.45 163.008 55.9191
    endloop
  endfacet
  facet normal 0 0.789952 0.613168
    outer loop
      vertex 4.45 163.168 55.7256
      vertex 2.45 163.091 55.8248
      vertex 4.45 163.091 55.8248
    endloop
  endfacet
  facet normal 0 0.789952 0.613168
    outer loop
      vertex 2.45 163.091 55.8248
      vertex 4.45 163.168 55.7256
      vertex 2.45 163.168 55.7256
    endloop
  endfacet
  facet normal 0 -0.0947039 0.995505
    outer loop
      vertex 2.45 4.32442 56.5461
      vertex 4.45 4.19933 56.5342
      vertex 4.45 4.32442 56.5461
    endloop
  endfacet
  facet normal 0 -0.0947039 0.995505
    outer loop
      vertex 4.45 4.19933 56.5342
      vertex 2.45 4.32442 56.5461
      vertex 2.45 4.19933 56.5342
    endloop
  endfacet
  facet normal 0 -0.0310409 0.999518
    outer loop
      vertex 2.45 4.45 56.55
      vertex 4.45 4.32442 56.5461
      vertex 4.45 4.45 56.55
    endloop
  endfacet
  facet normal 0 -0.0310409 0.999518
    outer loop
      vertex 4.45 4.32442 56.5461
      vertex 2.45 4.45 56.55
      vertex 2.45 4.32442 56.5461
    endloop
  endfacet
  facet normal -0 0.338861 0.940837
    outer loop
      vertex 2.45 162.286 56.4096
      vertex 4.45 162.168 56.4521
      vertex 4.45 162.286 56.4096
    endloop
  endfacet
  facet normal 0 0.338861 0.940837
    outer loop
      vertex 4.45 162.168 56.4521
      vertex 2.45 162.286 56.4096
      vertex 2.45 162.168 56.4521
    endloop
  endfacet
  facet normal -0 0.509212 0.860641
    outer loop
      vertex 2.45 162.622 56.2387
      vertex 4.45 162.514 56.3026
      vertex 4.45 162.622 56.2387
    endloop
  endfacet
  facet normal 0 0.509212 0.860641
    outer loop
      vertex 4.45 162.514 56.3026
      vertex 2.45 162.622 56.2387
      vertex 2.45 162.514 56.3026
    endloop
  endfacet
  facet normal -0 0.0947715 0.995499
    outer loop
      vertex 2.45 161.801 56.5342
      vertex 4.45 161.676 56.5461
      vertex 4.45 161.801 56.5342
    endloop
  endfacet
  facet normal 0 0.0947715 0.995499
    outer loop
      vertex 4.45 161.676 56.5461
      vertex 2.45 161.801 56.5342
      vertex 2.45 161.676 56.5461
    endloop
  endfacet
  facet normal 0 0.917462 -0.397824
    outer loop
      vertex 4.45 163.36 3.59844
      vertex 2.45 163.41 3.71375
      vertex 4.45 163.41 3.71375
    endloop
  endfacet
  facet normal 0 0.917462 -0.397824
    outer loop
      vertex 2.45 163.41 3.71375
      vertex 4.45 163.36 3.59844
      vertex 2.45 163.36 3.59844
    endloop
  endfacet
  facet normal 0 0.860581 -0.509314
    outer loop
      vertex 4.45 163.239 3.37835
      vertex 2.45 163.303 3.48649
      vertex 4.45 163.303 3.48649
    endloop
  endfacet
  facet normal 0 0.860581 -0.509314
    outer loop
      vertex 2.45 163.303 3.48649
      vertex 4.45 163.239 3.37835
      vertex 2.45 163.239 3.37835
    endloop
  endfacet
  facet normal 0 -0.279343 0.960191
    outer loop
      vertex 2.45 3.95262 56.4872
      vertex 4.45 3.83197 56.4521
      vertex 4.45 3.95262 56.4872
    endloop
  endfacet
  facet normal 0 -0.279343 0.960191
    outer loop
      vertex 4.45 3.83197 56.4521
      vertex 2.45 3.95262 56.4872
      vertex 2.45 3.83197 56.4521
    endloop
  endfacet
  facet normal 0 -0.975932 -0.218076
    outer loop
      vertex 2.45 2.51283 3.95262
      vertex 4.45 2.48543 4.07524
      vertex 2.45 2.48543 4.07524
    endloop
  endfacet
  facet normal 0 -0.975932 -0.218076
    outer loop
      vertex 4.45 2.48543 4.07524
      vertex 2.45 2.51283 3.95262
      vertex 4.45 2.51283 3.95262
    endloop
  endfacet
  facet normal 0 -0.156482 -0.987681
    outer loop
      vertex 2.45 4.07524 2.48543
      vertex 4.45 4.19933 2.46577
      vertex 4.45 4.07524 2.48543
    endloop
  endfacet
  facet normal -0 -0.156482 -0.987681
    outer loop
      vertex 4.45 4.19933 2.46577
      vertex 2.45 4.07524 2.48543
      vertex 2.45 4.19933 2.46577
    endloop
  endfacet
  facet normal 0 -0.509019 -0.860755
    outer loop
      vertex 2.45 3.37835 2.76134
      vertex 4.45 3.48649 2.69739
      vertex 4.45 3.37835 2.76134
    endloop
  endfacet
  facet normal -0 -0.509019 -0.860755
    outer loop
      vertex 4.45 3.48649 2.69739
      vertex 2.45 3.37835 2.76134
      vertex 2.45 3.48649 2.69739
    endloop
  endfacet
  facet normal 0 -0.218076 -0.975932
    outer loop
      vertex 2.45 3.95262 2.51283
      vertex 4.45 4.07524 2.48543
      vertex 4.45 3.95262 2.51283
    endloop
  endfacet
  facet normal -0 -0.218076 -0.975932
    outer loop
      vertex 4.45 4.07524 2.48543
      vertex 2.45 3.95262 2.51283
      vertex 2.45 4.07524 2.48543
    endloop
  endfacet
  facet normal 0 0.995431 0.095485
    outer loop
      vertex 4.45 163.546 54.6756
      vertex 2.45 163.534 54.8007
      vertex 4.45 163.534 54.8007
    endloop
  endfacet
  facet normal 0 0.995431 0.095485
    outer loop
      vertex 2.45 163.534 54.8007
      vertex 4.45 163.546 54.6756
      vertex 2.45 163.546 54.6756
    endloop
  endfacet
  facet normal 0 0.999493 0.031831
    outer loop
      vertex 4.45 163.55 54.55
      vertex 2.45 163.546 54.6756
      vertex 4.45 163.546 54.6756
    endloop
  endfacet
  facet normal 0 0.999493 0.031831
    outer loop
      vertex 2.45 163.546 54.6756
      vertex 4.45 163.55 54.55
      vertex 2.45 163.55 54.55
    endloop
  endfacet
  facet normal 0 0.974898 0.222652
    outer loop
      vertex 4.45 163.515 54.9248
      vertex 2.45 163.487 55.0474
      vertex 4.45 163.487 55.0474
    endloop
  endfacet
  facet normal 0 0.974898 0.222652
    outer loop
      vertex 2.45 163.487 55.0474
      vertex 4.45 163.515 54.9248
      vertex 2.45 163.515 54.9248
    endloop
  endfacet
  facet normal 0 0.825638 0.5642
    outer loop
      vertex 4.45 163.239 55.6217
      vertex 2.45 163.168 55.7256
      vertex 4.45 163.168 55.7256
    endloop
  endfacet
  facet normal 0 0.825638 0.5642
    outer loop
      vertex 2.45 163.168 55.7256
      vertex 4.45 163.239 55.6217
      vertex 2.45 163.239 55.6217
    endloop
  endfacet
  facet normal 0 0.860705 0.509104
    outer loop
      vertex 4.45 163.303 55.5135
      vertex 2.45 163.239 55.6217
      vertex 4.45 163.239 55.6217
    endloop
  endfacet
  facet normal 0 0.860705 0.509104
    outer loop
      vertex 2.45 163.239 55.6217
      vertex 4.45 163.303 55.5135
      vertex 2.45 163.303 55.5135
    endloop
  endfacet
  facet normal -0 0.662333 0.74921
    outer loop
      vertex 2.45 162.919 56.0079
      vertex 4.45 162.825 56.091
      vertex 4.45 162.919 56.0079
    endloop
  endfacet
  facet normal 0 0.662333 0.74921
    outer loop
      vertex 4.45 162.825 56.091
      vertex 2.45 162.919 56.0079
      vertex 2.45 162.825 56.091
    endloop
  endfacet
  facet normal -0 0.219132 0.975695
    outer loop
      vertex 2.45 162.047 56.4872
      vertex 4.45 161.925 56.5146
      vertex 4.45 162.047 56.4872
    endloop
  endfacet
  facet normal 0 0.219132 0.975695
    outer loop
      vertex 4.45 161.925 56.5146
      vertex 2.45 162.047 56.4872
      vertex 2.45 161.925 56.5146
    endloop
  endfacet
  facet normal -0 0.156126 0.987737
    outer loop
      vertex 2.45 161.925 56.5146
      vertex 4.45 161.801 56.5342
      vertex 4.45 161.925 56.5146
    endloop
  endfacet
  facet normal 0 0.156126 0.987737
    outer loop
      vertex 4.45 161.801 56.5342
      vertex 2.45 161.925 56.5146
      vertex 2.45 161.801 56.5342
    endloop
  endfacet
  facet normal -0 0.395161 0.918612
    outer loop
      vertex 2.45 162.402 56.3597
      vertex 4.45 162.286 56.4096
      vertex 4.45 162.402 56.3597
    endloop
  endfacet
  facet normal 0 0.395161 0.918612
    outer loop
      vertex 4.45 162.286 56.4096
      vertex 2.45 162.402 56.3597
      vertex 2.45 162.286 56.4096
    endloop
  endfacet
  facet normal 0 0.999493 -0.0318361
    outer loop
      vertex 4.45 163.546 4.32442
      vertex 2.45 163.55 4.45
      vertex 4.45 163.55 4.45
    endloop
  endfacet
  facet normal 0 0.999493 -0.0318361
    outer loop
      vertex 2.45 163.55 4.45
      vertex 4.45 163.546 4.32442
      vertex 2.45 163.546 4.32442
    endloop
  endfacet
  facet normal 0 0.750442 -0.660937
    outer loop
      vertex 4.45 163.008 3.08091
      vertex 2.45 163.091 3.17515
      vertex 4.45 163.091 3.17515
    endloop
  endfacet
  facet normal 0 0.750442 -0.660937
    outer loop
      vertex 2.45 163.091 3.17515
      vertex 4.45 163.008 3.08091
      vertex 2.45 163.008 3.08091
    endloop
  endfacet
  facet normal 0 0.825689 -0.564126
    outer loop
      vertex 4.45 163.168 3.27443
      vertex 2.45 163.239 3.37835
      vertex 4.45 163.239 3.37835
    endloop
  endfacet
  facet normal 0 0.825689 -0.564126
    outer loop
      vertex 2.45 163.239 3.37835
      vertex 4.45 163.168 3.27443
      vertex 2.45 163.168 3.27443
    endloop
  endfacet
  facet normal 0 0.89114 -0.453729
    outer loop
      vertex 4.45 163.303 3.48649
      vertex 2.45 163.36 3.59844
      vertex 4.45 163.36 3.59844
    endloop
  endfacet
  facet normal 0 0.89114 -0.453729
    outer loop
      vertex 2.45 163.36 3.59844
      vertex 4.45 163.303 3.48649
      vertex 2.45 163.303 3.48649
    endloop
  endfacet
  facet normal 0 0.99543 -0.0954925
    outer loop
      vertex 4.45 163.534 4.19933
      vertex 2.45 163.546 4.32442
      vertex 4.45 163.546 4.32442
    endloop
  endfacet
  facet normal 0 0.99543 -0.0954925
    outer loop
      vertex 2.45 163.546 4.32442
      vertex 4.45 163.534 4.19933
      vertex 2.45 163.534 4.19933
    endloop
  endfacet
  facet normal 0 0.278305 -0.960493
    outer loop
      vertex 2.45 162.047 2.51283
      vertex 4.45 162.168 2.54789
      vertex 4.45 162.047 2.51283
    endloop
  endfacet
  facet normal 0 0.278305 -0.960493
    outer loop
      vertex 4.45 162.168 2.54789
      vertex 2.45 162.047 2.51283
      vertex 2.45 162.168 2.54789
    endloop
  endfacet
  facet normal 0 0.0941401 -0.995559
    outer loop
      vertex 2.45 161.676 2.45395
      vertex 4.45 161.801 2.46577
      vertex 4.45 161.676 2.45395
    endloop
  endfacet
  facet normal 0 0.0941401 -0.995559
    outer loop
      vertex 4.45 161.801 2.46577
      vertex 2.45 161.676 2.45395
      vertex 2.45 161.801 2.46577
    endloop
  endfacet
  facet normal 0 0.0313338 -0.999509
    outer loop
      vertex 2.45 161.55 2.45
      vertex 4.45 161.676 2.45395
      vertex 4.45 161.55 2.45
    endloop
  endfacet
  facet normal 0 0.0313338 -0.999509
    outer loop
      vertex 4.45 161.676 2.45395
      vertex 2.45 161.55 2.45
      vertex 2.45 161.676 2.45395
    endloop
  endfacet
  facet normal 0 -0.750295 0.661103
    outer loop
      vertex 2.45 2.90897 55.8248
      vertex 4.45 2.99206 55.9191
      vertex 2.45 2.99206 55.9191
    endloop
  endfacet
  facet normal 0 -0.750295 0.661103
    outer loop
      vertex 4.45 2.99206 55.9191
      vertex 2.45 2.90897 55.8248
      vertex 4.45 2.90897 55.8248
    endloop
  endfacet
  facet normal 0 -0.218076 0.975932
    outer loop
      vertex 2.45 4.07524 56.5146
      vertex 4.45 3.95262 56.4872
      vertex 4.45 4.07524 56.5146
    endloop
  endfacet
  facet normal 0 -0.218076 0.975932
    outer loop
      vertex 4.45 3.95262 56.4872
      vertex 2.45 4.07524 56.5146
      vertex 2.45 3.95262 56.4872
    endloop
  endfacet
  facet normal 0 -0.987681 -0.156482
    outer loop
      vertex 2.45 2.48543 4.07524
      vertex 4.45 2.46577 4.19933
      vertex 2.45 2.46577 4.19933
    endloop
  endfacet
  facet normal 0 -0.987681 -0.156482
    outer loop
      vertex 4.45 2.46577 4.19933
      vertex 2.45 2.48543 4.07524
      vertex 4.45 2.48543 4.07524
    endloop
  endfacet
  facet normal 0 -0.960277 -0.279049
    outer loop
      vertex 2.45 2.54789 3.83197
      vertex 4.45 2.51283 3.95262
      vertex 2.45 2.51283 3.95262
    endloop
  endfacet
  facet normal 0 -0.960277 -0.279049
    outer loop
      vertex 4.45 2.51283 3.95262
      vertex 2.45 2.54789 3.83197
      vertex 4.45 2.54789 3.83197
    endloop
  endfacet
  facet normal 0 -0.790191 -0.61286
    outer loop
      vertex 2.45 2.90897 3.17515
      vertex 4.45 2.83197 3.27443
      vertex 2.45 2.83197 3.27443
    endloop
  endfacet
  facet normal 0 -0.790191 -0.61286
    outer loop
      vertex 4.45 2.83197 3.27443
      vertex 2.45 2.90897 3.17515
      vertex 4.45 2.90897 3.17515
    endloop
  endfacet
  facet normal 0 -0.860755 -0.509019
    outer loop
      vertex 2.45 2.76134 3.37835
      vertex 4.45 2.69739 3.48649
      vertex 2.45 2.69739 3.48649
    endloop
  endfacet
  facet normal 0 -0.860755 -0.509019
    outer loop
      vertex 4.45 2.69739 3.48649
      vertex 2.45 2.76134 3.37835
      vertex 4.45 2.76134 3.37835
    endloop
  endfacet
  facet normal 0 -0.827058 -0.562116
    outer loop
      vertex 2.45 2.83197 3.27443
      vertex 4.45 2.76134 3.37835
      vertex 2.45 2.76134 3.37835
    endloop
  endfacet
  facet normal 0 -0.827058 -0.562116
    outer loop
      vertex 4.45 2.76134 3.37835
      vertex 2.45 2.83197 3.27443
      vertex 4.45 2.83197 3.27443
    endloop
  endfacet
  facet normal 0 -0.0940729 -0.995565
    outer loop
      vertex 2.45 4.19933 2.46577
      vertex 4.45 4.32442 2.45395
      vertex 4.45 4.19933 2.46577
    endloop
  endfacet
  facet normal -0 -0.0940729 -0.995565
    outer loop
      vertex 4.45 4.32442 2.45395
      vertex 2.45 4.19933 2.46577
      vertex 2.45 4.32442 2.45395
    endloop
  endfacet
  facet normal 0 -0.562116 -0.827058
    outer loop
      vertex 2.45 3.27443 2.83197
      vertex 4.45 3.37835 2.76134
      vertex 4.45 3.27443 2.83197
    endloop
  endfacet
  facet normal -0 -0.562116 -0.827058
    outer loop
      vertex 4.45 3.37835 2.76134
      vertex 2.45 3.27443 2.83197
      vertex 2.45 3.37835 2.76134
    endloop
  endfacet
  facet normal 0 -0.338725 -0.940885
    outer loop
      vertex 2.45 3.71375 2.59045
      vertex 4.45 3.83197 2.54789
      vertex 4.45 3.71375 2.59045
    endloop
  endfacet
  facet normal -0 -0.338725 -0.940885
    outer loop
      vertex 4.45 3.83197 2.54789
      vertex 2.45 3.71375 2.59045
      vertex 2.45 3.83197 2.54789
    endloop
  endfacet
  facet normal 0 -0.453982 -0.891011
    outer loop
      vertex 2.45 3.48649 2.69739
      vertex 4.45 3.59844 2.64035
      vertex 4.45 3.48649 2.69739
    endloop
  endfacet
  facet normal -0 -0.453982 -0.891011
    outer loop
      vertex 4.45 3.59844 2.64035
      vertex 2.45 3.48649 2.69739
      vertex 2.45 3.59844 2.64035
    endloop
  endfacet
  facet normal 0 0.988482 0.151339
    outer loop
      vertex 4.45 163.534 54.8007
      vertex 2.45 163.515 54.9248
      vertex 4.45 163.515 54.9248
    endloop
  endfacet
  facet normal 0 0.988482 0.151339
    outer loop
      vertex 2.45 163.515 54.9248
      vertex 4.45 163.534 54.8007
      vertex 2.45 163.534 54.8007
    endloop
  endfacet
  facet normal -0 0.4542 0.8909
    outer loop
      vertex 2.45 162.514 56.3026
      vertex 4.45 162.402 56.3597
      vertex 4.45 162.514 56.3026
    endloop
  endfacet
  facet normal 0 0.4542 0.8909
    outer loop
      vertex 4.45 162.402 56.3597
      vertex 2.45 162.514 56.3026
      vertex 2.45 162.402 56.3597
    endloop
  endfacet
  facet normal 0 0.790191 -0.61286
    outer loop
      vertex 4.45 163.091 3.17515
      vertex 2.45 163.168 3.27443
      vertex 4.45 163.168 3.27443
    endloop
  endfacet
  facet normal 0 0.790191 -0.61286
    outer loop
      vertex 2.45 163.168 3.27443
      vertex 4.45 163.091 3.17515
      vertex 2.45 163.091 3.17515
    endloop
  endfacet
  facet normal 0 0.960405 -0.278609
    outer loop
      vertex 4.45 163.452 3.83197
      vertex 2.45 163.487 3.95262
      vertex 4.45 163.487 3.95262
    endloop
  endfacet
  facet normal 0 0.960405 -0.278609
    outer loop
      vertex 2.45 163.487 3.95262
      vertex 4.45 163.452 3.83197
      vertex 2.45 163.452 3.83197
    endloop
  endfacet
  facet normal 0 0.9423 -0.334771
    outer loop
      vertex 4.45 163.41 3.71375
      vertex 2.45 163.452 3.83197
      vertex 4.45 163.452 3.83197
    endloop
  endfacet
  facet normal 0 0.9423 -0.334771
    outer loop
      vertex 2.45 163.452 3.83197
      vertex 4.45 163.41 3.71375
      vertex 2.45 163.41 3.71375
    endloop
  endfacet
  facet normal 0 0.98848 -0.151351
    outer loop
      vertex 4.45 163.515 4.07524
      vertex 2.45 163.534 4.19933
      vertex 4.45 163.534 4.19933
    endloop
  endfacet
  facet normal 0 0.98848 -0.151351
    outer loop
      vertex 2.45 163.534 4.19933
      vertex 4.45 163.515 4.07524
      vertex 2.45 163.515 4.07524
    endloop
  endfacet
  facet normal 0 0.613941 -0.789352
    outer loop
      vertex 2.45 162.726 2.83197
      vertex 4.45 162.825 2.90897
      vertex 4.45 162.726 2.83197
    endloop
  endfacet
  facet normal 0 0.613941 -0.789352
    outer loop
      vertex 4.45 162.825 2.90897
      vertex 2.45 162.726 2.83197
      vertex 2.45 162.825 2.90897
    endloop
  endfacet
  facet normal 0 0.662288 -0.749249
    outer loop
      vertex 2.45 162.825 2.90897
      vertex 4.45 162.919 2.99206
      vertex 4.45 162.825 2.90897
    endloop
  endfacet
  facet normal 0 0.662288 -0.749249
    outer loop
      vertex 4.45 162.919 2.99206
      vertex 2.45 162.825 2.90897
      vertex 2.45 162.919 2.99206
    endloop
  endfacet
  facet normal 0 0.70651 -0.707703
    outer loop
      vertex 4.45 162.919 2.99206
      vertex 2.45 163.008 3.08091
      vertex 4.45 163.008 3.08091
    endloop
  endfacet
  facet normal 0 0.70651 -0.707703
    outer loop
      vertex 2.45 163.008 3.08091
      vertex 4.45 162.919 2.99206
      vertex 2.45 162.919 2.99206
    endloop
  endfacet
  facet normal 0 0.509508 -0.860466
    outer loop
      vertex 2.45 162.514 2.69739
      vertex 4.45 162.622 2.76134
      vertex 4.45 162.514 2.69739
    endloop
  endfacet
  facet normal 0 0.509508 -0.860466
    outer loop
      vertex 4.45 162.622 2.76134
      vertex 2.45 162.514 2.69739
      vertex 2.45 162.622 2.76134
    endloop
  endfacet
  facet normal 0 0.219132 -0.975695
    outer loop
      vertex 2.45 161.925 2.48543
      vertex 4.45 162.047 2.51283
      vertex 4.45 161.925 2.48543
    endloop
  endfacet
  facet normal 0 0.219132 -0.975695
    outer loop
      vertex 4.45 162.047 2.51283
      vertex 2.45 161.925 2.48543
      vertex 2.45 162.047 2.51283
    endloop
  endfacet
  facet normal 0 -0.987683 0.156469
    outer loop
      vertex 2.45 2.46577 54.8007
      vertex 4.45 2.48543 54.9248
      vertex 2.45 2.48543 54.9248
    endloop
  endfacet
  facet normal 0 -0.987683 0.156469
    outer loop
      vertex 4.45 2.48543 54.9248
      vertex 2.45 2.46577 54.8007
      vertex 4.45 2.46577 54.8007
    endloop
  endfacet
  facet normal 0 -0.999506 0.0314335
    outer loop
      vertex 2.45 2.45 54.55
      vertex 4.45 2.45395 54.6756
      vertex 2.45 2.45395 54.6756
    endloop
  endfacet
  facet normal 0 -0.999506 0.0314335
    outer loop
      vertex 4.45 2.45395 54.6756
      vertex 2.45 2.45 54.55
      vertex 4.45 2.45 54.55
    endloop
  endfacet
  facet normal 0 -0.706908 0.707306
    outer loop
      vertex 2.45 2.99206 55.9191
      vertex 4.45 3.08091 56.0079
      vertex 2.45 3.08091 56.0079
    endloop
  endfacet
  facet normal 0 -0.706908 0.707306
    outer loop
      vertex 4.45 3.08091 56.0079
      vertex 2.45 2.99206 55.9191
      vertex 4.45 2.99206 55.9191
    endloop
  endfacet
  facet normal 0 -0.789952 0.613168
    outer loop
      vertex 2.45 2.83197 55.7256
      vertex 4.45 2.90897 55.8248
      vertex 2.45 2.90897 55.8248
    endloop
  endfacet
  facet normal 0 -0.789952 0.613168
    outer loop
      vertex 4.45 2.90897 55.8248
      vertex 2.45 2.83197 55.7256
      vertex 4.45 2.83197 55.7256
    endloop
  endfacet
  facet normal 0 -0.562497 0.826799
    outer loop
      vertex 2.45 3.37835 56.2387
      vertex 4.45 3.27443 56.168
      vertex 4.45 3.37835 56.2387
    endloop
  endfacet
  facet normal 0 -0.562497 0.826799
    outer loop
      vertex 4.45 3.27443 56.168
      vertex 2.45 3.37835 56.2387
      vertex 2.45 3.27443 56.168
    endloop
  endfacet
  facet normal 0 -0.338302 0.941038
    outer loop
      vertex 2.45 3.83197 56.4521
      vertex 4.45 3.71375 56.4096
      vertex 4.45 3.83197 56.4521
    endloop
  endfacet
  facet normal 0 -0.338302 0.941038
    outer loop
      vertex 4.45 3.71375 56.4096
      vertex 2.45 3.83197 56.4521
      vertex 2.45 3.71375 56.4096
    endloop
  endfacet
  facet normal 0 -0.454361 0.890818
    outer loop
      vertex 2.45 3.59844 56.3597
      vertex 4.45 3.48649 56.3026
      vertex 4.45 3.59844 56.3597
    endloop
  endfacet
  facet normal 0 -0.454361 0.890818
    outer loop
      vertex 4.45 3.48649 56.3026
      vertex 2.45 3.59844 56.3597
      vertex 2.45 3.48649 56.3026
    endloop
  endfacet
  facet normal 0 -0.156016 0.987755
    outer loop
      vertex 2.45 4.19933 56.5342
      vertex 4.45 4.07524 56.5146
      vertex 4.45 4.19933 56.5342
    endloop
  endfacet
  facet normal 0 -0.156016 0.987755
    outer loop
      vertex 4.45 4.07524 56.5146
      vertex 2.45 4.19933 56.5342
      vertex 2.45 4.07524 56.5146
    endloop
  endfacet
  facet normal -1 0 0
    outer loop
      vertex 2.45 49.9 16.2
      vertex 2.45 47 16.2
      vertex 2.45 49.9 19.8
    endloop
  endfacet
  facet normal -1 0 0
    outer loop
      vertex 2.45 161.55 2.45
      vertex 2.45 163.55 4.45
      vertex 2.45 163.546 4.32442
    endloop
  endfacet
  facet normal -1 -0 0
    outer loop
      vertex 2.45 163.55 4.45
      vertex 2.45 161.55 2.45
      vertex 2.45 163.55 54.55
    endloop
  endfacet
  facet normal -1 0 0
    outer loop
      vertex 2.45 161.55 2.45
      vertex 2.45 163.546 4.32442
      vertex 2.45 163.534 4.19933
    endloop
  endfacet
  facet normal -1 0 0
    outer loop
      vertex 2.45 161.55 56.55
      vertex 2.45 163.55 54.55
      vertex 2.45 161.55 2.45
    endloop
  endfacet
  facet normal -1 0 0
    outer loop
      vertex 2.45 161.55 2.45
      vertex 2.45 163.534 4.19933
      vertex 2.45 163.515 4.07524
    endloop
  endfacet
  facet normal -1 0 0
    outer loop
      vertex 2.45 163.55 54.55
      vertex 2.45 161.55 56.55
      vertex 2.45 163.546 54.6756
    endloop
  endfacet
  facet normal -1 0 0
    outer loop
      vertex 2.45 161.55 2.45
      vertex 2.45 163.515 4.07524
      vertex 2.45 163.487 3.95262
    endloop
  endfacet
  facet normal -1 0 0
    outer loop
      vertex 2.45 163.546 54.6756
      vertex 2.45 161.55 56.55
      vertex 2.45 163.534 54.8007
    endloop
  endfacet
  facet normal -1 0 0
    outer loop
      vertex 2.45 161.55 2.45
      vertex 2.45 163.487 3.95262
      vertex 2.45 163.452 3.83197
    endloop
  endfacet
  facet normal -1 0 0
    outer loop
      vertex 2.45 163.534 54.8007
      vertex 2.45 161.55 56.55
      vertex 2.45 163.515 54.9248
    endloop
  endfacet
  facet normal -1 0 0
    outer loop
      vertex 2.45 161.55 2.45
      vertex 2.45 163.452 3.83197
      vertex 2.45 163.41 3.71375
    endloop
  endfacet
  facet normal -1 0 0
    outer loop
      vertex 2.45 163.515 54.9248
      vertex 2.45 161.55 56.55
      vertex 2.45 163.487 55.0474
    endloop
  endfacet
  facet normal -1 0 0
    outer loop
      vertex 2.45 161.55 2.45
      vertex 2.45 163.41 3.71375
      vertex 2.45 163.36 3.59844
    endloop
  endfacet
  facet normal -1 0 0
    outer loop
      vertex 2.45 163.487 55.0474
      vertex 2.45 161.55 56.55
      vertex 2.45 163.452 55.168
    endloop
  endfacet
  facet normal -1 0 0
    outer loop
      vertex 2.45 161.55 2.45
      vertex 2.45 163.36 3.59844
      vertex 2.45 163.303 3.48649
    endloop
  endfacet
  facet normal -1 0 0
    outer loop
      vertex 2.45 163.452 55.168
      vertex 2.45 161.55 56.55
      vertex 2.45 163.41 55.2862
    endloop
  endfacet
  facet normal -1 0 0
    outer loop
      vertex 2.45 161.55 2.45
      vertex 2.45 163.303 3.48649
      vertex 2.45 163.239 3.37835
    endloop
  endfacet
  facet normal -1 0 0
    outer loop
      vertex 2.45 163.41 55.2862
      vertex 2.45 161.55 56.55
      vertex 2.45 163.36 55.4016
    endloop
  endfacet
  facet normal -1 0 0
    outer loop
      vertex 2.45 161.55 2.45
      vertex 2.45 163.239 3.37835
      vertex 2.45 163.168 3.27443
    endloop
  endfacet
  facet normal -1 0 0
    outer loop
      vertex 2.45 163.36 55.4016
      vertex 2.45 161.55 56.55
      vertex 2.45 163.303 55.5135
    endloop
  endfacet
  facet normal -1 0 0
    outer loop
      vertex 2.45 161.55 2.45
      vertex 2.45 163.168 3.27443
      vertex 2.45 163.091 3.17515
    endloop
  endfacet
  facet normal -1 0 0
    outer loop
      vertex 2.45 163.303 55.5135
      vertex 2.45 161.55 56.55
      vertex 2.45 163.239 55.6217
    endloop
  endfacet
  facet normal -1 0 0
    outer loop
      vertex 2.45 161.55 2.45
      vertex 2.45 163.091 3.17515
      vertex 2.45 163.008 3.08091
    endloop
  endfacet
  facet normal -1 0 0
    outer loop
      vertex 2.45 163.239 55.6217
      vertex 2.45 161.55 56.55
      vertex 2.45 163.168 55.7256
    endloop
  endfacet
  facet normal -1 0 0
    outer loop
      vertex 2.45 161.55 2.45
      vertex 2.45 163.008 3.08091
      vertex 2.45 162.919 2.99206
    endloop
  endfacet
  facet normal -1 0 0
    outer loop
      vertex 2.45 163.168 55.7256
      vertex 2.45 161.55 56.55
      vertex 2.45 163.091 55.8248
    endloop
  endfacet
  facet normal -1 0 0
    outer loop
      vertex 2.45 161.55 2.45
      vertex 2.45 162.919 2.99206
      vertex 2.45 162.825 2.90897
    endloop
  endfacet
  facet normal -1 0 0
    outer loop
      vertex 2.45 163.091 55.8248
      vertex 2.45 161.55 56.55
      vertex 2.45 163.008 55.9191
    endloop
  endfacet
  facet normal -1 0 0
    outer loop
      vertex 2.45 161.55 2.45
      vertex 2.45 162.825 2.90897
      vertex 2.45 162.726 2.83197
    endloop
  endfacet
  facet normal -1 0 0
    outer loop
      vertex 2.45 163.008 55.9191
      vertex 2.45 161.55 56.55
      vertex 2.45 162.919 56.0079
    endloop
  endfacet
  facet normal -1 0 0
    outer loop
      vertex 2.45 161.55 2.45
      vertex 2.45 162.726 2.83197
      vertex 2.45 162.622 2.76134
    endloop
  endfacet
  facet normal -1 0 0
    outer loop
      vertex 2.45 162.919 56.0079
      vertex 2.45 161.55 56.55
      vertex 2.45 162.825 56.091
    endloop
  endfacet
  facet normal -1 0 0
    outer loop
      vertex 2.45 161.55 2.45
      vertex 2.45 162.622 2.76134
      vertex 2.45 162.514 2.69739
    endloop
  endfacet
  facet normal -1 0 0
    outer loop
      vertex 2.45 162.825 56.091
      vertex 2.45 161.55 56.55
      vertex 2.45 162.726 56.168
    endloop
  endfacet
  facet normal -1 0 0
    outer loop
      vertex 2.45 161.55 2.45
      vertex 2.45 162.514 2.69739
      vertex 2.45 162.402 2.64035
    endloop
  endfacet
  facet normal -1 0 0
    outer loop
      vertex 2.45 162.726 56.168
      vertex 2.45 161.55 56.55
      vertex 2.45 162.622 56.2387
    endloop
  endfacet
  facet normal -1 0 0
    outer loop
      vertex 2.45 161.55 2.45
      vertex 2.45 162.402 2.64035
      vertex 2.45 162.286 2.59045
    endloop
  endfacet
  facet normal -1 0 0
    outer loop
      vertex 2.45 162.622 56.2387
      vertex 2.45 161.55 56.55
      vertex 2.45 162.514 56.3026
    endloop
  endfacet
  facet normal -1 0 0
    outer loop
      vertex 2.45 161.55 2.45
      vertex 2.45 162.286 2.59045
      vertex 2.45 162.168 2.54789
    endloop
  endfacet
  facet normal -1 0 0
    outer loop
      vertex 2.45 162.514 56.3026
      vertex 2.45 161.55 56.55
      vertex 2.45 162.402 56.3597
    endloop
  endfacet
  facet normal -1 0 0
    outer loop
      vertex 2.45 161.55 2.45
      vertex 2.45 162.168 2.54789
      vertex 2.45 162.047 2.51283
    endloop
  endfacet
  facet normal -1 0 0
    outer loop
      vertex 2.45 162.402 56.3597
      vertex 2.45 161.55 56.55
      vertex 2.45 162.286 56.4096
    endloop
  endfacet
  facet normal -1 0 0
    outer loop
      vertex 2.45 161.55 2.45
      vertex 2.45 162.047 2.51283
      vertex 2.45 161.925 2.48543
    endloop
  endfacet
  facet normal -1 0 0
    outer loop
      vertex 2.45 162.286 56.4096
      vertex 2.45 161.55 56.55
      vertex 2.45 162.168 56.4521
    endloop
  endfacet
  facet normal -1 0 0
    outer loop
      vertex 2.45 161.55 2.45
      vertex 2.45 161.925 2.48543
      vertex 2.45 161.801 2.46577
    endloop
  endfacet
  facet normal -1 0 0
    outer loop
      vertex 2.45 162.168 56.4521
      vertex 2.45 161.55 56.55
      vertex 2.45 162.047 56.4872
    endloop
  endfacet
  facet normal -1 0 0
    outer loop
      vertex 2.45 161.55 2.45
      vertex 2.45 161.801 2.46577
      vertex 2.45 161.676 2.45395
    endloop
  endfacet
  facet normal -1 0 0
    outer loop
      vertex 2.45 162.047 56.4872
      vertex 2.45 161.55 56.55
      vertex 2.45 161.925 56.5146
    endloop
  endfacet
  facet normal -1 0 0
    outer loop
      vertex 2.45 161.925 56.5146
      vertex 2.45 161.55 56.55
      vertex 2.45 161.801 56.5342
    endloop
  endfacet
  facet normal -1 0 0
    outer loop
      vertex 2.45 161.801 56.5342
      vertex 2.45 161.55 56.55
      vertex 2.45 161.676 56.5461
    endloop
  endfacet
  facet normal -1 0 0
    outer loop
      vertex 2.45 58 16.2
      vertex 2.45 161.55 2.45
      vertex 2.45 58 11.7
    endloop
  endfacet
  facet normal -1 0 0
    outer loop
      vertex 2.45 4.45 2.45
      vertex 2.45 58 11.7
      vertex 2.45 161.55 2.45
    endloop
  endfacet
  facet normal -1 -0 0
    outer loop
      vertex 2.45 47 11.7
      vertex 2.45 4.45 2.45
      vertex 2.45 47 16.2
    endloop
  endfacet
  facet normal -1 -0 0
    outer loop
      vertex 2.45 58 11.7
      vertex 2.45 4.45 2.45
      vertex 2.45 47 11.7
    endloop
  endfacet
  facet normal -1 0 0
    outer loop
      vertex 2.45 161.55 2.45
      vertex 2.45 58 16.2
      vertex 2.45 161.55 56.55
    endloop
  endfacet
  facet normal -1 0 0
    outer loop
      vertex 2.45 55.1 19.8
      vertex 2.45 58 16.2
      vertex 2.45 55.1 16.2
    endloop
  endfacet
  facet normal -1 0 0
    outer loop
      vertex 2.45 58 16.2
      vertex 2.45 55.1 19.8
      vertex 2.45 161.55 56.55
    endloop
  endfacet
  facet normal -1 0 0
    outer loop
      vertex 2.45 4.45 56.55
      vertex 2.45 55.1 19.8
      vertex 2.45 49.9 19.8
    endloop
  endfacet
  facet normal -1 0 0
    outer loop
      vertex 2.45 2.45 4.45
      vertex 2.45 47 16.2
      vertex 2.45 4.45 2.45
    endloop
  endfacet
  facet normal -1 0 0
    outer loop
      vertex 2.45 55.1 19.8
      vertex 2.45 4.45 56.55
      vertex 2.45 161.55 56.55
    endloop
  endfacet
  facet normal -1 0 0
    outer loop
      vertex 2.45 2.45 54.55
      vertex 2.45 47 16.2
      vertex 2.45 2.45 4.45
    endloop
  endfacet
  facet normal -1 0 0
    outer loop
      vertex 2.45 2.45 4.45
      vertex 2.45 4.45 2.45
      vertex 2.45 4.32442 2.45395
    endloop
  endfacet
  facet normal -1 0 -0
    outer loop
      vertex 2.45 4.45 56.55
      vertex 2.45 47 16.2
      vertex 2.45 2.45 54.55
    endloop
  endfacet
  facet normal -1 0 0
    outer loop
      vertex 2.45 2.45 4.45
      vertex 2.45 4.32442 2.45395
      vertex 2.45 4.19933 2.46577
    endloop
  endfacet
  facet normal -1 0 0
    outer loop
      vertex 2.45 47 16.2
      vertex 2.45 4.45 56.55
      vertex 2.45 49.9 19.8
    endloop
  endfacet
  facet normal -1 0 0
    outer loop
      vertex 2.45 2.45 4.45
      vertex 2.45 4.19933 2.46577
      vertex 2.45 4.07524 2.48543
    endloop
  endfacet
  facet normal -1 0 0
    outer loop
      vertex 2.45 4.45 56.55
      vertex 2.45 2.45 54.55
      vertex 2.45 4.32442 56.5461
    endloop
  endfacet
  facet normal -1 0 0
    outer loop
      vertex 2.45 2.45 4.45
      vertex 2.45 4.07524 2.48543
      vertex 2.45 3.95262 2.51283
    endloop
  endfacet
  facet normal -1 0 0
    outer loop
      vertex 2.45 4.32442 56.5461
      vertex 2.45 2.45 54.55
      vertex 2.45 4.19933 56.5342
    endloop
  endfacet
  facet normal -1 0 0
    outer loop
      vertex 2.45 2.45 4.45
      vertex 2.45 3.95262 2.51283
      vertex 2.45 3.83197 2.54789
    endloop
  endfacet
  facet normal -1 0 0
    outer loop
      vertex 2.45 4.19933 56.5342
      vertex 2.45 2.45 54.55
      vertex 2.45 4.07524 56.5146
    endloop
  endfacet
  facet normal -1 0 0
    outer loop
      vertex 2.45 2.45 4.45
      vertex 2.45 3.83197 2.54789
      vertex 2.45 3.71375 2.59045
    endloop
  endfacet
  facet normal -1 0 0
    outer loop
      vertex 2.45 4.07524 56.5146
      vertex 2.45 2.45 54.55
      vertex 2.45 3.95262 56.4872
    endloop
  endfacet
  facet normal -1 0 0
    outer loop
      vertex 2.45 2.45 4.45
      vertex 2.45 3.71375 2.59045
      vertex 2.45 3.59844 2.64035
    endloop
  endfacet
  facet normal -1 0 0
    outer loop
      vertex 2.45 3.95262 56.4872
      vertex 2.45 2.45 54.55
      vertex 2.45 3.83197 56.4521
    endloop
  endfacet
  facet normal -1 0 0
    outer loop
      vertex 2.45 2.45 4.45
      vertex 2.45 3.59844 2.64035
      vertex 2.45 3.48649 2.69739
    endloop
  endfacet
  facet normal -1 0 0
    outer loop
      vertex 2.45 3.83197 56.4521
      vertex 2.45 2.45 54.55
      vertex 2.45 3.71375 56.4096
    endloop
  endfacet
  facet normal -1 0 0
    outer loop
      vertex 2.45 2.45 4.45
      vertex 2.45 3.48649 2.69739
      vertex 2.45 3.37835 2.76134
    endloop
  endfacet
  facet normal -1 0 0
    outer loop
      vertex 2.45 3.71375 56.4096
      vertex 2.45 2.45 54.55
      vertex 2.45 3.59844 56.3597
    endloop
  endfacet
  facet normal -1 0 0
    outer loop
      vertex 2.45 2.45 4.45
      vertex 2.45 3.37835 2.76134
      vertex 2.45 3.27443 2.83197
    endloop
  endfacet
  facet normal -1 0 0
    outer loop
      vertex 2.45 3.59844 56.3597
      vertex 2.45 2.45 54.55
      vertex 2.45 3.48649 56.3026
    endloop
  endfacet
  facet normal -1 0 0
    outer loop
      vertex 2.45 2.45 4.45
      vertex 2.45 3.27443 2.83197
      vertex 2.45 3.17515 2.90897
    endloop
  endfacet
  facet normal -1 0 0
    outer loop
      vertex 2.45 3.48649 56.3026
      vertex 2.45 2.45 54.55
      vertex 2.45 3.37835 56.2387
    endloop
  endfacet
  facet normal -1 0 0
    outer loop
      vertex 2.45 2.45 4.45
      vertex 2.45 3.17515 2.90897
      vertex 2.45 3.08091 2.99206
    endloop
  endfacet
  facet normal -1 0 0
    outer loop
      vertex 2.45 3.37835 56.2387
      vertex 2.45 2.45 54.55
      vertex 2.45 3.27443 56.168
    endloop
  endfacet
  facet normal -1 0 0
    outer loop
      vertex 2.45 2.45 4.45
      vertex 2.45 3.08091 2.99206
      vertex 2.45 2.99206 3.08091
    endloop
  endfacet
  facet normal -1 0 0
    outer loop
      vertex 2.45 3.27443 56.168
      vertex 2.45 2.45 54.55
      vertex 2.45 3.17515 56.091
    endloop
  endfacet
  facet normal -1 0 0
    outer loop
      vertex 2.45 2.45 4.45
      vertex 2.45 2.99206 3.08091
      vertex 2.45 2.90897 3.17515
    endloop
  endfacet
  facet normal -1 0 0
    outer loop
      vertex 2.45 3.17515 56.091
      vertex 2.45 2.45 54.55
      vertex 2.45 3.08091 56.0079
    endloop
  endfacet
  facet normal -1 0 0
    outer loop
      vertex 2.45 2.45 4.45
      vertex 2.45 2.90897 3.17515
      vertex 2.45 2.83197 3.27443
    endloop
  endfacet
  facet normal -1 0 0
    outer loop
      vertex 2.45 3.08091 56.0079
      vertex 2.45 2.45 54.55
      vertex 2.45 2.99206 55.9191
    endloop
  endfacet
  facet normal -1 0 0
    outer loop
      vertex 2.45 2.45 4.45
      vertex 2.45 2.83197 3.27443
      vertex 2.45 2.76134 3.37835
    endloop
  endfacet
  facet normal -1 0 0
    outer loop
      vertex 2.45 2.99206 55.9191
      vertex 2.45 2.45 54.55
      vertex 2.45 2.90897 55.8248
    endloop
  endfacet
  facet normal -1 0 0
    outer loop
      vertex 2.45 2.45 4.45
      vertex 2.45 2.76134 3.37835
      vertex 2.45 2.69739 3.48649
    endloop
  endfacet
  facet normal -1 0 0
    outer loop
      vertex 2.45 2.90897 55.8248
      vertex 2.45 2.45 54.55
      vertex 2.45 2.83197 55.7256
    endloop
  endfacet
  facet normal -1 0 0
    outer loop
      vertex 2.45 2.45 4.45
      vertex 2.45 2.69739 3.48649
      vertex 2.45 2.64035 3.59844
    endloop
  endfacet
  facet normal -1 0 0
    outer loop
      vertex 2.45 2.83197 55.7256
      vertex 2.45 2.45 54.55
      vertex 2.45 2.76134 55.6217
    endloop
  endfacet
  facet normal -1 0 0
    outer loop
      vertex 2.45 2.45 4.45
      vertex 2.45 2.64035 3.59844
      vertex 2.45 2.59045 3.71375
    endloop
  endfacet
  facet normal -1 0 0
    outer loop
      vertex 2.45 2.76134 55.6217
      vertex 2.45 2.45 54.55
      vertex 2.45 2.69739 55.5135
    endloop
  endfacet
  facet normal -1 0 0
    outer loop
      vertex 2.45 2.45 4.45
      vertex 2.45 2.59045 3.71375
      vertex 2.45 2.54789 3.83197
    endloop
  endfacet
  facet normal -1 0 0
    outer loop
      vertex 2.45 2.69739 55.5135
      vertex 2.45 2.45 54.55
      vertex 2.45 2.64035 55.4016
    endloop
  endfacet
  facet normal -1 0 0
    outer loop
      vertex 2.45 2.45 4.45
      vertex 2.45 2.54789 3.83197
      vertex 2.45 2.51283 3.95262
    endloop
  endfacet
  facet normal -1 0 0
    outer loop
      vertex 2.45 2.64035 55.4016
      vertex 2.45 2.45 54.55
      vertex 2.45 2.59045 55.2862
    endloop
  endfacet
  facet normal -1 0 0
    outer loop
      vertex 2.45 2.45 4.45
      vertex 2.45 2.51283 3.95262
      vertex 2.45 2.48543 4.07524
    endloop
  endfacet
  facet normal -1 0 0
    outer loop
      vertex 2.45 2.59045 55.2862
      vertex 2.45 2.45 54.55
      vertex 2.45 2.54789 55.168
    endloop
  endfacet
  facet normal -1 0 0
    outer loop
      vertex 2.45 2.45 4.45
      vertex 2.45 2.48543 4.07524
      vertex 2.45 2.46577 4.19933
    endloop
  endfacet
  facet normal -1 0 0
    outer loop
      vertex 2.45 2.54789 55.168
      vertex 2.45 2.45 54.55
      vertex 2.45 2.51283 55.0474
    endloop
  endfacet
  facet normal -1 0 0
    outer loop
      vertex 2.45 2.45 4.45
      vertex 2.45 2.46577 4.19933
      vertex 2.45 2.45395 4.32442
    endloop
  endfacet
  facet normal -1 0 0
    outer loop
      vertex 2.45 2.51283 55.0474
      vertex 2.45 2.45 54.55
      vertex 2.45 2.48543 54.9248
    endloop
  endfacet
  facet normal -1 0 0
    outer loop
      vertex 2.45 2.48543 54.9248
      vertex 2.45 2.45 54.55
      vertex 2.45 2.46577 54.8007
    endloop
  endfacet
  facet normal -1 0 0
    outer loop
      vertex 2.45 2.46577 54.8007
      vertex 2.45 2.45 54.55
      vertex 2.45 2.45395 54.6756
    endloop
  endfacet
  facet normal 0 -0.995565 -0.0940729
    outer loop
      vertex 2.45 2.46577 4.19933
      vertex 4.45 2.45395 4.32442
      vertex 2.45 2.45395 4.32442
    endloop
  endfacet
  facet normal 0 -0.995565 -0.0940729
    outer loop
      vertex 4.45 2.45395 4.32442
      vertex 2.45 2.46577 4.19933
      vertex 4.45 2.46577 4.19933
    endloop
  endfacet
  facet normal 0 -0.940885 -0.338725
    outer loop
      vertex 2.45 2.59045 3.71375
      vertex 4.45 2.54789 3.83197
      vertex 2.45 2.54789 3.83197
    endloop
  endfacet
  facet normal 0 -0.940885 -0.338725
    outer loop
      vertex 4.45 2.54789 3.83197
      vertex 2.45 2.59045 3.71375
      vertex 4.45 2.59045 3.71375
    endloop
  endfacet
  facet normal 0 -0.750086 -0.66134
    outer loop
      vertex 2.45 2.99206 3.08091
      vertex 4.45 2.90897 3.17515
      vertex 2.45 2.90897 3.17515
    endloop
  endfacet
  facet normal 0 -0.750086 -0.66134
    outer loop
      vertex 4.45 2.90897 3.17515
      vertex 2.45 2.99206 3.08091
      vertex 4.45 2.99206 3.08091
    endloop
  endfacet
  facet normal 0 -0.891011 -0.453982
    outer loop
      vertex 2.45 2.69739 3.48649
      vertex 4.45 2.64035 3.59844
      vertex 2.45 2.64035 3.59844
    endloop
  endfacet
  facet normal 0 -0.891011 -0.453982
    outer loop
      vertex 4.45 2.64035 3.59844
      vertex 2.45 2.69739 3.48649
      vertex 4.45 2.69739 3.48649
    endloop
  endfacet
  facet normal 0 -0.279049 -0.960277
    outer loop
      vertex 2.45 3.83197 2.54789
      vertex 4.45 3.95262 2.51283
      vertex 4.45 3.83197 2.54789
    endloop
  endfacet
  facet normal -0 -0.279049 -0.960277
    outer loop
      vertex 4.45 3.95262 2.51283
      vertex 2.45 3.83197 2.54789
      vertex 2.45 3.95262 2.51283
    endloop
  endfacet
  facet normal 0 -0.397154 -0.917752
    outer loop
      vertex 2.45 3.59844 2.64035
      vertex 4.45 3.71375 2.59045
      vertex 4.45 3.59844 2.64035
    endloop
  endfacet
  facet normal -0 -0.397154 -0.917752
    outer loop
      vertex 4.45 3.71375 2.59045
      vertex 2.45 3.59844 2.64035
      vertex 2.45 3.71375 2.59045
    endloop
  endfacet
  facet normal 0 -0.61286 -0.790191
    outer loop
      vertex 2.45 3.17515 2.90897
      vertex 4.45 3.27443 2.83197
      vertex 4.45 3.17515 2.90897
    endloop
  endfacet
  facet normal -0 -0.61286 -0.790191
    outer loop
      vertex 4.45 3.27443 2.83197
      vertex 2.45 3.17515 2.90897
      vertex 2.45 3.27443 2.83197
    endloop
  endfacet
  facet normal 0 -0.66134 -0.750086
    outer loop
      vertex 2.45 3.08091 2.99206
      vertex 4.45 3.17515 2.90897
      vertex 4.45 3.08091 2.99206
    endloop
  endfacet
  facet normal -0 -0.66134 -0.750086
    outer loop
      vertex 4.45 3.17515 2.90897
      vertex 2.45 3.08091 2.99206
      vertex 2.45 3.17515 2.90897
    endloop
  endfacet
  facet normal 0 -0.917865 0.396893
    outer loop
      vertex 2.45 2.59045 55.2862
      vertex 4.45 2.64035 55.4016
      vertex 2.45 2.64035 55.4016
    endloop
  endfacet
  facet normal 0 -0.917865 0.396893
    outer loop
      vertex 4.45 2.64035 55.4016
      vertex 2.45 2.59045 55.2862
      vertex 4.45 2.59045 55.2862
    endloop
  endfacet
  facet normal 0 -0.890929 0.454143
    outer loop
      vertex 2.45 2.64035 55.4016
      vertex 4.45 2.69739 55.5135
      vertex 2.45 2.69739 55.5135
    endloop
  endfacet
  facet normal 0 -0.890929 0.454143
    outer loop
      vertex 4.45 2.69739 55.5135
      vertex 2.45 2.64035 55.4016
      vertex 4.45 2.64035 55.4016
    endloop
  endfacet
  facet normal 0 -0.995566 0.0940655
    outer loop
      vertex 2.45 2.45395 54.6756
      vertex 4.45 2.46577 54.8007
      vertex 2.45 2.46577 54.8007
    endloop
  endfacet
  facet normal 0 -0.995566 0.0940655
    outer loop
      vertex 4.45 2.46577 54.8007
      vertex 2.45 2.45395 54.6756
      vertex 4.45 2.45395 54.6756
    endloop
  endfacet
  facet normal 0 -0.661385 0.750047
    outer loop
      vertex 2.45 3.17515 56.091
      vertex 4.45 3.08091 56.0079
      vertex 4.45 3.17515 56.091
    endloop
  endfacet
  facet normal 0 -0.661385 0.750047
    outer loop
      vertex 4.45 3.08091 56.0079
      vertex 2.45 3.17515 56.091
      vertex 2.45 3.08091 56.0079
    endloop
  endfacet
  facet normal 0 -0.61286 0.790191
    outer loop
      vertex 2.45 3.27443 56.168
      vertex 4.45 3.17515 56.091
      vertex 4.45 3.27443 56.168
    endloop
  endfacet
  facet normal 0 -0.61286 0.790191
    outer loop
      vertex 4.45 3.17515 56.091
      vertex 2.45 3.27443 56.168
      vertex 2.45 3.17515 56.091
    endloop
  endfacet
  facet normal 0 -0.508724 0.86093
    outer loop
      vertex 2.45 3.48649 56.3026
      vertex 4.45 3.37835 56.2387
      vertex 4.45 3.48649 56.3026
    endloop
  endfacet
  facet normal 0 -0.508724 0.86093
    outer loop
      vertex 4.45 3.37835 56.2387
      vertex 2.45 3.48649 56.3026
      vertex 2.45 3.37835 56.2387
    endloop
  endfacet
  facet normal 0 -0.397154 0.917752
    outer loop
      vertex 2.45 3.71375 56.4096
      vertex 4.45 3.59844 56.3597
      vertex 4.45 3.71375 56.4096
    endloop
  endfacet
  facet normal 0 -0.397154 0.917752
    outer loop
      vertex 4.45 3.59844 56.3597
      vertex 2.45 3.71375 56.4096
      vertex 2.45 3.59844 56.3597
    endloop
  endfacet
  facet normal 0 0.453821 -0.891093
    outer loop
      vertex 2.45 162.402 2.64035
      vertex 4.45 162.514 2.69739
      vertex 4.45 162.402 2.64035
    endloop
  endfacet
  facet normal 0 0.453821 -0.891093
    outer loop
      vertex 4.45 162.514 2.69739
      vertex 2.45 162.402 2.64035
      vertex 2.45 162.514 2.69739
    endloop
  endfacet
  facet normal 0 0.395161 -0.918612
    outer loop
      vertex 2.45 162.286 2.59045
      vertex 4.45 162.402 2.64035
      vertex 4.45 162.286 2.59045
    endloop
  endfacet
  facet normal 0 0.395161 -0.918612
    outer loop
      vertex 4.45 162.402 2.64035
      vertex 2.45 162.286 2.59045
      vertex 2.45 162.402 2.64035
    endloop
  endfacet
  facet normal 0 -0.960246 0.279156
    outer loop
      vertex 2.45 2.51283 55.0474
      vertex 4.45 2.54789 55.168
      vertex 2.45 2.54789 55.168
    endloop
  endfacet
  facet normal 0 -0.960246 0.279156
    outer loop
      vertex 4.45 2.54789 55.168
      vertex 2.45 2.51283 55.0474
      vertex 4.45 2.51283 55.0474
    endloop
  endfacet
  facet normal 0 -0.940867 0.338776
    outer loop
      vertex 2.45 2.54789 55.168
      vertex 4.45 2.59045 55.2862
      vertex 2.45 2.59045 55.2862
    endloop
  endfacet
  facet normal 0 -0.940867 0.338776
    outer loop
      vertex 4.45 2.59045 55.2862
      vertex 2.45 2.54789 55.168
      vertex 4.45 2.54789 55.168
    endloop
  endfacet
  facet normal 0 -0.860879 0.50881
    outer loop
      vertex 2.45 2.69739 55.5135
      vertex 4.45 2.76134 55.6217
      vertex 2.45 2.76134 55.6217
    endloop
  endfacet
  facet normal 0 -0.860879 0.50881
    outer loop
      vertex 4.45 2.76134 55.6217
      vertex 2.45 2.69739 55.5135
      vertex 4.45 2.69739 55.5135
    endloop
  endfacet
  facet normal 0 -0.827008 0.56219
    outer loop
      vertex 2.45 2.76134 55.6217
      vertex 4.45 2.83197 55.7256
      vertex 2.45 2.83197 55.7256
    endloop
  endfacet
  facet normal 0 -0.827008 0.56219
    outer loop
      vertex 4.45 2.83197 55.7256
      vertex 2.45 2.76134 55.6217
      vertex 4.45 2.76134 55.6217
    endloop
  endfacet
  facet normal 0 -0.975924 0.21811
    outer loop
      vertex 2.45 2.48543 54.9248
      vertex 4.45 2.51283 55.0474
      vertex 2.45 2.51283 55.0474
    endloop
  endfacet
  facet normal 0 -0.975924 0.21811
    outer loop
      vertex 4.45 2.51283 55.0474
      vertex 2.45 2.48543 54.9248
      vertex 4.45 2.48543 54.9248
    endloop
  endfacet
endsolid OpenSCAD_Model
